<?xml version="1.0" encoding="UTF-8" standalone="no"?>
<!DOCTYPE svg PUBLIC "-//W3C//DTD SVG 1.1//EN"
 "http://www.w3.org/Graphics/SVG/1.1/DTD/svg11.dtd">
<!-- Generated by graphviz version 2.43.0 (0)
 -->
<!-- Title: include/comppare/internal/ansi.hpp Pages: 1 -->
<svg width="336pt" height="170pt"
 viewBox="0.00 0.00 335.50 170.00" xmlns="http://www.w3.org/2000/svg" xmlns:xlink="http://www.w3.org/1999/xlink">

<svg id="main" version="1.1" xmlns="http://www.w3.org/2000/svg" xmlns:xlink="http://www.w3.org/1999/xlink" xml:space="preserve" onload="init(evt)">
<style type="text/css"><![CDATA[
.node, .edge {opacity: 0.7;}
.node.selected, .edge.selected {opacity: 1;}
.edge:hover path { stroke: red; }
.edge:hover polygon { stroke: red; fill: red; }
]]></style>
<script type="application/ecmascript" xlink:href="svg.min.js"/>
<svg id="graph" class="graph">
<g id="graph0" class="graph" transform="scale(1 1) rotate(0) translate(4 166)">
<title>include/comppare/internal/ansi.hpp</title>
<!-- Node1 -->
<g id="Node000001" class="node">
<title>Node1</title>
<g id="a_Node000001"><a xlink:title="This file contains utilities for applying ANSI styles and colors to console output.">
<polygon fill="#999999" stroke="#666666" points="160,-162 16,-162 16,-132 160,-132 160,-162"/>
<text text-anchor="start" x="24" y="-150" font-family="Helvetica,sans-Serif" font-size="10.00">include/comppare/internal</text>
<text text-anchor="middle" x="88" y="-139" font-family="Helvetica,sans-Serif" font-size="10.00">/ansi.hpp</text>
</a>
</g>
</g>
<!-- Node2 -->
<g id="Node000002" class="node">
<title>Node2</title>
<g id="a_Node000002"><a xlink:href="comppare_8hpp.html" target="_top" xlink:title="This file is the main include file for the ComPPare framework.">
<polygon fill="white" stroke="#666666" points="176,-19 0,-19 0,0 176,0 176,-19"/>
<text text-anchor="middle" x="88" y="-7" font-family="Helvetica,sans-Serif" font-size="10.00">include/comppare/comppare.hpp</text>
</a>
</g>
</g>
<!-- Node1&#45;&gt;Node2 -->
<g id="edge1_Node000001_Node000002" class="edge">
<title>Node1&#45;&gt;Node2</title>
<g id="a_edge1_Node000001_Node000002"><a xlink:title=" ">
<path fill="none" stroke="#63b8ff" d="M39.9,-127.03C26.9,-119.43 14.39,-109.25 7,-96 -1.88,-80.09 -2.28,-70.68 7,-55 17.7,-36.91 38.66,-25.68 56.58,-19.03"/>
<polygon fill="#63b8ff" stroke="#63b8ff" points="38.47,-130.23 48.93,-131.89 41.78,-124.07 38.47,-130.23"/>
</a>
</g>
</g>
<!-- Node3 -->
<g id="Node000003" class="node">
<title>Node3</title>
<g id="a_Node000003"><a xlink:href="policy_8hpp.html" target="_top" xlink:title="This file contains error policies for comparing values in the ComPPare library.">
<polygon fill="white" stroke="#666666" points="160,-90.5 16,-90.5 16,-60.5 160,-60.5 160,-90.5"/>
<text text-anchor="start" x="24" y="-78.5" font-family="Helvetica,sans-Serif" font-size="10.00">include/comppare/internal</text>
<text text-anchor="middle" x="88" y="-67.5" font-family="Helvetica,sans-Serif" font-size="10.00">/policy.hpp</text>
</a>
</g>
</g>
<!-- Node1&#45;&gt;Node3 -->
<g id="edge2_Node000001_Node000003" class="edge">
<title>Node1&#45;&gt;Node3</title>
<g id="a_edge2_Node000001_Node000003"><a xlink:title=" ">
<path fill="none" stroke="#63b8ff" d="M88,-121.75C88,-111.31 88,-99.49 88,-90.54"/>
<polygon fill="#63b8ff" stroke="#63b8ff" points="84.5,-121.94 88,-131.94 91.5,-121.94 84.5,-121.94"/>
</a>
</g>
</g>
<!-- Node4 -->
<g id="Node000004" class="node">
<title>Node4</title>
<g id="a_Node000004"><a xlink:href="google__benchmark_8hpp.html" target="_top" xlink:title="This file contains the Google Benchmark plugin for the ComPPare framework.">
<polygon fill="white" stroke="#666666" points="327.5,-96 178.5,-96 178.5,-55 327.5,-55 327.5,-96"/>
<text text-anchor="start" x="186.5" y="-84" font-family="Helvetica,sans-Serif" font-size="10.00">include/comppare/plugin</text>
<text text-anchor="start" x="186.5" y="-73" font-family="Helvetica,sans-Serif" font-size="10.00">/google_benchmark/google</text>
<text text-anchor="middle" x="253" y="-62" font-family="Helvetica,sans-Serif" font-size="10.00">_benchmark.hpp</text>
</a>
</g>
</g>
<!-- Node1&#45;&gt;Node4 -->
<g id="edge4_Node000001_Node000004" class="edge">
<title>Node1&#45;&gt;Node4</title>
<g id="a_edge4_Node000001_Node000004"><a xlink:title=" ">
<path fill="none" stroke="#63b8ff" d="M130.66,-128.03C153.91,-118.24 182.71,-106.11 206.53,-96.07"/>
<polygon fill="#63b8ff" stroke="#63b8ff" points="129.25,-124.83 121.39,-131.94 131.96,-131.28 129.25,-124.83"/>
</a>
</g>
</g>
<!-- Node3&#45;&gt;Node2 -->
<g id="edge3_Node000003_Node000002" class="edge">
<title>Node3&#45;&gt;Node2</title>
<g id="a_edge3_Node000003_Node000002"><a xlink:title=" ">
<path fill="none" stroke="#63b8ff" d="M88,-50.1C88,-39.3 88,-27.28 88,-19.34"/>
<polygon fill="#63b8ff" stroke="#63b8ff" points="84.5,-50.3 88,-60.3 91.5,-50.3 84.5,-50.3"/>
</a>
</g>
</g>
<!-- Node4&#45;&gt;Node2 -->
<g id="edge5_Node000004_Node000002" class="edge">
<title>Node4&#45;&gt;Node2</title>
<g id="a_edge5_Node000004_Node000002"><a xlink:title=" ">
<path fill="none" stroke="#63b8ff" d="M192.99,-51.22C164.13,-40.03 131.3,-27.3 110.15,-19.09"/>
<polygon fill="#63b8ff" stroke="#63b8ff" points="192.01,-54.6 202.6,-54.95 194.54,-48.07 192.01,-54.6"/>
</a>
</g>
</g>
</g>
</svg>
</svg>

<style type='text/css'>
<![CDATA[
[data-mouse-over-selected='false'] { opacity: 0.7; }
[data-mouse-over-selected='true']  { opacity: 1.0; }
]]>
</style>
<script type="application/ecmascript"><![CDATA[
document.addEventListener('DOMContentLoaded', (event) => {
  highlightEdges();
  highlightAdjacentNodes();
});
]]></script>
</svg>
