<?xml version="1.0" encoding="UTF-8" standalone="no"?>
<!DOCTYPE svg PUBLIC "-//W3C//DTD SVG 1.1//EN"
 "http://www.w3.org/Graphics/SVG/1.1/DTD/svg11.dtd">
<!-- Generated by graphviz version 2.43.0 (0)
 -->
<!-- Title: comppare::plugin::nvbenchplugin::nvbenchPlugin&lt; InTup, OutTup &gt; Pages: 1 -->
<svg width="685pt" height="86pt"
 viewBox="0.00 0.00 685.00 86.00" xmlns="http://www.w3.org/2000/svg" xmlns:xlink="http://www.w3.org/1999/xlink">
<g id="graph0" class="graph" transform="scale(1 1) rotate(0) translate(4 82)">
<title>comppare::plugin::nvbenchplugin::nvbenchPlugin&lt; InTup, OutTup &gt;</title>
<!-- Node1 -->
<g id="Node000001" class="node">
<title>Node1</title>
<g id="a_Node000001"><a xlink:title="NVBench plugin for the ComPPare framework.">
<polygon fill="#999999" stroke="#666666" points="677,-54 495,-54 495,-24 677,-24 677,-54"/>
<text text-anchor="start" x="503" y="-42" font-family="Helvetica,sans-Serif" font-size="10.00">comppare::plugin::nvbenchplugin</text>
<text text-anchor="middle" x="586" y="-31" font-family="Helvetica,sans-Serif" font-size="10.00">::nvbenchPlugin&lt; InTup, OutTup &gt;</text>
</a>
</g>
</g>
<!-- Node2 -->
<g id="Node000002" class="node">
<title>Node2</title>
<g id="a_Node000002"><a xlink:href="classcomppare_1_1plugin_1_1Plugin.html" target="_top" xlink:title="Base class for plugins in the ComPPare framework.">
<polygon fill="white" stroke="#666666" points="417,-78 280,-78 280,-48 417,-48 417,-78"/>
<text text-anchor="start" x="288" y="-66" font-family="Helvetica,sans-Serif" font-size="10.00">comppare::plugin::Plugin</text>
<text text-anchor="middle" x="348.5" y="-55" font-family="Helvetica,sans-Serif" font-size="10.00">&lt; InTup, OutTup &gt;</text>
</a>
</g>
</g>
<!-- Node2&#45;&gt;Node1 -->
<g id="edge1_Node000001_Node000002" class="edge">
<title>Node2&#45;&gt;Node1</title>
<g id="a_edge1_Node000001_Node000002"><a xlink:title=" ">
<path fill="none" stroke="#63b8ff" d="M427.4,-55.06C449.01,-52.86 472.65,-50.45 494.89,-48.18"/>
<polygon fill="#63b8ff" stroke="#63b8ff" points="426.89,-51.59 417.3,-56.09 427.6,-58.56 426.89,-51.59"/>
</a>
</g>
</g>
<!-- Node3 -->
<g id="Node000003" class="node">
<title>Node3</title>
<g id="a_Node000003"><a xlink:href="classcomppare_1_1plugin_1_1nvbenchplugin_1_1nvbench__manager.html" target="_top" xlink:title="Manager class for NVBench integration.">
<polygon fill="white" stroke="#666666" points="438,-30 259,-30 259,0 438,0 438,-30"/>
<text text-anchor="start" x="267" y="-18" font-family="Helvetica,sans-Serif" font-size="10.00">comppare::plugin::nvbenchplugin</text>
<text text-anchor="middle" x="348.5" y="-7" font-family="Helvetica,sans-Serif" font-size="10.00">::nvbench_manager</text>
</a>
</g>
</g>
<!-- Node3&#45;&gt;Node1 -->
<g id="edge2_Node000001_Node000003" class="edge">
<title>Node3&#45;&gt;Node1</title>
<g id="a_edge2_Node000001_Node000003"><a xlink:title=" ">
<path fill="none" stroke="#9a32cd" stroke-dasharray="5,2" d="M448.26,-25.07C463.7,-26.64 479.58,-28.26 494.82,-29.81"/>
<polygon fill="#9a32cd" stroke="#9a32cd" points="448.5,-21.57 438.2,-24.04 447.79,-28.54 448.5,-21.57"/>
</a>
</g>
<text text-anchor="middle" x="466.5" y="-30" font-family="Helvetica,sans-Serif" font-size="10.00" fill="grey"> nb_</text>
</g>
<!-- Node4 -->
<g id="Node000004" class="node">
<title>Node4</title>
<g id="a_Node000004"><a xlink:href="classcomppare_1_1plugin_1_1PluginArgParser.html" target="_top" xlink:title="Argument parser for plugin command&#45;line arguments.">
<polygon fill="white" stroke="#666666" points="137,-30 0,-30 0,0 137,0 137,-30"/>
<text text-anchor="start" x="8" y="-18" font-family="Helvetica,sans-Serif" font-size="10.00">comppare::plugin::Plugin</text>
<text text-anchor="middle" x="68.5" y="-7" font-family="Helvetica,sans-Serif" font-size="10.00">ArgParser</text>
</a>
</g>
</g>
<!-- Node4&#45;&gt;Node3 -->
<g id="edge3_Node000003_Node000004" class="edge">
<title>Node4&#45;&gt;Node3</title>
<g id="a_edge3_Node000003_Node000004"><a xlink:title=" ">
<path fill="none" stroke="#9a32cd" stroke-dasharray="5,2" d="M147.24,-15C181.96,-15 223.06,-15 258.96,-15"/>
<polygon fill="#9a32cd" stroke="#9a32cd" points="147.15,-11.5 137.15,-15 147.15,-18.5 147.15,-11.5"/>
</a>
</g>
<text text-anchor="middle" x="198" y="-18" font-family="Helvetica,sans-Serif" font-size="10.00" fill="grey"> nvbench_parser_</text>
</g>
</g>
</svg>
