<?xml version="1.0" encoding="UTF-8" standalone="no"?>
<!DOCTYPE svg PUBLIC "-//W3C//DTD SVG 1.1//EN"
 "http://www.w3.org/Graphics/SVG/1.1/DTD/svg11.dtd">
<!-- Generated by graphviz version 2.43.0 (0)
 -->
<!-- Title: comppare::plugin::google_benchmark::GoogleBenchmarkPlugin&lt; InTup, OutTup &gt; Pages: 1 -->
<svg width="697pt" height="98pt"
 viewBox="0.00 0.00 697.00 97.50" xmlns="http://www.w3.org/2000/svg" xmlns:xlink="http://www.w3.org/1999/xlink">
<g id="graph0" class="graph" transform="scale(1 1) rotate(0) translate(4 93.5)">
<title>comppare::plugin::google_benchmark::GoogleBenchmarkPlugin&lt; InTup, OutTup &gt;</title>
<!-- Node1 -->
<g id="Node000001" class="node">
<title>Node1</title>
<g id="a_Node000001"><a xlink:title="Google Benchmark plugin for the ComPPare framework.">
<polygon fill="#999999" stroke="#666666" points="689,-68 486,-68 486,-27 689,-27 689,-68"/>
<text text-anchor="start" x="494" y="-56" font-family="Helvetica,sans-Serif" font-size="10.00">comppare::plugin::google</text>
<text text-anchor="start" x="494" y="-45" font-family="Helvetica,sans-Serif" font-size="10.00">_benchmark::GoogleBenchmarkPlugin</text>
<text text-anchor="middle" x="587.5" y="-34" font-family="Helvetica,sans-Serif" font-size="10.00">&lt; InTup, OutTup &gt;</text>
</a>
</g>
</g>
<!-- Node2 -->
<g id="Node000002" class="node">
<title>Node2</title>
<g id="a_Node000002"><a xlink:href="classcomppare_1_1plugin_1_1Plugin.html" target="_top" xlink:title="Base class for plugins in the ComPPare framework.">
<polygon fill="white" stroke="#666666" points="409.5,-89.5 272.5,-89.5 272.5,-59.5 409.5,-59.5 409.5,-89.5"/>
<text text-anchor="start" x="280.5" y="-77.5" font-family="Helvetica,sans-Serif" font-size="10.00">comppare::plugin::Plugin</text>
<text text-anchor="middle" x="341" y="-66.5" font-family="Helvetica,sans-Serif" font-size="10.00">&lt; InTup, OutTup &gt;</text>
</a>
</g>
</g>
<!-- Node2&#45;&gt;Node1 -->
<g id="edge1_Node000001_Node000002" class="edge">
<title>Node2&#45;&gt;Node1</title>
<g id="a_edge1_Node000001_Node000002"><a xlink:title=" ">
<path fill="none" stroke="#63b8ff" d="M419.87,-65.9C440.76,-63.59 463.66,-61.07 485.61,-58.64"/>
<polygon fill="#63b8ff" stroke="#63b8ff" points="419.34,-62.44 409.78,-67.01 420.11,-69.4 419.34,-62.44"/>
</a>
</g>
</g>
<!-- Node3 -->
<g id="Node000003" class="node">
<title>Node3</title>
<g id="a_Node000003"><a xlink:href="classcomppare_1_1plugin_1_1google__benchmark_1_1google__benchmark__manager.html" target="_top" xlink:title="Manager class for Google Benchmark integration.">
<polygon fill="white" stroke="#666666" points="429,-41 253,-41 253,0 429,0 429,-41"/>
<text text-anchor="start" x="261" y="-29" font-family="Helvetica,sans-Serif" font-size="10.00">comppare::plugin::google</text>
<text text-anchor="start" x="261" y="-18" font-family="Helvetica,sans-Serif" font-size="10.00">_benchmark::google_benchmark</text>
<text text-anchor="middle" x="341" y="-7" font-family="Helvetica,sans-Serif" font-size="10.00">_manager</text>
</a>
</g>
</g>
<!-- Node3&#45;&gt;Node1 -->
<g id="edge2_Node000001_Node000003" class="edge">
<title>Node3&#45;&gt;Node1</title>
<g id="a_edge2_Node000001_Node000003"><a xlink:title=" ">
<path fill="none" stroke="#9a32cd" stroke-dasharray="5,2" d="M439.24,-31.24C454.61,-32.94 470.52,-34.69 485.96,-36.4"/>
<polygon fill="#9a32cd" stroke="#9a32cd" points="439.56,-27.75 429.23,-30.13 438.79,-34.71 439.56,-27.75"/>
</a>
</g>
<text text-anchor="middle" x="457.5" y="-37.5" font-family="Helvetica,sans-Serif" font-size="10.00" fill="grey"> gb_</text>
</g>
<!-- Node4 -->
<g id="Node000004" class="node">
<title>Node4</title>
<g id="a_Node000004"><a xlink:href="classcomppare_1_1plugin_1_1PluginArgParser.html" target="_top" xlink:title="Argument parser for plugin command&#45;line arguments.">
<polygon fill="white" stroke="#666666" points="137,-35.5 0,-35.5 0,-5.5 137,-5.5 137,-35.5"/>
<text text-anchor="start" x="8" y="-23.5" font-family="Helvetica,sans-Serif" font-size="10.00">comppare::plugin::Plugin</text>
<text text-anchor="middle" x="68.5" y="-12.5" font-family="Helvetica,sans-Serif" font-size="10.00">ArgParser</text>
</a>
</g>
</g>
<!-- Node4&#45;&gt;Node3 -->
<g id="edge3_Node000003_Node000004" class="edge">
<title>Node4&#45;&gt;Node3</title>
<g id="a_edge3_Node000003_Node000004"><a xlink:title=" ">
<path fill="none" stroke="#9a32cd" stroke-dasharray="5,2" d="M147.12,-20.5C180.17,-20.5 218.86,-20.5 252.88,-20.5"/>
<polygon fill="#9a32cd" stroke="#9a32cd" points="147.06,-17 137.06,-20.5 147.06,-24 147.06,-17"/>
</a>
</g>
<text text-anchor="middle" x="195" y="-23.5" font-family="Helvetica,sans-Serif" font-size="10.00" fill="grey"> gbench_parser_</text>
</g>
</g>
</svg>
