<?xml version="1.0" encoding="UTF-8" standalone="no"?>
<!DOCTYPE svg PUBLIC "-//W3C//DTD SVG 1.1//EN"
 "http://www.w3.org/Graphics/SVG/1.1/DTD/svg11.dtd">
<!-- Generated by graphviz version 2.43.0 (0)
 -->
<!-- Title: include/comppare/comppare.hpp Pages: 1 -->
<svg width="2625pt" height="258pt"
 viewBox="0.00 0.00 2624.64 258.00" xmlns="http://www.w3.org/2000/svg" xmlns:xlink="http://www.w3.org/1999/xlink">
<g id="graph0" class="graph" transform="scale(1 1) rotate(0) translate(4 254)">
<title>include/comppare/comppare.hpp</title>
<!-- Node1 -->
<g id="Node000001" class="node">
<title>Node1</title>
<g id="a_Node000001"><a xlink:title="This file is the main include file for the ComPPare framework.">
<polygon fill="#999999" stroke="#666666" points="1496.64,-250 1320.64,-250 1320.64,-231 1496.64,-231 1496.64,-250"/>
<text text-anchor="middle" x="1408.64" y="-238" font-family="Helvetica,sans-Serif" font-size="10.00">include/comppare/comppare.hpp</text>
</a>
</g>
</g>
<!-- Node2 -->
<g id="Node000002" class="node">
<title>Node2</title>
<g id="a_Node000002"><a xlink:title=" ">
<polygon fill="#e0e0e0" stroke="#999999" points="52.64,-74 2.64,-74 2.64,-55 52.64,-55 52.64,-74"/>
<text text-anchor="middle" x="27.64" y="-62" font-family="Helvetica,sans-Serif" font-size="10.00">chrono</text>
</a>
</g>
</g>
<!-- Node1&#45;&gt;Node2 -->
<g id="edge1_Node000001_Node000002" class="edge">
<title>Node1&#45;&gt;Node2</title>
<g id="a_edge1_Node000001_Node000002"><a xlink:title=" ">
<path fill="none" stroke="#63b8ff" d="M1320.43,-238.98C1026.6,-236.94 96.46,-227.89 41.64,-195 6.16,-173.71 -6.49,-150.12 3.64,-110 6.05,-100.44 10.97,-90.7 15.73,-82.78"/>
<polygon fill="#63b8ff" stroke="#63b8ff" points="18.81,-84.46 21.28,-74.16 12.92,-80.68 18.81,-84.46"/>
</a>
</g>
</g>
<!-- Node3 -->
<g id="Node000003" class="node">
<title>Node3</title>
<g id="a_Node000003"><a xlink:title=" ">
<polygon fill="#e0e0e0" stroke="#999999" points="2556.14,-189.5 2509.14,-189.5 2509.14,-170.5 2556.14,-170.5 2556.14,-189.5"/>
<text text-anchor="middle" x="2532.64" y="-177.5" font-family="Helvetica,sans-Serif" font-size="10.00">cmath</text>
</a>
</g>
</g>
<!-- Node1&#45;&gt;Node3 -->
<g id="edge2_Node000001_Node000003" class="edge">
<title>Node1&#45;&gt;Node3</title>
<g id="a_edge2_Node000001_Node000003"><a xlink:title=" ">
<path fill="none" stroke="#63b8ff" d="M1496.96,-239.42C1720.54,-238.64 2304.62,-232.92 2494.64,-195 2497.49,-194.43 2500.4,-193.68 2503.29,-192.83"/>
<polygon fill="#63b8ff" stroke="#63b8ff" points="2504.5,-196.11 2512.86,-189.61 2502.27,-189.48 2504.5,-196.11"/>
</a>
</g>
</g>
<!-- Node4 -->
<g id="Node000004" class="node">
<title>Node4</title>
<g id="a_Node000004"><a xlink:title=" ">
<polygon fill="#e0e0e0" stroke="#999999" points="1318.14,-129 1253.14,-129 1253.14,-110 1318.14,-110 1318.14,-129"/>
<text text-anchor="middle" x="1285.64" y="-117" font-family="Helvetica,sans-Serif" font-size="10.00">functional</text>
</a>
</g>
</g>
<!-- Node1&#45;&gt;Node4 -->
<g id="edge3_Node000001_Node000004" class="edge">
<title>Node1&#45;&gt;Node4</title>
<g id="a_edge3_Node000001_Node000004"><a xlink:title=" ">
<path fill="none" stroke="#63b8ff" d="M1386.18,-230.93C1368.87,-223.46 1345.18,-211.28 1328.64,-195 1312.23,-178.84 1299.98,-155.12 1292.84,-138.8"/>
<polygon fill="#63b8ff" stroke="#63b8ff" points="1295.97,-137.2 1288.9,-129.31 1289.5,-139.89 1295.97,-137.2"/>
</a>
</g>
</g>
<!-- Node5 -->
<g id="Node000005" class="node">
<title>Node5</title>
<g id="a_Node000005"><a xlink:title=" ">
<polygon fill="#e0e0e0" stroke="#999999" points="2432.64,-74 2376.64,-74 2376.64,-55 2432.64,-55 2432.64,-74"/>
<text text-anchor="middle" x="2404.64" y="-62" font-family="Helvetica,sans-Serif" font-size="10.00">iomanip</text>
</a>
</g>
</g>
<!-- Node1&#45;&gt;Node5 -->
<g id="edge4_Node000001_Node000005" class="edge">
<title>Node1&#45;&gt;Node5</title>
<g id="a_edge4_Node000001_Node000005"><a xlink:title=" ">
<path fill="none" stroke="#63b8ff" d="M1496.92,-237.42C1670.67,-232.82 2051.28,-220.16 2179.64,-195 2268.6,-177.56 2304.29,-188.55 2372.64,-129 2386.29,-117.11 2394.8,-98.01 2399.58,-83.86"/>
<polygon fill="#63b8ff" stroke="#63b8ff" points="2402.96,-84.79 2402.54,-74.2 2396.26,-82.74 2402.96,-84.79"/>
</a>
</g>
</g>
<!-- Node6 -->
<g id="Node000006" class="node">
<title>Node6</title>
<g id="a_Node000006"><a xlink:title=" ">
<polygon fill="#e0e0e0" stroke="#999999" points="1650.64,-129 1590.64,-129 1590.64,-110 1650.64,-110 1650.64,-129"/>
<text text-anchor="middle" x="1620.64" y="-117" font-family="Helvetica,sans-Serif" font-size="10.00">iostream</text>
</a>
</g>
</g>
<!-- Node1&#45;&gt;Node6 -->
<g id="edge5_Node000001_Node000006" class="edge">
<title>Node1&#45;&gt;Node6</title>
<g id="a_edge5_Node000001_Node000006"><a xlink:title=" ">
<path fill="none" stroke="#63b8ff" d="M1433.59,-230.93C1455.75,-222.89 1488.71,-209.91 1515.64,-195 1547.81,-177.19 1581.99,-151.51 1602.32,-135.42"/>
<polygon fill="#63b8ff" stroke="#63b8ff" points="1604.51,-138.15 1610.13,-129.17 1600.14,-132.68 1604.51,-138.15"/>
</a>
</g>
</g>
<!-- Node7 -->
<g id="Node000007" class="node">
<title>Node7</title>
<g id="a_Node000007"><a xlink:title=" ">
<polygon fill="#e0e0e0" stroke="#999999" points="856.64,-19 812.64,-19 812.64,0 856.64,0 856.64,-19"/>
<text text-anchor="middle" x="834.64" y="-7" font-family="Helvetica,sans-Serif" font-size="10.00">string</text>
</a>
</g>
</g>
<!-- Node1&#45;&gt;Node7 -->
<g id="edge6_Node000001_Node000007" class="edge">
<title>Node1&#45;&gt;Node7</title>
<g id="a_edge6_Node000001_Node000007"><a xlink:title=" ">
<path fill="none" stroke="#63b8ff" d="M1320.42,-238.21C1128.31,-234.88 684.39,-224.09 622.64,-195 556.35,-163.77 537.37,-142.23 510.64,-74 482.63,-2.49 565.45,-55.8 791.64,-19 795.13,-18.43 798.76,-17.79 802.38,-17.12"/>
<polygon fill="#63b8ff" stroke="#63b8ff" points="803.22,-20.53 812.38,-15.2 801.89,-13.65 803.22,-20.53"/>
</a>
</g>
</g>
<!-- Node8 -->
<g id="Node000008" class="node">
<title>Node8</title>
<g id="a_Node000008"><a xlink:title=" ">
<polygon fill="#e0e0e0" stroke="#999999" points="2098.14,-74 2051.14,-74 2051.14,-55 2098.14,-55 2098.14,-74"/>
<text text-anchor="middle" x="2074.64" y="-62" font-family="Helvetica,sans-Serif" font-size="10.00">vector</text>
</a>
</g>
</g>
<!-- Node1&#45;&gt;Node8 -->
<g id="edge7_Node000001_Node000008" class="edge">
<title>Node1&#45;&gt;Node8</title>
<g id="a_edge7_Node000001_Node000008"><a xlink:title=" ">
<path fill="none" stroke="#63b8ff" d="M1496.82,-235.97C1720.18,-226.09 2294.37,-194.51 2347.64,-129 2352.97,-122.45 2353.11,-116.43 2347.64,-110 2317.29,-74.3 2174.59,-67.17 2108.45,-65.8"/>
<polygon fill="#63b8ff" stroke="#63b8ff" points="2108.21,-62.29 2098.15,-65.62 2108.09,-69.29 2108.21,-62.29"/>
</a>
</g>
</g>
<!-- Node9 -->
<g id="Node000009" class="node">
<title>Node9</title>
<g id="a_Node000009"><a xlink:title=" ">
<polygon fill="#e0e0e0" stroke="#999999" points="2616.64,-189.5 2574.64,-189.5 2574.64,-170.5 2616.64,-170.5 2616.64,-189.5"/>
<text text-anchor="middle" x="2595.64" y="-177.5" font-family="Helvetica,sans-Serif" font-size="10.00">array</text>
</a>
</g>
</g>
<!-- Node1&#45;&gt;Node9 -->
<g id="edge8_Node000001_Node000009" class="edge">
<title>Node1&#45;&gt;Node9</title>
<g id="a_edge8_Node000001_Node000009"><a xlink:title=" ">
<path fill="none" stroke="#63b8ff" d="M1496.9,-238.12C1749.37,-233.89 2463.01,-219.85 2565.64,-195 2567.33,-194.59 2569.04,-194.08 2570.74,-193.51"/>
<polygon fill="#63b8ff" stroke="#63b8ff" points="2572.26,-196.66 2580.19,-189.64 2569.61,-190.19 2572.26,-196.66"/>
</a>
</g>
</g>
<!-- Node10 -->
<g id="Node000010" class="node">
<title>Node10</title>
<g id="a_Node000010"><a xlink:title=" ">
<polygon fill="#e0e0e0" stroke="#999999" points="1572.64,-129 1514.64,-129 1514.64,-110 1572.64,-110 1572.64,-129"/>
<text text-anchor="middle" x="1543.64" y="-117" font-family="Helvetica,sans-Serif" font-size="10.00">memory</text>
</a>
</g>
</g>
<!-- Node1&#45;&gt;Node10 -->
<g id="edge9_Node000001_Node000010" class="edge">
<title>Node1&#45;&gt;Node10</title>
<g id="a_edge9_Node000001_Node000010"><a xlink:title=" ">
<path fill="none" stroke="#63b8ff" d="M1429.87,-230.97C1447.22,-223.3 1471.72,-210.82 1489.64,-195 1508.29,-178.55 1524.23,-154.55 1533.86,-138.27"/>
<polygon fill="#63b8ff" stroke="#63b8ff" points="1537.08,-139.69 1539,-129.27 1531,-136.22 1537.08,-139.69"/>
</a>
</g>
</g>
<!-- Node11 -->
<g id="Node000011" class="node">
<title>Node11</title>
<g id="a_Node000011"><a xlink:title=" ">
<polygon fill="#e0e0e0" stroke="#999999" points="234.14,-74 161.14,-74 161.14,-55 234.14,-55 234.14,-74"/>
<text text-anchor="middle" x="197.64" y="-62" font-family="Helvetica,sans-Serif" font-size="10.00">string_view</text>
</a>
</g>
</g>
<!-- Node1&#45;&gt;Node11 -->
<g id="edge10_Node000001_Node000011" class="edge">
<title>Node1&#45;&gt;Node11</title>
<g id="a_edge10_Node000001_Node000011"><a xlink:title=" ">
<path fill="none" stroke="#63b8ff" d="M1320.26,-238.08C1056.38,-233.58 285.58,-218.57 174.64,-195 97.79,-178.67 54.62,-194.11 10.64,-129 5.91,-122 5.41,-116.63 10.64,-110 27.78,-88.3 101.09,-76.05 150.66,-70.1"/>
<polygon fill="#63b8ff" stroke="#63b8ff" points="151.32,-73.55 160.85,-68.93 150.52,-66.6 151.32,-73.55"/>
</a>
</g>
</g>
<!-- Node12 -->
<g id="Node000012" class="node">
<title>Node12</title>
<g id="a_Node000012"><a xlink:title=" ">
<polygon fill="#e0e0e0" stroke="#999999" points="1216.64,-19 1156.64,-19 1156.64,0 1216.64,0 1216.64,-19"/>
<text text-anchor="middle" x="1186.64" y="-7" font-family="Helvetica,sans-Serif" font-size="10.00">concepts</text>
</a>
</g>
</g>
<!-- Node1&#45;&gt;Node12 -->
<g id="edge11_Node000001_Node000012" class="edge">
<title>Node1&#45;&gt;Node12</title>
<g id="a_edge11_Node000001_Node000012"><a xlink:title=" ">
<path fill="none" stroke="#63b8ff" d="M1496.74,-239.53C1685.01,-238.86 2121.02,-233.08 2263.64,-195 2360.88,-169.04 2511.54,-127.42 2441.64,-55 2398.51,-10.31 1437.46,-9.92 1227.09,-10.38"/>
<polygon fill="#63b8ff" stroke="#63b8ff" points="1226.8,-6.88 1216.81,-10.4 1226.82,-13.88 1226.8,-6.88"/>
</a>
</g>
</g>
<!-- Node13 -->
<g id="Node000013" class="node">
<title>Node13</title>
<g id="a_Node000013"><a xlink:title=" ">
<polygon fill="#e0e0e0" stroke="#999999" points="585.14,-74 520.14,-74 520.14,-55 585.14,-55 585.14,-74"/>
<text text-anchor="middle" x="552.64" y="-62" font-family="Helvetica,sans-Serif" font-size="10.00">stdexcept</text>
</a>
</g>
</g>
<!-- Node1&#45;&gt;Node13 -->
<g id="edge12_Node000001_Node000013" class="edge">
<title>Node1&#45;&gt;Node13</title>
<g id="a_edge12_Node000001_Node000013"><a xlink:title=" ">
<path fill="none" stroke="#63b8ff" d="M1320.53,-237.11C1165.28,-232.33 849.21,-219.82 741.64,-195 665.89,-177.52 635.03,-183.56 579.64,-129 567.25,-116.8 560.23,-98.01 556.47,-84.03"/>
<polygon fill="#63b8ff" stroke="#63b8ff" points="559.83,-83 554.12,-74.07 553.01,-84.61 559.83,-83"/>
</a>
</g>
</g>
<!-- Node14 -->
<g id="Node000014" class="node">
<title>Node14</title>
<g id="a_Node000014"><a xlink:href="ansi_8hpp.html" target="_top" xlink:title="This file contains utilities for applying ANSI styles and colors to console output.">
<polygon fill="white" stroke="#666666" points="1120.64,-129 970.64,-129 970.64,-110 1120.64,-110 1120.64,-129"/>
<text text-anchor="middle" x="1045.64" y="-117" font-family="Helvetica,sans-Serif" font-size="10.00">comppare/internal/ansi.hpp</text>
</a>
</g>
</g>
<!-- Node1&#45;&gt;Node14 -->
<g id="edge13_Node000001_Node000014" class="edge">
<title>Node1&#45;&gt;Node14</title>
<g id="a_edge13_Node000001_Node000014"><a xlink:title=" ">
<path fill="none" stroke="#63b8ff" d="M1382.54,-230.94C1318.72,-210.02 1154.73,-156.26 1081.68,-132.32"/>
<polygon fill="#63b8ff" stroke="#63b8ff" points="1082.59,-128.93 1072,-129.14 1080.41,-135.58 1082.59,-128.93"/>
</a>
</g>
</g>
<!-- Node21 -->
<g id="Node000021" class="node">
<title>Node21</title>
<g id="a_Node000021"><a xlink:href="config_8hpp.html" target="_top" xlink:title="This file contains configuration settings for the ComPPare library.">
<polygon fill="white" stroke="#666666" points="179.14,-129 20.14,-129 20.14,-110 179.14,-110 179.14,-129"/>
<text text-anchor="middle" x="99.64" y="-117" font-family="Helvetica,sans-Serif" font-size="10.00">comppare/internal/config.hpp</text>
</a>
</g>
</g>
<!-- Node1&#45;&gt;Node21 -->
<g id="edge25_Node000001_Node000021" class="edge">
<title>Node1&#45;&gt;Node21</title>
<g id="a_edge25_Node000001_Node000021"><a xlink:title=" ">
<path fill="none" stroke="#63b8ff" d="M1320.28,-238.23C1067.52,-234.29 353.09,-220.98 250.64,-195 201.25,-182.47 149.12,-152.47 120.87,-134.59"/>
<polygon fill="#63b8ff" stroke="#63b8ff" points="122.55,-131.51 112.25,-129.04 118.76,-137.4 122.55,-131.51"/>
</a>
</g>
</g>
<!-- Node22 -->
<g id="Node000022" class="node">
<title>Node22</title>
<g id="a_Node000022"><a xlink:href="helper_8hpp.html" target="_top" xlink:title=" ">
<polygon fill="white" stroke="#666666" points="419.64,-189.5 259.64,-189.5 259.64,-170.5 419.64,-170.5 419.64,-189.5"/>
<text text-anchor="middle" x="339.64" y="-177.5" font-family="Helvetica,sans-Serif" font-size="10.00">comppare/internal/helper.hpp</text>
</a>
</g>
</g>
<!-- Node1&#45;&gt;Node22 -->
<g id="edge29_Node000001_Node000022" class="edge">
<title>Node1&#45;&gt;Node22</title>
<g id="a_edge29_Node000001_Node000022"><a xlink:title=" ">
<path fill="none" stroke="#63b8ff" d="M1320.38,-237.58C1151.85,-233.43 772.69,-221.74 454.64,-195 441.01,-193.85 426.51,-192.33 412.56,-190.71"/>
<polygon fill="#63b8ff" stroke="#63b8ff" points="412.87,-187.22 402.52,-189.51 412.04,-194.17 412.87,-187.22"/>
</a>
</g>
</g>
<!-- Node25 -->
<g id="Node000025" class="node">
<title>Node25</title>
<g id="a_Node000025"><a xlink:href="policy_8hpp.html" target="_top" xlink:title="This file contains error policies for comparing values in the ComPPare library.">
<polygon fill="white" stroke="#666666" points="908.64,-189.5 750.64,-189.5 750.64,-170.5 908.64,-170.5 908.64,-189.5"/>
<text text-anchor="middle" x="829.64" y="-177.5" font-family="Helvetica,sans-Serif" font-size="10.00">comppare/internal/policy.hpp</text>
</a>
</g>
</g>
<!-- Node1&#45;&gt;Node25 -->
<g id="edge36_Node000001_Node000025" class="edge">
<title>Node1&#45;&gt;Node25</title>
<g id="a_edge36_Node000001_Node000025"><a xlink:title=" ">
<path fill="none" stroke="#63b8ff" d="M1324.45,-230.99C1216.33,-220.07 1029.48,-201.19 918.94,-190.02"/>
<polygon fill="#63b8ff" stroke="#63b8ff" points="919.12,-186.52 908.82,-189 918.42,-193.49 919.12,-186.52"/>
</a>
</g>
</g>
<!-- Node28 -->
<g id="Node000028" class="node">
<title>Node28</title>
<g id="a_Node000028"><a xlink:href="plugin_8hpp.html" target="_top" xlink:title="This file contains the base Plugin class and concept of a valid Plugin class for the ComPPare framewo...">
<polygon fill="white" stroke="#666666" points="1858.64,-129 1706.64,-129 1706.64,-110 1858.64,-110 1858.64,-129"/>
<text text-anchor="middle" x="1782.64" y="-117" font-family="Helvetica,sans-Serif" font-size="10.00">comppare/plugin/plugin.hpp</text>
</a>
</g>
</g>
<!-- Node1&#45;&gt;Node28 -->
<g id="edge50_Node000001_Node000028" class="edge">
<title>Node1&#45;&gt;Node28</title>
<g id="a_edge50_Node000001_Node000028"><a xlink:title=" ">
<path fill="none" stroke="#63b8ff" d="M1436.35,-230.97C1465.18,-222.07 1511.61,-207.68 1551.64,-195 1620.73,-173.11 1701.25,-147.01 1746.66,-132.23"/>
<polygon fill="#63b8ff" stroke="#63b8ff" points="1747.92,-135.5 1756.34,-129.08 1745.75,-128.85 1747.92,-135.5"/>
</a>
</g>
</g>
<!-- Node29 -->
<g id="Node000029" class="node">
<title>Node29</title>
<g id="a_Node000029"><a xlink:href="google__benchmark_8hpp.html" target="_top" xlink:title="This file contains the Google Benchmark plugin for the ComPPare framework.">
<polygon fill="white" stroke="#666666" points="2021.64,-195 1827.64,-195 1827.64,-165 2021.64,-165 2021.64,-195"/>
<text text-anchor="start" x="1835.64" y="-183" font-family="Helvetica,sans-Serif" font-size="10.00">comppare/plugin/google</text>
<text text-anchor="middle" x="1924.64" y="-172" font-family="Helvetica,sans-Serif" font-size="10.00">_benchmark/google_benchmark.hpp</text>
</a>
</g>
</g>
<!-- Node1&#45;&gt;Node29 -->
<g id="edge58_Node000001_Node000029" class="edge">
<title>Node1&#45;&gt;Node29</title>
<g id="a_edge58_Node000001_Node000029"><a xlink:title=" ">
<path fill="none" stroke="#63b8ff" d="M1483.67,-230.99C1571.5,-221.04 1717.6,-204.47 1817.38,-193.16"/>
<polygon fill="#63b8ff" stroke="#63b8ff" points="1817.95,-196.62 1827.49,-192.01 1817.16,-189.66 1817.95,-196.62"/>
</a>
</g>
</g>
<!-- Node34 -->
<g id="Node000034" class="node">
<title>Node34</title>
<g id="a_Node000034"><a xlink:href="nvbench_8hpp.html" target="_top" xlink:title="This file contains the NVBench plugin for the ComPPare framework.">
<polygon fill="white" stroke="#666666" points="1480.14,-195 1337.14,-195 1337.14,-165 1480.14,-165 1480.14,-195"/>
<text text-anchor="start" x="1345.14" y="-183" font-family="Helvetica,sans-Serif" font-size="10.00">comppare/plugin/nvbench</text>
<text text-anchor="middle" x="1408.64" y="-172" font-family="Helvetica,sans-Serif" font-size="10.00">/nvbench.hpp</text>
</a>
</g>
</g>
<!-- Node1&#45;&gt;Node34 -->
<g id="edge71_Node000001_Node000034" class="edge">
<title>Node1&#45;&gt;Node34</title>
<g id="a_edge71_Node000001_Node000034"><a xlink:title=" ">
<path fill="none" stroke="#63b8ff" d="M1408.64,-230.87C1408.64,-224.11 1408.64,-214.35 1408.64,-205.26"/>
<polygon fill="#63b8ff" stroke="#63b8ff" points="1412.14,-205.11 1408.64,-195.11 1405.14,-205.11 1412.14,-205.11"/>
</a>
</g>
</g>
<!-- Node14&#45;&gt;Node7 -->
<g id="edge16_Node000014_Node000007" class="edge">
<title>Node14&#45;&gt;Node7</title>
<g id="a_edge16_Node000014_Node000007"><a xlink:title=" ">
<path fill="none" stroke="#63b8ff" d="M1038.76,-109.79C1027.57,-96.18 1004.1,-69.89 978.64,-55 943.18,-34.26 897.06,-22.22 866.69,-16.01"/>
<polygon fill="#63b8ff" stroke="#63b8ff" points="867.13,-12.54 856.64,-14.06 865.79,-19.41 867.13,-12.54"/>
</a>
</g>
</g>
<!-- Node14&#45;&gt;Node12 -->
<g id="edge17_Node000014_Node000012" class="edge">
<title>Node14&#45;&gt;Node12</title>
<g id="a_edge17_Node000014_Node000012"><a xlink:title=" ">
<path fill="none" stroke="#63b8ff" d="M1052.16,-109.86C1062.31,-96.8 1083,-71.78 1104.64,-55 1120.9,-42.39 1141.22,-31.33 1157.57,-23.4"/>
<polygon fill="#63b8ff" stroke="#63b8ff" points="1159.12,-26.53 1166.67,-19.1 1156.13,-20.2 1159.12,-26.53"/>
</a>
</g>
</g>
<!-- Node15 -->
<g id="Node000015" class="node">
<title>Node15</title>
<g id="a_Node000015"><a xlink:title=" ">
<polygon fill="#e0e0e0" stroke="#999999" points="1013.14,-19 956.14,-19 956.14,0 1013.14,0 1013.14,-19"/>
<text text-anchor="middle" x="984.64" y="-7" font-family="Helvetica,sans-Serif" font-size="10.00">ostream</text>
</a>
</g>
</g>
<!-- Node14&#45;&gt;Node15 -->
<g id="edge14_Node000014_Node000015" class="edge">
<title>Node14&#45;&gt;Node15</title>
<g id="a_edge14_Node000014_Node000015"><a xlink:title=" ">
<path fill="none" stroke="#63b8ff" d="M1042.78,-109.96C1038.43,-97.46 1029.49,-73.63 1018.64,-55 1012.97,-45.25 1005.45,-35.2 998.93,-27.12"/>
<polygon fill="#63b8ff" stroke="#63b8ff" points="1001.46,-24.69 992.38,-19.23 996.08,-29.16 1001.46,-24.69"/>
</a>
</g>
</g>
<!-- Node16 -->
<g id="Node000016" class="node">
<title>Node16</title>
<g id="a_Node000016"><a xlink:title=" ">
<polygon fill="#e0e0e0" stroke="#999999" points="1514.64,-74 1458.64,-74 1458.64,-55 1514.64,-55 1514.64,-74"/>
<text text-anchor="middle" x="1486.64" y="-62" font-family="Helvetica,sans-Serif" font-size="10.00">sstream</text>
</a>
</g>
</g>
<!-- Node14&#45;&gt;Node16 -->
<g id="edge15_Node000014_Node000016" class="edge">
<title>Node14&#45;&gt;Node16</title>
<g id="a_edge15_Node000014_Node000016"><a xlink:title=" ">
<path fill="none" stroke="#63b8ff" d="M1116.5,-109.98C1210.83,-98.65 1374.35,-78.99 1448.33,-70.1"/>
<polygon fill="#63b8ff" stroke="#63b8ff" points="1449.07,-73.54 1458.58,-68.87 1448.23,-66.59 1449.07,-73.54"/>
</a>
</g>
</g>
<!-- Node17 -->
<g id="Node000017" class="node">
<title>Node17</title>
<g id="a_Node000017"><a xlink:title=" ">
<polygon fill="#e0e0e0" stroke="#999999" points="1158.14,-74 1113.14,-74 1113.14,-55 1158.14,-55 1158.14,-74"/>
<text text-anchor="middle" x="1135.64" y="-62" font-family="Helvetica,sans-Serif" font-size="10.00">utility</text>
</a>
</g>
</g>
<!-- Node14&#45;&gt;Node17 -->
<g id="edge18_Node000014_Node000017" class="edge">
<title>Node14&#45;&gt;Node17</title>
<g id="a_edge18_Node000014_Node000017"><a xlink:title=" ">
<path fill="none" stroke="#63b8ff" d="M1060.1,-109.98C1074.06,-101.77 1095.44,-89.18 1111.89,-79.49"/>
<polygon fill="#63b8ff" stroke="#63b8ff" points="1114.08,-82.26 1120.92,-74.17 1110.53,-76.23 1114.08,-82.26"/>
</a>
</g>
</g>
<!-- Node18 -->
<g id="Node000018" class="node">
<title>Node18</title>
<g id="a_Node000018"><a xlink:href="concepts_8hpp.html" target="_top" xlink:title="This file contains commonly used concepts internally within the ComPPare library.">
<polygon fill="white" stroke="#666666" points="898.14,-74 725.14,-74 725.14,-55 898.14,-55 898.14,-74"/>
<text text-anchor="middle" x="811.64" y="-62" font-family="Helvetica,sans-Serif" font-size="10.00">comppare/internal/concepts.hpp</text>
</a>
</g>
</g>
<!-- Node14&#45;&gt;Node18 -->
<g id="edge19_Node000014_Node000018" class="edge">
<title>Node14&#45;&gt;Node18</title>
<g id="a_edge19_Node000014_Node000018"><a xlink:title=" ">
<path fill="none" stroke="#63b8ff" d="M1008.05,-109.98C967.65,-100.84 903.36,-86.27 859.41,-76.32"/>
<polygon fill="#63b8ff" stroke="#63b8ff" points="860.06,-72.88 849.53,-74.08 858.51,-79.7 860.06,-72.88"/>
</a>
</g>
</g>
<!-- Node18&#45;&gt;Node7 -->
<g id="edge23_Node000018_Node000007" class="edge">
<title>Node18&#45;&gt;Node7</title>
<g id="a_edge23_Node000018_Node000007"><a xlink:title=" ">
<path fill="none" stroke="#63b8ff" d="M815.44,-54.75C818.55,-47.57 823.06,-37.18 826.93,-28.27"/>
<polygon fill="#63b8ff" stroke="#63b8ff" points="830.14,-29.66 830.91,-19.09 823.72,-26.87 830.14,-29.66"/>
</a>
</g>
</g>
<!-- Node18&#45;&gt;Node12 -->
<g id="edge20_Node000018_Node000012" class="edge">
<title>Node18&#45;&gt;Node12</title>
<g id="a_edge20_Node000018_Node000012"><a xlink:title=" ">
<path fill="none" stroke="#63b8ff" d="M871.89,-54.98C948.93,-44.1 1080.23,-25.54 1146.24,-16.21"/>
<polygon fill="#63b8ff" stroke="#63b8ff" points="1146.84,-19.66 1156.25,-14.8 1145.86,-12.73 1146.84,-19.66"/>
</a>
</g>
</g>
<!-- Node18&#45;&gt;Node15 -->
<g id="edge24_Node000018_Node000015" class="edge">
<title>Node18&#45;&gt;Node15</title>
<g id="a_edge24_Node000018_Node000015"><a xlink:title=" ">
<path fill="none" stroke="#63b8ff" d="M839.44,-54.98C868.61,-46.05 914.64,-31.94 947.04,-22.02"/>
<polygon fill="#63b8ff" stroke="#63b8ff" points="948.09,-25.36 956.63,-19.08 946.04,-18.66 948.09,-25.36"/>
</a>
</g>
</g>
<!-- Node19 -->
<g id="Node000019" class="node">
<title>Node19</title>
<g id="a_Node000019"><a xlink:title=" ">
<polygon fill="#e0e0e0" stroke="#999999" points="690.14,-19 621.14,-19 621.14,0 690.14,0 690.14,-19"/>
<text text-anchor="middle" x="655.64" y="-7" font-family="Helvetica,sans-Serif" font-size="10.00">type_traits</text>
</a>
</g>
</g>
<!-- Node18&#45;&gt;Node19 -->
<g id="edge21_Node000018_Node000019" class="edge">
<title>Node18&#45;&gt;Node19</title>
<g id="a_edge21_Node000018_Node000019"><a xlink:title=" ">
<path fill="none" stroke="#63b8ff" d="M786.58,-54.98C760.61,-46.16 719.83,-32.31 690.68,-22.41"/>
<polygon fill="#63b8ff" stroke="#63b8ff" points="691.5,-18.99 680.9,-19.08 689.24,-25.61 691.5,-18.99"/>
</a>
</g>
</g>
<!-- Node20 -->
<g id="Node000020" class="node">
<title>Node20</title>
<g id="a_Node000020"><a xlink:title=" ">
<polygon fill="#e0e0e0" stroke="#999999" points="782.64,-19 732.64,-19 732.64,0 782.64,0 782.64,-19"/>
<text text-anchor="middle" x="757.64" y="-7" font-family="Helvetica,sans-Serif" font-size="10.00">ranges</text>
</a>
</g>
</g>
<!-- Node18&#45;&gt;Node20 -->
<g id="edge22_Node000018_Node000020" class="edge">
<title>Node18&#45;&gt;Node20</title>
<g id="a_edge22_Node000018_Node000020"><a xlink:title=" ">
<path fill="none" stroke="#63b8ff" d="M802.72,-54.75C794.86,-47.03 783.21,-35.6 773.72,-26.28"/>
<polygon fill="#63b8ff" stroke="#63b8ff" points="775.98,-23.6 766.39,-19.09 771.08,-28.59 775.98,-23.6"/>
</a>
</g>
</g>
<!-- Node21&#45;&gt;Node2 -->
<g id="edge26_Node000021_Node000002" class="edge">
<title>Node21&#45;&gt;Node2</title>
<g id="a_edge26_Node000021_Node000002"><a xlink:title=" ">
<path fill="none" stroke="#63b8ff" d="M88.07,-109.98C77.22,-102 60.76,-89.88 47.76,-80.31"/>
<polygon fill="#63b8ff" stroke="#63b8ff" points="49.55,-77.28 39.42,-74.17 45.4,-82.92 49.55,-77.28"/>
</a>
</g>
</g>
<!-- Node21&#45;&gt;Node11 -->
<g id="edge28_Node000021_Node000011" class="edge">
<title>Node21&#45;&gt;Node11</title>
<g id="a_edge28_Node000021_Node000011"><a xlink:title=" ">
<path fill="none" stroke="#63b8ff" d="M115.39,-109.98C130.87,-101.61 154.73,-88.7 172.78,-78.95"/>
<polygon fill="#63b8ff" stroke="#63b8ff" points="174.48,-82.01 181.61,-74.17 171.15,-75.85 174.48,-82.01"/>
</a>
</g>
</g>
<!-- Node21&#45;&gt;Node17 -->
<g id="edge27_Node000021_Node000017" class="edge">
<title>Node21&#45;&gt;Node17</title>
<g id="a_edge27_Node000021_Node000017"><a xlink:title=" ">
<path fill="none" stroke="#63b8ff" d="M179.25,-110.63C182.08,-110.41 184.89,-110.2 187.64,-110 371.42,-96.82 957.65,-72.7 1102.86,-66.82"/>
<polygon fill="#63b8ff" stroke="#63b8ff" points="1103.07,-70.32 1112.92,-66.41 1102.79,-63.32 1103.07,-70.32"/>
</a>
</g>
</g>
<!-- Node22&#45;&gt;Node7 -->
<g id="edge31_Node000022_Node000007" class="edge">
<title>Node22&#45;&gt;Node7</title>
<g id="a_edge31_Node000022_Node000007"><a xlink:title=" ">
<path fill="none" stroke="#63b8ff" d="M346.49,-170.14C366.78,-144.12 426.95,-68.88 454.64,-55 589.3,12.51 642.72,-41.63 791.64,-19 795.13,-18.47 798.77,-17.85 802.39,-17.2"/>
<polygon fill="#63b8ff" stroke="#63b8ff" points="803.22,-20.6 812.39,-15.29 801.91,-13.72 803.22,-20.6"/>
</a>
</g>
</g>
<!-- Node22&#45;&gt;Node11 -->
<g id="edge32_Node000022_Node000011" class="edge">
<title>Node22&#45;&gt;Node11</title>
<g id="a_edge32_Node000022_Node000011"><a xlink:title=" ">
<path fill="none" stroke="#63b8ff" d="M331.56,-170.39C318.56,-156.78 291.89,-129.8 266.64,-110 252.33,-98.78 235.15,-87.69 221.51,-79.39"/>
<polygon fill="#63b8ff" stroke="#63b8ff" points="223.09,-76.26 212.72,-74.12 219.5,-82.26 223.09,-76.26"/>
</a>
</g>
</g>
<!-- Node22&#45;&gt;Node13 -->
<g id="edge33_Node000022_Node000013" class="edge">
<title>Node22&#45;&gt;Node13</title>
<g id="a_edge33_Node000022_Node000013"><a xlink:title=" ">
<path fill="none" stroke="#63b8ff" d="M355.65,-170.47C392.43,-150.87 483.17,-102.52 527.48,-78.91"/>
<polygon fill="#63b8ff" stroke="#63b8ff" points="529.27,-81.92 536.45,-74.13 525.97,-75.74 529.27,-81.92"/>
</a>
</g>
</g>
<!-- Node22&#45;&gt;Node21 -->
<g id="edge35_Node000022_Node000021" class="edge">
<title>Node22&#45;&gt;Node21</title>
<g id="a_edge35_Node000022_Node000021"><a xlink:title=" ">
<path fill="none" stroke="#63b8ff" d="M304.74,-170.49C262.35,-160.16 190.77,-142.71 144.37,-131.4"/>
<polygon fill="#63b8ff" stroke="#63b8ff" points="145.13,-127.98 134.58,-129.02 143.47,-134.79 145.13,-127.98"/>
</a>
</g>
</g>
<!-- Node23 -->
<g id="Node000023" class="node">
<title>Node23</title>
<g id="a_Node000023"><a xlink:title=" ">
<polygon fill="#e0e0e0" stroke="#999999" points="258.14,-129 197.14,-129 197.14,-110 258.14,-110 258.14,-129"/>
<text text-anchor="middle" x="227.64" y="-117" font-family="Helvetica,sans-Serif" font-size="10.00">charconv</text>
</a>
</g>
</g>
<!-- Node22&#45;&gt;Node23 -->
<g id="edge30_Node000022_Node000023" class="edge">
<title>Node22&#45;&gt;Node23</title>
<g id="a_edge30_Node000022_Node000023"><a xlink:title=" ">
<path fill="none" stroke="#63b8ff" d="M323.12,-170.37C304.67,-160.73 274.6,-145.03 253.13,-133.81"/>
<polygon fill="#63b8ff" stroke="#63b8ff" points="254.72,-130.69 244.24,-129.17 251.48,-136.9 254.72,-130.69"/>
</a>
</g>
</g>
<!-- Node24 -->
<g id="Node000024" class="node">
<title>Node24</title>
<g id="a_Node000024"><a xlink:title=" ">
<polygon fill="#e0e0e0" stroke="#999999" points="364.64,-129 314.64,-129 314.64,-110 364.64,-110 364.64,-129"/>
<text text-anchor="middle" x="339.64" y="-117" font-family="Helvetica,sans-Serif" font-size="10.00">cstdint</text>
</a>
</g>
</g>
<!-- Node22&#45;&gt;Node24 -->
<g id="edge34_Node000022_Node000024" class="edge">
<title>Node22&#45;&gt;Node24</title>
<g id="a_edge34_Node000022_Node000024"><a xlink:title=" ">
<path fill="none" stroke="#63b8ff" d="M339.64,-170.37C339.64,-162.25 339.64,-149.81 339.64,-139.39"/>
<polygon fill="#63b8ff" stroke="#63b8ff" points="343.14,-139.17 339.64,-129.17 336.14,-139.17 343.14,-139.17"/>
</a>
</g>
</g>
<!-- Node25&#45;&gt;Node7 -->
<g id="edge39_Node000025_Node000007" class="edge">
<title>Node25&#45;&gt;Node7</title>
<g id="a_edge39_Node000025_Node000007"><a xlink:title=" ">
<path fill="none" stroke="#63b8ff" d="M819.42,-170.33C792.64,-147.51 722.18,-86.7 716.64,-74 713.27,-66.26 711.84,-61.95 716.64,-55 726.71,-40.44 771.15,-26.52 802.51,-18.24"/>
<polygon fill="#63b8ff" stroke="#63b8ff" points="803.76,-21.53 812.58,-15.65 802.02,-14.75 803.76,-21.53"/>
</a>
</g>
</g>
<!-- Node25&#45;&gt;Node11 -->
<g id="edge40_Node000025_Node000011" class="edge">
<title>Node25&#45;&gt;Node11</title>
<g id="a_edge40_Node000025_Node000011"><a xlink:title=" ">
<path fill="none" stroke="#63b8ff" d="M782.14,-170.47C664.55,-149.35 360.97,-94.83 244.29,-73.88"/>
<polygon fill="#63b8ff" stroke="#63b8ff" points="244.7,-70.4 234.24,-72.07 243.47,-77.29 244.7,-70.4"/>
</a>
</g>
</g>
<!-- Node25&#45;&gt;Node12 -->
<g id="edge37_Node000025_Node000012" class="edge">
<title>Node25&#45;&gt;Node12</title>
<g id="a_edge37_Node000025_Node000012"><a xlink:title=" ">
<path fill="none" stroke="#63b8ff" d="M908.88,-175.6C990.97,-170.54 1112.16,-158.22 1147.64,-129 1177.64,-104.29 1184.75,-56 1186.31,-29.32"/>
<polygon fill="#63b8ff" stroke="#63b8ff" points="1189.82,-29.17 1186.7,-19.05 1182.83,-28.91 1189.82,-29.17"/>
</a>
</g>
</g>
<!-- Node25&#45;&gt;Node13 -->
<g id="edge47_Node000025_Node000013" class="edge">
<title>Node25&#45;&gt;Node13</title>
<g id="a_edge47_Node000025_Node000013"><a xlink:title=" ">
<path fill="none" stroke="#63b8ff" d="M750.48,-173.66C705.65,-167.71 650.03,-155.2 606.64,-129 587.74,-117.58 572.19,-97.22 562.71,-82.63"/>
<polygon fill="#63b8ff" stroke="#63b8ff" points="565.62,-80.68 557.38,-74.03 559.67,-84.37 565.62,-80.68"/>
</a>
</g>
</g>
<!-- Node25&#45;&gt;Node14 -->
<g id="edge49_Node000025_Node000014" class="edge">
<title>Node25&#45;&gt;Node14</title>
<g id="a_edge49_Node000025_Node000014"><a xlink:title=" ">
<path fill="none" stroke="#63b8ff" d="M861.05,-170.49C898.88,-160.25 962.55,-143 1004.33,-131.69"/>
<polygon fill="#63b8ff" stroke="#63b8ff" points="1005.46,-135.01 1014.2,-129.02 1003.63,-128.25 1005.46,-135.01"/>
</a>
</g>
</g>
<!-- Node25&#45;&gt;Node15 -->
<g id="edge44_Node000025_Node000015" class="edge">
<title>Node25&#45;&gt;Node15</title>
<g id="a_edge44_Node000025_Node000015"><a xlink:title=" ">
<path fill="none" stroke="#63b8ff" d="M840.38,-170.22C851.98,-160.56 870.78,-144.36 885.64,-129 918.87,-94.66 953.81,-50.7 971.98,-27.16"/>
<polygon fill="#63b8ff" stroke="#63b8ff" points="974.78,-29.26 978.08,-19.2 969.22,-25 974.78,-29.26"/>
</a>
</g>
</g>
<!-- Node25&#45;&gt;Node16 -->
<g id="edge45_Node000025_Node000016" class="edge">
<title>Node25&#45;&gt;Node16</title>
<g id="a_edge45_Node000025_Node000016"><a xlink:title=" ">
<path fill="none" stroke="#63b8ff" d="M908.71,-174.62C984.69,-168.96 1102.17,-156.34 1200.64,-129 1221.17,-123.3 1224.26,-116.19 1244.64,-110 1315.09,-88.61 1400.37,-75.85 1448.58,-69.8"/>
<polygon fill="#63b8ff" stroke="#63b8ff" points="1449.07,-73.26 1458.57,-68.57 1448.22,-66.32 1449.07,-73.26"/>
</a>
</g>
</g>
<!-- Node25&#45;&gt;Node17 -->
<g id="edge42_Node000025_Node000017" class="edge">
<title>Node25&#45;&gt;Node17</title>
<g id="a_edge42_Node000025_Node000017"><a xlink:title=" ">
<path fill="none" stroke="#63b8ff" d="M908.76,-176.43C987.4,-172.08 1100.4,-160.39 1129.64,-129 1140.6,-117.24 1141.06,-98.39 1139.4,-84.28"/>
<polygon fill="#63b8ff" stroke="#63b8ff" points="1142.82,-83.52 1137.78,-74.21 1135.91,-84.63 1142.82,-83.52"/>
</a>
</g>
</g>
<!-- Node25&#45;&gt;Node18 -->
<g id="edge48_Node000025_Node000018" class="edge">
<title>Node25&#45;&gt;Node18</title>
<g id="a_edge48_Node000025_Node000018"><a xlink:title=" ">
<path fill="none" stroke="#63b8ff" d="M828.29,-170.47C825.4,-152.23 818.55,-109.07 814.6,-84.14"/>
<polygon fill="#63b8ff" stroke="#63b8ff" points="818.03,-83.46 813.01,-74.13 811.12,-84.55 818.03,-83.46"/>
</a>
</g>
</g>
<!-- Node25&#45;&gt;Node19 -->
<g id="edge41_Node000025_Node000019" class="edge">
<title>Node25&#45;&gt;Node19</title>
<g id="a_edge41_Node000025_Node000019"><a xlink:title=" ">
<path fill="none" stroke="#63b8ff" d="M750.27,-173.23C719.57,-166.81 687,-154.03 666.64,-129 643.47,-100.52 647.17,-54.48 651.6,-28.98"/>
<polygon fill="#63b8ff" stroke="#63b8ff" points="655.04,-29.62 653.53,-19.13 648.17,-28.27 655.04,-29.62"/>
</a>
</g>
</g>
<!-- Node25&#45;&gt;Node20 -->
<g id="edge38_Node000025_Node000020" class="edge">
<title>Node25&#45;&gt;Node20</title>
<g id="a_edge38_Node000025_Node000020"><a xlink:title=" ">
<path fill="none" stroke="#63b8ff" d="M750.55,-171.58C723.26,-164.78 695.38,-152.17 678.64,-129 652.18,-92.36 703.8,-47.62 735.47,-25.03"/>
<polygon fill="#63b8ff" stroke="#63b8ff" points="737.56,-27.84 743.8,-19.28 733.58,-22.09 737.56,-27.84"/>
</a>
</g>
</g>
<!-- Node26 -->
<g id="Node000026" class="node">
<title>Node26</title>
<g id="a_Node000026"><a xlink:title=" ">
<polygon fill="#e0e0e0" stroke="#999999" points="876.64,-129 832.64,-129 832.64,-110 876.64,-110 876.64,-129"/>
<text text-anchor="middle" x="854.64" y="-117" font-family="Helvetica,sans-Serif" font-size="10.00">limits</text>
</a>
</g>
</g>
<!-- Node25&#45;&gt;Node26 -->
<g id="edge43_Node000025_Node000026" class="edge">
<title>Node25&#45;&gt;Node26</title>
<g id="a_edge43_Node000025_Node000026"><a xlink:title=" ">
<path fill="none" stroke="#63b8ff" d="M833.33,-170.37C836.91,-161.99 842.46,-149.01 846.99,-138.39"/>
<polygon fill="#63b8ff" stroke="#63b8ff" points="850.23,-139.74 850.94,-129.17 843.79,-136.99 850.23,-139.74"/>
</a>
</g>
</g>
<!-- Node27 -->
<g id="Node000027" class="node">
<title>Node27</title>
<g id="a_Node000027"><a xlink:title=" ">
<polygon fill="#e0e0e0" stroke="#999999" points="738.14,-129 687.14,-129 687.14,-110 738.14,-110 738.14,-129"/>
<text text-anchor="middle" x="712.64" y="-117" font-family="Helvetica,sans-Serif" font-size="10.00">variant</text>
</a>
</g>
</g>
<!-- Node25&#45;&gt;Node27 -->
<g id="edge46_Node000025_Node000027" class="edge">
<title>Node25&#45;&gt;Node27</title>
<g id="a_edge46_Node000025_Node000027"><a xlink:title=" ">
<path fill="none" stroke="#63b8ff" d="M812.63,-170.49C793.22,-160.79 761.26,-144.81 738.7,-133.53"/>
<polygon fill="#63b8ff" stroke="#63b8ff" points="740.18,-130.36 729.67,-129.02 737.05,-136.62 740.18,-130.36"/>
</a>
</g>
</g>
<!-- Node28&#45;&gt;Node5 -->
<g id="edge53_Node000028_Node000005" class="edge">
<title>Node28&#45;&gt;Node5</title>
<g id="a_edge53_Node000028_Node000005"><a xlink:title=" ">
<path fill="none" stroke="#63b8ff" d="M1858.91,-112C1993.01,-100.57 2266.3,-77.29 2366.62,-68.74"/>
<polygon fill="#63b8ff" stroke="#63b8ff" points="2366.94,-72.23 2376.61,-67.89 2366.34,-65.25 2366.94,-72.23"/>
</a>
</g>
</g>
<!-- Node28&#45;&gt;Node7 -->
<g id="edge56_Node000028_Node000007" class="edge">
<title>Node28&#45;&gt;Node7</title>
<g id="a_edge56_Node000028_Node000007"><a xlink:title=" ">
<path fill="none" stroke="#63b8ff" d="M1754.99,-109.99C1707.98,-95.92 1609.23,-68.06 1523.64,-55 1270.08,-16.31 1203.53,-36.62 947.64,-19 920.36,-17.12 889.4,-14.78 866.79,-13.03"/>
<polygon fill="#63b8ff" stroke="#63b8ff" points="866.96,-9.53 856.72,-12.24 866.42,-16.51 866.96,-9.53"/>
</a>
</g>
</g>
<!-- Node28&#45;&gt;Node8 -->
<g id="edge57_Node000028_Node000008" class="edge">
<title>Node28&#45;&gt;Node8</title>
<g id="a_edge57_Node000028_Node000008"><a xlink:title=" ">
<path fill="none" stroke="#63b8ff" d="M1829.56,-109.98C1888.68,-99.25 1988.85,-81.07 2040.93,-71.62"/>
<polygon fill="#63b8ff" stroke="#63b8ff" points="2041.76,-75.02 2050.98,-69.8 2040.51,-68.14 2041.76,-75.02"/>
</a>
</g>
</g>
<!-- Node28&#45;&gt;Node12 -->
<g id="edge51_Node000028_Node000012" class="edge">
<title>Node28&#45;&gt;Node12</title>
<g id="a_edge51_Node000028_Node000012"><a xlink:title=" ">
<path fill="none" stroke="#63b8ff" d="M1772,-109.86C1753.76,-95.59 1714.78,-67.43 1676.64,-55 1593.3,-27.83 1328.65,-15.62 1226.97,-11.85"/>
<polygon fill="#63b8ff" stroke="#63b8ff" points="1226.92,-8.35 1216.8,-11.48 1226.67,-15.34 1226.92,-8.35"/>
</a>
</g>
</g>
<!-- Node28&#45;&gt;Node13 -->
<g id="edge54_Node000028_Node000013" class="edge">
<title>Node28&#45;&gt;Node13</title>
<g id="a_edge54_Node000028_Node000013"><a xlink:title=" ">
<path fill="none" stroke="#63b8ff" d="M1706.55,-112.87C1691.04,-111.83 1674.82,-110.81 1659.64,-110 1240.83,-87.54 1135.63,-92.85 716.64,-74 675.52,-72.15 628.62,-69.68 595.54,-67.88"/>
<polygon fill="#63b8ff" stroke="#63b8ff" points="595.48,-64.38 585.31,-67.32 595.1,-71.36 595.48,-64.38"/>
</a>
</g>
</g>
<!-- Node28&#45;&gt;Node16 -->
<g id="edge55_Node000028_Node000016" class="edge">
<title>Node28&#45;&gt;Node16</title>
<g id="a_edge55_Node000028_Node000016"><a xlink:title=" ">
<path fill="none" stroke="#63b8ff" d="M1735.08,-109.98C1676.71,-99.53 1578.87,-82.01 1525.04,-72.37"/>
<polygon fill="#63b8ff" stroke="#63b8ff" points="1525.34,-68.87 1514.88,-70.56 1524.11,-75.76 1525.34,-68.87"/>
</a>
</g>
</g>
<!-- Node28&#45;&gt;Node17 -->
<g id="edge52_Node000028_Node000017" class="edge">
<title>Node28&#45;&gt;Node17</title>
<g id="a_edge52_Node000028_Node000017"><a xlink:title=" ">
<path fill="none" stroke="#63b8ff" d="M1706.54,-111.23C1701.84,-110.81 1697.18,-110.4 1692.64,-110 1493.61,-92.65 1254.34,-74.42 1168.37,-67.95"/>
<polygon fill="#63b8ff" stroke="#63b8ff" points="1168.43,-64.44 1158.2,-67.18 1167.91,-71.42 1168.43,-64.44"/>
</a>
</g>
</g>
<!-- Node29&#45;&gt;Node5 -->
<g id="edge62_Node000029_Node000005" class="edge">
<title>Node29&#45;&gt;Node5</title>
<g id="a_edge62_Node000029_Node000005"><a xlink:title=" ">
<path fill="none" stroke="#63b8ff" d="M2022.12,-175.4C2129.03,-170.08 2292.75,-157.47 2347.64,-129 2367.71,-118.59 2384.1,-98.03 2394.07,-83.12"/>
<polygon fill="#63b8ff" stroke="#63b8ff" points="2397.27,-84.62 2399.67,-74.3 2391.36,-80.87 2397.27,-84.62"/>
</a>
</g>
</g>
<!-- Node29&#45;&gt;Node6 -->
<g id="edge63_Node000029_Node000006" class="edge">
<title>Node29&#45;&gt;Node6</title>
<g id="a_edge63_Node000029_Node000006"><a xlink:title=" ">
<path fill="none" stroke="#63b8ff" d="M1851.51,-164.95C1799.41,-154.94 1727.72,-141.16 1664.64,-129 1663.4,-128.76 1662.13,-128.52 1660.85,-128.27"/>
<polygon fill="#63b8ff" stroke="#63b8ff" points="1661.42,-124.81 1650.94,-126.36 1660.09,-131.69 1661.42,-124.81"/>
</a>
</g>
</g>
<!-- Node29&#45;&gt;Node7 -->
<g id="edge65_Node000029_Node000007" class="edge">
<title>Node29&#45;&gt;Node7</title>
<g id="a_edge65_Node000029_Node000007"><a xlink:title=" ">
<path fill="none" stroke="#63b8ff" d="M1922.13,-164.94C1918.51,-149.02 1910.22,-123.54 1892.64,-110 1782.13,-24.88 1722.19,-71.19 1583.64,-55 1302.44,-22.13 1230.15,-37.62 947.64,-19 920.36,-17.2 889.39,-14.85 866.78,-13.08"/>
<polygon fill="#63b8ff" stroke="#63b8ff" points="866.96,-9.58 856.72,-12.28 866.41,-16.56 866.96,-9.58"/>
</a>
</g>
</g>
<!-- Node29&#45;&gt;Node14 -->
<g id="edge70_Node000029_Node000014" class="edge">
<title>Node29&#45;&gt;Node14</title>
<g id="a_edge70_Node000029_Node000014"><a xlink:title=" ">
<path fill="none" stroke="#63b8ff" d="M1827.64,-172.54C1654.46,-161.02 1294.87,-137.09 1130.7,-126.16"/>
<polygon fill="#63b8ff" stroke="#63b8ff" points="1130.86,-122.66 1120.65,-125.49 1130.39,-129.65 1130.86,-122.66"/>
</a>
</g>
</g>
<!-- Node29&#45;&gt;Node15 -->
<g id="edge61_Node000029_Node000015" class="edge">
<title>Node29&#45;&gt;Node15</title>
<g id="a_edge61_Node000029_Node000015"><a xlink:title=" ">
<path fill="none" stroke="#63b8ff" d="M2021.91,-171.38C2081.21,-164.49 2149.07,-151.78 2167.64,-129 2198.99,-90.55 2155.69,-74.74 2107.64,-55 2008.9,-14.45 1254.28,-23.78 1147.64,-19 1105.11,-17.09 1056.36,-14.5 1023.34,-12.68"/>
<polygon fill="#63b8ff" stroke="#63b8ff" points="1023.37,-9.17 1013.2,-12.12 1022.99,-16.16 1023.37,-9.17"/>
</a>
</g>
</g>
<!-- Node29&#45;&gt;Node16 -->
<g id="edge64_Node000029_Node000016" class="edge">
<title>Node29&#45;&gt;Node16</title>
<g id="a_edge64_Node000029_Node000016"><a xlink:title=" ">
<path fill="none" stroke="#63b8ff" d="M1917.36,-164.86C1908.16,-148.6 1890.71,-122.55 1867.64,-110 1809.16,-78.18 1609.61,-68.92 1525.03,-66.39"/>
<polygon fill="#63b8ff" stroke="#63b8ff" points="1524.92,-62.89 1514.83,-66.1 1524.72,-69.88 1524.92,-62.89"/>
</a>
</g>
</g>
<!-- Node29&#45;&gt;Node17 -->
<g id="edge59_Node000029_Node000017" class="edge">
<title>Node29&#45;&gt;Node17</title>
<g id="a_edge59_Node000029_Node000017"><a xlink:title=" ">
<path fill="none" stroke="#63b8ff" d="M1837.27,-164.98C1794.49,-156.8 1742.63,-144.92 1697.64,-129 1679.84,-122.7 1677.82,-115.11 1659.64,-110 1566.47,-83.79 1268.19,-70.47 1168.47,-66.67"/>
<polygon fill="#63b8ff" stroke="#63b8ff" points="1168.5,-63.17 1158.38,-66.29 1168.24,-70.16 1168.5,-63.17"/>
</a>
</g>
</g>
<!-- Node29&#45;&gt;Node28 -->
<g id="edge69_Node000029_Node000028" class="edge">
<title>Node29&#45;&gt;Node28</title>
<g id="a_edge69_Node000029_Node000028"><a xlink:title=" ">
<path fill="none" stroke="#63b8ff" d="M1890.63,-164.99C1867.04,-155.27 1835.9,-142.44 1813.12,-133.06"/>
<polygon fill="#63b8ff" stroke="#63b8ff" points="1814.19,-129.71 1803.61,-129.14 1811.52,-136.18 1814.19,-129.71"/>
</a>
</g>
</g>
<!-- Node30 -->
<g id="Node000030" class="node">
<title>Node30</title>
<g id="a_Node000030"><a xlink:title=" ">
<polygon fill="#e0e0e0" stroke="#999999" points="2256.14,-129 2215.14,-129 2215.14,-110 2256.14,-110 2256.14,-129"/>
<text text-anchor="middle" x="2235.64" y="-117" font-family="Helvetica,sans-Serif" font-size="10.00">tuple</text>
</a>
</g>
</g>
<!-- Node29&#45;&gt;Node30 -->
<g id="edge60_Node000029_Node000030" class="edge">
<title>Node29&#45;&gt;Node30</title>
<g id="a_edge60_Node000029_Node000030"><a xlink:title=" ">
<path fill="none" stroke="#63b8ff" d="M2009.45,-164.97C2064.18,-155.59 2136.8,-142.52 2200.64,-129 2202.09,-128.69 2203.58,-128.37 2205.08,-128.03"/>
<polygon fill="#63b8ff" stroke="#63b8ff" points="2206.01,-131.41 2214.96,-125.74 2204.43,-124.59 2206.01,-131.41"/>
</a>
</g>
</g>
<!-- Node31 -->
<g id="Node000031" class="node">
<title>Node31</title>
<g id="a_Node000031"><a xlink:title=" ">
<polygon fill="#e0e0e0" stroke="#999999" points="2338.64,-129 2274.64,-129 2274.64,-110 2338.64,-110 2338.64,-129"/>
<text text-anchor="middle" x="2306.64" y="-117" font-family="Helvetica,sans-Serif" font-size="10.00">algorithm</text>
</a>
</g>
</g>
<!-- Node29&#45;&gt;Node31 -->
<g id="edge66_Node000029_Node000031" class="edge">
<title>Node29&#45;&gt;Node31</title>
<g id="a_edge66_Node000029_Node000031"><a xlink:title=" ">
<path fill="none" stroke="#63b8ff" d="M2021.9,-166.29C2087.71,-157.32 2176.84,-144.48 2264.34,-129.14"/>
<polygon fill="#63b8ff" stroke="#63b8ff" points="2265.21,-132.55 2274.45,-127.36 2263.99,-125.65 2265.21,-132.55"/>
</a>
</g>
</g>
<!-- Node32 -->
<g id="Node000032" class="node">
<title>Node32</title>
<g id="a_Node000032"><a xlink:title=" ">
<polygon fill="#e0e0e0" stroke="#999999" points="2002.64,-129 1952.64,-129 1952.64,-110 2002.64,-110 2002.64,-129"/>
<text text-anchor="middle" x="1977.64" y="-117" font-family="Helvetica,sans-Serif" font-size="10.00">cstring</text>
</a>
</g>
</g>
<!-- Node29&#45;&gt;Node32 -->
<g id="edge67_Node000029_Node000032" class="edge">
<title>Node29&#45;&gt;Node32</title>
<g id="a_edge67_Node000029_Node000032"><a xlink:title=" ">
<path fill="none" stroke="#63b8ff" d="M1937.47,-164.84C1945.16,-156.35 1954.97,-145.52 1962.97,-136.69"/>
<polygon fill="#63b8ff" stroke="#63b8ff" points="1965.58,-139.03 1969.7,-129.27 1960.39,-134.33 1965.58,-139.03"/>
</a>
</g>
</g>
<!-- Node33 -->
<g id="Node000033" class="node">
<title>Node33</title>
<g id="a_Node000033"><a xlink:title=" ">
<polygon fill="#e0e0e0" stroke="#999999" points="2158.64,-129 2020.64,-129 2020.64,-110 2158.64,-110 2158.64,-129"/>
<text text-anchor="middle" x="2089.64" y="-117" font-family="Helvetica,sans-Serif" font-size="10.00">benchmark/benchmark.h</text>
</a>
</g>
</g>
<!-- Node29&#45;&gt;Node33 -->
<g id="edge68_Node000029_Node000033" class="edge">
<title>Node29&#45;&gt;Node33</title>
<g id="a_edge68_Node000029_Node000033"><a xlink:title=" ">
<path fill="none" stroke="#63b8ff" d="M1964.16,-164.99C1992.06,-155.1 2029.06,-141.98 2055.64,-132.56"/>
<polygon fill="#63b8ff" stroke="#63b8ff" points="2057.02,-135.78 2065.27,-129.14 2054.68,-129.18 2057.02,-135.78"/>
</a>
</g>
</g>
<!-- Node34&#45;&gt;Node4 -->
<g id="edge75_Node000034_Node000004" class="edge">
<title>Node34&#45;&gt;Node4</title>
<g id="a_edge75_Node000034_Node000004"><a xlink:title=" ">
<path fill="none" stroke="#63b8ff" d="M1379.18,-164.99C1359.02,-155.4 1332.5,-142.79 1312.84,-133.44"/>
<polygon fill="#63b8ff" stroke="#63b8ff" points="1314.34,-130.27 1303.81,-129.14 1311.33,-136.6 1314.34,-130.27"/>
</a>
</g>
</g>
<!-- Node34&#45;&gt;Node7 -->
<g id="edge77_Node000034_Node000007" class="edge">
<title>Node34&#45;&gt;Node7</title>
<g id="a_edge77_Node000034_Node000007"><a xlink:title=" ">
<path fill="none" stroke="#63b8ff" d="M1336.75,-177.91C1226.96,-175.09 1023.69,-165.01 961.64,-129 926.43,-108.56 937.6,-82.57 907.64,-55 894.02,-42.47 876.35,-31.59 861.81,-23.72"/>
<polygon fill="#63b8ff" stroke="#63b8ff" points="863.26,-20.53 852.78,-19 860.02,-26.73 863.26,-20.53"/>
</a>
</g>
</g>
<!-- Node34&#45;&gt;Node10 -->
<g id="edge74_Node000034_Node000010" class="edge">
<title>Node34&#45;&gt;Node10</title>
<g id="a_edge74_Node000034_Node000010"><a xlink:title=" ">
<path fill="none" stroke="#63b8ff" d="M1440.98,-164.99C1463.3,-155.31 1492.74,-142.56 1514.37,-133.18"/>
<polygon fill="#63b8ff" stroke="#63b8ff" points="1515.92,-136.33 1523.7,-129.14 1513.14,-129.9 1515.92,-136.33"/>
</a>
</g>
</g>
<!-- Node34&#45;&gt;Node16 -->
<g id="edge76_Node000034_Node000016" class="edge">
<title>Node34&#45;&gt;Node16</title>
<g id="a_edge76_Node000034_Node000016"><a xlink:title=" ">
<path fill="none" stroke="#63b8ff" d="M1430.8,-164.99C1443.25,-156.08 1458.16,-143.49 1467.64,-129 1476.5,-115.46 1481.36,-97.63 1483.94,-84.32"/>
<polygon fill="#63b8ff" stroke="#63b8ff" points="1487.4,-84.83 1485.61,-74.38 1480.5,-83.66 1487.4,-84.83"/>
</a>
</g>
</g>
<!-- Node34&#45;&gt;Node28 -->
<g id="edge73_Node000034_Node000028" class="edge">
<title>Node34&#45;&gt;Node28</title>
<g id="a_edge73_Node000034_Node000028"><a xlink:title=" ">
<path fill="none" stroke="#63b8ff" d="M1480.31,-167.79C1549.11,-157.03 1652.07,-140.92 1718.3,-130.56"/>
<polygon fill="#63b8ff" stroke="#63b8ff" points="1718.86,-134.02 1728.2,-129.02 1717.78,-127.1 1718.86,-134.02"/>
</a>
</g>
</g>
<!-- Node35 -->
<g id="Node000035" class="node">
<title>Node35</title>
<g id="a_Node000035"><a xlink:title=" ">
<polygon fill="#e0e0e0" stroke="#999999" points="1458.64,-129 1336.64,-129 1336.64,-110 1458.64,-110 1458.64,-129"/>
<text text-anchor="middle" x="1397.64" y="-117" font-family="Helvetica,sans-Serif" font-size="10.00">nvbench/nvbench.cuh</text>
</a>
</g>
</g>
<!-- Node34&#45;&gt;Node35 -->
<g id="edge72_Node000034_Node000035" class="edge">
<title>Node34&#45;&gt;Node35</title>
<g id="a_edge72_Node000034_Node000035"><a xlink:title=" ">
<path fill="none" stroke="#63b8ff" d="M1405.98,-164.84C1404.53,-157.13 1402.72,-147.49 1401.15,-139.17"/>
<polygon fill="#63b8ff" stroke="#63b8ff" points="1404.58,-138.45 1399.29,-129.27 1397.7,-139.74 1404.58,-138.45"/>
</a>
</g>
</g>
</g>
</svg>
