<?xml version="1.0" encoding="UTF-8" standalone="no"?>
<!DOCTYPE svg PUBLIC "-//W3C//DTD SVG 1.1//EN"
 "http://www.w3.org/Graphics/SVG/1.1/DTD/svg11.dtd">
<!-- Generated by graphviz version 2.43.0 (0)
 -->
<!-- Title: include/comppare/internal/concepts.hpp Pages: 1 -->
<svg width="336pt" height="236pt"
 viewBox="0.00 0.00 336.32 236.00" xmlns="http://www.w3.org/2000/svg" xmlns:xlink="http://www.w3.org/1999/xlink">

<svg id="main" version="1.1" xmlns="http://www.w3.org/2000/svg" xmlns:xlink="http://www.w3.org/1999/xlink" xml:space="preserve" onload="init(evt)">
<style type="text/css"><![CDATA[
.node, .edge {opacity: 0.7;}
.node.selected, .edge.selected {opacity: 1;}
.edge:hover path { stroke: red; }
.edge:hover polygon { stroke: red; fill: red; }
]]></style>
<script type="application/ecmascript" xlink:href="svg.min.js"/>
<svg id="graph" class="graph">
<g id="graph0" class="graph" transform="scale(1 1) rotate(0) translate(4 232)">
<title>include/comppare/internal/concepts.hpp</title>
<!-- Node1 -->
<g id="Node000001" class="node">
<title>Node1</title>
<g id="a_Node000001"><a xlink:title="This file contains commonly used concepts internally within the ComPPare library.">
<polygon fill="#999999" stroke="#666666" points="245.32,-228 101.32,-228 101.32,-198 245.32,-198 245.32,-228"/>
<text text-anchor="start" x="109.32" y="-216" font-family="Helvetica,sans-Serif" font-size="10.00">include/comppare/internal</text>
<text text-anchor="middle" x="173.32" y="-205" font-family="Helvetica,sans-Serif" font-size="10.00">/concepts.hpp</text>
</a>
</g>
</g>
<!-- Node2 -->
<g id="Node000002" class="node">
<title>Node2</title>
<g id="a_Node000002"><a xlink:href="ansi_8hpp.html" target="_top" xlink:title="This file contains utilities for applying ANSI styles and colors to console output.">
<polygon fill="white" stroke="#666666" points="195.32,-162 51.32,-162 51.32,-132 195.32,-132 195.32,-162"/>
<text text-anchor="start" x="59.32" y="-150" font-family="Helvetica,sans-Serif" font-size="10.00">include/comppare/internal</text>
<text text-anchor="middle" x="123.32" y="-139" font-family="Helvetica,sans-Serif" font-size="10.00">/ansi.hpp</text>
</a>
</g>
</g>
<!-- Node1&#45;&gt;Node2 -->
<g id="edge1_Node000001_Node000002" class="edge">
<title>Node1&#45;&gt;Node2</title>
<g id="a_edge1_Node000001_Node000002"><a xlink:title=" ">
<path fill="none" stroke="#63b8ff" d="M155.98,-189.81C148.82,-180.64 140.72,-170.28 134.38,-162.16"/>
<polygon fill="#63b8ff" stroke="#63b8ff" points="153.31,-192.07 162.22,-197.8 158.82,-187.76 153.31,-192.07"/>
</a>
</g>
</g>
<!-- Node4 -->
<g id="Node000004" class="node">
<title>Node4</title>
<g id="a_Node000004"><a xlink:href="policy_8hpp.html" target="_top" xlink:title="This file contains error policies for comparing values in the ComPPare library.">
<polygon fill="white" stroke="#666666" points="328.32,-90.5 184.32,-90.5 184.32,-60.5 328.32,-60.5 328.32,-90.5"/>
<text text-anchor="start" x="192.32" y="-78.5" font-family="Helvetica,sans-Serif" font-size="10.00">include/comppare/internal</text>
<text text-anchor="middle" x="256.32" y="-67.5" font-family="Helvetica,sans-Serif" font-size="10.00">/policy.hpp</text>
</a>
</g>
</g>
<!-- Node1&#45;&gt;Node4 -->
<g id="edge7_Node000001_Node000004" class="edge">
<title>Node1&#45;&gt;Node4</title>
<g id="a_edge7_Node000001_Node000004"><a xlink:title=" ">
<path fill="none" stroke="#63b8ff" d="M187.66,-188.96C192.92,-180.49 198.9,-170.82 204.32,-162 219.68,-136.98 237.42,-107.73 247.71,-90.74"/>
<polygon fill="#63b8ff" stroke="#63b8ff" points="184.61,-187.24 182.3,-197.58 190.56,-190.93 184.61,-187.24"/>
</a>
</g>
</g>
<!-- Node3 -->
<g id="Node000003" class="node">
<title>Node3</title>
<g id="a_Node000003"><a xlink:href="comppare_8hpp.html" target="_top" xlink:title="This file is the main include file for the ComPPare framework.">
<polygon fill="white" stroke="#666666" points="179.32,-19 3.32,-19 3.32,0 179.32,0 179.32,-19"/>
<text text-anchor="middle" x="91.32" y="-7" font-family="Helvetica,sans-Serif" font-size="10.00">include/comppare/comppare.hpp</text>
</a>
</g>
</g>
<!-- Node2&#45;&gt;Node3 -->
<g id="edge2_Node000002_Node000003" class="edge">
<title>Node2&#45;&gt;Node3</title>
<g id="a_edge2_Node000002_Node000003"><a xlink:title=" ">
<path fill="none" stroke="#63b8ff" d="M47.04,-127.98C31.38,-120.67 16.79,-110.4 7.32,-96 -2.7,-80.78 -2.08,-70.61 7.32,-55 18.3,-36.76 39.54,-25.6 57.92,-19.02"/>
<polygon fill="#63b8ff" stroke="#63b8ff" points="45.79,-131.26 56.36,-131.96 48.54,-124.82 45.79,-131.26"/>
</a>
</g>
</g>
<!-- Node2&#45;&gt;Node4 -->
<g id="edge3_Node000002_Node000004" class="edge">
<title>Node2&#45;&gt;Node4</title>
<g id="a_edge3_Node000002_Node000004"><a xlink:title=" ">
<path fill="none" stroke="#63b8ff" d="M159.32,-127.19C181.42,-115.64 209.26,-101.09 229.44,-90.54"/>
<polygon fill="#63b8ff" stroke="#63b8ff" points="157.47,-124.2 150.23,-131.94 160.72,-130.41 157.47,-124.2"/>
</a>
</g>
</g>
<!-- Node5 -->
<g id="Node000005" class="node">
<title>Node5</title>
<g id="a_Node000005"><a xlink:href="google__benchmark_8hpp.html" target="_top" xlink:title="This file contains the Google Benchmark plugin for the ComPPare framework.">
<polygon fill="white" stroke="#666666" points="165.82,-96 16.82,-96 16.82,-55 165.82,-55 165.82,-96"/>
<text text-anchor="start" x="24.82" y="-84" font-family="Helvetica,sans-Serif" font-size="10.00">include/comppare/plugin</text>
<text text-anchor="start" x="24.82" y="-73" font-family="Helvetica,sans-Serif" font-size="10.00">/google_benchmark/google</text>
<text text-anchor="middle" x="91.32" y="-62" font-family="Helvetica,sans-Serif" font-size="10.00">_benchmark.hpp</text>
</a>
</g>
</g>
<!-- Node2&#45;&gt;Node5 -->
<g id="edge5_Node000002_Node000005" class="edge">
<title>Node2&#45;&gt;Node5</title>
<g id="a_edge5_Node000002_Node000005"><a xlink:title=" ">
<path fill="none" stroke="#63b8ff" d="M112.61,-122.75C108.63,-114.1 104.15,-104.37 100.33,-96.07"/>
<polygon fill="#63b8ff" stroke="#63b8ff" points="109.48,-124.32 116.84,-131.94 115.84,-121.39 109.48,-124.32"/>
</a>
</g>
</g>
<!-- Node4&#45;&gt;Node3 -->
<g id="edge4_Node000004_Node000003" class="edge">
<title>Node4&#45;&gt;Node3</title>
<g id="a_edge4_Node000004_Node000003"><a xlink:title=" ">
<path fill="none" stroke="#63b8ff" d="M210.58,-56.76C178.85,-44.45 138,-28.61 113.28,-19.02"/>
<polygon fill="#63b8ff" stroke="#63b8ff" points="209.52,-60.1 220.11,-60.45 212.05,-53.58 209.52,-60.1"/>
</a>
</g>
</g>
<!-- Node5&#45;&gt;Node3 -->
<g id="edge6_Node000005_Node000003" class="edge">
<title>Node5&#45;&gt;Node3</title>
<g id="a_edge6_Node000005_Node000003"><a xlink:title=" ">
<path fill="none" stroke="#63b8ff" d="M91.32,-44.74C91.32,-35.45 91.32,-25.9 91.32,-19.26"/>
<polygon fill="#63b8ff" stroke="#63b8ff" points="87.82,-44.95 91.32,-54.95 94.82,-44.95 87.82,-44.95"/>
</a>
</g>
</g>
</g>
</svg>
</svg>

<style type='text/css'>
<![CDATA[
[data-mouse-over-selected='false'] { opacity: 0.7; }
[data-mouse-over-selected='true']  { opacity: 1.0; }
]]>
</style>
<script type="application/ecmascript"><![CDATA[
document.addEventListener('DOMContentLoaded', (event) => {
  highlightEdges();
  highlightAdjacentNodes();
});
]]></script>
</svg>
