<?xml version="1.0" encoding="UTF-8" standalone="no"?>
<!DOCTYPE svg PUBLIC "-//W3C//DTD SVG 1.1//EN"
 "http://www.w3.org/Graphics/SVG/1.1/DTD/svg11.dtd">
<!-- Generated by graphviz version 2.43.0 (0)
 -->
<!-- Title: include/comppare/internal/config.hpp Pages: 1 -->
<svg width="218pt" height="159pt"
 viewBox="0.00 0.00 218.00 159.00" xmlns="http://www.w3.org/2000/svg" xmlns:xlink="http://www.w3.org/1999/xlink">

<svg id="main" version="1.1" xmlns="http://www.w3.org/2000/svg" xmlns:xlink="http://www.w3.org/1999/xlink" xml:space="preserve" onload="init(evt)">
<style type="text/css"><![CDATA[
.node, .edge {opacity: 0.7;}
.node.selected, .edge.selected {opacity: 1;}
.edge:hover path { stroke: red; }
.edge:hover polygon { stroke: red; fill: red; }
]]></style>
<script type="application/ecmascript" xlink:href="svg.min.js"/>
<svg id="graph" class="graph">
<g id="graph0" class="graph" transform="scale(1 1) rotate(0) translate(4 155)">
<title>include/comppare/internal/config.hpp</title>
<!-- Node1 -->
<g id="Node000001" class="node">
<title>Node1</title>
<g id="a_Node000001"><a xlink:title="This file contains configuration settings for the ComPPare library.">
<polygon fill="#999999" stroke="#666666" points="160,-151 16,-151 16,-121 160,-121 160,-151"/>
<text text-anchor="start" x="24" y="-139" font-family="Helvetica,sans-Serif" font-size="10.00">include/comppare/internal</text>
<text text-anchor="middle" x="88" y="-128" font-family="Helvetica,sans-Serif" font-size="10.00">/config.hpp</text>
</a>
</g>
</g>
<!-- Node2 -->
<g id="Node000002" class="node">
<title>Node2</title>
<g id="a_Node000002"><a xlink:href="comppare_8hpp.html" target="_top" xlink:title="This file is the main include file for the ComPPare framework.">
<polygon fill="white" stroke="#666666" points="176,-19 0,-19 0,0 176,0 176,-19"/>
<text text-anchor="middle" x="88" y="-7" font-family="Helvetica,sans-Serif" font-size="10.00">include/comppare/comppare.hpp</text>
</a>
</g>
</g>
<!-- Node1&#45;&gt;Node2 -->
<g id="edge1_Node000001_Node000002" class="edge">
<title>Node1&#45;&gt;Node2</title>
<g id="a_edge1_Node000001_Node000002"><a xlink:title=" ">
<path fill="none" stroke="#63b8ff" d="M70.35,-112.47C64.97,-104.29 59.75,-94.67 57,-85 53.35,-72.18 53.01,-67.72 57,-55 61.4,-40.99 71.95,-27.53 79.52,-19.15"/>
<polygon fill="#63b8ff" stroke="#63b8ff" points="67.53,-114.55 76.14,-120.72 73.26,-110.53 67.53,-114.55"/>
</a>
</g>
</g>
<!-- Node3 -->
<g id="Node000003" class="node">
<title>Node3</title>
<g id="a_Node000003"><a xlink:href="helper_8hpp.html" target="_top" xlink:title=" ">
<polygon fill="white" stroke="#666666" points="210,-85 66,-85 66,-55 210,-55 210,-85"/>
<text text-anchor="start" x="74" y="-73" font-family="Helvetica,sans-Serif" font-size="10.00">include/comppare/internal</text>
<text text-anchor="middle" x="138" y="-62" font-family="Helvetica,sans-Serif" font-size="10.00">/helper.hpp</text>
</a>
</g>
</g>
<!-- Node1&#45;&gt;Node3 -->
<g id="edge2_Node000001_Node000003" class="edge">
<title>Node1&#45;&gt;Node3</title>
<g id="a_edge2_Node000001_Node000003"><a xlink:title=" ">
<path fill="none" stroke="#63b8ff" d="M105.34,-112.81C112.5,-103.64 120.6,-93.28 126.93,-85.16"/>
<polygon fill="#63b8ff" stroke="#63b8ff" points="102.5,-110.76 99.1,-120.8 108.01,-115.07 102.5,-110.76"/>
</a>
</g>
</g>
<!-- Node3&#45;&gt;Node2 -->
<g id="edge3_Node000003_Node000002" class="edge">
<title>Node3&#45;&gt;Node2</title>
<g id="a_edge3_Node000003_Node000002"><a xlink:title=" ">
<path fill="none" stroke="#63b8ff" d="M119.27,-47.09C111.01,-37.42 101.77,-26.61 95.49,-19.27"/>
<polygon fill="#63b8ff" stroke="#63b8ff" points="116.74,-49.51 125.9,-54.84 122.06,-44.96 116.74,-49.51"/>
</a>
</g>
</g>
</g>
</svg>
</svg>

<style type='text/css'>
<![CDATA[
[data-mouse-over-selected='false'] { opacity: 0.7; }
[data-mouse-over-selected='true']  { opacity: 1.0; }
]]>
</style>
<script type="application/ecmascript"><![CDATA[
document.addEventListener('DOMContentLoaded', (event) => {
  highlightEdges();
  highlightAdjacentNodes();
});
]]></script>
</svg>
