<?xml version="1.0" encoding="UTF-8" standalone="no"?>
<!DOCTYPE svg PUBLIC "-//W3C//DTD SVG 1.1//EN"
 "http://www.w3.org/Graphics/SVG/1.1/DTD/svg11.dtd">
<!-- Generated by graphviz version 2.43.0 (0)
 -->
<!-- Title: include/comppare/plugin/google_benchmark/google_benchmark.hpp Pages: 1 -->
<!--zoomable 214 -->

<svg id="main" version="1.1" xmlns="http://www.w3.org/2000/svg" xmlns:xlink="http://www.w3.org/1999/xlink" xml:space="preserve" onload="init(evt)">
<style type="text/css"><![CDATA[
.node, .edge {opacity: 0.7;}
.node.selected, .edge.selected {opacity: 1;}
.edge:hover path { stroke: red; }
.edge:hover polygon { stroke: red; fill: red; }
]]></style>

<defs>
  <circle id="rim" cx="0" cy="0" r="7"/>
  <circle id="rim2" cx="0" cy="0" r="3.5"/>
  <g id="zoomPlus">
    <use xlink:href="#rim" fill="#404040"><set attributeName="fill" to="#808080" begin="zoomplus.mouseover" end="zoomplus.mouseout"/></use>
    <path d="M-4,0h8M0,-4v8" fill="none" stroke="white" stroke-width="1.5" pointer-events="none"/>
  </g>
  <g id="zoomMin">
    <use xlink:href="#rim" fill="#404040"><set attributeName="fill" to="#808080" begin="zoomminus.mouseover" end="zoomminus.mouseout"/></use>
    <path d="M-4,0h8" fill="none" stroke="white" stroke-width="1.5" pointer-events="none"/>
  </g>
  <g id="arrowUp" transform="translate(30 24)">
    <use xlink:href="#rim"/>
    <path pointer-events="none" fill="none" stroke="white" stroke-width="1.5" d="M0,-3.0v7 M-2.5,-0.5L0,-3.0L2.5,-0.5"/>
  </g>
  <g id="arrowRight" transform="rotate(90) translate(36 -43)">
    <use xlink:href="#rim"/>
    <path pointer-events="none" fill="none" stroke="white" stroke-width="1.5" d="M0,-3.0v7 M-2.5,-0.5L0,-3.0L2.5,-0.5"/>
  </g>
  <g id="arrowDown" transform="rotate(180) translate(-30 -48)">
    <use xlink:href="#rim"/>
    <path pointer-events="none" fill="none" stroke="white" stroke-width="1.5" d="M0,-3.0v7 M-2.5,-0.5L0,-3.0L2.5,-0.5"/>
  </g>
  <g id="arrowLeft" transform="rotate(270) translate(-36 17)">
    <use xlink:href="#rim"/>
    <path pointer-events="none" fill="none" stroke="white" stroke-width="1.5" d="M0,-3.0v7 M-2.5,-0.5L0,-3.0L2.5,-0.5"/>
  </g>
  <g id="resetDef">
    <use xlink:href="#rim2" fill="#404040"><set attributeName="fill" to="#808080" begin="reset.mouseover" end="reset.mouseout"/></use>
  </g>
</defs>
<script type="application/ecmascript">
var viewWidth = 1197;
var viewHeight = 214;
var sectionId = 'dynsection-0';
</script>
<script type="application/ecmascript" xlink:href="svg.min.js"/>
<svg id="graph" class="graph">
<g id="viewport">
<title>include/comppare/plugin/google_benchmark/google_benchmark.hpp</title>
<!-- Node1 -->
<g id="Node000001" class="node">
<title>Node1</title>
<g id="a_Node000001"><a xlink:title="This file contains the Google Benchmark plugin for the ComPPare framework.">
<polygon fill="#999999" stroke="#666666" points="790,-206 641,-206 641,-165 790,-165 790,-206"/>
<text text-anchor="start" x="649" y="-194" font-family="Helvetica,sans-Serif" font-size="10.00">include/comppare/plugin</text>
<text text-anchor="start" x="649" y="-183" font-family="Helvetica,sans-Serif" font-size="10.00">/google_benchmark/google</text>
<text text-anchor="middle" x="715.5" y="-172" font-family="Helvetica,sans-Serif" font-size="10.00">_benchmark.hpp</text>
</a>
</g>
</g>
<!-- Node2 -->
<g id="Node000002" class="node">
<title>Node2</title>
<g id="a_Node000002"><a xlink:title=" ">
<polygon fill="#e0e0e0" stroke="#999999" points="371,-74 326,-74 326,-55 371,-55 371,-74"/>
<text text-anchor="middle" x="348.5" y="-62" font-family="Helvetica,sans-Serif" font-size="10.00">utility</text>
</a>
</g>
</g>
<!-- Node1&#45;&gt;Node2 -->
<g id="edge1_Node000001_Node000002" class="edge">
<title>Node1&#45;&gt;Node2</title>
<g id="a_edge1_Node000001_Node000002"><a xlink:title=" ">
<path fill="none" stroke="#63b8ff" d="M640.98,-175.67C587.22,-167.66 513.65,-153.29 452.5,-129 420.96,-116.47 388.11,-94.71 367.97,-80.2"/>
<polygon fill="#63b8ff" stroke="#63b8ff" points="369.8,-77.2 359.67,-74.11 365.66,-82.85 369.8,-77.2"/>
</a>
</g>
</g>
<!-- Node3 -->
<g id="Node000003" class="node">
<title>Node3</title>
<g id="a_Node000003"><a xlink:title=" ">
<polygon fill="#e0e0e0" stroke="#999999" points="804,-129 763,-129 763,-110 804,-110 804,-129"/>
<text text-anchor="middle" x="783.5" y="-117" font-family="Helvetica,sans-Serif" font-size="10.00">tuple</text>
</a>
</g>
</g>
<!-- Node1&#45;&gt;Node3 -->
<g id="edge2_Node000001_Node000003" class="edge">
<title>Node1&#45;&gt;Node3</title>
<g id="a_edge2_Node000001_Node000003"><a xlink:title=" ">
<path fill="none" stroke="#63b8ff" d="M736.27,-164.95C746.06,-155.74 757.58,-144.9 766.79,-136.23"/>
<polygon fill="#63b8ff" stroke="#63b8ff" points="769.31,-138.66 774.19,-129.26 764.51,-133.57 769.31,-138.66"/>
</a>
</g>
</g>
<!-- Node4 -->
<g id="Node000004" class="node">
<title>Node4</title>
<g id="a_Node000004"><a xlink:title=" ">
<polygon fill="#e0e0e0" stroke="#999999" points="57,-19 0,-19 0,0 57,0 57,-19"/>
<text text-anchor="middle" x="28.5" y="-7" font-family="Helvetica,sans-Serif" font-size="10.00">ostream</text>
</a>
</g>
</g>
<!-- Node1&#45;&gt;Node4 -->
<g id="edge3_Node000001_Node000004" class="edge">
<title>Node1&#45;&gt;Node4</title>
<g id="a_edge3_Node000001_Node000004"><a xlink:title=" ">
<path fill="none" stroke="#63b8ff" d="M640.83,-180.57C542.18,-174.39 363.38,-159.78 213.5,-129 131.14,-112.09 84.67,-139.93 32.5,-74 22.66,-61.56 22.6,-43.09 24.44,-29.28"/>
<polygon fill="#63b8ff" stroke="#63b8ff" points="27.9,-29.85 26.18,-19.4 21,-28.64 27.9,-29.85"/>
</a>
</g>
</g>
<!-- Node5 -->
<g id="Node000005" class="node">
<title>Node5</title>
<g id="a_Node000005"><a xlink:title=" ">
<polygon fill="#e0e0e0" stroke="#999999" points="744.5,-74 688.5,-74 688.5,-55 744.5,-55 744.5,-74"/>
<text text-anchor="middle" x="716.5" y="-62" font-family="Helvetica,sans-Serif" font-size="10.00">iomanip</text>
</a>
</g>
</g>
<!-- Node1&#45;&gt;Node5 -->
<g id="edge4_Node000001_Node000005" class="edge">
<title>Node1&#45;&gt;Node5</title>
<g id="a_edge4_Node000001_Node000005"><a xlink:title=" ">
<path fill="none" stroke="#63b8ff" d="M715.67,-164.85C715.85,-142.48 716.16,-106.19 716.34,-84.21"/>
<polygon fill="#63b8ff" stroke="#63b8ff" points="719.84,-84.2 716.43,-74.18 712.84,-84.15 719.84,-84.2"/>
</a>
</g>
</g>
<!-- Node6 -->
<g id="Node000006" class="node">
<title>Node6</title>
<g id="a_Node000006"><a xlink:title=" ">
<polygon fill="#e0e0e0" stroke="#999999" points="882.5,-129 822.5,-129 822.5,-110 882.5,-110 882.5,-129"/>
<text text-anchor="middle" x="852.5" y="-117" font-family="Helvetica,sans-Serif" font-size="10.00">iostream</text>
</a>
</g>
</g>
<!-- Node1&#45;&gt;Node6 -->
<g id="edge5_Node000001_Node000006" class="edge">
<title>Node1&#45;&gt;Node6</title>
<g id="a_edge5_Node000001_Node000006"><a xlink:title=" ">
<path fill="none" stroke="#63b8ff" d="M757.35,-164.95C779.29,-154.7 805.56,-142.43 824.93,-133.38"/>
<polygon fill="#63b8ff" stroke="#63b8ff" points="826.53,-136.5 834.11,-129.09 823.57,-130.15 826.53,-136.5"/>
</a>
</g>
</g>
<!-- Node7 -->
<g id="Node000007" class="node">
<title>Node7</title>
<g id="a_Node000007"><a xlink:title=" ">
<polygon fill="#e0e0e0" stroke="#999999" points="445.5,-74 389.5,-74 389.5,-55 445.5,-55 445.5,-74"/>
<text text-anchor="middle" x="417.5" y="-62" font-family="Helvetica,sans-Serif" font-size="10.00">sstream</text>
</a>
</g>
</g>
<!-- Node1&#45;&gt;Node7 -->
<g id="edge6_Node000001_Node000007" class="edge">
<title>Node1&#45;&gt;Node7</title>
<g id="a_edge6_Node000001_Node000007"><a xlink:title=" ">
<path fill="none" stroke="#63b8ff" d="M640.82,-176.84C593.47,-169.59 532.19,-155.63 483.5,-129 462.24,-117.37 442.91,-97.09 430.74,-82.58"/>
<polygon fill="#63b8ff" stroke="#63b8ff" points="433.14,-79.99 424.13,-74.41 427.7,-84.39 433.14,-79.99"/>
</a>
</g>
</g>
<!-- Node8 -->
<g id="Node000008" class="node">
<title>Node8</title>
<g id="a_Node000008"><a xlink:title=" ">
<polygon fill="#e0e0e0" stroke="#999999" points="443.5,-19 399.5,-19 399.5,0 443.5,0 443.5,-19"/>
<text text-anchor="middle" x="421.5" y="-7" font-family="Helvetica,sans-Serif" font-size="10.00">string</text>
</a>
</g>
</g>
<!-- Node1&#45;&gt;Node8 -->
<g id="edge7_Node000001_Node000008" class="edge">
<title>Node1&#45;&gt;Node8</title>
<g id="a_edge7_Node000001_Node000008"><a xlink:title=" ">
<path fill="none" stroke="#63b8ff" d="M725.44,-164.94C741,-132.99 767.93,-71.49 753.5,-55 714.81,-10.78 530.36,-8.64 454.35,-9.71"/>
<polygon fill="#63b8ff" stroke="#63b8ff" points="453.89,-6.21 443.95,-9.88 454.01,-13.21 453.89,-6.21"/>
</a>
</g>
</g>
<!-- Node9 -->
<g id="Node000009" class="node">
<title>Node9</title>
<g id="a_Node000009"><a xlink:title=" ">
<polygon fill="#e0e0e0" stroke="#999999" points="964.5,-129 900.5,-129 900.5,-110 964.5,-110 964.5,-129"/>
<text text-anchor="middle" x="932.5" y="-117" font-family="Helvetica,sans-Serif" font-size="10.00">algorithm</text>
</a>
</g>
</g>
<!-- Node1&#45;&gt;Node9 -->
<g id="edge8_Node000001_Node000009" class="edge">
<title>Node1&#45;&gt;Node9</title>
<g id="a_edge8_Node000001_Node000009"><a xlink:title=" ">
<path fill="none" stroke="#63b8ff" d="M781.79,-164.95C818.4,-154.15 862.62,-141.11 893.66,-131.95"/>
<polygon fill="#63b8ff" stroke="#63b8ff" points="895.05,-135.19 903.65,-129.01 893.07,-128.48 895.05,-135.19"/>
</a>
</g>
</g>
<!-- Node10 -->
<g id="Node000010" class="node">
<title>Node10</title>
<g id="a_Node000010"><a xlink:title=" ">
<polygon fill="#e0e0e0" stroke="#999999" points="1032.5,-129 982.5,-129 982.5,-110 1032.5,-110 1032.5,-129"/>
<text text-anchor="middle" x="1007.5" y="-117" font-family="Helvetica,sans-Serif" font-size="10.00">cstring</text>
</a>
</g>
</g>
<!-- Node1&#45;&gt;Node10 -->
<g id="edge9_Node000001_Node000010" class="edge">
<title>Node1&#45;&gt;Node10</title>
<g id="a_edge9_Node000001_Node000010"><a xlink:title=" ">
<path fill="none" stroke="#63b8ff" d="M790.16,-169.12C839.34,-158.83 905.38,-144.72 972.38,-129.2"/>
<polygon fill="#63b8ff" stroke="#63b8ff" points="973.32,-132.58 982.27,-126.91 971.74,-125.76 973.32,-132.58"/>
</a>
</g>
</g>
<!-- Node11 -->
<g id="Node000011" class="node">
<title>Node11</title>
<g id="a_Node000011"><a xlink:title=" ">
<polygon fill="#e0e0e0" stroke="#999999" points="1188.5,-129 1050.5,-129 1050.5,-110 1188.5,-110 1188.5,-129"/>
<text text-anchor="middle" x="1119.5" y="-117" font-family="Helvetica,sans-Serif" font-size="10.00">benchmark/benchmark.h</text>
</a>
</g>
</g>
<!-- Node1&#45;&gt;Node11 -->
<g id="edge10_Node000001_Node000011" class="edge">
<title>Node1&#45;&gt;Node11</title>
<g id="a_edge10_Node000001_Node000011"><a xlink:title=" ">
<path fill="none" stroke="#63b8ff" d="M790.07,-172.69C866.24,-160.62 983.26,-142.08 1055.39,-130.66"/>
<polygon fill="#63b8ff" stroke="#63b8ff" points="1056.37,-134.04 1065.7,-129.02 1055.28,-127.13 1056.37,-134.04"/>
</a>
</g>
</g>
<!-- Node12 -->
<g id="Node000012" class="node">
<title>Node12</title>
<g id="a_Node000012"><a xlink:href="plugin_8hpp.html" target="_top" xlink:title="This file contains the base Plugin class and concept of a valid Plugin class for the ComPPare framewo...">
<polygon fill="white" stroke="#666666" points="644.5,-129 492.5,-129 492.5,-110 644.5,-110 644.5,-129"/>
<text text-anchor="middle" x="568.5" y="-117" font-family="Helvetica,sans-Serif" font-size="10.00">comppare/plugin/plugin.hpp</text>
</a>
</g>
</g>
<!-- Node1&#45;&gt;Node12 -->
<g id="edge11_Node000001_Node000012" class="edge">
<title>Node1&#45;&gt;Node12</title>
<g id="a_edge11_Node000001_Node000012"><a xlink:title=" ">
<path fill="none" stroke="#63b8ff" d="M670.6,-164.95C646.83,-154.6 618.35,-142.2 597.51,-133.13"/>
<polygon fill="#63b8ff" stroke="#63b8ff" points="598.8,-129.87 588.23,-129.09 596.01,-136.29 598.8,-129.87"/>
</a>
</g>
</g>
<!-- Node16 -->
<g id="Node000016" class="node">
<title>Node16</title>
<g id="a_Node000016"><a xlink:href="ansi_8hpp.html" target="_top" xlink:title="This file contains utilities for applying ANSI styles and colors to console output.">
<polygon fill="white" stroke="#666666" points="372.5,-129 222.5,-129 222.5,-110 372.5,-110 372.5,-129"/>
<text text-anchor="middle" x="297.5" y="-117" font-family="Helvetica,sans-Serif" font-size="10.00">comppare/internal/ansi.hpp</text>
</a>
</g>
</g>
<!-- Node1&#45;&gt;Node16 -->
<g id="edge19_Node000001_Node000016" class="edge">
<title>Node1&#45;&gt;Node16</title>
<g id="a_edge19_Node000001_Node000016"><a xlink:title=" ">
<path fill="none" stroke="#63b8ff" d="M640.77,-173.06C561.94,-160.99 438.9,-142.15 363.53,-130.61"/>
<polygon fill="#63b8ff" stroke="#63b8ff" points="363.63,-127.08 353.21,-129.03 362.57,-134 363.63,-127.08"/>
</a>
</g>
</g>
<!-- Node12&#45;&gt;Node2 -->
<g id="edge13_Node000012_Node000002" class="edge">
<title>Node12&#45;&gt;Node2</title>
<g id="a_edge13_Node000012_Node000002"><a xlink:title=" ">
<path fill="none" stroke="#63b8ff" d="M530.97,-109.93C495.05,-101.66 439.09,-88.6 381.26,-74.14"/>
<polygon fill="#63b8ff" stroke="#63b8ff" points="381.76,-70.65 371.21,-71.61 380.05,-77.44 381.76,-70.65"/>
</a>
</g>
</g>
<!-- Node12&#45;&gt;Node5 -->
<g id="edge14_Node000012_Node000005" class="edge">
<title>Node12&#45;&gt;Node5</title>
<g id="a_edge14_Node000012_Node000005"><a xlink:title=" ">
<path fill="none" stroke="#63b8ff" d="M592.28,-109.98C616.73,-101.23 655.03,-87.51 682.65,-77.62"/>
<polygon fill="#63b8ff" stroke="#63b8ff" points="684.05,-80.84 692.29,-74.17 681.69,-74.25 684.05,-80.84"/>
</a>
</g>
</g>
<!-- Node12&#45;&gt;Node7 -->
<g id="edge16_Node000012_Node000007" class="edge">
<title>Node12&#45;&gt;Node7</title>
<g id="a_edge16_Node000012_Node000007"><a xlink:title=" ">
<path fill="none" stroke="#63b8ff" d="M544.24,-109.98C519.18,-101.19 479.87,-87.39 451.67,-77.49"/>
<polygon fill="#63b8ff" stroke="#63b8ff" points="452.8,-74.18 442.2,-74.17 450.48,-80.78 452.8,-74.18"/>
</a>
</g>
</g>
<!-- Node12&#45;&gt;Node8 -->
<g id="edge17_Node000012_Node000008" class="edge">
<title>Node12&#45;&gt;Node8</title>
<g id="a_edge17_Node000012_Node000008"><a xlink:title=" ">
<path fill="none" stroke="#63b8ff" d="M557.94,-109.83C542.66,-97.37 513.36,-73.82 487.5,-55 473.11,-44.53 456.5,-33.34 443.55,-24.79"/>
<polygon fill="#63b8ff" stroke="#63b8ff" points="445.12,-21.64 434.84,-19.09 441.29,-27.5 445.12,-21.64"/>
</a>
</g>
</g>
<!-- Node13 -->
<g id="Node000013" class="node">
<title>Node13</title>
<g id="a_Node000013"><a xlink:title=" ">
<polygon fill="#e0e0e0" stroke="#999999" points="290.5,-19 230.5,-19 230.5,0 290.5,0 290.5,-19"/>
<text text-anchor="middle" x="260.5" y="-7" font-family="Helvetica,sans-Serif" font-size="10.00">concepts</text>
</a>
</g>
</g>
<!-- Node12&#45;&gt;Node13 -->
<g id="edge12_Node000012_Node000013" class="edge">
<title>Node12&#45;&gt;Node13</title>
<g id="a_edge12_Node000012_Node000013"><a xlink:title=" ">
<path fill="none" stroke="#63b8ff" d="M552.62,-109.9C536.25,-101 510.01,-86.66 487.5,-74 472.75,-65.7 470.25,-61.18 454.5,-55 403.16,-34.85 340.43,-22.53 300.47,-16.11"/>
<polygon fill="#63b8ff" stroke="#63b8ff" points="300.99,-12.65 290.57,-14.56 299.91,-19.56 300.99,-12.65"/>
</a>
</g>
</g>
<!-- Node14 -->
<g id="Node000014" class="node">
<title>Node14</title>
<g id="a_Node000014"><a xlink:title=" ">
<polygon fill="#e0e0e0" stroke="#999999" points="605,-74 540,-74 540,-55 605,-55 605,-74"/>
<text text-anchor="middle" x="572.5" y="-62" font-family="Helvetica,sans-Serif" font-size="10.00">stdexcept</text>
</a>
</g>
</g>
<!-- Node12&#45;&gt;Node14 -->
<g id="edge15_Node000012_Node000014" class="edge">
<title>Node12&#45;&gt;Node14</title>
<g id="a_edge15_Node000012_Node000014"><a xlink:title=" ">
<path fill="none" stroke="#63b8ff" d="M569.16,-109.75C569.68,-102.8 570.44,-92.85 571.09,-84.13"/>
<polygon fill="#63b8ff" stroke="#63b8ff" points="574.59,-84.32 571.85,-74.09 567.61,-83.8 574.59,-84.32"/>
</a>
</g>
</g>
<!-- Node15 -->
<g id="Node000015" class="node">
<title>Node15</title>
<g id="a_Node000015"><a xlink:title=" ">
<polygon fill="#e0e0e0" stroke="#999999" points="670,-74 623,-74 623,-55 670,-55 670,-74"/>
<text text-anchor="middle" x="646.5" y="-62" font-family="Helvetica,sans-Serif" font-size="10.00">vector</text>
</a>
</g>
</g>
<!-- Node12&#45;&gt;Node15 -->
<g id="edge18_Node000012_Node000015" class="edge">
<title>Node12&#45;&gt;Node15</title>
<g id="a_edge18_Node000012_Node000015"><a xlink:title=" ">
<path fill="none" stroke="#63b8ff" d="M581.03,-109.98C592.9,-101.92 610.96,-89.65 625.11,-80.03"/>
<polygon fill="#63b8ff" stroke="#63b8ff" points="627.44,-82.69 633.74,-74.17 623.5,-76.9 627.44,-82.69"/>
</a>
</g>
</g>
<!-- Node16&#45;&gt;Node2 -->
<g id="edge24_Node000016_Node000002" class="edge">
<title>Node16&#45;&gt;Node2</title>
<g id="a_edge24_Node000016_Node000002"><a xlink:title=" ">
<path fill="none" stroke="#63b8ff" d="M305.92,-109.75C313.27,-102.11 324.13,-90.82 333.04,-81.56"/>
<polygon fill="#63b8ff" stroke="#63b8ff" points="335.82,-83.72 340.24,-74.09 330.78,-78.87 335.82,-83.72"/>
</a>
</g>
</g>
<!-- Node16&#45;&gt;Node4 -->
<g id="edge20_Node000016_Node000004" class="edge">
<title>Node16&#45;&gt;Node4</title>
<g id="a_edge20_Node000016_Node000004"><a xlink:title=" ">
<path fill="none" stroke="#63b8ff" d="M222.2,-113.54C158.57,-107.86 73.85,-96.29 48.5,-74 35.9,-62.92 31.16,-43.98 29.41,-29.66"/>
<polygon fill="#63b8ff" stroke="#63b8ff" points="32.88,-29.09 28.57,-19.41 25.9,-29.67 32.88,-29.09"/>
</a>
</g>
</g>
<!-- Node16&#45;&gt;Node7 -->
<g id="edge21_Node000016_Node000007" class="edge">
<title>Node16&#45;&gt;Node7</title>
<g id="a_edge21_Node000016_Node000007"><a xlink:title=" ">
<path fill="none" stroke="#63b8ff" d="M316.78,-109.98C336.17,-101.42 366.31,-88.11 388.57,-78.28"/>
<polygon fill="#63b8ff" stroke="#63b8ff" points="390.14,-81.41 397.87,-74.17 387.31,-75.01 390.14,-81.41"/>
</a>
</g>
</g>
<!-- Node16&#45;&gt;Node8 -->
<g id="edge22_Node000016_Node000008" class="edge">
<title>Node16&#45;&gt;Node8</title>
<g id="a_edge22_Node000016_Node000008"><a xlink:title=" ">
<path fill="none" stroke="#63b8ff" d="M297.97,-110C299.14,-96.67 303.23,-70.77 317.5,-55 336.25,-34.3 366.26,-22.86 389.24,-16.79"/>
<polygon fill="#63b8ff" stroke="#63b8ff" points="390.34,-20.12 399.23,-14.36 388.69,-13.32 390.34,-20.12"/>
</a>
</g>
</g>
<!-- Node16&#45;&gt;Node13 -->
<g id="edge23_Node000016_Node000013" class="edge">
<title>Node16&#45;&gt;Node13</title>
<g id="a_edge23_Node000016_Node000013"><a xlink:title=" ">
<path fill="none" stroke="#63b8ff" d="M294.47,-109.66C288.43,-92.01 274.75,-52.09 266.71,-28.64"/>
<polygon fill="#63b8ff" stroke="#63b8ff" points="270.02,-27.48 263.47,-19.16 263.4,-29.75 270.02,-27.48"/>
</a>
</g>
</g>
<!-- Node17 -->
<g id="Node000017" class="node">
<title>Node17</title>
<g id="a_Node000017"><a xlink:href="concepts_8hpp.html" target="_top" xlink:title="This file contains commonly used concepts internally within the ComPPare library.">
<polygon fill="white" stroke="#666666" points="231,-74 58,-74 58,-55 231,-55 231,-74"/>
<text text-anchor="middle" x="144.5" y="-62" font-family="Helvetica,sans-Serif" font-size="10.00">comppare/internal/concepts.hpp</text>
</a>
</g>
</g>
<!-- Node16&#45;&gt;Node17 -->
<g id="edge25_Node000016_Node000017" class="edge">
<title>Node16&#45;&gt;Node17</title>
<g id="a_edge25_Node000016_Node000017"><a xlink:title=" ">
<path fill="none" stroke="#63b8ff" d="M272.92,-109.98C247.45,-101.16 207.46,-87.31 178.87,-77.41"/>
<polygon fill="#63b8ff" stroke="#63b8ff" points="179.87,-74.05 169.27,-74.08 177.58,-80.66 179.87,-74.05"/>
</a>
</g>
</g>
<!-- Node17&#45;&gt;Node4 -->
<g id="edge30_Node000017_Node000004" class="edge">
<title>Node17&#45;&gt;Node4</title>
<g id="a_edge30_Node000017_Node000004"><a xlink:title=" ">
<path fill="none" stroke="#63b8ff" d="M125.86,-54.98C107.2,-46.46 78.25,-33.23 56.76,-23.41"/>
<polygon fill="#63b8ff" stroke="#63b8ff" points="58.03,-20.14 47.48,-19.17 55.12,-26.51 58.03,-20.14"/>
</a>
</g>
</g>
<!-- Node17&#45;&gt;Node8 -->
<g id="edge29_Node000017_Node000008" class="edge">
<title>Node17&#45;&gt;Node8</title>
<g id="a_edge29_Node000017_Node000008"><a xlink:title=" ">
<path fill="none" stroke="#63b8ff" d="M189,-54.98C245,-44.27 339.8,-26.13 389.28,-16.67"/>
<polygon fill="#63b8ff" stroke="#63b8ff" points="390.24,-20.05 399.4,-14.73 388.92,-13.17 390.24,-20.05"/>
</a>
</g>
</g>
<!-- Node17&#45;&gt;Node13 -->
<g id="edge26_Node000017_Node000013" class="edge">
<title>Node17&#45;&gt;Node13</title>
<g id="a_edge26_Node000017_Node000013"><a xlink:title=" ">
<path fill="none" stroke="#63b8ff" d="M163.14,-54.98C181.8,-46.46 210.75,-33.23 232.24,-23.41"/>
<polygon fill="#63b8ff" stroke="#63b8ff" points="233.88,-26.51 241.52,-19.17 230.97,-20.14 233.88,-26.51"/>
</a>
</g>
</g>
<!-- Node18 -->
<g id="Node000018" class="node">
<title>Node18</title>
<g id="a_Node000018"><a xlink:title=" ">
<polygon fill="#e0e0e0" stroke="#999999" points="144,-19 75,-19 75,0 144,0 144,-19"/>
<text text-anchor="middle" x="109.5" y="-7" font-family="Helvetica,sans-Serif" font-size="10.00">type_traits</text>
</a>
</g>
</g>
<!-- Node17&#45;&gt;Node18 -->
<g id="edge27_Node000017_Node000018" class="edge">
<title>Node17&#45;&gt;Node18</title>
<g id="a_edge27_Node000017_Node000018"><a xlink:title=" ">
<path fill="none" stroke="#63b8ff" d="M138.72,-54.75C133.88,-47.42 126.82,-36.73 120.86,-27.7"/>
<polygon fill="#63b8ff" stroke="#63b8ff" points="123.6,-25.5 115.17,-19.09 117.76,-29.36 123.6,-25.5"/>
</a>
</g>
</g>
<!-- Node19 -->
<g id="Node000019" class="node">
<title>Node19</title>
<g id="a_Node000019"><a xlink:title=" ">
<polygon fill="#e0e0e0" stroke="#999999" points="212.5,-19 162.5,-19 162.5,0 212.5,0 212.5,-19"/>
<text text-anchor="middle" x="187.5" y="-7" font-family="Helvetica,sans-Serif" font-size="10.00">ranges</text>
</a>
</g>
</g>
<!-- Node17&#45;&gt;Node19 -->
<g id="edge28_Node000017_Node000019" class="edge">
<title>Node17&#45;&gt;Node19</title>
<g id="a_edge28_Node000017_Node000019"><a xlink:title=" ">
<path fill="none" stroke="#63b8ff" d="M151.6,-54.75C157.67,-47.26 166.59,-36.28 174.01,-27.13"/>
<polygon fill="#63b8ff" stroke="#63b8ff" points="176.95,-29.06 180.53,-19.09 171.51,-24.65 176.95,-29.06"/>
</a>
</g>
</g>
</g>
</svg>

<g id="navigator" transform="translate(0 0)" fill="#404254">
  <rect fill="#f2f5e9" fill-opacity="0.5" stroke="#606060" stroke-width=".5" x="0" y="0" width="60" height="60"/>
  <use id="zoomplus" xlink:href="#zoomPlus" x="17" y="9" onmousedown="handleZoom(evt,'in')"/>
  <use id="zoomminus" xlink:href="#zoomMin" x="42" y="9" onmousedown="handleZoom(evt,'out')"/>
  <use id="reset" xlink:href="#resetDef" x="30" y="36" onmousedown="handleReset()"/>
   <use id="arrowup" xlink:href="#arrowUp" x="0" y="0" onmousedown="handlePan(0,-1)"/>
  <use id="arrowright" xlink:href="#arrowRight" x="0" y="0" onmousedown="handlePan(1,0)"/>
  <use id="arrowdown" xlink:href="#arrowDown" x="0" y="0" onmousedown="handlePan(0,1)"/>
  <use id="arrowleft" xlink:href="#arrowLeft" x="0" y="0" onmousedown="handlePan(-1,0)"/>
</g>
<svg viewBox="0 0 15 15" width="100%" height="30px" preserveAspectRatio="xMaxYMin meet">
 <g id="arrow_out" transform="scale(0.3 0.3)">
  <a xlink:href="google__benchmark_8hpp__incl_org.svg" target="_base">
   <rect id="button" ry="5" rx="5" y="6" x="6" height="38" width="38"
        fill="#f2f5e9" fill-opacity="0.5" stroke="#606060" stroke-width="1.0"/>
   <path id="arrow"
     d="M 11.500037,31.436501 C 11.940474,20.09759 22.043105,11.32322 32.158766,21.979434 L 37.068811,17.246167 C 37.068811,17.246167 37.088388,32 37.088388,32 L 22.160133,31.978069 C 22.160133,31.978069 26.997745,27.140456 26.997745,27.140456 C 18.528582,18.264221 13.291696,25.230495 11.500037,31.436501 z"
     style="fill:#404040;"/>
  </a>
 </g>
</svg>

<style type='text/css'>
<![CDATA[
[data-mouse-over-selected='false'] { opacity: 0.7; }
[data-mouse-over-selected='true']  { opacity: 1.0; }
]]>
</style>
<script type="application/ecmascript"><![CDATA[
document.addEventListener('DOMContentLoaded', (event) => {
  highlightEdges();
  highlightAdjacentNodes();
});
]]></script>
</svg>
