<?xml version="1.0" encoding="UTF-8" standalone="no"?>
<!DOCTYPE svg PUBLIC "-//W3C//DTD SVG 1.1//EN"
 "http://www.w3.org/Graphics/SVG/1.1/DTD/svg11.dtd">
<!-- Generated by graphviz version 2.43.0 (0)
 -->
<!-- Title: Graphical Class Hierarchy Pages: 1 -->
<svg width="384pt" height="98pt"
 viewBox="0.00 0.00 384.00 97.50" xmlns="http://www.w3.org/2000/svg" xmlns:xlink="http://www.w3.org/1999/xlink">
<g id="graph0" class="graph" transform="scale(1 1) rotate(0) translate(4 93.5)">
<title>Graphical Class Hierarchy</title>
<!-- Node0 -->
<g id="Node000000" class="node">
<title>Node0</title>
<g id="a_Node000000"><a xlink:href="classcomppare_1_1plugin_1_1Plugin.html" target="_top" xlink:title="Base class for plugins in the ComPPare framework.">
<polygon fill="white" stroke="#666666" points="137,-57 0,-57 0,-27 137,-27 137,-57"/>
<text text-anchor="start" x="8" y="-45" font-family="Helvetica,sans-Serif" font-size="10.00">comppare::plugin::Plugin</text>
<text text-anchor="middle" x="68.5" y="-34" font-family="Helvetica,sans-Serif" font-size="10.00">&lt; InTup, OutTup &gt;</text>
</a>
</g>
</g>
<!-- Node1 -->
<g id="Node000001" class="node">
<title>Node1</title>
<g id="a_Node000001"><a xlink:href="classcomppare_1_1plugin_1_1google__benchmark_1_1GoogleBenchmarkPlugin.html" target="_top" xlink:title="Google Benchmark plugin for the ComPPare framework.">
<polygon fill="white" stroke="#666666" points="376,-89.5 173,-89.5 173,-48.5 376,-48.5 376,-89.5"/>
<text text-anchor="start" x="181" y="-77.5" font-family="Helvetica,sans-Serif" font-size="10.00">comppare::plugin::google</text>
<text text-anchor="start" x="181" y="-66.5" font-family="Helvetica,sans-Serif" font-size="10.00">_benchmark::GoogleBenchmarkPlugin</text>
<text text-anchor="middle" x="274.5" y="-55.5" font-family="Helvetica,sans-Serif" font-size="10.00">&lt; InTup, OutTup &gt;</text>
</a>
</g>
</g>
<!-- Node0&#45;&gt;Node1 -->
<g id="edge1_Node000000_Node000001" class="edge">
<title>Node0&#45;&gt;Node1</title>
<g id="a_edge1_Node000000_Node000001"><a xlink:title=" ">
<path fill="none" stroke="#63b8ff" d="M147.25,-52.29C155.64,-53.4 164.27,-54.54 172.88,-55.68"/>
<polygon fill="#63b8ff" stroke="#63b8ff" points="147.52,-48.8 137.15,-50.95 146.6,-55.74 147.52,-48.8"/>
</a>
</g>
</g>
<!-- Node2 -->
<g id="Node000002" class="node">
<title>Node2</title>
<g id="a_Node000002"><a xlink:href="classcomppare_1_1plugin_1_1nvbenchplugin_1_1nvbenchPlugin.html" target="_top" xlink:title="NVBench plugin for the ComPPare framework.">
<polygon fill="white" stroke="#666666" points="365.5,-30 183.5,-30 183.5,0 365.5,0 365.5,-30"/>
<text text-anchor="start" x="191.5" y="-18" font-family="Helvetica,sans-Serif" font-size="10.00">comppare::plugin::nvbenchplugin</text>
<text text-anchor="middle" x="274.5" y="-7" font-family="Helvetica,sans-Serif" font-size="10.00">::nvbenchPlugin&lt; InTup, OutTup &gt;</text>
</a>
</g>
</g>
<!-- Node0&#45;&gt;Node2 -->
<g id="edge2_Node000000_Node000002" class="edge">
<title>Node0&#45;&gt;Node2</title>
<g id="a_edge2_Node000000_Node000002"><a xlink:title=" ">
<path fill="none" stroke="#63b8ff" d="M147.31,-31.7C159.02,-30.15 171.19,-28.54 183.14,-26.96"/>
<polygon fill="#63b8ff" stroke="#63b8ff" points="146.6,-28.26 137.15,-33.05 147.52,-35.2 146.6,-28.26"/>
</a>
</g>
</g>
</g>
</svg>
