<?xml version="1.0" encoding="UTF-8" standalone="no"?>
<!DOCTYPE svg PUBLIC "-//W3C//DTD SVG 1.1//EN"
 "http://www.w3.org/Graphics/SVG/1.1/DTD/svg11.dtd">
<!-- Generated by graphviz version 2.43.0 (0)
 -->
<!-- Title: include/comppare/plugin/nvbench/nvbench.hpp Pages: 1 -->
<svg width="608pt" height="148pt"
 viewBox="0.00 0.00 608.00 148.00" xmlns="http://www.w3.org/2000/svg" xmlns:xlink="http://www.w3.org/1999/xlink">
<g id="graph0" class="graph" transform="scale(1 1) rotate(0) translate(4 144)">
<title>include/comppare/plugin/nvbench/nvbench.hpp</title>
<!-- Node1 -->
<g id="Node000001" class="node">
<title>Node1</title>
<g id="a_Node000001"><a xlink:title="This file contains the NVBench plugin for the ComPPare framework.">
<polygon fill="#999999" stroke="#666666" points="480,-140 343,-140 343,-110 480,-110 480,-140"/>
<text text-anchor="start" x="351" y="-128" font-family="Helvetica,sans-Serif" font-size="10.00">include/comppare/plugin</text>
<text text-anchor="middle" x="411.5" y="-117" font-family="Helvetica,sans-Serif" font-size="10.00">/nvbench/nvbench.hpp</text>
</a>
</g>
</g>
<!-- Node2 -->
<g id="Node000002" class="node">
<title>Node2</title>
<g id="a_Node000002"><a xlink:title=" ">
<polygon fill="#e0e0e0" stroke="#999999" points="194.5,-74 72.5,-74 72.5,-55 194.5,-55 194.5,-74"/>
<text text-anchor="middle" x="133.5" y="-62" font-family="Helvetica,sans-Serif" font-size="10.00">nvbench/nvbench.cuh</text>
</a>
</g>
</g>
<!-- Node1&#45;&gt;Node2 -->
<g id="edge1_Node000001_Node000002" class="edge">
<title>Node1&#45;&gt;Node2</title>
<g id="a_edge1_Node000001_Node000002"><a xlink:title=" ">
<path fill="none" stroke="#63b8ff" d="M344.91,-109.99C295.48,-99.59 229.1,-85.62 184,-76.13"/>
<polygon fill="#63b8ff" stroke="#63b8ff" points="184.65,-72.69 174.15,-74.05 183.21,-79.54 184.65,-72.69"/>
</a>
</g>
</g>
<!-- Node3 -->
<g id="Node000003" class="node">
<title>Node3</title>
<g id="a_Node000003"><a xlink:href="plugin_8hpp.html" target="_top" xlink:title="This file contains the base Plugin class and concept of a valid Plugin class for the ComPPare framewo...">
<polygon fill="white" stroke="#666666" points="364.5,-74 212.5,-74 212.5,-55 364.5,-55 364.5,-74"/>
<text text-anchor="middle" x="288.5" y="-62" font-family="Helvetica,sans-Serif" font-size="10.00">comppare/plugin/plugin.hpp</text>
</a>
</g>
</g>
<!-- Node1&#45;&gt;Node3 -->
<g id="edge2_Node000001_Node000003" class="edge">
<title>Node1&#45;&gt;Node3</title>
<g id="a_edge2_Node000001_Node000003"><a xlink:title=" ">
<path fill="none" stroke="#63b8ff" d="M382.04,-109.99C361.88,-100.4 335.36,-87.79 315.7,-78.44"/>
<polygon fill="#63b8ff" stroke="#63b8ff" points="317.2,-75.27 306.66,-74.14 314.19,-81.6 317.2,-75.27"/>
</a>
</g>
</g>
<!-- Node8 -->
<g id="Node000008" class="node">
<title>Node8</title>
<g id="a_Node000008"><a xlink:title=" ">
<polygon fill="#e0e0e0" stroke="#999999" points="420.5,-19 364.5,-19 364.5,0 420.5,0 420.5,-19"/>
<text text-anchor="middle" x="392.5" y="-7" font-family="Helvetica,sans-Serif" font-size="10.00">sstream</text>
</a>
</g>
</g>
<!-- Node1&#45;&gt;Node8 -->
<g id="edge12_Node000001_Node000008" class="edge">
<title>Node1&#45;&gt;Node8</title>
<g id="a_edge12_Node000001_Node000008"><a xlink:title=" ">
<path fill="none" stroke="#63b8ff" d="M409.09,-109.63C405.68,-89.21 399.42,-51.81 395.64,-29.24"/>
<polygon fill="#63b8ff" stroke="#63b8ff" points="399.06,-28.51 393.96,-19.23 392.16,-29.67 399.06,-28.51"/>
</a>
</g>
</g>
<!-- Node9 -->
<g id="Node000009" class="node">
<title>Node9</title>
<g id="a_Node000009"><a xlink:title=" ">
<polygon fill="#e0e0e0" stroke="#999999" points="482.5,-19 438.5,-19 438.5,0 482.5,0 482.5,-19"/>
<text text-anchor="middle" x="460.5" y="-7" font-family="Helvetica,sans-Serif" font-size="10.00">string</text>
</a>
</g>
</g>
<!-- Node1&#45;&gt;Node9 -->
<g id="edge13_Node000001_Node000009" class="edge">
<title>Node1&#45;&gt;Node9</title>
<g id="a_edge13_Node000001_Node000009"><a xlink:title=" ">
<path fill="none" stroke="#63b8ff" d="M417.71,-109.63C426.6,-89.03 442.96,-51.12 452.67,-28.63"/>
<polygon fill="#63b8ff" stroke="#63b8ff" points="455.98,-29.8 456.73,-19.23 449.55,-27.02 455.98,-29.8"/>
</a>
</g>
</g>
<!-- Node11 -->
<g id="Node000011" class="node">
<title>Node11</title>
<g id="a_Node000011"><a xlink:title=" ">
<polygon fill="#e0e0e0" stroke="#999999" points="516.5,-74 458.5,-74 458.5,-55 516.5,-55 516.5,-74"/>
<text text-anchor="middle" x="487.5" y="-62" font-family="Helvetica,sans-Serif" font-size="10.00">memory</text>
</a>
</g>
</g>
<!-- Node1&#45;&gt;Node11 -->
<g id="edge10_Node000001_Node000011" class="edge">
<title>Node1&#45;&gt;Node11</title>
<g id="a_edge10_Node000001_Node000011"><a xlink:title=" ">
<path fill="none" stroke="#63b8ff" d="M429.9,-109.84C441.38,-101 456.15,-89.63 467.86,-80.62"/>
<polygon fill="#63b8ff" stroke="#63b8ff" points="470.32,-83.14 476.11,-74.27 466.05,-77.59 470.32,-83.14"/>
</a>
</g>
</g>
<!-- Node12 -->
<g id="Node000012" class="node">
<title>Node12</title>
<g id="a_Node000012"><a xlink:title=" ">
<polygon fill="#e0e0e0" stroke="#999999" points="600,-74 535,-74 535,-55 600,-55 600,-74"/>
<text text-anchor="middle" x="567.5" y="-62" font-family="Helvetica,sans-Serif" font-size="10.00">functional</text>
</a>
</g>
</g>
<!-- Node1&#45;&gt;Node12 -->
<g id="edge11_Node000001_Node000012" class="edge">
<title>Node1&#45;&gt;Node12</title>
<g id="a_edge11_Node000001_Node000012"><a xlink:title=" ">
<path fill="none" stroke="#63b8ff" d="M448.87,-109.99C475.13,-100.14 509.91,-87.1 535.02,-77.68"/>
<polygon fill="#63b8ff" stroke="#63b8ff" points="536.33,-80.93 544.46,-74.14 533.87,-74.37 536.33,-80.93"/>
</a>
</g>
</g>
<!-- Node4 -->
<g id="Node000004" class="node">
<title>Node4</title>
<g id="a_Node000004"><a xlink:title=" ">
<polygon fill="#e0e0e0" stroke="#999999" points="346.5,-19 286.5,-19 286.5,0 346.5,0 346.5,-19"/>
<text text-anchor="middle" x="316.5" y="-7" font-family="Helvetica,sans-Serif" font-size="10.00">concepts</text>
</a>
</g>
</g>
<!-- Node3&#45;&gt;Node4 -->
<g id="edge3_Node000003_Node000004" class="edge">
<title>Node3&#45;&gt;Node4</title>
<g id="a_edge3_Node000003_Node000004"><a xlink:title=" ">
<path fill="none" stroke="#63b8ff" d="M293.12,-54.75C296.96,-47.49 302.52,-36.95 307.26,-27.98"/>
<polygon fill="#63b8ff" stroke="#63b8ff" points="310.39,-29.57 311.96,-19.09 304.2,-26.3 310.39,-29.57"/>
</a>
</g>
</g>
<!-- Node5 -->
<g id="Node000005" class="node">
<title>Node5</title>
<g id="a_Node000005"><a xlink:title=" ">
<polygon fill="#e0e0e0" stroke="#999999" points="45,-19 0,-19 0,0 45,0 45,-19"/>
<text text-anchor="middle" x="22.5" y="-7" font-family="Helvetica,sans-Serif" font-size="10.00">utility</text>
</a>
</g>
</g>
<!-- Node3&#45;&gt;Node5 -->
<g id="edge4_Node000003_Node000005" class="edge">
<title>Node3&#45;&gt;Node5</title>
<g id="a_edge4_Node000003_Node000005"><a xlink:title=" ">
<path fill="none" stroke="#63b8ff" d="M238.07,-54.99C192.76,-47.1 124.2,-34.56 55.34,-19.05"/>
<polygon fill="#63b8ff" stroke="#63b8ff" points="55.7,-15.54 45.18,-16.74 54.15,-22.37 55.7,-15.54"/>
</a>
</g>
</g>
<!-- Node6 -->
<g id="Node000006" class="node">
<title>Node6</title>
<g id="a_Node000006"><a xlink:title=" ">
<polygon fill="#e0e0e0" stroke="#999999" points="119.5,-19 63.5,-19 63.5,0 119.5,0 119.5,-19"/>
<text text-anchor="middle" x="91.5" y="-7" font-family="Helvetica,sans-Serif" font-size="10.00">iomanip</text>
</a>
</g>
</g>
<!-- Node3&#45;&gt;Node6 -->
<g id="edge5_Node000003_Node000006" class="edge">
<title>Node3&#45;&gt;Node6</title>
<g id="a_edge5_Node000003_Node000006"><a xlink:title=" ">
<path fill="none" stroke="#63b8ff" d="M256.85,-54.98C222.15,-45.65 166.5,-30.68 129.48,-20.72"/>
<polygon fill="#63b8ff" stroke="#63b8ff" points="130.13,-17.27 119.56,-18.05 128.31,-24.03 130.13,-17.27"/>
</a>
</g>
</g>
<!-- Node7 -->
<g id="Node000007" class="node">
<title>Node7</title>
<g id="a_Node000007"><a xlink:title=" ">
<polygon fill="#e0e0e0" stroke="#999999" points="203,-19 138,-19 138,0 203,0 203,-19"/>
<text text-anchor="middle" x="170.5" y="-7" font-family="Helvetica,sans-Serif" font-size="10.00">stdexcept</text>
</a>
</g>
</g>
<!-- Node3&#45;&gt;Node7 -->
<g id="edge6_Node000003_Node000007" class="edge">
<title>Node3&#45;&gt;Node7</title>
<g id="a_edge6_Node000003_Node000007"><a xlink:title=" ">
<path fill="none" stroke="#63b8ff" d="M269.54,-54.98C250.47,-46.42 220.84,-33.11 198.95,-23.28"/>
<polygon fill="#63b8ff" stroke="#63b8ff" points="200.36,-20.07 189.8,-19.17 197.49,-26.46 200.36,-20.07"/>
</a>
</g>
</g>
<!-- Node3&#45;&gt;Node8 -->
<g id="edge7_Node000003_Node000008" class="edge">
<title>Node3&#45;&gt;Node8</title>
<g id="a_edge7_Node000003_Node000008"><a xlink:title=" ">
<path fill="none" stroke="#63b8ff" d="M305.21,-54.98C321.71,-46.57 347.2,-33.59 366.38,-23.81"/>
<polygon fill="#63b8ff" stroke="#63b8ff" points="368.17,-26.83 375.49,-19.17 364.99,-20.59 368.17,-26.83"/>
</a>
</g>
</g>
<!-- Node3&#45;&gt;Node9 -->
<g id="edge8_Node000003_Node000009" class="edge">
<title>Node3&#45;&gt;Node9</title>
<g id="a_edge8_Node000003_Node000009"><a xlink:title=" ">
<path fill="none" stroke="#63b8ff" d="M316.13,-54.98C346.81,-45.53 396.25,-30.3 428.56,-20.34"/>
<polygon fill="#63b8ff" stroke="#63b8ff" points="429.88,-23.6 438.4,-17.31 427.81,-16.91 429.88,-23.6"/>
</a>
</g>
</g>
<!-- Node10 -->
<g id="Node000010" class="node">
<title>Node10</title>
<g id="a_Node000010"><a xlink:title=" ">
<polygon fill="#e0e0e0" stroke="#999999" points="268,-19 221,-19 221,0 268,0 268,-19"/>
<text text-anchor="middle" x="244.5" y="-7" font-family="Helvetica,sans-Serif" font-size="10.00">vector</text>
</a>
</g>
</g>
<!-- Node3&#45;&gt;Node10 -->
<g id="edge9_Node000003_Node000010" class="edge">
<title>Node3&#45;&gt;Node10</title>
<g id="a_edge9_Node000003_Node000010"><a xlink:title=" ">
<path fill="none" stroke="#63b8ff" d="M281.23,-54.75C274.96,-47.18 265.71,-36.05 258.07,-26.84"/>
<polygon fill="#63b8ff" stroke="#63b8ff" points="260.71,-24.55 251.63,-19.09 255.33,-29.02 260.71,-24.55"/>
</a>
</g>
</g>
</g>
</svg>
