<?xml version="1.0" encoding="UTF-8" standalone="no"?>
<!DOCTYPE svg PUBLIC "-//W3C//DTD SVG 1.1//EN"
 "http://www.w3.org/Graphics/SVG/1.1/DTD/svg11.dtd">
<!-- Generated by graphviz version 2.43.0 (0)
 -->
<!-- Title: include/comppare/plugin/plugin.hpp Pages: 1 -->
<svg width="327pt" height="170pt"
 viewBox="0.00 0.00 327.40 170.00" xmlns="http://www.w3.org/2000/svg" xmlns:xlink="http://www.w3.org/1999/xlink">

<svg id="main" version="1.1" xmlns="http://www.w3.org/2000/svg" xmlns:xlink="http://www.w3.org/1999/xlink" xml:space="preserve" onload="init(evt)">
<style type="text/css"><![CDATA[
.node, .edge {opacity: 0.7;}
.node.selected, .edge.selected {opacity: 1;}
.edge:hover path { stroke: red; }
.edge:hover polygon { stroke: red; fill: red; }
]]></style>
<script type="application/ecmascript" xlink:href="svg.min.js"/>
<svg id="graph" class="graph">
<g id="graph0" class="graph" transform="scale(1 1) rotate(0) translate(4 166)">
<title>include/comppare/plugin/plugin.hpp</title>
<!-- Node1 -->
<g id="Node000001" class="node">
<title>Node1</title>
<g id="a_Node000001"><a xlink:title="This file contains the base Plugin class and concept of a valid Plugin class for the ComPPare framewo...">
<polygon fill="#999999" stroke="#666666" points="158.4,-162 21.4,-162 21.4,-132 158.4,-132 158.4,-162"/>
<text text-anchor="start" x="29.4" y="-150" font-family="Helvetica,sans-Serif" font-size="10.00">include/comppare/plugin</text>
<text text-anchor="middle" x="89.9" y="-139" font-family="Helvetica,sans-Serif" font-size="10.00">/plugin.hpp</text>
</a>
</g>
</g>
<!-- Node2 -->
<g id="Node000002" class="node">
<title>Node2</title>
<g id="a_Node000002"><a xlink:href="comppare_8hpp.html" target="_top" xlink:title="This file is the main include file for the ComPPare framework.">
<polygon fill="white" stroke="#666666" points="177.9,-19 1.9,-19 1.9,0 177.9,0 177.9,-19"/>
<text text-anchor="middle" x="89.9" y="-7" font-family="Helvetica,sans-Serif" font-size="10.00">include/comppare/comppare.hpp</text>
</a>
</g>
</g>
<!-- Node1&#45;&gt;Node2 -->
<g id="edge1_Node000001_Node000002" class="edge">
<title>Node1&#45;&gt;Node2</title>
<g id="a_edge1_Node000001_Node000002"><a xlink:title=" ">
<path fill="none" stroke="#63b8ff" d="M40.29,-127.07C27.09,-119.5 14.43,-109.33 6.9,-96 -2.07,-80.14 -2.46,-70.64 6.9,-55 17.73,-36.9 38.72,-25.74 56.88,-19.13"/>
<polygon fill="#63b8ff" stroke="#63b8ff" points="38.97,-130.34 49.45,-131.91 42.24,-124.15 38.97,-130.34"/>
</a>
</g>
</g>
<!-- Node3 -->
<g id="Node000003" class="node">
<title>Node3</title>
<g id="a_Node000003"><a xlink:href="google__benchmark_8hpp.html" target="_top" xlink:title="This file contains the Google Benchmark plugin for the ComPPare framework.">
<polygon fill="white" stroke="#666666" points="164.4,-96 15.4,-96 15.4,-55 164.4,-55 164.4,-96"/>
<text text-anchor="start" x="23.4" y="-84" font-family="Helvetica,sans-Serif" font-size="10.00">include/comppare/plugin</text>
<text text-anchor="start" x="23.4" y="-73" font-family="Helvetica,sans-Serif" font-size="10.00">/google_benchmark/google</text>
<text text-anchor="middle" x="89.9" y="-62" font-family="Helvetica,sans-Serif" font-size="10.00">_benchmark.hpp</text>
</a>
</g>
</g>
<!-- Node1&#45;&gt;Node3 -->
<g id="edge2_Node000001_Node000003" class="edge">
<title>Node1&#45;&gt;Node3</title>
<g id="a_edge2_Node000001_Node000003"><a xlink:title=" ">
<path fill="none" stroke="#63b8ff" d="M89.9,-121.91C89.9,-113.47 89.9,-104.1 89.9,-96.07"/>
<polygon fill="#63b8ff" stroke="#63b8ff" points="86.4,-121.94 89.9,-131.94 93.4,-121.94 86.4,-121.94"/>
</a>
</g>
</g>
<!-- Node4 -->
<g id="Node000004" class="node">
<title>Node4</title>
<g id="a_Node000004"><a xlink:href="nvbench_8hpp.html" target="_top" xlink:title="This file contains the NVBench plugin for the ComPPare framework.">
<polygon fill="white" stroke="#666666" points="319.4,-90.5 182.4,-90.5 182.4,-60.5 319.4,-60.5 319.4,-90.5"/>
<text text-anchor="start" x="190.4" y="-78.5" font-family="Helvetica,sans-Serif" font-size="10.00">include/comppare/plugin</text>
<text text-anchor="middle" x="250.9" y="-67.5" font-family="Helvetica,sans-Serif" font-size="10.00">/nvbench/nvbench.hpp</text>
</a>
</g>
</g>
<!-- Node1&#45;&gt;Node4 -->
<g id="edge4_Node000001_Node000004" class="edge">
<title>Node1&#45;&gt;Node4</title>
<g id="a_edge4_Node000001_Node000004"><a xlink:title=" ">
<path fill="none" stroke="#63b8ff" d="M131.69,-127.96C158.72,-116.29 193.39,-101.32 218.36,-90.54"/>
<polygon fill="#63b8ff" stroke="#63b8ff" points="130.27,-124.76 122.48,-131.94 133.04,-131.19 130.27,-124.76"/>
</a>
</g>
</g>
<!-- Node3&#45;&gt;Node2 -->
<g id="edge3_Node000003_Node000002" class="edge">
<title>Node3&#45;&gt;Node2</title>
<g id="a_edge3_Node000003_Node000002"><a xlink:title=" ">
<path fill="none" stroke="#63b8ff" d="M89.9,-44.74C89.9,-35.45 89.9,-25.9 89.9,-19.26"/>
<polygon fill="#63b8ff" stroke="#63b8ff" points="86.4,-44.95 89.9,-54.95 93.4,-44.95 86.4,-44.95"/>
</a>
</g>
</g>
<!-- Node4&#45;&gt;Node2 -->
<g id="edge5_Node000004_Node000002" class="edge">
<title>Node4&#45;&gt;Node2</title>
<g id="a_edge5_Node000004_Node000002"><a xlink:title=" ">
<path fill="none" stroke="#63b8ff" d="M206.27,-56.76C175.31,-44.45 135.44,-28.61 111.32,-19.02"/>
<polygon fill="#63b8ff" stroke="#63b8ff" points="204.98,-60.01 215.56,-60.45 207.56,-53.51 204.98,-60.01"/>
</a>
</g>
</g>
</g>
</svg>
</svg>

<style type='text/css'>
<![CDATA[
[data-mouse-over-selected='false'] { opacity: 0.7; }
[data-mouse-over-selected='true']  { opacity: 1.0; }
]]>
</style>
<script type="application/ecmascript"><![CDATA[
document.addEventListener('DOMContentLoaded', (event) => {
  highlightEdges();
  highlightAdjacentNodes();
});
]]></script>
</svg>
