<?xml version="1.0" encoding="UTF-8" standalone="no"?>
<!DOCTYPE svg PUBLIC "-//W3C//DTD SVG 1.1//EN"
 "http://www.w3.org/Graphics/SVG/1.1/DTD/svg11.dtd">
<!-- Generated by graphviz version 2.43.0 (0)
 -->
<!-- Title: include/comppare/internal/policy.hpp Pages: 1 -->
<svg width="925pt" height="203pt"
 viewBox="0.00 0.00 924.50 203.00" xmlns="http://www.w3.org/2000/svg" xmlns:xlink="http://www.w3.org/1999/xlink">
<g id="graph0" class="graph" transform="scale(1 1) rotate(0) translate(4 199)">
<title>include/comppare/internal/policy.hpp</title>
<!-- Node1 -->
<g id="Node000001" class="node">
<title>Node1</title>
<g id="a_Node000001"><a xlink:title="This file contains error policies for comparing values in the ComPPare library.">
<polygon fill="#999999" stroke="#666666" points="587,-195 443,-195 443,-165 587,-165 587,-195"/>
<text text-anchor="start" x="451" y="-183" font-family="Helvetica,sans-Serif" font-size="10.00">include/comppare/internal</text>
<text text-anchor="middle" x="515" y="-172" font-family="Helvetica,sans-Serif" font-size="10.00">/policy.hpp</text>
</a>
</g>
</g>
<!-- Node2 -->
<g id="Node000002" class="node">
<title>Node2</title>
<g id="a_Node000002"><a xlink:title=" ">
<polygon fill="#e0e0e0" stroke="#999999" points="148,-19 88,-19 88,0 148,0 148,-19"/>
<text text-anchor="middle" x="118" y="-7" font-family="Helvetica,sans-Serif" font-size="10.00">concepts</text>
</a>
</g>
</g>
<!-- Node1&#45;&gt;Node2 -->
<g id="edge1_Node000001_Node000002" class="edge">
<title>Node1&#45;&gt;Node2</title>
<g id="a_edge1_Node000001_Node000002"><a xlink:title=" ">
<path fill="none" stroke="#63b8ff" d="M442.85,-173.28C359.74,-165.8 228.99,-150.98 185,-129 153.79,-113.41 145.2,-104.9 129,-74 121.77,-60.21 119.15,-42.63 118.26,-29.47"/>
<polygon fill="#63b8ff" stroke="#63b8ff" points="121.75,-29.11 117.86,-19.25 114.76,-29.38 121.75,-29.11"/>
</a>
</g>
</g>
<!-- Node3 -->
<g id="Node000003" class="node">
<title>Node3</title>
<g id="a_Node000003"><a xlink:title=" ">
<polygon fill="#e0e0e0" stroke="#999999" points="50,-19 0,-19 0,0 50,0 50,-19"/>
<text text-anchor="middle" x="25" y="-7" font-family="Helvetica,sans-Serif" font-size="10.00">ranges</text>
</a>
</g>
</g>
<!-- Node1&#45;&gt;Node3 -->
<g id="edge2_Node000001_Node000003" class="edge">
<title>Node1&#45;&gt;Node3</title>
<g id="a_edge2_Node000001_Node000003"><a xlink:title=" ">
<path fill="none" stroke="#63b8ff" d="M442.69,-174.29C351.67,-167.46 201.15,-152.95 151,-129 101.07,-105.15 57.73,-54.24 37.37,-27.58"/>
<polygon fill="#63b8ff" stroke="#63b8ff" points="39.94,-25.17 31.15,-19.24 34.33,-29.35 39.94,-25.17"/>
</a>
</g>
</g>
<!-- Node4 -->
<g id="Node000004" class="node">
<title>Node4</title>
<g id="a_Node000004"><a xlink:title=" ">
<polygon fill="#e0e0e0" stroke="#999999" points="255,-19 211,-19 211,0 255,0 255,-19"/>
<text text-anchor="middle" x="233" y="-7" font-family="Helvetica,sans-Serif" font-size="10.00">string</text>
</a>
</g>
</g>
<!-- Node1&#45;&gt;Node4 -->
<g id="edge3_Node000001_Node000004" class="edge">
<title>Node1&#45;&gt;Node4</title>
<g id="a_edge3_Node000001_Node000004"><a xlink:title=" ">
<path fill="none" stroke="#63b8ff" d="M442.88,-170.18C342.85,-156.19 170.48,-125.14 137,-74 118.47,-45.7 166.43,-27.06 201.04,-17.68"/>
<polygon fill="#63b8ff" stroke="#63b8ff" points="202.01,-21.04 210.83,-15.17 200.27,-14.26 202.01,-21.04"/>
</a>
</g>
</g>
<!-- Node5 -->
<g id="Node000005" class="node">
<title>Node5</title>
<g id="a_Node000005"><a xlink:title=" ">
<polygon fill="#e0e0e0" stroke="#999999" points="701.5,-129 628.5,-129 628.5,-110 701.5,-110 701.5,-129"/>
<text text-anchor="middle" x="665" y="-117" font-family="Helvetica,sans-Serif" font-size="10.00">string_view</text>
</a>
</g>
</g>
<!-- Node1&#45;&gt;Node5 -->
<g id="edge4_Node000001_Node000005" class="edge">
<title>Node1&#45;&gt;Node5</title>
<g id="a_edge4_Node000001_Node000005"><a xlink:title=" ">
<path fill="none" stroke="#63b8ff" d="M550.93,-164.99C576.07,-155.18 609.33,-142.21 633.45,-132.81"/>
<polygon fill="#63b8ff" stroke="#63b8ff" points="634.8,-136.03 642.85,-129.14 632.26,-129.51 634.8,-136.03"/>
</a>
</g>
</g>
<!-- Node6 -->
<g id="Node000006" class="node">
<title>Node6</title>
<g id="a_Node000006"><a xlink:title=" ">
<polygon fill="#e0e0e0" stroke="#999999" points="567.5,-19 498.5,-19 498.5,0 567.5,0 567.5,-19"/>
<text text-anchor="middle" x="533" y="-7" font-family="Helvetica,sans-Serif" font-size="10.00">type_traits</text>
</a>
</g>
</g>
<!-- Node1&#45;&gt;Node6 -->
<g id="edge5_Node000001_Node000006" class="edge">
<title>Node1&#45;&gt;Node6</title>
<g id="a_edge5_Node000001_Node000006"><a xlink:title=" ">
<path fill="none" stroke="#63b8ff" d="M541.45,-164.86C554.43,-156.36 568.79,-144.22 576,-129 590.07,-99.27 588.33,-85.49 576,-55 571.31,-43.41 562,-33.16 553.24,-25.43"/>
<polygon fill="#63b8ff" stroke="#63b8ff" points="555.44,-22.71 545.49,-19.07 551,-28.12 555.44,-22.71"/>
</a>
</g>
</g>
<!-- Node7 -->
<g id="Node000007" class="node">
<title>Node7</title>
<g id="a_Node000007"><a xlink:title=" ">
<polygon fill="#e0e0e0" stroke="#999999" points="459.5,-74 414.5,-74 414.5,-55 459.5,-55 459.5,-74"/>
<text text-anchor="middle" x="437" y="-62" font-family="Helvetica,sans-Serif" font-size="10.00">utility</text>
</a>
</g>
</g>
<!-- Node1&#45;&gt;Node7 -->
<g id="edge6_Node000001_Node000007" class="edge">
<title>Node1&#45;&gt;Node7</title>
<g id="a_edge6_Node000001_Node000007"><a xlink:title=" ">
<path fill="none" stroke="#63b8ff" d="M505.12,-164.63C490.77,-143.75 464.21,-105.09 448.83,-82.72"/>
<polygon fill="#63b8ff" stroke="#63b8ff" points="451.55,-80.49 443,-74.23 445.78,-84.45 451.55,-80.49"/>
</a>
</g>
</g>
<!-- Node8 -->
<g id="Node000008" class="node">
<title>Node8</title>
<g id="a_Node000008"><a xlink:title=" ">
<polygon fill="#e0e0e0" stroke="#999999" points="764,-129 720,-129 720,-110 764,-110 764,-129"/>
<text text-anchor="middle" x="742" y="-117" font-family="Helvetica,sans-Serif" font-size="10.00">limits</text>
</a>
</g>
</g>
<!-- Node1&#45;&gt;Node8 -->
<g id="edge7_Node000001_Node000008" class="edge">
<title>Node1&#45;&gt;Node8</title>
<g id="a_edge7_Node000001_Node000008"><a xlink:title=" ">
<path fill="none" stroke="#63b8ff" d="M571.25,-164.93C608.17,-155.64 657.76,-143.03 710.18,-129.18"/>
<polygon fill="#63b8ff" stroke="#63b8ff" points="711.23,-132.53 720,-126.58 709.43,-125.76 711.23,-132.53"/>
</a>
</g>
</g>
<!-- Node9 -->
<g id="Node000009" class="node">
<title>Node9</title>
<g id="a_Node000009"><a xlink:title=" ">
<polygon fill="#e0e0e0" stroke="#999999" points="414.5,-19 357.5,-19 357.5,0 414.5,0 414.5,-19"/>
<text text-anchor="middle" x="386" y="-7" font-family="Helvetica,sans-Serif" font-size="10.00">ostream</text>
</a>
</g>
</g>
<!-- Node1&#45;&gt;Node9 -->
<g id="edge8_Node000001_Node000009" class="edge">
<title>Node1&#45;&gt;Node9</title>
<g id="a_edge8_Node000001_Node000009"><a xlink:title=" ">
<path fill="none" stroke="#63b8ff" d="M524.92,-164.8C540.9,-140 568.15,-88.27 543,-55 528.75,-36.15 466.37,-22.96 424.67,-16.07"/>
<polygon fill="#63b8ff" stroke="#63b8ff" points="424.98,-12.58 414.55,-14.45 423.87,-19.49 424.98,-12.58"/>
</a>
</g>
</g>
<!-- Node10 -->
<g id="Node000010" class="node">
<title>Node10</title>
<g id="a_Node000010"><a xlink:title=" ">
<polygon fill="#e0e0e0" stroke="#999999" points="534,-74 478,-74 478,-55 534,-55 534,-74"/>
<text text-anchor="middle" x="506" y="-62" font-family="Helvetica,sans-Serif" font-size="10.00">sstream</text>
</a>
</g>
</g>
<!-- Node1&#45;&gt;Node10 -->
<g id="edge9_Node000001_Node000010" class="edge">
<title>Node1&#45;&gt;Node10</title>
<g id="a_edge9_Node000001_Node000010"><a xlink:title=" ">
<path fill="none" stroke="#63b8ff" d="M513.86,-164.63C512.24,-144.21 509.28,-106.81 507.49,-84.24"/>
<polygon fill="#63b8ff" stroke="#63b8ff" points="510.97,-83.92 506.69,-74.23 503.99,-84.47 510.97,-83.92"/>
</a>
</g>
</g>
<!-- Node11 -->
<g id="Node000011" class="node">
<title>Node11</title>
<g id="a_Node000011"><a xlink:title=" ">
<polygon fill="#e0e0e0" stroke="#999999" points="833.5,-129 782.5,-129 782.5,-110 833.5,-110 833.5,-129"/>
<text text-anchor="middle" x="808" y="-117" font-family="Helvetica,sans-Serif" font-size="10.00">variant</text>
</a>
</g>
</g>
<!-- Node1&#45;&gt;Node11 -->
<g id="edge10_Node000001_Node000011" class="edge">
<title>Node1&#45;&gt;Node11</title>
<g id="a_edge10_Node000001_Node000011"><a xlink:title=" ">
<path fill="none" stroke="#63b8ff" d="M587.19,-165.94C636.6,-156.79 703.83,-143.92 772.31,-129.06"/>
<polygon fill="#63b8ff" stroke="#63b8ff" points="773.39,-132.41 782.42,-126.86 771.9,-125.57 773.39,-132.41"/>
</a>
</g>
</g>
<!-- Node12 -->
<g id="Node000012" class="node">
<title>Node12</title>
<g id="a_Node000012"><a xlink:title=" ">
<polygon fill="#e0e0e0" stroke="#999999" points="916.5,-129 851.5,-129 851.5,-110 916.5,-110 916.5,-129"/>
<text text-anchor="middle" x="884" y="-117" font-family="Helvetica,sans-Serif" font-size="10.00">stdexcept</text>
</a>
</g>
</g>
<!-- Node1&#45;&gt;Node12 -->
<g id="edge11_Node000001_Node000012" class="edge">
<title>Node1&#45;&gt;Node12</title>
<g id="a_edge11_Node000001_Node000012"><a xlink:title=" ">
<path fill="none" stroke="#63b8ff" d="M587.17,-169.12C651.47,-160.07 748.37,-145.79 841.49,-129.2"/>
<polygon fill="#63b8ff" stroke="#63b8ff" points="842.13,-132.64 851.36,-127.43 840.9,-125.75 842.13,-132.64"/>
</a>
</g>
</g>
<!-- Node13 -->
<g id="Node000013" class="node">
<title>Node13</title>
<g id="a_Node000013"><a xlink:href="concepts_8hpp.html" target="_top" xlink:title="This file contains commonly used concepts internally within the ComPPare library.">
<polygon fill="white" stroke="#666666" points="319.5,-74 146.5,-74 146.5,-55 319.5,-55 319.5,-74"/>
<text text-anchor="middle" x="233" y="-62" font-family="Helvetica,sans-Serif" font-size="10.00">comppare/internal/concepts.hpp</text>
</a>
</g>
</g>
<!-- Node1&#45;&gt;Node13 -->
<g id="edge12_Node000001_Node000013" class="edge">
<title>Node1&#45;&gt;Node13</title>
<g id="a_edge12_Node000001_Node000013"><a xlink:title=" ">
<path fill="none" stroke="#63b8ff" d="M442.98,-174.32C396.66,-168.68 336.64,-156.26 290,-129 270.49,-117.59 253.99,-97.23 243.84,-82.63"/>
<polygon fill="#63b8ff" stroke="#63b8ff" points="246.57,-80.42 238.12,-74.03 240.74,-84.29 246.57,-80.42"/>
</a>
</g>
</g>
<!-- Node14 -->
<g id="Node000014" class="node">
<title>Node14</title>
<g id="a_Node000014"><a xlink:href="ansi_8hpp.html" target="_top" xlink:title="This file contains utilities for applying ANSI styles and colors to console output.">
<polygon fill="white" stroke="#666666" points="449,-129 299,-129 299,-110 449,-110 449,-129"/>
<text text-anchor="middle" x="374" y="-117" font-family="Helvetica,sans-Serif" font-size="10.00">comppare/internal/ansi.hpp</text>
</a>
</g>
</g>
<!-- Node1&#45;&gt;Node14 -->
<g id="edge18_Node000001_Node000014" class="edge">
<title>Node1&#45;&gt;Node14</title>
<g id="a_edge18_Node000001_Node000014"><a xlink:title=" ">
<path fill="none" stroke="#63b8ff" d="M481.23,-164.99C457.81,-155.27 426.88,-142.44 404.27,-133.06"/>
<polygon fill="#63b8ff" stroke="#63b8ff" points="405.4,-129.74 394.82,-129.14 402.72,-136.2 405.4,-129.74"/>
</a>
</g>
</g>
<!-- Node13&#45;&gt;Node2 -->
<g id="edge13_Node000013_Node000002" class="edge">
<title>Node13&#45;&gt;Node2</title>
<g id="a_edge13_Node000013_Node000002"><a xlink:title=" ">
<path fill="none" stroke="#63b8ff" d="M214.52,-54.98C196.02,-46.46 167.32,-33.23 146.02,-23.41"/>
<polygon fill="#63b8ff" stroke="#63b8ff" points="147.36,-20.18 136.81,-19.17 144.43,-26.53 147.36,-20.18"/>
</a>
</g>
</g>
<!-- Node13&#45;&gt;Node3 -->
<g id="edge15_Node000013_Node000003" class="edge">
<title>Node13&#45;&gt;Node3</title>
<g id="a_edge15_Node000013_Node000003"><a xlink:title=" ">
<path fill="none" stroke="#63b8ff" d="M199.58,-54.98C161.31,-45.23 98.91,-29.33 59.99,-19.42"/>
<polygon fill="#63b8ff" stroke="#63b8ff" points="60.71,-15.99 50.16,-16.91 58.99,-22.77 60.71,-15.99"/>
</a>
</g>
</g>
<!-- Node13&#45;&gt;Node4 -->
<g id="edge16_Node000013_Node000004" class="edge">
<title>Node13&#45;&gt;Node4</title>
<g id="a_edge16_Node000013_Node000004"><a xlink:title=" ">
<path fill="none" stroke="#63b8ff" d="M233,-54.75C233,-47.8 233,-37.85 233,-29.13"/>
<polygon fill="#63b8ff" stroke="#63b8ff" points="236.5,-29.09 233,-19.09 229.5,-29.09 236.5,-29.09"/>
</a>
</g>
</g>
<!-- Node13&#45;&gt;Node6 -->
<g id="edge14_Node000013_Node000006" class="edge">
<title>Node13&#45;&gt;Node6</title>
<g id="a_edge14_Node000013_Node000006"><a xlink:title=" ">
<path fill="none" stroke="#63b8ff" d="M281.2,-54.98C338.43,-44.87 433.08,-28.15 488.59,-18.35"/>
<polygon fill="#63b8ff" stroke="#63b8ff" points="489.24,-21.79 498.48,-16.6 488.02,-14.89 489.24,-21.79"/>
</a>
</g>
</g>
<!-- Node13&#45;&gt;Node9 -->
<g id="edge17_Node000013_Node000009" class="edge">
<title>Node13&#45;&gt;Node9</title>
<g id="a_edge17_Node000013_Node000009"><a xlink:title=" ">
<path fill="none" stroke="#63b8ff" d="M257.58,-54.98C283.05,-46.16 323.04,-32.31 351.63,-22.41"/>
<polygon fill="#63b8ff" stroke="#63b8ff" points="352.92,-25.66 361.23,-19.08 350.63,-19.05 352.92,-25.66"/>
</a>
</g>
</g>
<!-- Node14&#45;&gt;Node2 -->
<g id="edge22_Node000014_Node000002" class="edge">
<title>Node14&#45;&gt;Node2</title>
<g id="a_edge22_Node000014_Node000002"><a xlink:title=" ">
<path fill="none" stroke="#63b8ff" d="M298.95,-112.85C238.73,-106.83 160.49,-95.15 137,-74 124.58,-62.82 120.14,-43.9 118.62,-29.61"/>
<polygon fill="#63b8ff" stroke="#63b8ff" points="122.09,-29.12 117.93,-19.38 115.11,-29.59 122.09,-29.12"/>
</a>
</g>
</g>
<!-- Node14&#45;&gt;Node4 -->
<g id="edge21_Node000014_Node000004" class="edge">
<title>Node14&#45;&gt;Node4</title>
<g id="a_edge21_Node000014_Node000004"><a xlink:title=" ">
<path fill="none" stroke="#63b8ff" d="M369.48,-109.61C362.29,-96.22 347.09,-70.79 328,-55 309.27,-39.51 284.25,-28.08 264.59,-20.68"/>
<polygon fill="#63b8ff" stroke="#63b8ff" points="265.73,-17.37 255.14,-17.28 263.36,-23.96 265.73,-17.37"/>
</a>
</g>
</g>
<!-- Node14&#45;&gt;Node7 -->
<g id="edge23_Node000014_Node000007" class="edge">
<title>Node14&#45;&gt;Node7</title>
<g id="a_edge23_Node000014_Node000007"><a xlink:title=" ">
<path fill="none" stroke="#63b8ff" d="M384.12,-109.98C393.44,-102.15 407.47,-90.34 418.74,-80.86"/>
<polygon fill="#63b8ff" stroke="#63b8ff" points="421.29,-83.29 426.69,-74.17 416.79,-77.93 421.29,-83.29"/>
</a>
</g>
</g>
<!-- Node14&#45;&gt;Node9 -->
<g id="edge19_Node000014_Node000009" class="edge">
<title>Node14&#45;&gt;Node9</title>
<g id="a_edge19_Node000014_Node000009"><a xlink:title=" ">
<path fill="none" stroke="#63b8ff" d="M374.98,-109.66C376.93,-92.17 381.3,-52.8 383.91,-29.27"/>
<polygon fill="#63b8ff" stroke="#63b8ff" points="387.41,-29.48 385.04,-19.16 380.45,-28.71 387.41,-29.48"/>
</a>
</g>
</g>
<!-- Node14&#45;&gt;Node10 -->
<g id="edge20_Node000014_Node000010" class="edge">
<title>Node14&#45;&gt;Node10</title>
<g id="a_edge20_Node000014_Node000010"><a xlink:title=" ">
<path fill="none" stroke="#63b8ff" d="M395.21,-109.98C416.73,-101.34 450.28,-87.87 474.83,-78.02"/>
<polygon fill="#63b8ff" stroke="#63b8ff" points="476.43,-81.14 484.41,-74.17 473.82,-74.65 476.43,-81.14"/>
</a>
</g>
</g>
<!-- Node14&#45;&gt;Node13 -->
<g id="edge24_Node000014_Node000013" class="edge">
<title>Node14&#45;&gt;Node13</title>
<g id="a_edge24_Node000014_Node000013"><a xlink:title=" ">
<path fill="none" stroke="#63b8ff" d="M351.35,-109.98C328.15,-101.27 291.88,-87.63 265.6,-77.75"/>
<polygon fill="#63b8ff" stroke="#63b8ff" points="266.66,-74.41 256.07,-74.17 264.2,-80.97 266.66,-74.41"/>
</a>
</g>
</g>
</g>
</svg>
