<?xml version="1.0" encoding="UTF-8" standalone="no"?>
<!DOCTYPE svg PUBLIC "-//W3C//DTD SVG 1.1//EN"
 "http://www.w3.org/Graphics/SVG/1.1/DTD/svg11.dtd">
<!-- Generated by graphviz version 13.1.2 (20250808.2320)
 -->
<!-- Title: include/comppare/internal/ansi.hpp Pages: 1 -->
<svg width="437pt" height="149pt"
 viewBox="0.00 0.00 437.00 149.00" xmlns="http://www.w3.org/2000/svg" xmlns:xlink="http://www.w3.org/1999/xlink">

<svg id="main" version="1.1" xmlns="http://www.w3.org/2000/svg" xmlns:xlink="http://www.w3.org/1999/xlink" xml:space="preserve">

<style type="text/css"><![CDATA[
.node, .edge {opacity: 0.7;}
.node.selected, .edge.selected {opacity: 1;}
.edge:hover path { stroke: red; }
.edge:hover polygon { stroke: red; fill: red; }
]]></style>
<script type="application/ecmascript" xlink:href="svg.min.js"/>
<svg id="graph" class="graph">
<g id="graph0" class="graph" transform="scale(1 1) rotate(0) translate(4 145)">
<title>include/comppare/internal/ansi.hpp</title>
<!-- Node1 -->
<g id="Node000001" class="node">
<title>Node1</title>
<g id="a_Node000001"><a xlink:title="This file contains utilities for applying ANSI styles and colors to console output.">
<polygon fill="#999999" stroke="#666666" points="303.12,-141 176.12,-141 176.12,-110.5 303.12,-110.5 303.12,-141"/>
<text xml:space="preserve" text-anchor="start" x="184.12" y="-127.5" font-family="Helvetica,sans-Serif" font-size="10.00">include/comppare/internal</text>
<text xml:space="preserve" text-anchor="middle" x="239.62" y="-116.25" font-family="Helvetica,sans-Serif" font-size="10.00">/ansi.hpp</text>
</a>
</g>
</g>
<!-- Node2 -->
<g id="Node000002" class="node">
<title>Node2</title>
<g id="a_Node000002"><a xlink:title=" ">
<polygon fill="#e0e0e0" stroke="#999999" points="51.25,-19.25 0,-19.25 0,0 51.25,0 51.25,-19.25"/>
<text xml:space="preserve" text-anchor="middle" x="25.62" y="-5.75" font-family="Helvetica,sans-Serif" font-size="10.00">ostream</text>
</a>
</g>
</g>
<!-- Node1&#45;&gt;Node2 -->
<g id="edge1_Node000001_Node000002" class="edge">
<title>Node1&#45;&gt;Node2</title>
<g id="a_edge1_Node000001_Node000002"><a xlink:title=" ">
<path fill="none" stroke="#63b8ff" d="M175.99,-111.05C147.55,-103.13 114.47,-91.32 87.62,-74.5 68.05,-62.23 50.19,-42.51 38.72,-28.22"/>
<polygon fill="#63b8ff" stroke="#63b8ff" points="41.68,-26.32 32.79,-20.55 36.14,-30.6 41.68,-26.32"/>
</a>
</g>
</g>
<!-- Node3 -->
<g id="Node000003" class="node">
<title>Node3</title>
<g id="a_Node000003"><a xlink:title=" ">
<polygon fill="#e0e0e0" stroke="#999999" points="372.25,-74.5 321,-74.5 321,-55.25 372.25,-55.25 372.25,-74.5"/>
<text xml:space="preserve" text-anchor="middle" x="346.62" y="-61" font-family="Helvetica,sans-Serif" font-size="10.00">sstream</text>
</a>
</g>
</g>
<!-- Node1&#45;&gt;Node3 -->
<g id="edge2_Node000001_Node000003" class="edge">
<title>Node1&#45;&gt;Node3</title>
<g id="a_edge2_Node000001_Node000003"><a xlink:title=" ">
<path fill="none" stroke="#63b8ff" d="M266.35,-110.05C282.8,-100.99 303.8,-89.44 320.2,-80.41"/>
<polygon fill="#63b8ff" stroke="#63b8ff" points="321.82,-83.52 328.89,-75.63 318.44,-77.39 321.82,-83.52"/>
</a>
</g>
</g>
<!-- Node4 -->
<g id="Node000004" class="node">
<title>Node4</title>
<g id="a_Node000004"><a xlink:title=" ">
<polygon fill="#e0e0e0" stroke="#999999" points="109.62,-19.25 69.62,-19.25 69.62,0 109.62,0 109.62,-19.25"/>
<text xml:space="preserve" text-anchor="middle" x="89.62" y="-5.75" font-family="Helvetica,sans-Serif" font-size="10.00">string</text>
</a>
</g>
</g>
<!-- Node1&#45;&gt;Node4 -->
<g id="edge3_Node000001_Node000004" class="edge">
<title>Node1&#45;&gt;Node4</title>
<g id="a_edge3_Node000001_Node000004"><a xlink:title=" ">
<path fill="none" stroke="#63b8ff" d="M175.65,-115.7C149.08,-108.72 120.18,-96.37 101.62,-74.5 91.45,-62.51 88.8,-44.65 88.49,-30.86"/>
<polygon fill="#63b8ff" stroke="#63b8ff" points="91.99,-31.21 88.69,-21.14 84.99,-31.07 91.99,-31.21"/>
</a>
</g>
</g>
<!-- Node5 -->
<g id="Node000005" class="node">
<title>Node5</title>
<g id="a_Node000005"><a xlink:title=" ">
<polygon fill="#e0e0e0" stroke="#999999" points="327.5,-19.25 271.75,-19.25 271.75,0 327.5,0 327.5,-19.25"/>
<text xml:space="preserve" text-anchor="middle" x="299.62" y="-5.75" font-family="Helvetica,sans-Serif" font-size="10.00">concepts</text>
</a>
</g>
</g>
<!-- Node1&#45;&gt;Node5 -->
<g id="edge4_Node000001_Node000005" class="edge">
<title>Node1&#45;&gt;Node5</title>
<g id="a_edge4_Node000001_Node000005"><a xlink:title=" ">
<path fill="none" stroke="#63b8ff" d="M250.58,-110.31C257.7,-100.53 266.87,-87.13 273.62,-74.5 281.31,-60.11 288.19,-42.94 292.93,-30.03"/>
<polygon fill="#63b8ff" stroke="#63b8ff" points="296.09,-31.59 296.14,-20.99 289.49,-29.24 296.09,-31.59"/>
</a>
</g>
</g>
<!-- Node6 -->
<g id="Node000006" class="node">
<title>Node6</title>
<g id="a_Node000006"><a xlink:title=" ">
<polygon fill="#e0e0e0" stroke="#999999" points="429.25,-74.5 390,-74.5 390,-55.25 429.25,-55.25 429.25,-74.5"/>
<text xml:space="preserve" text-anchor="middle" x="409.62" y="-61" font-family="Helvetica,sans-Serif" font-size="10.00">utility</text>
</a>
</g>
</g>
<!-- Node1&#45;&gt;Node6 -->
<g id="edge5_Node000001_Node000006" class="edge">
<title>Node1&#45;&gt;Node6</title>
<g id="a_edge5_Node000001_Node000006"><a xlink:title=" ">
<path fill="none" stroke="#63b8ff" d="M282.08,-110.05C312.2,-99.61 351.92,-85.86 378.98,-76.49"/>
<polygon fill="#63b8ff" stroke="#63b8ff" points="380,-79.84 388.31,-73.26 377.71,-73.22 380,-79.84"/>
</a>
</g>
</g>
<!-- Node7 -->
<g id="Node000007" class="node">
<title>Node7</title>
<g id="a_Node000007"><a xlink:href="concepts_8hpp.html" target="_top" xlink:title="This file contains commonly used concepts internally within the ComPPare library.">
<polygon fill="white" stroke="#666666" points="265,-74.5 110.25,-74.5 110.25,-55.25 265,-55.25 265,-74.5"/>
<text xml:space="preserve" text-anchor="middle" x="187.62" y="-61" font-family="Helvetica,sans-Serif" font-size="10.00">comppare/internal/concepts.hpp</text>
</a>
</g>
</g>
<!-- Node1&#45;&gt;Node7 -->
<g id="edge6_Node000001_Node000007" class="edge">
<title>Node1&#45;&gt;Node7</title>
<g id="a_edge6_Node000001_Node000007"><a xlink:title=" ">
<path fill="none" stroke="#63b8ff" d="M226.77,-110.2C219.61,-102.09 210.66,-91.95 203.11,-83.41"/>
<polygon fill="#63b8ff" stroke="#63b8ff" points="205.89,-81.26 196.64,-76.09 200.64,-85.9 205.89,-81.26"/>
</a>
</g>
</g>
<!-- Node7&#45;&gt;Node2 -->
<g id="edge11_Node000007_Node000002" class="edge">
<title>Node7&#45;&gt;Node2</title>
<g id="a_edge11_Node000007_Node000002"><a xlink:title=" ">
<path fill="none" stroke="#63b8ff" d="M160.14,-54.84C133.25,-46 92.1,-32.48 62.4,-22.71"/>
<polygon fill="#63b8ff" stroke="#63b8ff" points="63.66,-19.44 53.07,-19.65 61.48,-26.09 63.66,-19.44"/>
</a>
</g>
</g>
<!-- Node7&#45;&gt;Node4 -->
<g id="edge10_Node000007_Node000004" class="edge">
<title>Node7&#45;&gt;Node4</title>
<g id="a_edge10_Node000007_Node000004"><a xlink:title=" ">
<path fill="none" stroke="#63b8ff" d="M171,-54.84C155.94,-46.66 133.48,-34.46 115.97,-24.94"/>
<polygon fill="#63b8ff" stroke="#63b8ff" points="118.12,-22.12 107.66,-20.43 114.78,-28.27 118.12,-22.12"/>
</a>
</g>
</g>
<!-- Node7&#45;&gt;Node5 -->
<g id="edge7_Node000007_Node000005" class="edge">
<title>Node7&#45;&gt;Node5</title>
<g id="a_edge7_Node000007_Node000005"><a xlink:title=" ">
<path fill="none" stroke="#63b8ff" d="M206.62,-54.84C224.08,-46.54 250.22,-34.11 270.35,-24.54"/>
<polygon fill="#63b8ff" stroke="#63b8ff" points="271.64,-27.81 279.17,-20.35 268.63,-21.49 271.64,-27.81"/>
</a>
</g>
</g>
<!-- Node8 -->
<g id="Node000008" class="node">
<title>Node8</title>
<g id="a_Node000008"><a xlink:title=" ">
<polygon fill="#e0e0e0" stroke="#999999" points="253.5,-19.25 191.75,-19.25 191.75,0 253.5,0 253.5,-19.25"/>
<text xml:space="preserve" text-anchor="middle" x="222.62" y="-5.75" font-family="Helvetica,sans-Serif" font-size="10.00">type_traits</text>
</a>
</g>
</g>
<!-- Node7&#45;&gt;Node8 -->
<g id="edge8_Node000007_Node000008" class="edge">
<title>Node7&#45;&gt;Node8</title>
<g id="a_edge8_Node000007_Node000008"><a xlink:title=" ">
<path fill="none" stroke="#63b8ff" d="M193.4,-55.08C198.04,-48.03 204.7,-37.9 210.49,-29.08"/>
<polygon fill="#63b8ff" stroke="#63b8ff" points="213.32,-31.15 215.89,-20.87 207.47,-27.31 213.32,-31.15"/>
</a>
</g>
</g>
<!-- Node9 -->
<g id="Node000009" class="node">
<title>Node9</title>
<g id="a_Node000009"><a xlink:title=" ">
<polygon fill="#e0e0e0" stroke="#999999" points="173.25,-19.25 128,-19.25 128,0 173.25,0 173.25,-19.25"/>
<text xml:space="preserve" text-anchor="middle" x="150.62" y="-5.75" font-family="Helvetica,sans-Serif" font-size="10.00">ranges</text>
</a>
</g>
</g>
<!-- Node7&#45;&gt;Node9 -->
<g id="edge9_Node000007_Node000009" class="edge">
<title>Node7&#45;&gt;Node9</title>
<g id="a_edge9_Node000007_Node000009"><a xlink:title=" ">
<path fill="none" stroke="#63b8ff" d="M181.52,-55.08C176.56,-47.96 169.42,-37.68 163.25,-28.8"/>
<polygon fill="#63b8ff" stroke="#63b8ff" points="166.31,-27.07 157.73,-20.85 160.56,-31.06 166.31,-27.07"/>
</a>
</g>
</g>
</g>
</svg>
</svg>

<style type='text/css'>
<![CDATA[
[data-mouse-over-selected='false'] { opacity: 0.7; }
[data-mouse-over-selected='true']  { opacity: 1.0; }
]]>
</style>
<script type="application/ecmascript"><![CDATA[
document.addEventListener('DOMContentLoaded', (event) => {
  highlightEdges();
  highlightAdjacentNodes();
});
]]></script>
</svg>
