<?xml version="1.0" encoding="UTF-8" standalone="no"?>
<!DOCTYPE svg PUBLIC "-//W3C//DTD SVG 1.1//EN"
 "http://www.w3.org/Graphics/SVG/1.1/DTD/svg11.dtd">
<!-- Generated by graphviz version 13.1.2 (20250808.2320)
 -->
<!-- Title: include/comppare/internal/ansi.hpp Pages: 1 -->
<svg width="302pt" height="172pt"
 viewBox="0.00 0.00 302.00 172.00" xmlns="http://www.w3.org/2000/svg" xmlns:xlink="http://www.w3.org/1999/xlink">
<g id="graph0" class="graph" transform="scale(1 1) rotate(0) translate(4 167.5)">
<title>include/comppare/internal/ansi.hpp</title>
<!-- Node1 -->
<g id="Node000001" class="node">
<title>Node1</title>
<g id="a_Node000001"><a xlink:title="This file contains utilities for applying ANSI styles and colors to console output.">
<polygon fill="#999999" stroke="#666666" points="143.2,-163.5 16.2,-163.5 16.2,-133 143.2,-133 143.2,-163.5"/>
<text xml:space="preserve" text-anchor="start" x="24.2" y="-150" font-family="Helvetica,sans-Serif" font-size="10.00">include/comppare/internal</text>
<text xml:space="preserve" text-anchor="middle" x="79.7" y="-138.75" font-family="Helvetica,sans-Serif" font-size="10.00">/ansi.hpp</text>
</a>
</g>
</g>
<!-- Node2 -->
<g id="Node000002" class="node">
<title>Node2</title>
<g id="a_Node000002"><a xlink:href="comppare_8hpp.html" target="_top" xlink:title="This file is the main include file for the ComPPare framework.">
<polygon fill="white" stroke="#666666" points="158.2,-19.25 1.2,-19.25 1.2,0 158.2,0 158.2,-19.25"/>
<text xml:space="preserve" text-anchor="middle" x="79.7" y="-5.75" font-family="Helvetica,sans-Serif" font-size="10.00">include/comppare/comppare.hpp</text>
</a>
</g>
</g>
<!-- Node1&#45;&gt;Node2 -->
<g id="edge1_Node000001_Node000002" class="edge">
<title>Node1&#45;&gt;Node2</title>
<g id="a_edge1_Node000001_Node000002"><a xlink:title=" ">
<path fill="none" stroke="#63b8ff" d="M35.49,-126.69C24.04,-119.07 13.13,-109.24 6.7,-97 -1.94,-80.58 -2.38,-71.43 6.7,-55.25 16.36,-38.02 35.68,-26.65 52.03,-19.7"/>
<polygon fill="#63b8ff" stroke="#63b8ff" points="33.49,-129.57 43.85,-131.78 37.13,-123.59 33.49,-129.57"/>
</a>
</g>
</g>
<!-- Node3 -->
<g id="Node000003" class="node">
<title>Node3</title>
<g id="a_Node000003"><a xlink:href="policy_8hpp.html" target="_top" xlink:title="This file contains error policies for comparing values in the ComPPare library.">
<polygon fill="white" stroke="#666666" points="143.2,-91.38 16.2,-91.38 16.2,-60.88 143.2,-60.88 143.2,-91.38"/>
<text xml:space="preserve" text-anchor="start" x="24.2" y="-77.88" font-family="Helvetica,sans-Serif" font-size="10.00">include/comppare/internal</text>
<text xml:space="preserve" text-anchor="middle" x="79.7" y="-66.62" font-family="Helvetica,sans-Serif" font-size="10.00">/policy.hpp</text>
</a>
</g>
</g>
<!-- Node1&#45;&gt;Node3 -->
<g id="edge2_Node000001_Node000003" class="edge">
<title>Node1&#45;&gt;Node3</title>
<g id="a_edge2_Node000001_Node000003"><a xlink:title=" ">
<path fill="none" stroke="#63b8ff" d="M79.7,-121.27C79.7,-111.26 79.7,-100.19 79.7,-91.64"/>
<polygon fill="#63b8ff" stroke="#63b8ff" points="76.2,-121.21 79.7,-131.21 83.2,-121.21 76.2,-121.21"/>
</a>
</g>
</g>
<!-- Node4 -->
<g id="Node000004" class="node">
<title>Node4</title>
<g id="a_Node000004"><a xlink:href="google__benchmark_8hpp.html" target="_top" xlink:title="This file contains the Google Benchmark plugin for the ComPPare framework.">
<polygon fill="white" stroke="#666666" points="293.82,-97 161.57,-97 161.57,-55.25 293.82,-55.25 293.82,-97"/>
<text xml:space="preserve" text-anchor="start" x="169.57" y="-83.5" font-family="Helvetica,sans-Serif" font-size="10.00">include/comppare/plugin</text>
<text xml:space="preserve" text-anchor="start" x="169.57" y="-72.25" font-family="Helvetica,sans-Serif" font-size="10.00">/google_benchmark/google</text>
<text xml:space="preserve" text-anchor="middle" x="227.7" y="-61" font-family="Helvetica,sans-Serif" font-size="10.00">_benchmark.hpp</text>
</a>
</g>
</g>
<!-- Node1&#45;&gt;Node4 -->
<g id="edge4_Node000001_Node000004" class="edge">
<title>Node1&#45;&gt;Node4</title>
<g id="a_edge4_Node000001_Node000004"><a xlink:title=" ">
<path fill="none" stroke="#63b8ff" d="M121.03,-127.66C140.95,-118.23 164.82,-106.92 184.92,-97.39"/>
<polygon fill="#63b8ff" stroke="#63b8ff" points="119.63,-124.46 112.09,-131.9 122.63,-130.78 119.63,-124.46"/>
</a>
</g>
</g>
<!-- Node3&#45;&gt;Node2 -->
<g id="edge3_Node000003_Node000002" class="edge">
<title>Node3&#45;&gt;Node2</title>
<g id="a_edge3_Node000003_Node000002"><a xlink:title=" ">
<path fill="none" stroke="#63b8ff" d="M79.7,-49.21C79.7,-38.64 79.7,-27.12 79.7,-19.45"/>
<polygon fill="#63b8ff" stroke="#63b8ff" points="76.2,-48.98 79.7,-58.98 83.2,-48.98 76.2,-48.98"/>
</a>
</g>
</g>
<!-- Node4&#45;&gt;Node2 -->
<g id="edge5_Node000004_Node000002" class="edge">
<title>Node4&#45;&gt;Node2</title>
<g id="a_edge5_Node000004_Node000002"><a xlink:title=" ">
<path fill="none" stroke="#63b8ff" d="M170.87,-50.36C146.11,-39.57 118.64,-27.6 100.39,-19.64"/>
<polygon fill="#63b8ff" stroke="#63b8ff" points="169.32,-53.5 179.89,-54.29 172.12,-47.09 169.32,-53.5"/>
</a>
</g>
</g>
</g>
</svg>
