<?xml version="1.0" encoding="UTF-8" standalone="no"?>
<!DOCTYPE svg PUBLIC "-//W3C//DTD SVG 1.1//EN"
 "http://www.w3.org/Graphics/SVG/1.1/DTD/svg11.dtd">
<!-- Generated by graphviz version 13.1.2 (20250808.2320)
 -->
<!-- Title: comppare::plugin::PluginArgParser::parse Pages: 1 -->
<svg width="464pt" height="186pt"
 viewBox="0.00 0.00 464.00 186.00" xmlns="http://www.w3.org/2000/svg" xmlns:xlink="http://www.w3.org/1999/xlink">
<g id="graph0" class="graph" transform="scale(1 1) rotate(0) translate(4 181.5)">
<title>comppare::plugin::PluginArgParser::parse</title>
<!-- Node1 -->
<g id="Node000001" class="node">
<title>Node1</title>
<g id="a_Node000001"><a xlink:title=" ">
<polygon fill="#999999" stroke="#666666" points="123.25,-103.5 0,-103.5 0,-73 123.25,-73 123.25,-103.5"/>
<text xml:space="preserve" text-anchor="start" x="8" y="-90" font-family="Helvetica,sans-Serif" font-size="10.00">comppare::plugin::Plugin</text>
<text xml:space="preserve" text-anchor="middle" x="61.62" y="-78.75" font-family="Helvetica,sans-Serif" font-size="10.00">ArgParser::parse</text>
</a>
</g>
</g>
<!-- Node2 -->
<g id="Node000002" class="node">
<title>Node2</title>
<g id="a_Node000002"><a xlink:href="classcomppare_1_1plugin_1_1_plugin_arg_parser.html#ac4d576ed649ceb865441422497a332e0" target="_top" xlink:title=" ">
<polygon fill="white" stroke="#666666" points="290.75,-177.5 159.25,-177.5 159.25,-147 290.75,-147 290.75,-177.5"/>
<text xml:space="preserve" text-anchor="start" x="167.25" y="-164" font-family="Helvetica,sans-Serif" font-size="10.00">comppare::plugin::Plugin</text>
<text xml:space="preserve" text-anchor="middle" x="225" y="-152.75" font-family="Helvetica,sans-Serif" font-size="10.00">ArgParser::append_tokens</text>
</a>
</g>
</g>
<!-- Node1&#45;&gt;Node2 -->
<g id="edge1_Node000001_Node000002" class="edge">
<title>Node1&#45;&gt;Node2</title>
<g id="a_edge1_Node000001_Node000002"><a xlink:title=" ">
<path fill="none" stroke="#63b8ff" d="M91.43,-103.82C110.45,-113.86 136.05,-126.92 159.25,-137.25 163.05,-138.94 167.01,-140.63 171,-142.29"/>
<polygon fill="#63b8ff" stroke="#63b8ff" points="169.62,-145.51 180.2,-146.02 172.25,-139.02 169.62,-145.51"/>
</a>
</g>
</g>
<!-- Node4 -->
<g id="Node000004" class="node">
<title>Node4</title>
<g id="a_Node000004"><a xlink:href="classcomppare_1_1plugin_1_1_plugin_arg_parser.html#aa1c8675579ad344eeb3dceedc77fbad5" target="_top" xlink:title=" ">
<polygon fill="white" stroke="#666666" points="286.62,-128.5 163.38,-128.5 163.38,-98 286.62,-98 286.62,-128.5"/>
<text xml:space="preserve" text-anchor="start" x="171.38" y="-115" font-family="Helvetica,sans-Serif" font-size="10.00">comppare::plugin::Plugin</text>
<text xml:space="preserve" text-anchor="middle" x="225" y="-103.75" font-family="Helvetica,sans-Serif" font-size="10.00">ArgParser::argc</text>
</a>
</g>
</g>
<!-- Node1&#45;&gt;Node4 -->
<g id="edge3_Node000001_Node000004" class="edge">
<title>Node1&#45;&gt;Node4</title>
<g id="a_edge3_Node000001_Node000004"><a xlink:title=" ">
<path fill="none" stroke="#63b8ff" d="M123.63,-97.7C132.77,-99.12 142.27,-100.59 151.61,-102.04"/>
<polygon fill="#63b8ff" stroke="#63b8ff" points="150.99,-105.48 161.41,-103.55 152.06,-98.56 150.99,-105.48"/>
</a>
</g>
</g>
<!-- Node5 -->
<g id="Node000005" class="node">
<title>Node5</title>
<g id="a_Node000005"><a xlink:href="classcomppare_1_1plugin_1_1_plugin_arg_parser.html#adec4bd65d3a0324485f12ceb5614f8f1" target="_top" xlink:title=" ">
<polygon fill="white" stroke="#666666" points="286.62,-79.5 163.38,-79.5 163.38,-49 286.62,-49 286.62,-79.5"/>
<text xml:space="preserve" text-anchor="start" x="171.38" y="-66" font-family="Helvetica,sans-Serif" font-size="10.00">comppare::plugin::Plugin</text>
<text xml:space="preserve" text-anchor="middle" x="225" y="-54.75" font-family="Helvetica,sans-Serif" font-size="10.00">ArgParser::argv</text>
</a>
</g>
</g>
<!-- Node1&#45;&gt;Node5 -->
<g id="edge4_Node000001_Node000005" class="edge">
<title>Node1&#45;&gt;Node5</title>
<g id="a_edge4_Node000001_Node000005"><a xlink:title=" ">
<path fill="none" stroke="#63b8ff" d="M123.63,-79.18C132.77,-77.82 142.27,-76.41 151.61,-75.02"/>
<polygon fill="#63b8ff" stroke="#63b8ff" points="152.03,-78.49 161.41,-73.56 151,-71.57 152.03,-78.49"/>
</a>
</g>
</g>
<!-- Node6 -->
<g id="Node000006" class="node">
<title>Node6</title>
<g id="a_Node000006"><a xlink:href="classcomppare_1_1plugin_1_1_plugin_arg_parser.html#adcf9be6492858457365e39d50397d453" target="_top" xlink:title=" ">
<polygon fill="white" stroke="#666666" points="286.62,-30.5 163.38,-30.5 163.38,0 286.62,0 286.62,-30.5"/>
<text xml:space="preserve" text-anchor="start" x="171.38" y="-17" font-family="Helvetica,sans-Serif" font-size="10.00">comppare::plugin::Plugin</text>
<text xml:space="preserve" text-anchor="middle" x="225" y="-5.75" font-family="Helvetica,sans-Serif" font-size="10.00">ArgParser::starts_with</text>
</a>
</g>
</g>
<!-- Node1&#45;&gt;Node6 -->
<g id="edge5_Node000001_Node000006" class="edge">
<title>Node1&#45;&gt;Node6</title>
<g id="a_edge5_Node000001_Node000006"><a xlink:title=" ">
<path fill="none" stroke="#63b8ff" d="M92.32,-72.61C111.26,-62.85 136.45,-50.29 159.25,-40.25 163.06,-38.57 167.02,-36.89 171.02,-35.24"/>
<polygon fill="#63b8ff" stroke="#63b8ff" points="172.26,-38.52 180.22,-31.53 169.64,-32.03 172.26,-38.52"/>
</a>
</g>
</g>
<!-- Node3 -->
<g id="Node000003" class="node">
<title>Node3</title>
<g id="a_Node000003"><a xlink:href="classcomppare_1_1plugin_1_1_plugin_arg_parser.html#a28090ed3bedb94b598048ea997283c9f" target="_top" xlink:title=" ">
<polygon fill="white" stroke="#666666" points="456,-177.5 326.75,-177.5 326.75,-147 456,-147 456,-177.5"/>
<text xml:space="preserve" text-anchor="start" x="334.75" y="-164" font-family="Helvetica,sans-Serif" font-size="10.00">comppare::plugin::Plugin</text>
<text xml:space="preserve" text-anchor="middle" x="391.38" y="-152.75" font-family="Helvetica,sans-Serif" font-size="10.00">ArgParser::split_shell_like</text>
</a>
</g>
</g>
<!-- Node2&#45;&gt;Node3 -->
<g id="edge2_Node000002_Node000003" class="edge">
<title>Node2&#45;&gt;Node3</title>
<g id="a_edge2_Node000002_Node000003"><a xlink:title=" ">
<path fill="none" stroke="#63b8ff" d="M290.97,-162.25C298.89,-162.25 307.05,-162.25 315.11,-162.25"/>
<polygon fill="#63b8ff" stroke="#63b8ff" points="314.91,-165.75 324.91,-162.25 314.91,-158.75 314.91,-165.75"/>
</a>
</g>
</g>
</g>
</svg>
