<?xml version="1.0" encoding="UTF-8" standalone="no"?>
<!DOCTYPE svg PUBLIC "-//W3C//DTD SVG 1.1//EN"
 "http://www.w3.org/Graphics/SVG/1.1/DTD/svg11.dtd">
<!-- Generated by graphviz version 13.1.2 (20250808.2320)
 -->
<!-- Title: comppare::InputContext::OutputContext::run Pages: 1 -->
<svg width="791pt" height="624pt"
 viewBox="0.00 0.00 791.00 624.00" xmlns="http://www.w3.org/2000/svg" xmlns:xlink="http://www.w3.org/1999/xlink">
<g id="graph0" class="graph" transform="scale(1 1) rotate(0) translate(4 619.5)">
<title>comppare::InputContext::OutputContext::run</title>
<!-- Node1 -->
<g id="Node000001" class="node">
<title>Node1</title>
<g id="a_Node000001"><a xlink:title="Runs the comparison for all added implementations.">
<polygon fill="#999999" stroke="#666666" points="121,-318.5 0,-318.5 0,-288 121,-288 121,-318.5"/>
<text xml:space="preserve" text-anchor="start" x="8" y="-305" font-family="Helvetica,sans-Serif" font-size="10.00">comppare::InputContext</text>
<text xml:space="preserve" text-anchor="middle" x="60.5" y="-293.75" font-family="Helvetica,sans-Serif" font-size="10.00">::OutputContext::run</text>
</a>
</g>
</g>
<!-- Node2 -->
<g id="Node000002" class="node">
<title>Node2</title>
<g id="a_Node000002"><a xlink:href="classcomppare_1_1_input_context_1_1_output_context.html#a740b4dc6b507cdc91df5e96e35a19bda" target="_top" xlink:title="Check if any of the error policies indicate a failure.">
<polygon fill="white" stroke="#666666" points="284.38,-608.5 158.88,-608.5 158.88,-578 284.38,-578 284.38,-608.5"/>
<text xml:space="preserve" text-anchor="start" x="166.88" y="-595" font-family="Helvetica,sans-Serif" font-size="10.00">comppare::InputContext</text>
<text xml:space="preserve" text-anchor="middle" x="221.62" y="-583.75" font-family="Helvetica,sans-Serif" font-size="10.00">::OutputContext::any_fail</text>
</a>
</g>
</g>
<!-- Node1&#45;&gt;Node2 -->
<g id="edge1_Node000001_Node000002" class="edge">
<title>Node1&#45;&gt;Node2</title>
<g id="a_edge1_Node000001_Node000002"><a xlink:title=" ">
<path fill="none" stroke="#63b8ff" d="M63.29,-318.93C69.02,-362.56 90.62,-487.02 157,-561.25 160.38,-565.03 164.32,-568.43 168.54,-571.46"/>
<polygon fill="#63b8ff" stroke="#63b8ff" points="166.53,-574.33 176.86,-576.71 170.27,-568.41 166.53,-574.33"/>
</a>
</g>
</g>
<!-- Node4 -->
<g id="Node000004" class="node">
<title>Node4</title>
<g id="a_Node000004"><a xlink:href="classcomppare_1_1config.html#a746ad50b12f724824b3b62f146968a8d" target="_top" xlink:title="Get the number of benchmark iterations.">
<polygon fill="white" stroke="#666666" points="449.62,-529.5 326.38,-529.5 326.38,-499 449.62,-499 449.62,-529.5"/>
<text xml:space="preserve" text-anchor="start" x="334.38" y="-516" font-family="Helvetica,sans-Serif" font-size="10.00">comppare::config::bench</text>
<text xml:space="preserve" text-anchor="middle" x="388" y="-504.75" font-family="Helvetica,sans-Serif" font-size="10.00">_iters</text>
</a>
</g>
</g>
<!-- Node1&#45;&gt;Node4 -->
<g id="edge3_Node000001_Node000004" class="edge">
<title>Node1&#45;&gt;Node4</title>
<g id="a_edge3_Node000001_Node000004"><a xlink:title=" ">
<path fill="none" stroke="#63b8ff" d="M68.62,-318.8C82.02,-346.41 113.6,-404.1 157,-436.25 203.68,-470.82 266.73,-490.78 315.01,-501.83"/>
<polygon fill="#63b8ff" stroke="#63b8ff" points="314.01,-505.19 324.53,-503.93 315.52,-498.36 314.01,-505.19"/>
</a>
</g>
</g>
<!-- Node7 -->
<g id="Node000007" class="node">
<title>Node7</title>
<g id="a_Node000007"><a xlink:href="classcomppare_1_1_input_context_1_1_output_context.html#a02caa5ba8fe7795a49177c91a421e9ea" target="_top" xlink:title="Compute the error metrics for each output specification.">
<polygon fill="white" stroke="#666666" points="286.25,-203.12 157,-203.12 157,-161.38 286.25,-161.38 286.25,-203.12"/>
<text xml:space="preserve" text-anchor="start" x="165" y="-189.62" font-family="Helvetica,sans-Serif" font-size="10.00">comppare::InputContext</text>
<text xml:space="preserve" text-anchor="start" x="165" y="-178.38" font-family="Helvetica,sans-Serif" font-size="10.00">::OutputContext::compute</text>
<text xml:space="preserve" text-anchor="middle" x="221.62" y="-167.12" font-family="Helvetica,sans-Serif" font-size="10.00">_errors</text>
</a>
</g>
</g>
<!-- Node1&#45;&gt;Node7 -->
<g id="edge7_Node000001_Node000007" class="edge">
<title>Node1&#45;&gt;Node7</title>
<g id="a_edge7_Node000001_Node000007"><a xlink:title=" ">
<path fill="none" stroke="#63b8ff" d="M74.8,-287.82C92.2,-268.33 124.32,-234.65 157,-212.25 158.56,-211.18 160.16,-210.13 161.8,-209.11"/>
<polygon fill="#63b8ff" stroke="#63b8ff" points="163.27,-212.3 170.14,-204.23 159.74,-206.25 163.27,-212.3"/>
</a>
</g>
</g>
<!-- Node9 -->
<g id="Node000009" class="node">
<title>Node9</title>
<g id="a_Node000009"><a xlink:href="classcomppare_1_1config.html#a700e53e6f60921f8a97fc64e422f1ec8" target="_top" xlink:title="Get the current roi us value.">
<polygon fill="white" stroke="#666666" points="276.88,-552.5 166.38,-552.5 166.38,-522 276.88,-522 276.88,-552.5"/>
<text xml:space="preserve" text-anchor="start" x="174.38" y="-539" font-family="Helvetica,sans-Serif" font-size="10.00">comppare::config::get</text>
<text xml:space="preserve" text-anchor="middle" x="221.62" y="-527.75" font-family="Helvetica,sans-Serif" font-size="10.00">_roi_us</text>
</a>
</g>
</g>
<!-- Node1&#45;&gt;Node9 -->
<g id="edge9_Node000001_Node000009" class="edge">
<title>Node1&#45;&gt;Node9</title>
<g id="a_edge9_Node000001_Node000009"><a xlink:title=" ">
<path fill="none" stroke="#63b8ff" d="M66.13,-318.79C77.12,-353.67 107.65,-439.49 157,-495.25 163.69,-502.81 172.05,-509.6 180.48,-515.4"/>
<polygon fill="#63b8ff" stroke="#63b8ff" points="178.37,-518.2 188.67,-520.69 182.17,-512.32 178.37,-518.2"/>
</a>
</g>
</g>
<!-- Node10 -->
<g id="Node000010" class="node">
<title>Node10</title>
<g id="a_Node000010"><a xlink:href="classcomppare_1_1config.html#a9fbdaaa78cbc7240f0f0b9987c51ce76" target="_top" xlink:title="Get the current warmup us value.">
<polygon fill="white" stroke="#666666" points="276.88,-318.5 166.38,-318.5 166.38,-288 276.88,-288 276.88,-318.5"/>
<text xml:space="preserve" text-anchor="start" x="174.38" y="-305" font-family="Helvetica,sans-Serif" font-size="10.00">comppare::config::get</text>
<text xml:space="preserve" text-anchor="middle" x="221.62" y="-293.75" font-family="Helvetica,sans-Serif" font-size="10.00">_warmup_us</text>
</a>
</g>
</g>
<!-- Node1&#45;&gt;Node10 -->
<g id="edge11_Node000001_Node000010" class="edge">
<title>Node1&#45;&gt;Node10</title>
<g id="a_edge11_Node000001_Node000010"><a xlink:title=" ">
<path fill="none" stroke="#63b8ff" d="M121.21,-303.25C132.14,-303.25 143.6,-303.25 154.7,-303.25"/>
<polygon fill="#63b8ff" stroke="#63b8ff" points="154.58,-306.75 164.58,-303.25 154.58,-299.75 154.58,-306.75"/>
</a>
</g>
</g>
<!-- Node11 -->
<g id="Node000011" class="node">
<title>Node11</title>
<g id="a_Node000011"><a xlink:href="namespacecomppare_1_1internal_1_1helper.html#a6584f5d2acf97c0840bbc15cb8da0e53" target="_top" xlink:title=" ">
<polygon fill="white" stroke="#666666" points="272.75,-251.5 170.5,-251.5 170.5,-221 272.75,-221 272.75,-251.5"/>
<text xml:space="preserve" text-anchor="start" x="178.5" y="-238" font-family="Helvetica,sans-Serif" font-size="10.00">comppare::internal</text>
<text xml:space="preserve" text-anchor="middle" x="221.62" y="-226.75" font-family="Helvetica,sans-Serif" font-size="10.00">::helper::parse_args</text>
</a>
</g>
</g>
<!-- Node1&#45;&gt;Node11 -->
<g id="edge13_Node000001_Node000011" class="edge">
<title>Node1&#45;&gt;Node11</title>
<g id="a_edge13_Node000001_Node000011"><a xlink:title=" ">
<path fill="none" stroke="#63b8ff" d="M98.81,-287.54C120.87,-278.25 149.05,-266.39 172.74,-256.41"/>
<polygon fill="#63b8ff" stroke="#63b8ff" points="174.02,-259.67 181.88,-252.56 171.31,-253.22 174.02,-259.67"/>
</a>
</g>
</g>
<!-- Node17 -->
<g id="Node000017" class="node">
<title>Node17</title>
<g id="a_Node000017"><a xlink:href="classcomppare_1_1_input_context_1_1_output_context.html#a85b7b80f001a9dff399f22ee8e7d01ef" target="_top" xlink:title="Print the header for the output table.">
<polygon fill="white" stroke="#666666" points="282.12,-427.12 161.12,-427.12 161.12,-385.38 282.12,-385.38 282.12,-427.12"/>
<text xml:space="preserve" text-anchor="start" x="169.12" y="-413.62" font-family="Helvetica,sans-Serif" font-size="10.00">comppare::InputContext</text>
<text xml:space="preserve" text-anchor="start" x="169.12" y="-402.38" font-family="Helvetica,sans-Serif" font-size="10.00">::OutputContext::print</text>
<text xml:space="preserve" text-anchor="middle" x="221.62" y="-391.12" font-family="Helvetica,sans-Serif" font-size="10.00">_header</text>
</a>
</g>
</g>
<!-- Node1&#45;&gt;Node17 -->
<g id="edge21_Node000001_Node000017" class="edge">
<title>Node1&#45;&gt;Node17</title>
<g id="a_edge21_Node000001_Node000017"><a xlink:title=" ">
<path fill="none" stroke="#63b8ff" d="M85.67,-318.89C110.12,-334.72 148.42,-359.51 177.99,-378.65"/>
<polygon fill="#63b8ff" stroke="#63b8ff" points="176.08,-381.58 186.37,-384.08 179.88,-375.71 176.08,-381.58"/>
</a>
</g>
</g>
<!-- Node21 -->
<g id="Node000021" class="node">
<title>Node21</title>
<g id="a_Node000021"><a xlink:href="classcomppare_1_1_input_context_1_1_output_context.html#a0756e3b401c707b513cd9408a3aca658" target="_top" xlink:title="Print the metrics for each output specification.">
<polygon fill="white" stroke="#666666" points="282.12,-143.12 161.12,-143.12 161.12,-101.38 282.12,-101.38 282.12,-143.12"/>
<text xml:space="preserve" text-anchor="start" x="169.12" y="-129.62" font-family="Helvetica,sans-Serif" font-size="10.00">comppare::InputContext</text>
<text xml:space="preserve" text-anchor="start" x="169.12" y="-118.38" font-family="Helvetica,sans-Serif" font-size="10.00">::OutputContext::print</text>
<text xml:space="preserve" text-anchor="middle" x="221.62" y="-107.12" font-family="Helvetica,sans-Serif" font-size="10.00">_metrics</text>
</a>
</g>
</g>
<!-- Node1&#45;&gt;Node21 -->
<g id="edge27_Node000001_Node000021" class="edge">
<title>Node1&#45;&gt;Node21</title>
<g id="a_edge27_Node000001_Node000021"><a xlink:title=" ">
<path fill="none" stroke="#63b8ff" d="M67.85,-287.52C80.64,-257.59 112.14,-191.89 157,-152.25 157.78,-151.56 158.58,-150.88 159.4,-150.22"/>
<polygon fill="#63b8ff" stroke="#63b8ff" points="161.35,-153.12 167.44,-144.46 157.27,-147.43 161.35,-153.12"/>
</a>
</g>
</g>
<!-- Node22 -->
<g id="Node000022" class="node">
<title>Node22</title>
<g id="a_Node000022"><a xlink:href="classcomppare_1_1current__state.html#a1ef5f6becff4320be468fa5937217a5f" target="_top" xlink:title=" ">
<polygon fill="white" stroke="#666666" points="282.5,-48.5 160.75,-48.5 160.75,-18 282.5,-18 282.5,-48.5"/>
<text xml:space="preserve" text-anchor="start" x="168.75" y="-35" font-family="Helvetica,sans-Serif" font-size="10.00">comppare::current_state</text>
<text xml:space="preserve" text-anchor="middle" x="221.62" y="-23.75" font-family="Helvetica,sans-Serif" font-size="10.00">::set_using_plugin</text>
</a>
</g>
</g>
<!-- Node1&#45;&gt;Node22 -->
<g id="edge28_Node000001_Node000022" class="edge">
<title>Node1&#45;&gt;Node22</title>
<g id="a_edge28_Node000001_Node000022"><a xlink:title=" ">
<path fill="none" stroke="#63b8ff" d="M66.2,-287.57C77.68,-250.97 109.66,-158 157,-92.25 166.61,-78.9 179.59,-66.21 191.33,-56.04"/>
<polygon fill="#63b8ff" stroke="#63b8ff" points="193.41,-58.87 198.82,-49.76 188.91,-53.5 193.41,-58.87"/>
</a>
</g>
</g>
<!-- Node3 -->
<g id="Node000003" class="node">
<title>Node3</title>
<g id="a_Node000003"><a xlink:href="namespacecomppare_1_1internal_1_1policy.html#a6346bbf28a005f699688f8e68660d37e" target="_top" xlink:title=" ">
<polygon fill="white" stroke="#666666" points="436.12,-615.5 339.88,-615.5 339.88,-585 436.12,-585 436.12,-615.5"/>
<text xml:space="preserve" text-anchor="start" x="347.88" y="-602" font-family="Helvetica,sans-Serif" font-size="10.00">comppare::internal</text>
<text xml:space="preserve" text-anchor="middle" x="388" y="-590.75" font-family="Helvetica,sans-Serif" font-size="10.00">::policy::is_fail</text>
</a>
</g>
</g>
<!-- Node2&#45;&gt;Node3 -->
<g id="edge2_Node000002_Node000003" class="edge">
<title>Node2&#45;&gt;Node3</title>
<g id="a_edge2_Node000002_Node000003"><a xlink:title=" ">
<path fill="none" stroke="#63b8ff" d="M284.77,-595.9C298.9,-596.5 313.88,-597.14 327.88,-597.73"/>
<polygon fill="#63b8ff" stroke="#63b8ff" points="327.73,-601.23 337.87,-598.16 328.02,-594.24 327.73,-601.23"/>
</a>
</g>
</g>
<!-- Node5 -->
<g id="Node000005" class="node">
<title>Node5</title>
<g id="a_Node000005"><a xlink:href="classcomppare_1_1config.html#a2913df9eb204fa9839adb38858d6cfd2" target="_top" xlink:title="Get the singleton instance of the config class.">
<polygon fill="white" stroke="#666666" points="623.5,-363.88 489.75,-363.88 489.75,-344.62 623.5,-344.62 623.5,-363.88"/>
<text xml:space="preserve" text-anchor="middle" x="556.62" y="-350.38" font-family="Helvetica,sans-Serif" font-size="10.00">comppare::config::instance</text>
</a>
</g>
</g>
<!-- Node4&#45;&gt;Node5 -->
<g id="edge4_Node000004_Node000005" class="edge">
<title>Node4&#45;&gt;Node5</title>
<g id="a_edge4_Node000004_Node000005"><a xlink:title=" ">
<path fill="none" stroke="#63b8ff" d="M439.97,-498.63C444.84,-496.19 449.52,-493.41 453.75,-490.25 496.51,-458.32 529.71,-403.61 545.5,-374.26"/>
<polygon fill="#63b8ff" stroke="#63b8ff" points="548.45,-376.17 549.99,-365.69 542.25,-372.92 548.45,-376.17"/>
</a>
</g>
</g>
<!-- Node6 -->
<g id="Node000006" class="node">
<title>Node6</title>
<g id="a_Node000006"><a xlink:href="classcomppare_1_1config.html#a3b3362c3001d7972c21a9be1f1744ff5" target="_top" xlink:title="Deleted copy constructor.">
<polygon fill="white" stroke="#666666" points="782.75,-363.88 659.5,-363.88 659.5,-344.62 782.75,-344.62 782.75,-363.88"/>
<text xml:space="preserve" text-anchor="middle" x="721.12" y="-350.38" font-family="Helvetica,sans-Serif" font-size="10.00">comppare::config::config</text>
</a>
</g>
</g>
<!-- Node5&#45;&gt;Node6 -->
<g id="edge5_Node000005_Node000006" class="edge">
<title>Node5&#45;&gt;Node6</title>
<g id="a_edge5_Node000005_Node000006"><a xlink:title=" ">
<path fill="none" stroke="#63b8ff" d="M623.72,-354.25C631.57,-354.25 639.62,-354.25 647.56,-354.25"/>
<polygon fill="#63b8ff" stroke="#63b8ff" points="647.55,-357.75 657.55,-354.25 647.55,-350.75 647.55,-357.75"/>
</a>
</g>
</g>
<!-- Node6&#45;&gt;Node6 -->
<g id="edge6_Node000006_Node000006" class="edge">
<title>Node6&#45;&gt;Node6</title>
<g id="a_edge6_Node000006_Node000006"><a xlink:title=" ">
<path fill="none" stroke="#63b8ff" d="M695.37,-364.16C683.62,-372.77 692.21,-381.88 721.12,-381.88 737.39,-381.88 747.22,-378.99 750.62,-374.94"/>
<polygon fill="#63b8ff" stroke="#63b8ff" points="753.96,-373.89 747.37,-365.59 747.35,-376.19 753.96,-373.89"/>
</a>
</g>
</g>
<!-- Node8 -->
<g id="Node000008" class="node">
<title>Node8</title>
<g id="a_Node000008"><a xlink:href="namespacecomppare_1_1internal_1_1policy.html#a7d8e6f6e36ca5aa4bd000d0c6865e36b" target="_top" xlink:title=" ">
<polygon fill="white" stroke="#666666" points="445.88,-79.5 330.12,-79.5 330.12,-49 445.88,-49 445.88,-79.5"/>
<text xml:space="preserve" text-anchor="start" x="338.12" y="-66" font-family="Helvetica,sans-Serif" font-size="10.00">comppare::internal</text>
<text xml:space="preserve" text-anchor="middle" x="388" y="-54.75" font-family="Helvetica,sans-Serif" font-size="10.00">::policy::compute_error</text>
</a>
</g>
</g>
<!-- Node7&#45;&gt;Node8 -->
<g id="edge8_Node000007_Node000008" class="edge">
<title>Node7&#45;&gt;Node8</title>
<g id="a_edge8_Node000007_Node000008"><a xlink:title=" ">
<path fill="none" stroke="#63b8ff" d="M275.05,-160.89C279.04,-158.28 282.84,-155.4 286.25,-152.25 309.93,-130.36 297.79,-110.27 322.25,-89.25 323.69,-88.01 325.21,-86.82 326.78,-85.7"/>
<polygon fill="#63b8ff" stroke="#63b8ff" points="328.31,-88.86 334.97,-80.62 324.63,-82.91 328.31,-88.86"/>
</a>
</g>
</g>
<!-- Node9&#45;&gt;Node5 -->
<g id="edge10_Node000009_Node000005" class="edge">
<title>Node9&#45;&gt;Node5</title>
<g id="a_edge10_Node000009_Node000005"><a xlink:title=" ">
<path fill="none" stroke="#63b8ff" d="M277.14,-552.34C326.74,-562.8 400.17,-569.83 453.75,-538.25 514.63,-502.37 541.68,-415.59 551.26,-375.37"/>
<polygon fill="#63b8ff" stroke="#63b8ff" points="554.64,-376.28 553.4,-365.76 547.81,-374.75 554.64,-376.28"/>
</a>
</g>
</g>
<!-- Node10&#45;&gt;Node5 -->
<g id="edge12_Node000010_Node000005" class="edge">
<title>Node10&#45;&gt;Node5</title>
<g id="a_edge12_Node000010_Node000005"><a xlink:title=" ">
<path fill="none" stroke="#63b8ff" d="M277.26,-304.33C324.4,-306.07 394.09,-310.58 453.75,-322.25 475.65,-326.53 499.48,-333.86 518.58,-340.43"/>
<polygon fill="#63b8ff" stroke="#63b8ff" points="517.21,-343.66 527.8,-343.67 519.53,-337.05 517.21,-343.66"/>
</a>
</g>
</g>
<!-- Node12 -->
<g id="Node000012" class="node">
<title>Node12</title>
<g id="a_Node000012"><a xlink:href="namespacecomppare_1_1internal_1_1helper.html#a5a058274ce4d461c1ee3150183b897ef" target="_top" xlink:title=" ">
<polygon fill="white" stroke="#666666" points="445.5,-128.5 330.5,-128.5 330.5,-98 445.5,-98 445.5,-128.5"/>
<text xml:space="preserve" text-anchor="start" x="338.5" y="-115" font-family="Helvetica,sans-Serif" font-size="10.00">comppare::internal</text>
<text xml:space="preserve" text-anchor="middle" x="388" y="-103.75" font-family="Helvetica,sans-Serif" font-size="10.00">::helper::get_arg_value</text>
</a>
</g>
</g>
<!-- Node11&#45;&gt;Node12 -->
<g id="edge14_Node000011_Node000012" class="edge">
<title>Node11&#45;&gt;Node12</title>
<g id="a_edge14_Node000011_Node000012"><a xlink:title=" ">
<path fill="none" stroke="#63b8ff" d="M273.04,-221.51C277.81,-218.89 282.32,-215.83 286.25,-212.25 313.27,-187.61 295.32,-163 322.25,-138.25 323.47,-137.13 324.75,-136.06 326.07,-135.03"/>
<polygon fill="#63b8ff" stroke="#63b8ff" points="327.67,-138.16 334.1,-129.74 323.82,-132.32 327.67,-138.16"/>
</a>
</g>
</g>
<!-- Node13 -->
<g id="Node000013" class="node">
<title>Node13</title>
<g id="a_Node000013"><a xlink:href="classcomppare_1_1config.html#ac6861c4582a0620d0163ac03fb314d19" target="_top" xlink:title="Set the floating&#45;point tolerance for all supported types.">
<polygon fill="white" stroke="#666666" points="443.25,-177.5 332.75,-177.5 332.75,-147 443.25,-147 443.25,-177.5"/>
<text xml:space="preserve" text-anchor="start" x="340.75" y="-164" font-family="Helvetica,sans-Serif" font-size="10.00">comppare::config::set</text>
<text xml:space="preserve" text-anchor="middle" x="388" y="-152.75" font-family="Helvetica,sans-Serif" font-size="10.00">_all_fp_tolerance</text>
</a>
</g>
</g>
<!-- Node11&#45;&gt;Node13 -->
<g id="edge15_Node000011_Node000013" class="edge">
<title>Node11&#45;&gt;Node13</title>
<g id="a_edge15_Node000011_Node000013"><a xlink:title=" ">
<path fill="none" stroke="#63b8ff" d="M268.41,-220.54C274.51,-218 280.61,-215.22 286.25,-212.25 303.49,-203.19 305.04,-196.38 322.25,-187.25 325.29,-185.64 328.46,-184.07 331.69,-182.56"/>
<polygon fill="#63b8ff" stroke="#63b8ff" points="333.02,-185.81 340.76,-178.57 330.19,-179.4 333.02,-185.81"/>
</a>
</g>
</g>
<!-- Node15 -->
<g id="Node000015" class="node">
<title>Node15</title>
<g id="a_Node000015"><a xlink:href="classcomppare_1_1config.html#ad75d5706a66a2ef398540ef9cd1cfbab" target="_top" xlink:title="Set the number of benchmark iterations.">
<polygon fill="white" stroke="#666666" points="443.25,-275.5 332.75,-275.5 332.75,-245 443.25,-245 443.25,-275.5"/>
<text xml:space="preserve" text-anchor="start" x="340.75" y="-262" font-family="Helvetica,sans-Serif" font-size="10.00">comppare::config::set</text>
<text xml:space="preserve" text-anchor="middle" x="388" y="-250.75" font-family="Helvetica,sans-Serif" font-size="10.00">_bench_iters</text>
</a>
</g>
</g>
<!-- Node11&#45;&gt;Node15 -->
<g id="edge17_Node000011_Node000015" class="edge">
<title>Node11&#45;&gt;Node15</title>
<g id="a_edge17_Node000011_Node000015"><a xlink:title=" ">
<path fill="none" stroke="#63b8ff" d="M272.84,-243.58C288.18,-245.82 305.28,-248.32 321.48,-250.68"/>
<polygon fill="#63b8ff" stroke="#63b8ff" points="320.62,-254.1 331.02,-252.08 321.64,-247.17 320.62,-254.1"/>
</a>
</g>
</g>
<!-- Node16 -->
<g id="Node000016" class="node">
<title>Node16</title>
<g id="a_Node000016"><a xlink:href="classcomppare_1_1config.html#a3f652923ccdafc020e3079c12fb777d8" target="_top" xlink:title="Set the number of warmup iterations.">
<polygon fill="white" stroke="#666666" points="443.25,-226.5 332.75,-226.5 332.75,-196 443.25,-196 443.25,-226.5"/>
<text xml:space="preserve" text-anchor="start" x="340.75" y="-213" font-family="Helvetica,sans-Serif" font-size="10.00">comppare::config::set</text>
<text xml:space="preserve" text-anchor="middle" x="388" y="-201.75" font-family="Helvetica,sans-Serif" font-size="10.00">_warmup_iters</text>
</a>
</g>
</g>
<!-- Node11&#45;&gt;Node16 -->
<g id="edge19_Node000011_Node000016" class="edge">
<title>Node11&#45;&gt;Node16</title>
<g id="a_edge19_Node000011_Node000016"><a xlink:title=" ">
<path fill="none" stroke="#63b8ff" d="M272.84,-228.61C288.18,-226.28 305.28,-223.68 321.48,-221.21"/>
<polygon fill="#63b8ff" stroke="#63b8ff" points="321.67,-224.73 331.03,-219.76 320.61,-217.81 321.67,-224.73"/>
</a>
</g>
</g>
<!-- Node14 -->
<g id="Node000014" class="node">
<title>Node14</title>
<g id="a_Node000014"><a xlink:href="classcomppare_1_1config.html#a91e094e77d9468f8361f2b9b99aff3c2" target="_top" xlink:title="Get the floating&#45;point tolerance for a specific floating&#45;point type.">
<polygon fill="white" stroke="#666666" points="609.25,-177.5 504,-177.5 504,-147 609.25,-147 609.25,-177.5"/>
<text xml:space="preserve" text-anchor="start" x="512" y="-164" font-family="Helvetica,sans-Serif" font-size="10.00">comppare::config::fp</text>
<text xml:space="preserve" text-anchor="middle" x="556.62" y="-152.75" font-family="Helvetica,sans-Serif" font-size="10.00">_tolerance</text>
</a>
</g>
</g>
<!-- Node13&#45;&gt;Node14 -->
<g id="edge16_Node000013_Node000014" class="edge">
<title>Node13&#45;&gt;Node14</title>
<g id="a_edge16_Node000013_Node000014"><a xlink:title=" ">
<path fill="none" stroke="#63b8ff" d="M443.56,-162.25C459.14,-162.25 476.25,-162.25 492.31,-162.25"/>
<polygon fill="#63b8ff" stroke="#63b8ff" points="492.26,-165.75 502.26,-162.25 492.26,-158.75 492.26,-165.75"/>
</a>
</g>
</g>
<!-- Node15&#45;&gt;Node5 -->
<g id="edge18_Node000015_Node000005" class="edge">
<title>Node15&#45;&gt;Node5</title>
<g id="a_edge18_Node000015_Node000005"><a xlink:title=" ">
<path fill="none" stroke="#63b8ff" d="M426.43,-275.89C435.5,-279.99 445.08,-284.57 453.75,-289.25 481.55,-304.24 511.89,-324.08 532.17,-337.88"/>
<polygon fill="#63b8ff" stroke="#63b8ff" points="530.05,-340.67 540.27,-343.45 534.01,-334.9 530.05,-340.67"/>
</a>
</g>
</g>
<!-- Node16&#45;&gt;Node5 -->
<g id="edge20_Node000016_Node000005" class="edge">
<title>Node16&#45;&gt;Node5</title>
<g id="a_edge20_Node000016_Node000005"><a xlink:title=" ">
<path fill="none" stroke="#63b8ff" d="M437.4,-226.86C443.13,-229.59 448.73,-232.71 453.75,-236.25 492.65,-263.64 526.16,-309.05 543.34,-334.82"/>
<polygon fill="#63b8ff" stroke="#63b8ff" points="540.27,-336.52 548.66,-342.99 546.14,-332.7 540.27,-336.52"/>
</a>
</g>
</g>
<!-- Node17&#45;&gt;Node4 -->
<g id="edge22_Node000017_Node000004" class="edge">
<title>Node17&#45;&gt;Node4</title>
<g id="a_edge22_Node000017_Node000004"><a xlink:title=" ">
<path fill="none" stroke="#63b8ff" d="M243.13,-427.27C262.21,-445.87 292.15,-472.71 322.25,-490.25 324.27,-491.43 326.36,-492.57 328.5,-493.67"/>
<polygon fill="#63b8ff" stroke="#63b8ff" points="326.85,-496.76 337.39,-497.86 329.84,-490.43 326.85,-496.76"/>
</a>
</g>
</g>
<!-- Node18 -->
<g id="Node000018" class="node">
<title>Node18</title>
<g id="a_Node000018"><a xlink:href="classcomppare_1_1_input_context_1_1_output_context.html#a2c601f07b13e7d449a60485f9ae85d40" target="_top" xlink:title="Get the implementation details for a specific implementation index.">
<polygon fill="white" stroke="#666666" points="448.5,-373.12 327.5,-373.12 327.5,-331.38 448.5,-331.38 448.5,-373.12"/>
<text xml:space="preserve" text-anchor="start" x="335.5" y="-359.62" font-family="Helvetica,sans-Serif" font-size="10.00">comppare::InputContext</text>
<text xml:space="preserve" text-anchor="start" x="335.5" y="-348.38" font-family="Helvetica,sans-Serif" font-size="10.00">::OutputContext::spec</text>
<text xml:space="preserve" text-anchor="middle" x="388" y="-337.12" font-family="Helvetica,sans-Serif" font-size="10.00">_metric_count</text>
</a>
</g>
</g>
<!-- Node17&#45;&gt;Node18 -->
<g id="edge23_Node000017_Node000018" class="edge">
<title>Node17&#45;&gt;Node18</title>
<g id="a_edge23_Node000017_Node000018"><a xlink:title=" ">
<path fill="none" stroke="#63b8ff" d="M282.43,-386.6C293.49,-382.97 305.14,-379.14 316.48,-375.42"/>
<polygon fill="#63b8ff" stroke="#63b8ff" points="317.39,-378.8 325.8,-372.36 315.21,-372.15 317.39,-378.8"/>
</a>
</g>
</g>
<!-- Node19 -->
<g id="Node000019" class="node">
<title>Node19</title>
<g id="a_Node000019"><a xlink:href="classcomppare_1_1_input_context_1_1_output_context.html#a6546c5e3c964b54a204551b11a6c9d88" target="_top" xlink:title="Get the name of a specific metric for a specific implementation index.">
<polygon fill="white" stroke="#666666" points="448.5,-481.12 327.5,-481.12 327.5,-439.38 448.5,-439.38 448.5,-481.12"/>
<text xml:space="preserve" text-anchor="start" x="335.5" y="-467.62" font-family="Helvetica,sans-Serif" font-size="10.00">comppare::InputContext</text>
<text xml:space="preserve" text-anchor="start" x="335.5" y="-456.38" font-family="Helvetica,sans-Serif" font-size="10.00">::OutputContext::spec</text>
<text xml:space="preserve" text-anchor="middle" x="388" y="-445.12" font-family="Helvetica,sans-Serif" font-size="10.00">_metric_name</text>
</a>
</g>
</g>
<!-- Node17&#45;&gt;Node19 -->
<g id="edge24_Node000017_Node000019" class="edge">
<title>Node17&#45;&gt;Node19</title>
<g id="a_edge24_Node000017_Node000019"><a xlink:title=" ">
<path fill="none" stroke="#63b8ff" d="M282.43,-425.9C293.49,-429.53 305.14,-433.36 316.48,-437.08"/>
<polygon fill="#63b8ff" stroke="#63b8ff" points="315.21,-440.35 325.8,-440.14 317.39,-433.7 315.21,-440.35"/>
</a>
</g>
</g>
<!-- Node20 -->
<g id="Node000020" class="node">
<title>Node20</title>
<g id="a_Node000020"><a xlink:href="classcomppare_1_1config.html#ab1490e36efe896d0124486f7b4254fc1" target="_top" xlink:title="Get the number of warmup iterations.">
<polygon fill="white" stroke="#666666" points="453.75,-421.5 322.25,-421.5 322.25,-391 453.75,-391 453.75,-421.5"/>
<text xml:space="preserve" text-anchor="start" x="330.25" y="-408" font-family="Helvetica,sans-Serif" font-size="10.00">comppare::config::warmup</text>
<text xml:space="preserve" text-anchor="middle" x="388" y="-396.75" font-family="Helvetica,sans-Serif" font-size="10.00">_iters</text>
</a>
</g>
</g>
<!-- Node17&#45;&gt;Node20 -->
<g id="edge25_Node000017_Node000020" class="edge">
<title>Node17&#45;&gt;Node20</title>
<g id="a_edge25_Node000017_Node000020"><a xlink:title=" ">
<path fill="none" stroke="#63b8ff" d="M282.43,-406.25C291.57,-406.25 301.11,-406.25 310.54,-406.25"/>
<polygon fill="#63b8ff" stroke="#63b8ff" points="310.45,-409.75 320.45,-406.25 310.45,-402.75 310.45,-409.75"/>
</a>
</g>
</g>
<!-- Node20&#45;&gt;Node5 -->
<g id="edge26_Node000020_Node000005" class="edge">
<title>Node20&#45;&gt;Node5</title>
<g id="a_edge26_Node000020_Node000005"><a xlink:title=" ">
<path fill="none" stroke="#63b8ff" d="M439.45,-390.51C462.72,-383.24 490.06,-374.71 512.38,-367.75"/>
<polygon fill="#63b8ff" stroke="#63b8ff" points="513.26,-371.14 521.77,-364.82 511.18,-364.45 513.26,-371.14"/>
</a>
</g>
</g>
<!-- Node23 -->
<g id="Node000023" class="node">
<title>Node23</title>
<g id="a_Node000023"><a xlink:href="classcomppare_1_1current__state.html#a1a158bf35890c1062d3319a7230b5ba9" target="_top" xlink:title=" ">
<polygon fill="white" stroke="#666666" points="448.88,-30.5 327.12,-30.5 327.12,0 448.88,0 448.88,-30.5"/>
<text xml:space="preserve" text-anchor="start" x="335.12" y="-17" font-family="Helvetica,sans-Serif" font-size="10.00">comppare::current_state</text>
<text xml:space="preserve" text-anchor="middle" x="388" y="-5.75" font-family="Helvetica,sans-Serif" font-size="10.00">::instance</text>
</a>
</g>
</g>
<!-- Node22&#45;&gt;Node23 -->
<g id="edge29_Node000022_Node000023" class="edge">
<title>Node22&#45;&gt;Node23</title>
<g id="a_edge29_Node000022_Node000023"><a xlink:title=" ">
<path fill="none" stroke="#63b8ff" d="M282.9,-26.65C293.51,-25.49 304.64,-24.27 315.52,-23.08"/>
<polygon fill="#63b8ff" stroke="#63b8ff" points="315.67,-26.58 325.23,-22.01 314.91,-19.62 315.67,-26.58"/>
</a>
</g>
</g>
<!-- Node24 -->
<g id="Node000024" class="node">
<title>Node24</title>
<g id="a_Node000024"><a xlink:href="classcomppare_1_1current__state.html#a4921a9d62504a72461ae0d42956d899f" target="_top" xlink:title=" ">
<polygon fill="white" stroke="#666666" points="617.5,-30.5 495.75,-30.5 495.75,0 617.5,0 617.5,-30.5"/>
<text xml:space="preserve" text-anchor="start" x="503.75" y="-17" font-family="Helvetica,sans-Serif" font-size="10.00">comppare::current_state</text>
<text xml:space="preserve" text-anchor="middle" x="556.62" y="-5.75" font-family="Helvetica,sans-Serif" font-size="10.00">::current_state</text>
</a>
</g>
</g>
<!-- Node23&#45;&gt;Node24 -->
<g id="edge30_Node000023_Node000024" class="edge">
<title>Node23&#45;&gt;Node24</title>
<g id="a_edge30_Node000023_Node000024"><a xlink:title=" ">
<path fill="none" stroke="#63b8ff" d="M449.16,-15.25C460.41,-15.25 472.28,-15.25 483.85,-15.25"/>
<polygon fill="#63b8ff" stroke="#63b8ff" points="483.76,-18.75 493.76,-15.25 483.76,-11.75 483.76,-18.75"/>
</a>
</g>
</g>
<!-- Node24&#45;&gt;Node24 -->
<g id="edge31_Node000024_Node000024" class="edge">
<title>Node24&#45;&gt;Node24</title>
<g id="a_edge31_Node000024_Node000024"><a xlink:title=" ">
<path fill="none" stroke="#63b8ff" d="M527.48,-30.99C521.53,-40.06 531.24,-48.5 556.62,-48.5 570.51,-48.5 579.7,-45.97 584.21,-42.2"/>
<polygon fill="#63b8ff" stroke="#63b8ff" points="587.65,-42.87 585.57,-32.48 580.72,-41.91 587.65,-42.87"/>
</a>
</g>
</g>
</g>
</svg>
