<?xml version="1.0" encoding="UTF-8" standalone="no"?>
<!DOCTYPE svg PUBLIC "-//W3C//DTD SVG 1.1//EN"
 "http://www.w3.org/Graphics/SVG/1.1/DTD/svg11.dtd">
<!-- Generated by graphviz version 13.1.2 (20250808.2320)
 -->
<!-- Title: comppare::InputContext::OutputContext::print_header Pages: 1 -->
<!--zoomable 207 -->

<svg id="main" version="1.1" xmlns="http://www.w3.org/2000/svg" xmlns:xlink="http://www.w3.org/1999/xlink" xml:space="preserve" onload="init(evt)">

<style type="text/css"><![CDATA[
.node, .edge {opacity: 0.7;}
.node.selected, .edge.selected {opacity: 1;}
.edge:hover path { stroke: red; }
.edge:hover polygon { stroke: red; fill: red; }
]]></style>

<defs>
  <circle id="rim" cx="0" cy="0" r="7"/>
  <circle id="rim2" cx="0" cy="0" r="3.5"/>
  <g id="zoomPlus">
    <use xlink:href="#rim" fill="#404040"><set attributeName="fill" to="#808080" begin="zoomplus.mouseover" end="zoomplus.mouseout"/></use>
    <path d="M-4,0h8M0,-4v8" fill="none" stroke="white" stroke-width="1.5" pointer-events="none"/>
  </g>
  <g id="zoomMin">
    <use xlink:href="#rim" fill="#404040"><set attributeName="fill" to="#808080" begin="zoomminus.mouseover" end="zoomminus.mouseout"/></use>
    <path d="M-4,0h8" fill="none" stroke="white" stroke-width="1.5" pointer-events="none"/>
  </g>
  <g id="arrowUp" transform="translate(30 24)">
    <use xlink:href="#rim"/>
    <path pointer-events="none" fill="none" stroke="white" stroke-width="1.5" d="M0,-3.0v7 M-2.5,-0.5L0,-3.0L2.5,-0.5"/>
  </g>
  <g id="arrowRight" transform="rotate(90) translate(36 -43)">
    <use xlink:href="#rim"/>
    <path pointer-events="none" fill="none" stroke="white" stroke-width="1.5" d="M0,-3.0v7 M-2.5,-0.5L0,-3.0L2.5,-0.5"/>
  </g>
  <g id="arrowDown" transform="rotate(180) translate(-30 -48)">
    <use xlink:href="#rim"/>
    <path pointer-events="none" fill="none" stroke="white" stroke-width="1.5" d="M0,-3.0v7 M-2.5,-0.5L0,-3.0L2.5,-0.5"/>
  </g>
  <g id="arrowLeft" transform="rotate(270) translate(-36 17)">
    <use xlink:href="#rim"/>
    <path pointer-events="none" fill="none" stroke="white" stroke-width="1.5" d="M0,-3.0v7 M-2.5,-0.5L0,-3.0L2.5,-0.5"/>
  </g>
  <g id="resetDef">
    <use xlink:href="#rim2" fill="#404040"><set attributeName="fill" to="#808080" begin="reset.mouseover" end="reset.mouseout"/></use>
  </g>
</defs>
<script type="application/ecmascript">
var viewWidth = 626;
var viewHeight = 207;
var sectionId = 'dynsection-12';
</script>
<script type="application/ecmascript" xlink:href="svg.min.js"/>
<svg id="graph" class="graph">
<g id="viewport">
<title>comppare::InputContext::OutputContext::print_header</title>
<!-- Node1 -->
<g id="Node000001" class="node">
<title>Node1</title>
<g id="a_Node000001"><a xlink:title="Print the header for the output table.">
<polygon fill="#999999" stroke="#666666" points="121,-120.12 0,-120.12 0,-78.38 121,-78.38 121,-120.12"/>
<text xml:space="preserve" text-anchor="start" x="8" y="-106.62" font-family="Helvetica,sans-Serif" font-size="10.00">comppare::InputContext</text>
<text xml:space="preserve" text-anchor="start" x="8" y="-95.38" font-family="Helvetica,sans-Serif" font-size="10.00">::OutputContext::print</text>
<text xml:space="preserve" text-anchor="middle" x="60.5" y="-84.12" font-family="Helvetica,sans-Serif" font-size="10.00">_header</text>
</a>
</g>
</g>
<!-- Node2 -->
<g id="Node000002" class="node">
<title>Node2</title>
<g id="a_Node000002"><a xlink:href="classcomppare_1_1config.html#a746ad50b12f724824b3b62f146968a8d" target="_top" xlink:title="Get the number of benchmark iterations.">
<polygon fill="white" stroke="#666666" points="284.38,-198.5 161.12,-198.5 161.12,-168 284.38,-168 284.38,-198.5"/>
<text xml:space="preserve" text-anchor="start" x="169.12" y="-185" font-family="Helvetica,sans-Serif" font-size="10.00">comppare::config::bench</text>
<text xml:space="preserve" text-anchor="middle" x="222.75" y="-173.75" font-family="Helvetica,sans-Serif" font-size="10.00">_iters</text>
</a>
</g>
</g>
<!-- Node1&#45;&gt;Node2 -->
<g id="edge1_Node000001_Node000002" class="edge">
<title>Node1&#45;&gt;Node2</title>
<g id="a_edge1_Node000001_Node000002"><a xlink:title=" ">
<path fill="none" stroke="#63b8ff" d="M91.54,-120.37C109.9,-132.7 134.17,-148 157,-159.25 159.73,-160.59 162.55,-161.91 165.43,-163.19"/>
<polygon fill="#63b8ff" stroke="#63b8ff" points="164,-166.38 174.57,-167.04 166.72,-159.93 164,-166.38"/>
</a>
</g>
</g>
<!-- Node5 -->
<g id="Node000005" class="node">
<title>Node5</title>
<g id="a_Node000005"><a xlink:href="classcomppare_1_1_input_context_1_1_output_context.html#a2c601f07b13e7d449a60485f9ae85d40" target="_top" xlink:title="Get the implementation details for a specific implementation index.">
<polygon fill="white" stroke="#666666" points="283.25,-150.12 162.25,-150.12 162.25,-108.38 283.25,-108.38 283.25,-150.12"/>
<text xml:space="preserve" text-anchor="start" x="170.25" y="-136.62" font-family="Helvetica,sans-Serif" font-size="10.00">comppare::InputContext</text>
<text xml:space="preserve" text-anchor="start" x="170.25" y="-125.38" font-family="Helvetica,sans-Serif" font-size="10.00">::OutputContext::spec</text>
<text xml:space="preserve" text-anchor="middle" x="222.75" y="-114.12" font-family="Helvetica,sans-Serif" font-size="10.00">_metric_count</text>
</a>
</g>
</g>
<!-- Node1&#45;&gt;Node5 -->
<g id="edge5_Node000001_Node000005" class="edge">
<title>Node1&#45;&gt;Node5</title>
<g id="a_edge5_Node000001_Node000005"><a xlink:title=" ">
<path fill="none" stroke="#63b8ff" d="M121.17,-110.42C130.8,-112.22 140.86,-114.11 150.73,-115.95"/>
<polygon fill="#63b8ff" stroke="#63b8ff" points="149.8,-119.34 160.27,-117.74 151.09,-112.46 149.8,-119.34"/>
</a>
</g>
</g>
<!-- Node6 -->
<g id="Node000006" class="node">
<title>Node6</title>
<g id="a_Node000006"><a xlink:href="classcomppare_1_1_input_context_1_1_output_context.html#a6546c5e3c964b54a204551b11a6c9d88" target="_top" xlink:title="Get the name of a specific metric for a specific implementation index.">
<polygon fill="white" stroke="#666666" points="283.25,-90.12 162.25,-90.12 162.25,-48.38 283.25,-48.38 283.25,-90.12"/>
<text xml:space="preserve" text-anchor="start" x="170.25" y="-76.62" font-family="Helvetica,sans-Serif" font-size="10.00">comppare::InputContext</text>
<text xml:space="preserve" text-anchor="start" x="170.25" y="-65.38" font-family="Helvetica,sans-Serif" font-size="10.00">::OutputContext::spec</text>
<text xml:space="preserve" text-anchor="middle" x="222.75" y="-54.12" font-family="Helvetica,sans-Serif" font-size="10.00">_metric_name</text>
</a>
</g>
</g>
<!-- Node1&#45;&gt;Node6 -->
<g id="edge6_Node000001_Node000006" class="edge">
<title>Node1&#45;&gt;Node6</title>
<g id="a_edge6_Node000001_Node000006"><a xlink:title=" ">
<path fill="none" stroke="#63b8ff" d="M121.17,-88.08C130.8,-86.28 140.86,-84.39 150.73,-82.55"/>
<polygon fill="#63b8ff" stroke="#63b8ff" points="151.09,-86.04 160.27,-80.76 149.8,-79.16 151.09,-86.04"/>
</a>
</g>
</g>
<!-- Node7 -->
<g id="Node000007" class="node">
<title>Node7</title>
<g id="a_Node000007"><a xlink:href="classcomppare_1_1config.html#ab1490e36efe896d0124486f7b4254fc1" target="_top" xlink:title="Get the number of warmup iterations.">
<polygon fill="white" stroke="#666666" points="288.5,-30.5 157,-30.5 157,0 288.5,0 288.5,-30.5"/>
<text xml:space="preserve" text-anchor="start" x="165" y="-17" font-family="Helvetica,sans-Serif" font-size="10.00">comppare::config::warmup</text>
<text xml:space="preserve" text-anchor="middle" x="222.75" y="-5.75" font-family="Helvetica,sans-Serif" font-size="10.00">_iters</text>
</a>
</g>
</g>
<!-- Node1&#45;&gt;Node7 -->
<g id="edge7_Node000001_Node000007" class="edge">
<title>Node1&#45;&gt;Node7</title>
<g id="a_edge7_Node000001_Node000007"><a xlink:title=" ">
<path fill="none" stroke="#63b8ff" d="M91.54,-78.13C109.9,-65.8 134.17,-50.5 157,-39.25 159.73,-37.91 162.55,-36.59 165.43,-35.31"/>
<polygon fill="#63b8ff" stroke="#63b8ff" points="166.72,-38.57 174.57,-31.46 164,-32.12 166.72,-38.57"/>
</a>
</g>
</g>
<!-- Node3 -->
<g id="Node000003" class="node">
<title>Node3</title>
<g id="a_Node000003"><a xlink:href="classcomppare_1_1config.html#a2913df9eb204fa9839adb38858d6cfd2" target="_top" xlink:title="Get the singleton instance of the config class.">
<polygon fill="white" stroke="#666666" points="458.25,-108.88 324.5,-108.88 324.5,-89.62 458.25,-89.62 458.25,-108.88"/>
<text xml:space="preserve" text-anchor="middle" x="391.38" y="-95.38" font-family="Helvetica,sans-Serif" font-size="10.00">comppare::config::instance</text>
</a>
</g>
</g>
<!-- Node2&#45;&gt;Node3 -->
<g id="edge2_Node000002_Node000003" class="edge">
<title>Node2&#45;&gt;Node3</title>
<g id="a_edge2_Node000002_Node000003"><a xlink:title=" ">
<path fill="none" stroke="#63b8ff" d="M269.11,-167.61C275.69,-165 282.33,-162.18 288.5,-159.25 315.81,-146.27 345.43,-128.36 365.65,-115.49"/>
<polygon fill="#63b8ff" stroke="#63b8ff" points="367.52,-118.45 374.03,-110.09 363.73,-112.56 367.52,-118.45"/>
</a>
</g>
</g>
<!-- Node4 -->
<g id="Node000004" class="node">
<title>Node4</title>
<g id="a_Node000004"><a xlink:href="classcomppare_1_1config.html#a3b3362c3001d7972c21a9be1f1744ff5" target="_top" xlink:title="Deleted copy constructor.">
<polygon fill="white" stroke="#666666" points="617.5,-108.88 494.25,-108.88 494.25,-89.62 617.5,-89.62 617.5,-108.88"/>
<text xml:space="preserve" text-anchor="middle" x="555.88" y="-95.38" font-family="Helvetica,sans-Serif" font-size="10.00">comppare::config::config</text>
</a>
</g>
</g>
<!-- Node3&#45;&gt;Node4 -->
<g id="edge3_Node000003_Node000004" class="edge">
<title>Node3&#45;&gt;Node4</title>
<g id="a_edge3_Node000003_Node000004"><a xlink:title=" ">
<path fill="none" stroke="#63b8ff" d="M458.47,-99.25C466.32,-99.25 474.37,-99.25 482.31,-99.25"/>
<polygon fill="#63b8ff" stroke="#63b8ff" points="482.3,-102.75 492.3,-99.25 482.3,-95.75 482.3,-102.75"/>
</a>
</g>
</g>
<!-- Node4&#45;&gt;Node4 -->
<g id="edge4_Node000004_Node000004" class="edge">
<title>Node4&#45;&gt;Node4</title>
<g id="a_edge4_Node000004_Node000004"><a xlink:title=" ">
<path fill="none" stroke="#63b8ff" d="M530.12,-109.16C518.37,-117.77 526.96,-126.88 555.88,-126.88 572.14,-126.88 581.97,-123.99 585.37,-119.94"/>
<polygon fill="#63b8ff" stroke="#63b8ff" points="588.71,-118.89 582.12,-110.59 582.1,-121.19 588.71,-118.89"/>
</a>
</g>
</g>
<!-- Node7&#45;&gt;Node3 -->
<g id="edge8_Node000007_Node000003" class="edge">
<title>Node7&#45;&gt;Node3</title>
<g id="a_edge8_Node000007_Node000003"><a xlink:title=" ">
<path fill="none" stroke="#63b8ff" d="M269.11,-30.89C275.69,-33.5 282.33,-36.32 288.5,-39.25 315.81,-52.23 345.43,-70.14 365.65,-83.01"/>
<polygon fill="#63b8ff" stroke="#63b8ff" points="363.73,-85.94 374.03,-88.41 367.52,-80.05 363.73,-85.94"/>
</a>
</g>
</g>
</g>
</svg>

<g id="navigator" transform="translate(0 0)" fill="#404254">
  <rect fill="#f2f5e9" fill-opacity="0.5" stroke="#606060" stroke-width=".5" x="0" y="0" width="60" height="60"/>
  <use id="zoomplus" xlink:href="#zoomPlus" x="17" y="9" onmousedown="handleZoom(evt,'in')"/>
  <use id="zoomminus" xlink:href="#zoomMin" x="42" y="9" onmousedown="handleZoom(evt,'out')"/>
  <use id="reset" xlink:href="#resetDef" x="30" y="36" onmousedown="handleReset()"/>
   <use id="arrowup" xlink:href="#arrowUp" x="0" y="0" onmousedown="handlePan(0,-1)"/>
  <use id="arrowright" xlink:href="#arrowRight" x="0" y="0" onmousedown="handlePan(1,0)"/>
  <use id="arrowdown" xlink:href="#arrowDown" x="0" y="0" onmousedown="handlePan(0,1)"/>
  <use id="arrowleft" xlink:href="#arrowLeft" x="0" y="0" onmousedown="handlePan(-1,0)"/>
</g>
<svg viewBox="0 0 15 15" width="100%" height="30px" preserveAspectRatio="xMaxYMin meet">
 <g id="arrow_out" transform="scale(0.3 0.3)">
  <a xlink:href="classcomppare_1_1_input_context_1_1_output_context_a85b7b80f001a9dff399f22ee8e7d01ef_cgraph_org.svg" target="_base">
   <rect id="button" ry="5" rx="5" y="6" x="6" height="38" width="38"
        fill="#f2f5e9" fill-opacity="0.5" stroke="#606060" stroke-width="1.0"/>
   <path id="arrow"
     d="M 11.500037,31.436501 C 11.940474,20.09759 22.043105,11.32322 32.158766,21.979434 L 37.068811,17.246167 C 37.068811,17.246167 37.088388,32 37.088388,32 L 22.160133,31.978069 C 22.160133,31.978069 26.997745,27.140456 26.997745,27.140456 C 18.528582,18.264221 13.291696,25.230495 11.500037,31.436501 z"
     style="fill:#404040;"/>
  </a>
 </g>
</svg>

<style type='text/css'>
<![CDATA[
[data-mouse-over-selected='false'] { opacity: 0.7; }
[data-mouse-over-selected='true']  { opacity: 1.0; }
]]>
</style>
<script type="application/ecmascript"><![CDATA[
document.addEventListener('DOMContentLoaded', (event) => {
  highlightEdges();
  highlightAdjacentNodes();
});
]]></script>
</svg>
