<?xml version="1.0" encoding="UTF-8" standalone="no"?>
<!DOCTYPE svg PUBLIC "-//W3C//DTD SVG 1.1//EN"
 "http://www.w3.org/Graphics/SVG/1.1/DTD/svg11.dtd">
<!-- Generated by graphviz version 13.1.2 (20250808.2320)
 -->
<!-- Title: comppare::config::reset_roi_us Pages: 1 -->
<svg width="456pt" height="51pt"
 viewBox="0.00 0.00 456.00 51.00" xmlns="http://www.w3.org/2000/svg" xmlns:xlink="http://www.w3.org/1999/xlink">
<g id="graph0" class="graph" transform="scale(1 1) rotate(0) translate(4 46.88)">
<title>comppare::config::reset_roi_us</title>
<!-- Node1 -->
<g id="Node000001" class="node">
<title>Node1</title>
<g id="a_Node000001"><a xlink:title="Reset the ROI time to zero.">
<polygon fill="#999999" stroke="#666666" points="118.75,-30.5 0,-30.5 0,0 118.75,0 118.75,-30.5"/>
<text xml:space="preserve" text-anchor="start" x="8" y="-17" font-family="Helvetica,sans-Serif" font-size="10.00">comppare::config::reset</text>
<text xml:space="preserve" text-anchor="middle" x="59.38" y="-5.75" font-family="Helvetica,sans-Serif" font-size="10.00">_roi_us</text>
</a>
</g>
</g>
<!-- Node2 -->
<g id="Node000002" class="node">
<title>Node2</title>
<g id="a_Node000002"><a xlink:href="classcomppare_1_1config.html#a2913df9eb204fa9839adb38858d6cfd2" target="_top" xlink:title="Get the singleton instance of the config class.">
<polygon fill="white" stroke="#666666" points="288.5,-24.88 154.75,-24.88 154.75,-5.63 288.5,-5.63 288.5,-24.88"/>
<text xml:space="preserve" text-anchor="middle" x="221.62" y="-11.38" font-family="Helvetica,sans-Serif" font-size="10.00">comppare::config::instance</text>
</a>
</g>
</g>
<!-- Node1&#45;&gt;Node2 -->
<g id="edge1_Node000001_Node000002" class="edge">
<title>Node1&#45;&gt;Node2</title>
<g id="a_edge1_Node000001_Node000002"><a xlink:title=" ">
<path fill="none" stroke="#63b8ff" d="M119.14,-15.25C126.91,-15.25 134.97,-15.25 143,-15.25"/>
<polygon fill="#63b8ff" stroke="#63b8ff" points="142.77,-18.75 152.77,-15.25 142.77,-11.75 142.77,-18.75"/>
</a>
</g>
</g>
<!-- Node3 -->
<g id="Node000003" class="node">
<title>Node3</title>
<g id="a_Node000003"><a xlink:href="classcomppare_1_1config.html#a3b3362c3001d7972c21a9be1f1744ff5" target="_top" xlink:title="Deleted copy constructor.">
<polygon fill="white" stroke="#666666" points="447.75,-24.88 324.5,-24.88 324.5,-5.63 447.75,-5.63 447.75,-24.88"/>
<text xml:space="preserve" text-anchor="middle" x="386.12" y="-11.38" font-family="Helvetica,sans-Serif" font-size="10.00">comppare::config::config</text>
</a>
</g>
</g>
<!-- Node2&#45;&gt;Node3 -->
<g id="edge2_Node000002_Node000003" class="edge">
<title>Node2&#45;&gt;Node3</title>
<g id="a_edge2_Node000002_Node000003"><a xlink:title=" ">
<path fill="none" stroke="#63b8ff" d="M288.72,-15.25C296.57,-15.25 304.62,-15.25 312.56,-15.25"/>
<polygon fill="#63b8ff" stroke="#63b8ff" points="312.55,-18.75 322.55,-15.25 312.55,-11.75 312.55,-18.75"/>
</a>
</g>
</g>
<!-- Node3&#45;&gt;Node3 -->
<g id="edge3_Node000003_Node000003" class="edge">
<title>Node3&#45;&gt;Node3</title>
<g id="a_edge3_Node000003_Node000003"><a xlink:title=" ">
<path fill="none" stroke="#63b8ff" d="M360.37,-25.16C348.62,-33.77 357.21,-42.88 386.12,-42.88 402.39,-42.88 412.22,-39.99 415.62,-35.94"/>
<polygon fill="#63b8ff" stroke="#63b8ff" points="418.96,-34.89 412.37,-26.59 412.35,-37.19 418.96,-34.89"/>
</a>
</g>
</g>
</g>
</svg>
