<?xml version="1.0" encoding="UTF-8" standalone="no"?>
<!DOCTYPE svg PUBLIC "-//W3C//DTD SVG 1.1//EN"
 "http://www.w3.org/Graphics/SVG/1.1/DTD/svg11.dtd">
<!-- Generated by graphviz version 13.1.2 (20250808.2320)
 -->
<!-- Title: comppare::config::increment_roi_us Pages: 1 -->
<svg width="477pt" height="51pt"
 viewBox="0.00 0.00 477.00 51.00" xmlns="http://www.w3.org/2000/svg" xmlns:xlink="http://www.w3.org/1999/xlink">
<g id="graph0" class="graph" transform="scale(1 1) rotate(0) translate(4 46.88)">
<title>comppare::config::increment_roi_us</title>
<!-- Node1 -->
<g id="Node000001" class="node">
<title>Node1</title>
<g id="a_Node000001"><a xlink:title="Increment the roi us value using time points.">
<polygon fill="#999999" stroke="#666666" points="139.75,-30.5 0,-30.5 0,0 139.75,0 139.75,-30.5"/>
<text xml:space="preserve" text-anchor="start" x="8" y="-17" font-family="Helvetica,sans-Serif" font-size="10.00">comppare::config::increment</text>
<text xml:space="preserve" text-anchor="middle" x="69.88" y="-5.75" font-family="Helvetica,sans-Serif" font-size="10.00">_roi_us</text>
</a>
</g>
</g>
<!-- Node2 -->
<g id="Node000002" class="node">
<title>Node2</title>
<g id="a_Node000002"><a xlink:href="classcomppare_1_1config.html#a2913df9eb204fa9839adb38858d6cfd2" target="_top" xlink:title="Get the singleton instance of the config class.">
<polygon fill="white" stroke="#666666" points="309.5,-24.88 175.75,-24.88 175.75,-5.63 309.5,-5.63 309.5,-24.88"/>
<text xml:space="preserve" text-anchor="middle" x="242.62" y="-11.38" font-family="Helvetica,sans-Serif" font-size="10.00">comppare::config::instance</text>
</a>
</g>
</g>
<!-- Node1&#45;&gt;Node2 -->
<g id="edge1_Node000001_Node000002" class="edge">
<title>Node1&#45;&gt;Node2</title>
<g id="a_edge1_Node000001_Node000002"><a xlink:title=" ">
<path fill="none" stroke="#63b8ff" d="M139.83,-15.25C147.82,-15.25 156.01,-15.25 164.11,-15.25"/>
<polygon fill="#63b8ff" stroke="#63b8ff" points="163.94,-18.75 173.94,-15.25 163.94,-11.75 163.94,-18.75"/>
</a>
</g>
</g>
<!-- Node3 -->
<g id="Node000003" class="node">
<title>Node3</title>
<g id="a_Node000003"><a xlink:href="classcomppare_1_1config.html#a3b3362c3001d7972c21a9be1f1744ff5" target="_top" xlink:title="Deleted copy constructor.">
<polygon fill="white" stroke="#666666" points="468.75,-24.88 345.5,-24.88 345.5,-5.63 468.75,-5.63 468.75,-24.88"/>
<text xml:space="preserve" text-anchor="middle" x="407.12" y="-11.38" font-family="Helvetica,sans-Serif" font-size="10.00">comppare::config::config</text>
</a>
</g>
</g>
<!-- Node2&#45;&gt;Node3 -->
<g id="edge2_Node000002_Node000003" class="edge">
<title>Node2&#45;&gt;Node3</title>
<g id="a_edge2_Node000002_Node000003"><a xlink:title=" ">
<path fill="none" stroke="#63b8ff" d="M309.72,-15.25C317.57,-15.25 325.62,-15.25 333.56,-15.25"/>
<polygon fill="#63b8ff" stroke="#63b8ff" points="333.55,-18.75 343.55,-15.25 333.55,-11.75 333.55,-18.75"/>
</a>
</g>
</g>
<!-- Node3&#45;&gt;Node3 -->
<g id="edge3_Node000003_Node000003" class="edge">
<title>Node3&#45;&gt;Node3</title>
<g id="a_edge3_Node000003_Node000003"><a xlink:title=" ">
<path fill="none" stroke="#63b8ff" d="M381.37,-25.16C369.62,-33.77 378.21,-42.88 407.12,-42.88 423.39,-42.88 433.22,-39.99 436.62,-35.94"/>
<polygon fill="#63b8ff" stroke="#63b8ff" points="439.96,-34.89 433.37,-26.59 433.35,-37.19 439.96,-34.89"/>
</a>
</g>
</g>
</g>
</svg>
