<?xml version="1.0" encoding="UTF-8" standalone="no"?>
<!DOCTYPE svg PUBLIC "-//W3C//DTD SVG 1.1//EN"
 "http://www.w3.org/Graphics/SVG/1.1/DTD/svg11.dtd">
<!-- Generated by graphviz version 13.1.2 (20250808.2320)
 -->
<!-- Title: comppare::plugin::google_benchmark::GoogleBenchmarkPlugin&lt; InTup, OutTup &gt; Pages: 1 -->
<!--zoomable 98 -->

<svg id="main" version="1.1" xmlns="http://www.w3.org/2000/svg" xmlns:xlink="http://www.w3.org/1999/xlink" xml:space="preserve" onload="init(evt)">

<style type="text/css"><![CDATA[
.node, .edge {opacity: 0.7;}
.node.selected, .edge.selected {opacity: 1;}
.edge:hover path { stroke: red; }
.edge:hover polygon { stroke: red; fill: red; }
]]></style>

<defs>
  <circle id="rim" cx="0" cy="0" r="7"/>
  <circle id="rim2" cx="0" cy="0" r="3.5"/>
  <g id="zoomPlus">
    <use xlink:href="#rim" fill="#404040"><set attributeName="fill" to="#808080" begin="zoomplus.mouseover" end="zoomplus.mouseout"/></use>
    <path d="M-4,0h8M0,-4v8" fill="none" stroke="white" stroke-width="1.5" pointer-events="none"/>
  </g>
  <g id="zoomMin">
    <use xlink:href="#rim" fill="#404040"><set attributeName="fill" to="#808080" begin="zoomminus.mouseover" end="zoomminus.mouseout"/></use>
    <path d="M-4,0h8" fill="none" stroke="white" stroke-width="1.5" pointer-events="none"/>
  </g>
  <g id="arrowUp" transform="translate(30 24)">
    <use xlink:href="#rim"/>
    <path pointer-events="none" fill="none" stroke="white" stroke-width="1.5" d="M0,-3.0v7 M-2.5,-0.5L0,-3.0L2.5,-0.5"/>
  </g>
  <g id="arrowRight" transform="rotate(90) translate(36 -43)">
    <use xlink:href="#rim"/>
    <path pointer-events="none" fill="none" stroke="white" stroke-width="1.5" d="M0,-3.0v7 M-2.5,-0.5L0,-3.0L2.5,-0.5"/>
  </g>
  <g id="arrowDown" transform="rotate(180) translate(-30 -48)">
    <use xlink:href="#rim"/>
    <path pointer-events="none" fill="none" stroke="white" stroke-width="1.5" d="M0,-3.0v7 M-2.5,-0.5L0,-3.0L2.5,-0.5"/>
  </g>
  <g id="arrowLeft" transform="rotate(270) translate(-36 17)">
    <use xlink:href="#rim"/>
    <path pointer-events="none" fill="none" stroke="white" stroke-width="1.5" d="M0,-3.0v7 M-2.5,-0.5L0,-3.0L2.5,-0.5"/>
  </g>
  <g id="resetDef">
    <use xlink:href="#rim2" fill="#404040"><set attributeName="fill" to="#808080" begin="reset.mouseover" end="reset.mouseout"/></use>
  </g>
</defs>
<script type="application/ecmascript">
var viewWidth = 640;
var viewHeight = 98;
var sectionId = 'dynsection-1';
</script>
<script type="application/ecmascript" xlink:href="svg.min.js"/>
<svg id="graph" class="graph">
<g id="viewport">
<title>comppare::plugin::google_benchmark::GoogleBenchmarkPlugin&lt; InTup, OutTup &gt;</title>
<!-- Node1 -->
<g id="Node000001" class="node">
<title>Node1</title>
<g id="a_Node000001"><a xlink:title="Google Benchmark plugin for the ComPPare framework.">
<polygon fill="#999999" stroke="#666666" points="631.5,-68.75 449,-68.75 449,-27 631.5,-27 631.5,-68.75"/>
<text xml:space="preserve" text-anchor="start" x="457" y="-55.25" font-family="Helvetica,sans-Serif" font-size="10.00">comppare::plugin::google</text>
<text xml:space="preserve" text-anchor="start" x="457" y="-44" font-family="Helvetica,sans-Serif" font-size="10.00">_benchmark::GoogleBenchmarkPlugin</text>
<text xml:space="preserve" text-anchor="middle" x="540.25" y="-32.75" font-family="Helvetica,sans-Serif" font-size="10.00">&lt; InTup, OutTup &gt;</text>
</a>
</g>
</g>
<!-- Node2 -->
<g id="Node000002" class="node">
<title>Node2</title>
<g id="a_Node000002"><a xlink:href="classcomppare_1_1plugin_1_1_plugin.html" target="_top" xlink:title="Base class for plugins in the ComPPare framework.">
<polygon fill="white" stroke="#666666" points="374.38,-90.12 251.12,-90.12 251.12,-59.62 374.38,-59.62 374.38,-90.12"/>
<text xml:space="preserve" text-anchor="start" x="259.12" y="-76.62" font-family="Helvetica,sans-Serif" font-size="10.00">comppare::plugin::Plugin</text>
<text xml:space="preserve" text-anchor="middle" x="312.75" y="-65.38" font-family="Helvetica,sans-Serif" font-size="10.00">&lt; InTup, OutTup &gt;</text>
</a>
</g>
</g>
<!-- Node2&#45;&gt;Node1 -->
<g id="edge1_Node000001_Node000002" class="edge">
<title>Node2&#45;&gt;Node1</title>
<g id="a_edge1_Node000001_Node000002"><a xlink:title=" ">
<path fill="none" stroke="#63b8ff" d="M385.93,-66.23C405.84,-63.85 427.7,-61.23 448.52,-58.74"/>
<polygon fill="#63b8ff" stroke="#63b8ff" points="385.79,-62.72 376.28,-67.39 386.62,-69.67 385.79,-62.72"/>
</a>
</g>
</g>
<!-- Node3 -->
<g id="Node000003" class="node">
<title>Node3</title>
<g id="a_Node000003"><a xlink:href="classcomppare_1_1plugin_1_1google__benchmark_1_1google__benchmark__manager.html" target="_top" xlink:title="Manager class for Google Benchmark integration.">
<polygon fill="white" stroke="#666666" points="391.25,-41.75 234.25,-41.75 234.25,0 391.25,0 391.25,-41.75"/>
<text xml:space="preserve" text-anchor="start" x="242.25" y="-28.25" font-family="Helvetica,sans-Serif" font-size="10.00">comppare::plugin::google</text>
<text xml:space="preserve" text-anchor="start" x="242.25" y="-17" font-family="Helvetica,sans-Serif" font-size="10.00">_benchmark::google_benchmark</text>
<text xml:space="preserve" text-anchor="middle" x="312.75" y="-5.75" font-family="Helvetica,sans-Serif" font-size="10.00">_manager</text>
</a>
</g>
</g>
<!-- Node3&#45;&gt;Node1 -->
<g id="edge2_Node000001_Node000003" class="edge">
<title>Node3&#45;&gt;Node1</title>
<g id="a_edge2_Node000001_Node000003"><a xlink:title=" ">
<path fill="none" stroke="#9a32cd" stroke-dasharray="5,2" d="M402.99,-31.56C417.97,-33.35 433.52,-35.22 448.54,-37.01"/>
<polygon fill="#9a32cd" stroke="#9a32cd" points="403.52,-28.1 393.17,-30.38 402.69,-35.05 403.52,-28.1"/>
</a>
</g>
<text xml:space="preserve" text-anchor="start" x="412.25" y="-39.12" font-family="Helvetica,sans-Serif" font-size="10.00" fill="grey">gb_</text>
</g>
<!-- Node4 -->
<g id="Node000004" class="node">
<title>Node4</title>
<g id="a_Node000004"><a xlink:href="classcomppare_1_1plugin_1_1_plugin_arg_parser.html" target="_top" xlink:title="Argument parser for plugin command&#45;line arguments.">
<polygon fill="white" stroke="#666666" points="123.25,-36.12 0,-36.12 0,-5.62 123.25,-5.62 123.25,-36.12"/>
<text xml:space="preserve" text-anchor="start" x="8" y="-22.62" font-family="Helvetica,sans-Serif" font-size="10.00">comppare::plugin::Plugin</text>
<text xml:space="preserve" text-anchor="middle" x="61.62" y="-11.38" font-family="Helvetica,sans-Serif" font-size="10.00">ArgParser</text>
</a>
</g>
</g>
<!-- Node4&#45;&gt;Node3 -->
<g id="edge3_Node000003_Node000004" class="edge">
<title>Node4&#45;&gt;Node3</title>
<g id="a_edge3_Node000003_Node000004"><a xlink:title=" ">
<path fill="none" stroke="#9a32cd" stroke-dasharray="5,2" d="M134.76,-20.88C165.86,-20.88 202.29,-20.88 233.99,-20.88"/>
<polygon fill="#9a32cd" stroke="#9a32cd" points="135.08,-17.38 125.08,-20.88 135.08,-24.38 135.08,-17.38"/>
</a>
</g>
<text xml:space="preserve" text-anchor="start" x="144.25" y="-25.62" font-family="Helvetica,sans-Serif" font-size="10.00" fill="grey">gbench_parser_</text>
</g>
</g>
</svg>

<g id="navigator" transform="translate(0 0)" fill="#404254">
  <rect fill="#f2f5e9" fill-opacity="0.5" stroke="#606060" stroke-width=".5" x="0" y="0" width="60" height="60"/>
  <use id="zoomplus" xlink:href="#zoomPlus" x="17" y="9" onmousedown="handleZoom(evt,'in')"/>
  <use id="zoomminus" xlink:href="#zoomMin" x="42" y="9" onmousedown="handleZoom(evt,'out')"/>
  <use id="reset" xlink:href="#resetDef" x="30" y="36" onmousedown="handleReset()"/>
   <use id="arrowup" xlink:href="#arrowUp" x="0" y="0" onmousedown="handlePan(0,-1)"/>
  <use id="arrowright" xlink:href="#arrowRight" x="0" y="0" onmousedown="handlePan(1,0)"/>
  <use id="arrowdown" xlink:href="#arrowDown" x="0" y="0" onmousedown="handlePan(0,1)"/>
  <use id="arrowleft" xlink:href="#arrowLeft" x="0" y="0" onmousedown="handlePan(-1,0)"/>
</g>
<svg viewBox="0 0 15 15" width="100%" height="30px" preserveAspectRatio="xMaxYMin meet">
 <g id="arrow_out" transform="scale(0.3 0.3)">
  <a xlink:href="classcomppare_1_1plugin_1_1google__benchmark_1_1_google_benchmark_plugin__coll__graph_org.svg" target="_base">
   <rect id="button" ry="5" rx="5" y="6" x="6" height="38" width="38"
        fill="#f2f5e9" fill-opacity="0.5" stroke="#606060" stroke-width="1.0"/>
   <path id="arrow"
     d="M 11.500037,31.436501 C 11.940474,20.09759 22.043105,11.32322 32.158766,21.979434 L 37.068811,17.246167 C 37.068811,17.246167 37.088388,32 37.088388,32 L 22.160133,31.978069 C 22.160133,31.978069 26.997745,27.140456 26.997745,27.140456 C 18.528582,18.264221 13.291696,25.230495 11.500037,31.436501 z"
     style="fill:#404040;"/>
  </a>
 </g>
</svg>

<style type='text/css'>
<![CDATA[
[data-mouse-over-selected='false'] { opacity: 0.7; }
[data-mouse-over-selected='true']  { opacity: 1.0; }
]]>
</style>
<script type="application/ecmascript"><![CDATA[
document.addEventListener('DOMContentLoaded', (event) => {
  highlightEdges();
  highlightAdjacentNodes();
});
]]></script>
</svg>
