<?xml version="1.0" encoding="UTF-8" standalone="no"?>
<!DOCTYPE svg PUBLIC "-//W3C//DTD SVG 1.1//EN"
 "http://www.w3.org/Graphics/SVG/1.1/DTD/svg11.dtd">
<!-- Generated by graphviz version 13.1.2 (20250808.2320)
 -->
<!-- Title: include/comppare/comppare.hpp Pages: 1 -->
<svg width="1742pt" height="183pt"
 viewBox="0.00 0.00 1742.00 183.00" xmlns="http://www.w3.org/2000/svg" xmlns:xlink="http://www.w3.org/1999/xlink">
<g id="graph0" class="graph" transform="scale(1 1) rotate(0) translate(4 178.75)">
<title>include/comppare/comppare.hpp</title>
<!-- Node1 -->
<g id="Node000001" class="node">
<title>Node1</title>
<g id="a_Node000001"><a xlink:title="This file is the main include file for the ComPPare framework.">
<polygon fill="#999999" stroke="#666666" points="920.88,-174.75 763.88,-174.75 763.88,-155.5 920.88,-155.5 920.88,-174.75"/>
<text xml:space="preserve" text-anchor="middle" x="842.38" y="-161.25" font-family="Helvetica,sans-Serif" font-size="10.00">include/comppare/comppare.hpp</text>
</a>
</g>
</g>
<!-- Node2 -->
<g id="Node000002" class="node">
<title>Node2</title>
<g id="a_Node000002"><a xlink:href="custom__error__policy__demo_8cpp.html" target="_top" xlink:title=" ">
<polygon fill="white" stroke="#666666" points="154.75,-41.75 0,-41.75 0,0 154.75,0 154.75,-41.75"/>
<text xml:space="preserve" text-anchor="start" x="8" y="-28.25" font-family="Helvetica,sans-Serif" font-size="10.00">examples/advanced_demo</text>
<text xml:space="preserve" text-anchor="start" x="8" y="-17" font-family="Helvetica,sans-Serif" font-size="10.00">/1&#45;custom_error_policy</text>
<text xml:space="preserve" text-anchor="middle" x="77.38" y="-5.75" font-family="Helvetica,sans-Serif" font-size="10.00">/custom_error_policy_demo.cpp</text>
</a>
</g>
</g>
<!-- Node1&#45;&gt;Node2 -->
<g id="edge1_Node000001_Node000002" class="edge">
<title>Node1&#45;&gt;Node2</title>
<g id="a_edge1_Node000001_Node000002"><a xlink:title=" ">
<path fill="none" stroke="#63b8ff" d="M751.88,-162.32C548.92,-157.84 73.19,-144.69 49.38,-119.5 29.39,-98.36 46.8,-63.91 61.7,-42.1"/>
<polygon fill="#63b8ff" stroke="#63b8ff" points="751.8,-165.82 761.87,-162.54 751.95,-158.82 751.8,-165.82"/>
</a>
</g>
</g>
<!-- Node3 -->
<g id="Node000003" class="node">
<title>Node3</title>
<g id="a_Node000003"><a xlink:href="custom__policy_8hpp.html" target="_top" xlink:title=" ">
<polygon fill="white" stroke="#666666" points="190.5,-119.5 58.25,-119.5 58.25,-77.75 190.5,-77.75 190.5,-119.5"/>
<text xml:space="preserve" text-anchor="start" x="66.25" y="-106" font-family="Helvetica,sans-Serif" font-size="10.00">examples/advanced_demo</text>
<text xml:space="preserve" text-anchor="start" x="66.25" y="-94.75" font-family="Helvetica,sans-Serif" font-size="10.00">/1&#45;custom_error_policy</text>
<text xml:space="preserve" text-anchor="middle" x="124.38" y="-83.5" font-family="Helvetica,sans-Serif" font-size="10.00">/custom_policy.hpp</text>
</a>
</g>
</g>
<!-- Node1&#45;&gt;Node3 -->
<g id="edge2_Node000001_Node000003" class="edge">
<title>Node1&#45;&gt;Node3</title>
<g id="a_edge2_Node000001_Node000003"><a xlink:title=" ">
<path fill="none" stroke="#63b8ff" d="M752.24,-163.25C627.29,-160.81 394.75,-151.87 199.38,-119.5 196.58,-119.04 193.75,-118.52 190.89,-117.95"/>
<polygon fill="#63b8ff" stroke="#63b8ff" points="752.05,-166.74 762.11,-163.43 752.18,-159.74 752.05,-166.74"/>
</a>
</g>
</g>
<!-- Node4 -->
<g id="Node000004" class="node">
<title>Node4</title>
<g id="a_Node000004"><a xlink:href="google__benchmark__demo_8cpp.html" target="_top" xlink:title=" ">
<polygon fill="white" stroke="#666666" points="348.62,-119.5 208.12,-119.5 208.12,-77.75 348.62,-77.75 348.62,-119.5"/>
<text xml:space="preserve" text-anchor="start" x="216.12" y="-106" font-family="Helvetica,sans-Serif" font-size="10.00">examples/advanced_demo</text>
<text xml:space="preserve" text-anchor="start" x="216.12" y="-94.75" font-family="Helvetica,sans-Serif" font-size="10.00">/2&#45;google_benchmark/google</text>
<text xml:space="preserve" text-anchor="middle" x="278.38" y="-83.5" font-family="Helvetica,sans-Serif" font-size="10.00">_benchmark_demo.cpp</text>
</a>
</g>
</g>
<!-- Node1&#45;&gt;Node4 -->
<g id="edge4_Node000001_Node000004" class="edge">
<title>Node1&#45;&gt;Node4</title>
<g id="a_edge4_Node000001_Node000004"><a xlink:title=" ">
<path fill="none" stroke="#63b8ff" d="M752.46,-160.02C654.68,-154.59 494.08,-142.84 357.38,-119.5 354.59,-119.02 351.75,-118.5 348.9,-117.94"/>
<polygon fill="#63b8ff" stroke="#63b8ff" points="752.08,-163.51 762.26,-160.55 752.46,-156.52 752.08,-163.51"/>
</a>
</g>
</g>
<!-- Node5 -->
<g id="Node000005" class="node">
<title>Node5</title>
<g id="a_Node000005"><a xlink:href="manual__timing__demo_8cpp.html" target="_top" xlink:title=" ">
<polygon fill="white" stroke="#666666" points="498.5,-119.5 366.25,-119.5 366.25,-77.75 498.5,-77.75 498.5,-119.5"/>
<text xml:space="preserve" text-anchor="start" x="374.25" y="-106" font-family="Helvetica,sans-Serif" font-size="10.00">examples/advanced_demo</text>
<text xml:space="preserve" text-anchor="start" x="374.25" y="-94.75" font-family="Helvetica,sans-Serif" font-size="10.00">/3&#45;manual_timing/manual</text>
<text xml:space="preserve" text-anchor="middle" x="432.38" y="-83.5" font-family="Helvetica,sans-Serif" font-size="10.00">_timing_demo.cpp</text>
</a>
</g>
</g>
<!-- Node1&#45;&gt;Node5 -->
<g id="edge5_Node000001_Node000005" class="edge">
<title>Node1&#45;&gt;Node5</title>
<g id="a_edge5_Node000001_Node000005"><a xlink:title=" ">
<path fill="none" stroke="#63b8ff" d="M752.34,-155.26C684.61,-147.84 589.7,-135.82 507.38,-119.5 504.6,-118.95 501.78,-118.36 498.93,-117.73"/>
<polygon fill="#63b8ff" stroke="#63b8ff" points="751.57,-158.7 761.89,-156.3 752.33,-151.74 751.57,-158.7"/>
</a>
</g>
</g>
<!-- Node6 -->
<g id="Node000006" class="node">
<title>Node6</title>
<g id="a_Node000006"><a xlink:href="_do_not_optimize__demo_8cpp.html" target="_top" xlink:title=" ">
<polygon fill="white" stroke="#666666" points="682,-119.5 516.75,-119.5 516.75,-77.75 682,-77.75 682,-119.5"/>
<text xml:space="preserve" text-anchor="start" x="524.75" y="-106" font-family="Helvetica,sans-Serif" font-size="10.00">examples/advanced_demo</text>
<text xml:space="preserve" text-anchor="start" x="524.75" y="-94.75" font-family="Helvetica,sans-Serif" font-size="10.00">/4&#45;DoNotOptimize/DoNotOptimize</text>
<text xml:space="preserve" text-anchor="middle" x="599.38" y="-83.5" font-family="Helvetica,sans-Serif" font-size="10.00">_demo.cpp</text>
</a>
</g>
</g>
<!-- Node1&#45;&gt;Node6 -->
<g id="edge6_Node000001_Node000006" class="edge">
<title>Node1&#45;&gt;Node6</title>
<g id="a_edge6_Node000001_Node000006"><a xlink:title=" ">
<path fill="none" stroke="#63b8ff" d="M797.1,-152.11C763.14,-143.09 715.86,-130.54 676.05,-119.98"/>
<polygon fill="#63b8ff" stroke="#63b8ff" points="796.05,-155.45 806.61,-154.63 797.84,-148.68 796.05,-155.45"/>
</a>
</g>
</g>
<!-- Node7 -->
<g id="Node000007" class="node">
<title>Node7</title>
<g id="a_Node000007"><a xlink:href="dummy_2main_8cpp.html" target="_top" xlink:title=" ">
<polygon fill="white" stroke="#666666" points="836.38,-108.25 700.38,-108.25 700.38,-89 836.38,-89 836.38,-108.25"/>
<text xml:space="preserve" text-anchor="middle" x="768.38" y="-94.75" font-family="Helvetica,sans-Serif" font-size="10.00">examples/dummy/main.cpp</text>
</a>
</g>
</g>
<!-- Node1&#45;&gt;Node7 -->
<g id="edge7_Node000001_Node000007" class="edge">
<title>Node1&#45;&gt;Node7</title>
<g id="a_edge7_Node000001_Node000007"><a xlink:title=" ">
<path fill="none" stroke="#63b8ff" d="M823.51,-147.69C809.22,-135.23 790.14,-118.59 778.58,-108.52"/>
<polygon fill="#63b8ff" stroke="#63b8ff" points="821.11,-150.23 830.94,-154.16 825.71,-144.95 821.11,-150.23"/>
</a>
</g>
</g>
<!-- Node8 -->
<g id="Node000008" class="node">
<title>Node8</title>
<g id="a_Node000008"><a xlink:href="max__reduction_2main_8cpp.html" target="_top" xlink:title=" ">
<polygon fill="white" stroke="#666666" points="978.75,-113.88 854,-113.88 854,-83.38 978.75,-83.38 978.75,-113.88"/>
<text xml:space="preserve" text-anchor="start" x="862" y="-100.38" font-family="Helvetica,sans-Serif" font-size="10.00">examples/max_reduction</text>
<text xml:space="preserve" text-anchor="middle" x="916.38" y="-89.12" font-family="Helvetica,sans-Serif" font-size="10.00">/main.cpp</text>
</a>
</g>
</g>
<!-- Node1&#45;&gt;Node8 -->
<g id="edge8_Node000001_Node000008" class="edge">
<title>Node1&#45;&gt;Node8</title>
<g id="a_edge8_Node000001_Node000008"><a xlink:title=" ">
<path fill="none" stroke="#63b8ff" d="M861.32,-147.61C873.15,-137.3 888.25,-124.14 899.64,-114.22"/>
<polygon fill="#63b8ff" stroke="#63b8ff" points="859.04,-144.95 853.81,-154.16 863.64,-150.23 859.04,-144.95"/>
</a>
</g>
</g>
<!-- Node9 -->
<g id="Node000009" class="node">
<title>Node9</title>
<g id="a_Node000009"><a xlink:href="max__cpu_8cpp.html" target="_top" xlink:title=" ">
<polygon fill="white" stroke="#666666" points="1121.75,-113.88 997,-113.88 997,-83.38 1121.75,-83.38 1121.75,-113.88"/>
<text xml:space="preserve" text-anchor="start" x="1005" y="-100.38" font-family="Helvetica,sans-Serif" font-size="10.00">examples/max_reduction</text>
<text xml:space="preserve" text-anchor="middle" x="1059.38" y="-89.12" font-family="Helvetica,sans-Serif" font-size="10.00">/max_cpu.cpp</text>
</a>
</g>
</g>
<!-- Node1&#45;&gt;Node9 -->
<g id="edge9_Node000001_Node000009" class="edge">
<title>Node1&#45;&gt;Node9</title>
<g id="a_edge9_Node000001_Node000009"><a xlink:title=" ">
<path fill="none" stroke="#63b8ff" d="M883.62,-151.87C919.61,-141.17 971.9,-125.62 1010.09,-114.27"/>
<polygon fill="#63b8ff" stroke="#63b8ff" points="883.04,-148.39 874.46,-154.59 885.04,-155.1 883.04,-148.39"/>
</a>
</g>
</g>
<!-- Node10 -->
<g id="Node000010" class="node">
<title>Node10</title>
<g id="a_Node000010"><a xlink:href="saxpy_2main_8cpp.html" target="_top" xlink:title=" ">
<polygon fill="white" stroke="#666666" points="1269.38,-108.25 1139.38,-108.25 1139.38,-89 1269.38,-89 1269.38,-108.25"/>
<text xml:space="preserve" text-anchor="middle" x="1204.38" y="-94.75" font-family="Helvetica,sans-Serif" font-size="10.00">examples/saxpy/main.cpp</text>
</a>
</g>
</g>
<!-- Node1&#45;&gt;Node10 -->
<g id="edge10_Node000001_Node000010" class="edge">
<title>Node1&#45;&gt;Node10</title>
<g id="a_edge10_Node000001_Node000010"><a xlink:title=" ">
<path fill="none" stroke="#63b8ff" d="M926.81,-153.5C984.45,-145.65 1062.38,-133.85 1130.38,-119.5 1144.69,-116.48 1160.37,-112.38 1173.59,-108.7"/>
<polygon fill="#63b8ff" stroke="#63b8ff" points="926.51,-150.01 917.07,-154.82 927.44,-156.95 926.51,-150.01"/>
</a>
</g>
</g>
<!-- Node11 -->
<g id="Node000011" class="node">
<title>Node11</title>
<g id="a_Node000011"><a xlink:href="saxpy_2saxpy__cpu_8cpp.html" target="_top" xlink:title=" ">
<polygon fill="white" stroke="#666666" points="1403.62,-113.88 1287.12,-113.88 1287.12,-83.38 1403.62,-83.38 1403.62,-113.88"/>
<text xml:space="preserve" text-anchor="start" x="1295.12" y="-100.38" font-family="Helvetica,sans-Serif" font-size="10.00">examples/saxpy/saxpy</text>
<text xml:space="preserve" text-anchor="middle" x="1345.38" y="-89.12" font-family="Helvetica,sans-Serif" font-size="10.00">_cpu.cpp</text>
</a>
</g>
</g>
<!-- Node1&#45;&gt;Node11 -->
<g id="edge11_Node000001_Node000011" class="edge">
<title>Node1&#45;&gt;Node11</title>
<g id="a_edge11_Node000001_Node000011"><a xlink:title=" ">
<path fill="none" stroke="#63b8ff" d="M932.36,-159.82C1021.03,-154.43 1160.02,-142.9 1278.38,-119.5 1285.4,-118.11 1292.74,-116.31 1299.89,-114.35"/>
<polygon fill="#63b8ff" stroke="#63b8ff" points="932.28,-156.32 922.51,-160.4 932.7,-163.31 932.28,-156.32"/>
</a>
</g>
</g>
<!-- Node12 -->
<g id="Node000012" class="node">
<title>Node12</title>
<g id="a_Node000012"><a xlink:href="saxpy__googlebench_2main_8cpp.html" target="_top" xlink:title=" ">
<polygon fill="white" stroke="#666666" points="1569,-113.88 1421.75,-113.88 1421.75,-83.38 1569,-83.38 1569,-113.88"/>
<text xml:space="preserve" text-anchor="start" x="1429.75" y="-100.38" font-family="Helvetica,sans-Serif" font-size="10.00">examples/saxpy_googlebench</text>
<text xml:space="preserve" text-anchor="middle" x="1495.38" y="-89.12" font-family="Helvetica,sans-Serif" font-size="10.00">/main.cpp</text>
</a>
</g>
</g>
<!-- Node1&#45;&gt;Node12 -->
<g id="edge12_Node000001_Node000012" class="edge">
<title>Node1&#45;&gt;Node12</title>
<g id="a_edge12_Node000001_Node000012"><a xlink:title=" ">
<path fill="none" stroke="#63b8ff" d="M932.51,-161.43C1045.31,-157.07 1244.12,-146.06 1412.38,-119.5 1421.16,-118.11 1430.38,-116.29 1439.36,-114.3"/>
<polygon fill="#63b8ff" stroke="#63b8ff" points="932.58,-157.93 922.71,-161.8 932.84,-164.92 932.58,-157.93"/>
</a>
</g>
</g>
<!-- Node13 -->
<g id="Node000013" class="node">
<title>Node13</title>
<g id="a_Node000013"><a xlink:href="saxpy__googlebench_2saxpy__cpu_8cpp.html" target="_top" xlink:title=" ">
<polygon fill="white" stroke="#666666" points="1734,-113.88 1586.75,-113.88 1586.75,-83.38 1734,-83.38 1734,-113.88"/>
<text xml:space="preserve" text-anchor="start" x="1594.75" y="-100.38" font-family="Helvetica,sans-Serif" font-size="10.00">examples/saxpy_googlebench</text>
<text xml:space="preserve" text-anchor="middle" x="1660.38" y="-89.12" font-family="Helvetica,sans-Serif" font-size="10.00">/saxpy_cpu.cpp</text>
</a>
</g>
</g>
<!-- Node1&#45;&gt;Node13 -->
<g id="edge13_Node000001_Node000013" class="edge">
<title>Node1&#45;&gt;Node13</title>
<g id="a_edge13_Node000001_Node000013"><a xlink:title=" ">
<path fill="none" stroke="#63b8ff" d="M932.71,-163.78C1072.05,-162.11 1347.51,-154.2 1578.38,-119.5 1587.21,-118.17 1596.49,-116.35 1605.5,-114.34"/>
<polygon fill="#63b8ff" stroke="#63b8ff" points="932.75,-160.28 922.79,-163.9 932.83,-167.28 932.75,-160.28"/>
</a>
</g>
</g>
<!-- Node3&#45;&gt;Node2 -->
<g id="edge3_Node000003_Node000002" class="edge">
<title>Node3&#45;&gt;Node2</title>
<g id="a_edge3_Node000003_Node000002"><a xlink:title=" ">
<path fill="none" stroke="#63b8ff" d="M105.79,-67.68C100.5,-59.14 94.86,-50.05 90,-42.23"/>
<polygon fill="#63b8ff" stroke="#63b8ff" points="102.74,-69.39 110.98,-76.04 108.68,-65.7 102.74,-69.39"/>
</a>
</g>
</g>
</g>
</svg>
