<?xml version="1.0" encoding="UTF-8" standalone="no"?>
<!DOCTYPE svg PUBLIC "-//W3C//DTD SVG 1.1//EN"
 "http://www.w3.org/Graphics/SVG/1.1/DTD/svg11.dtd">
<!-- Generated by graphviz version 13.1.2 (20250808.2320)
 -->
<!-- Title: include/comppare/internal/concepts.hpp Pages: 1 -->
<svg width="302pt" height="238pt"
 viewBox="0.00 0.00 302.00 238.00" xmlns="http://www.w3.org/2000/svg" xmlns:xlink="http://www.w3.org/1999/xlink">

<svg id="main" version="1.1" xmlns="http://www.w3.org/2000/svg" xmlns:xlink="http://www.w3.org/1999/xlink" xml:space="preserve">

<style type="text/css"><![CDATA[
.node, .edge {opacity: 0.7;}
.node.selected, .edge.selected {opacity: 1;}
.edge:hover path { stroke: red; }
.edge:hover polygon { stroke: red; fill: red; }
]]></style>
<script type="application/ecmascript" xlink:href="svg.min.js"/>
<svg id="graph" class="graph">
<g id="graph0" class="graph" transform="scale(1 1) rotate(0) translate(4 234)">
<title>include/comppare/internal/concepts.hpp</title>
<!-- Node1 -->
<g id="Node000001" class="node">
<title>Node1</title>
<g id="a_Node000001"><a xlink:title="This file contains commonly used concepts internally within the ComPPare library.">
<polygon fill="#999999" stroke="#666666" points="219.67,-230 92.67,-230 92.67,-199.5 219.67,-199.5 219.67,-230"/>
<text xml:space="preserve" text-anchor="start" x="100.67" y="-216.5" font-family="Helvetica,sans-Serif" font-size="10.00">include/comppare/internal</text>
<text xml:space="preserve" text-anchor="middle" x="156.17" y="-205.25" font-family="Helvetica,sans-Serif" font-size="10.00">/concepts.hpp</text>
</a>
</g>
</g>
<!-- Node2 -->
<g id="Node000002" class="node">
<title>Node2</title>
<g id="a_Node000002"><a xlink:href="ansi_8hpp.html" target="_top" xlink:title="This file contains utilities for applying ANSI styles and colors to console output.">
<polygon fill="white" stroke="#666666" points="173.67,-163.5 46.67,-163.5 46.67,-133 173.67,-133 173.67,-163.5"/>
<text xml:space="preserve" text-anchor="start" x="54.67" y="-150" font-family="Helvetica,sans-Serif" font-size="10.00">include/comppare/internal</text>
<text xml:space="preserve" text-anchor="middle" x="110.17" y="-138.75" font-family="Helvetica,sans-Serif" font-size="10.00">/ansi.hpp</text>
</a>
</g>
</g>
<!-- Node1&#45;&gt;Node2 -->
<g id="edge1_Node000001_Node000002" class="edge">
<title>Node1&#45;&gt;Node2</title>
<g id="a_edge1_Node000001_Node000002"><a xlink:title=" ">
<path fill="none" stroke="#63b8ff" d="M139.08,-189.79C132.86,-181.07 126.03,-171.49 120.56,-163.83"/>
<polygon fill="#63b8ff" stroke="#63b8ff" points="136.19,-191.77 144.85,-197.88 141.89,-187.71 136.19,-191.77"/>
</a>
</g>
</g>
<!-- Node4 -->
<g id="Node000004" class="node">
<title>Node4</title>
<g id="a_Node000004"><a xlink:href="policy_8hpp.html" target="_top" xlink:title="This file contains error policies for comparing values in the ComPPare library.">
<polygon fill="white" stroke="#666666" points="293.67,-91.38 166.67,-91.38 166.67,-60.88 293.67,-60.88 293.67,-91.38"/>
<text xml:space="preserve" text-anchor="start" x="174.67" y="-77.88" font-family="Helvetica,sans-Serif" font-size="10.00">include/comppare/internal</text>
<text xml:space="preserve" text-anchor="middle" x="230.17" y="-66.62" font-family="Helvetica,sans-Serif" font-size="10.00">/policy.hpp</text>
</a>
</g>
</g>
<!-- Node1&#45;&gt;Node4 -->
<g id="edge7_Node000001_Node000004" class="edge">
<title>Node1&#45;&gt;Node4</title>
<g id="a_edge7_Node000001_Node000004"><a xlink:title=" ">
<path fill="none" stroke="#63b8ff" d="M169.48,-189.17C184.88,-160.75 209.71,-114.89 222.31,-91.64"/>
<polygon fill="#63b8ff" stroke="#63b8ff" points="166.49,-187.34 164.81,-197.8 172.65,-190.67 166.49,-187.34"/>
</a>
</g>
</g>
<!-- Node3 -->
<g id="Node000003" class="node">
<title>Node3</title>
<g id="a_Node000003"><a xlink:href="comppare_8hpp.html" target="_top" xlink:title="This file is the main include file for the ComPPare framework.">
<polygon fill="white" stroke="#666666" points="160.67,-19.25 3.67,-19.25 3.67,0 160.67,0 160.67,-19.25"/>
<text xml:space="preserve" text-anchor="middle" x="82.17" y="-5.75" font-family="Helvetica,sans-Serif" font-size="10.00">include/comppare/comppare.hpp</text>
</a>
</g>
</g>
<!-- Node2&#45;&gt;Node3 -->
<g id="edge2_Node000002_Node000003" class="edge">
<title>Node2&#45;&gt;Node3</title>
<g id="a_edge2_Node000002_Node000003"><a xlink:title=" ">
<path fill="none" stroke="#63b8ff" d="M42.84,-127.7C28.71,-120.38 15.57,-110.44 7.17,-97 -2.66,-81.26 -2,-71.38 7.17,-55.25 17.05,-37.86 36.68,-26.54 53.38,-19.65"/>
<polygon fill="#63b8ff" stroke="#63b8ff" points="41.33,-130.86 51.87,-131.94 44.3,-124.52 41.33,-130.86"/>
</a>
</g>
</g>
<!-- Node2&#45;&gt;Node4 -->
<g id="edge3_Node000002_Node000004" class="edge">
<title>Node2&#45;&gt;Node4</title>
<g id="a_edge3_Node000002_Node000004"><a xlink:title=" ">
<path fill="none" stroke="#63b8ff" d="M145.2,-126.78C164.38,-115.57 187.69,-101.95 205.04,-91.81"/>
<polygon fill="#63b8ff" stroke="#63b8ff" points="143.5,-123.72 136.63,-131.79 147.03,-129.76 143.5,-123.72"/>
</a>
</g>
</g>
<!-- Node5 -->
<g id="Node000005" class="node">
<title>Node5</title>
<g id="a_Node000005"><a xlink:href="google__benchmark_8hpp.html" target="_top" xlink:title="This file contains the Google Benchmark plugin for the ComPPare framework.">
<polygon fill="white" stroke="#666666" points="148.29,-97 16.04,-97 16.04,-55.25 148.29,-55.25 148.29,-97"/>
<text xml:space="preserve" text-anchor="start" x="24.04" y="-83.5" font-family="Helvetica,sans-Serif" font-size="10.00">include/comppare/plugin</text>
<text xml:space="preserve" text-anchor="start" x="24.04" y="-72.25" font-family="Helvetica,sans-Serif" font-size="10.00">/google_benchmark/google</text>
<text xml:space="preserve" text-anchor="middle" x="82.17" y="-61" font-family="Helvetica,sans-Serif" font-size="10.00">_benchmark.hpp</text>
</a>
</g>
</g>
<!-- Node2&#45;&gt;Node5 -->
<g id="edge5_Node000002_Node000005" class="edge">
<title>Node2&#45;&gt;Node5</title>
<g id="a_edge5_Node000002_Node000005"><a xlink:title=" ">
<path fill="none" stroke="#63b8ff" d="M100.1,-122.03C96.88,-113.97 93.36,-105.15 90.3,-97.49"/>
<polygon fill="#63b8ff" stroke="#63b8ff" points="96.85,-123.33 103.8,-131.31 103.35,-120.73 96.85,-123.33"/>
</a>
</g>
</g>
<!-- Node4&#45;&gt;Node3 -->
<g id="edge4_Node000004_Node000003" class="edge">
<title>Node4&#45;&gt;Node3</title>
<g id="a_edge4_Node000004_Node000003"><a xlink:title=" ">
<path fill="none" stroke="#63b8ff" d="M186.37,-56.04C158.76,-44.01 124.38,-29.02 102.84,-19.63"/>
<polygon fill="#63b8ff" stroke="#63b8ff" points="184.63,-59.1 195.2,-59.88 187.43,-52.68 184.63,-59.1"/>
</a>
</g>
</g>
<!-- Node5&#45;&gt;Node3 -->
<g id="edge6_Node000005_Node000003" class="edge">
<title>Node5&#45;&gt;Node3</title>
<g id="a_edge6_Node000005_Node000003"><a xlink:title=" ">
<path fill="none" stroke="#63b8ff" d="M82.17,-43.76C82.17,-34.95 82.17,-26.05 82.17,-19.7"/>
<polygon fill="#63b8ff" stroke="#63b8ff" points="78.67,-43.56 82.17,-53.56 85.67,-43.56 78.67,-43.56"/>
</a>
</g>
</g>
</g>
</svg>
</svg>

<style type='text/css'>
<![CDATA[
[data-mouse-over-selected='false'] { opacity: 0.7; }
[data-mouse-over-selected='true']  { opacity: 1.0; }
]]>
</style>
<script type="application/ecmascript"><![CDATA[
document.addEventListener('DOMContentLoaded', (event) => {
  highlightEdges();
  highlightAdjacentNodes();
});
]]></script>
</svg>
