<?xml version="1.0" encoding="UTF-8" standalone="no"?>
<!DOCTYPE svg PUBLIC "-//W3C//DTD SVG 1.1//EN"
 "http://www.w3.org/Graphics/SVG/1.1/DTD/svg11.dtd">
<!-- Generated by graphviz version 13.1.2 (20250808.2320)
 -->
<!-- Title: include/comppare/internal/config.hpp Pages: 1 -->
<svg width="196pt" height="160pt"
 viewBox="0.00 0.00 196.00 160.00" xmlns="http://www.w3.org/2000/svg" xmlns:xlink="http://www.w3.org/1999/xlink">
<g id="graph0" class="graph" transform="scale(1 1) rotate(0) translate(4 156.25)">
<title>include/comppare/internal/config.hpp</title>
<!-- Node1 -->
<g id="Node000001" class="node">
<title>Node1</title>
<g id="a_Node000001"><a xlink:title="This file contains configuration settings for the ComPPare library.">
<polygon fill="#999999" stroke="#666666" points="142,-152.25 15,-152.25 15,-121.75 142,-121.75 142,-152.25"/>
<text xml:space="preserve" text-anchor="start" x="23" y="-138.75" font-family="Helvetica,sans-Serif" font-size="10.00">include/comppare/internal</text>
<text xml:space="preserve" text-anchor="middle" x="78.5" y="-127.5" font-family="Helvetica,sans-Serif" font-size="10.00">/config.hpp</text>
</a>
</g>
</g>
<!-- Node2 -->
<g id="Node000002" class="node">
<title>Node2</title>
<g id="a_Node000002"><a xlink:href="comppare_8hpp.html" target="_top" xlink:title="This file is the main include file for the ComPPare framework.">
<polygon fill="white" stroke="#666666" points="157,-19.25 0,-19.25 0,0 157,0 157,-19.25"/>
<text xml:space="preserve" text-anchor="middle" x="78.5" y="-5.75" font-family="Helvetica,sans-Serif" font-size="10.00">include/comppare/comppare.hpp</text>
</a>
</g>
</g>
<!-- Node1&#45;&gt;Node2 -->
<g id="edge1_Node000001_Node000002" class="edge">
<title>Node1&#45;&gt;Node2</title>
<g id="a_edge1_Node000001_Node000002"><a xlink:title=" ">
<path fill="none" stroke="#63b8ff" d="M62.36,-111.73C57.94,-103.79 53.75,-94.7 51.5,-85.75 48.19,-72.6 47.86,-68.31 51.5,-55.25 55.3,-41.64 64.49,-28.05 71.1,-19.5"/>
<polygon fill="#63b8ff" stroke="#63b8ff" points="59.24,-113.33 67.38,-120.11 65.24,-109.73 59.24,-113.33"/>
</a>
</g>
</g>
<!-- Node3 -->
<g id="Node000003" class="node">
<title>Node3</title>
<g id="a_Node000003"><a xlink:href="helper_8hpp.html" target="_top" xlink:title=" ">
<polygon fill="white" stroke="#666666" points="188,-85.75 61,-85.75 61,-55.25 188,-55.25 188,-85.75"/>
<text xml:space="preserve" text-anchor="start" x="69" y="-72.25" font-family="Helvetica,sans-Serif" font-size="10.00">include/comppare/internal</text>
<text xml:space="preserve" text-anchor="middle" x="124.5" y="-61" font-family="Helvetica,sans-Serif" font-size="10.00">/helper.hpp</text>
</a>
</g>
</g>
<!-- Node1&#45;&gt;Node3 -->
<g id="edge2_Node000001_Node000003" class="edge">
<title>Node1&#45;&gt;Node3</title>
<g id="a_edge2_Node000001_Node000003"><a xlink:title=" ">
<path fill="none" stroke="#63b8ff" d="M95.59,-112.04C101.81,-103.32 108.64,-93.74 114.1,-86.08"/>
<polygon fill="#63b8ff" stroke="#63b8ff" points="92.77,-109.96 89.82,-120.13 98.47,-114.02 92.77,-109.96"/>
</a>
</g>
</g>
<!-- Node3&#45;&gt;Node2 -->
<g id="edge3_Node000003_Node000002" class="edge">
<title>Node3&#45;&gt;Node2</title>
<g id="a_edge3_Node000003_Node000002"><a xlink:title=" ">
<path fill="none" stroke="#63b8ff" d="M106.22,-46.11C98.99,-36.84 91.1,-26.75 85.59,-19.7"/>
<polygon fill="#63b8ff" stroke="#63b8ff" points="103.28,-48.03 112.2,-53.75 108.8,-43.72 103.28,-48.03"/>
</a>
</g>
</g>
</g>
</svg>
