<?xml version="1.0" encoding="UTF-8" standalone="no"?>
<!DOCTYPE svg PUBLIC "-//W3C//DTD SVG 1.1//EN"
 "http://www.w3.org/Graphics/SVG/1.1/DTD/svg11.dtd">
<!-- Generated by graphviz version 13.1.2 (20250808.2320)
 -->
<!-- Title: examples/advanced_demo/1&#45;custom_error_policy/data_structure.hpp Pages: 1 -->
<svg width="140pt" height="105pt"
 viewBox="0.00 0.00 140.00 105.00" xmlns="http://www.w3.org/2000/svg" xmlns:xlink="http://www.w3.org/1999/xlink">
<g id="graph0" class="graph" transform="scale(1 1) rotate(0) translate(4 101)">
<title>examples/advanced_demo/1&#45;custom_error_policy/data_structure.hpp</title>
<!-- Node1 -->
<g id="Node000001" class="node">
<title>Node1</title>
<g id="a_Node000001"><a xlink:title=" ">
<polygon fill="#999999" stroke="#666666" points="132.25,-97 0,-97 0,-55.25 132.25,-55.25 132.25,-97"/>
<text xml:space="preserve" text-anchor="start" x="8" y="-83.5" font-family="Helvetica,sans-Serif" font-size="10.00">examples/advanced_demo</text>
<text xml:space="preserve" text-anchor="start" x="8" y="-72.25" font-family="Helvetica,sans-Serif" font-size="10.00">/1&#45;custom_error_policy</text>
<text xml:space="preserve" text-anchor="middle" x="66.12" y="-61" font-family="Helvetica,sans-Serif" font-size="10.00">/data_structure.hpp</text>
</a>
</g>
</g>
<!-- Node2 -->
<g id="Node000002" class="node">
<title>Node2</title>
<g id="a_Node000002"><a xlink:title=" ">
<polygon fill="#e0e0e0" stroke="#999999" points="58.75,-19.25 13.5,-19.25 13.5,0 58.75,0 58.75,-19.25"/>
<text xml:space="preserve" text-anchor="middle" x="36.12" y="-5.75" font-family="Helvetica,sans-Serif" font-size="10.00">cstdint</text>
</a>
</g>
</g>
<!-- Node1&#45;&gt;Node2 -->
<g id="edge1_Node000001_Node000002" class="edge">
<title>Node1&#45;&gt;Node2</title>
<g id="a_edge1_Node000001_Node000002"><a xlink:title=" ">
<path fill="none" stroke="#63b8ff" d="M56.8,-55.07C53.1,-47.12 48.86,-38.01 45.19,-30.11"/>
<polygon fill="#63b8ff" stroke="#63b8ff" points="48.37,-28.66 40.98,-21.07 42.03,-31.61 48.37,-28.66"/>
</a>
</g>
</g>
<!-- Node3 -->
<g id="Node000003" class="node">
<title>Node3</title>
<g id="a_Node000003"><a xlink:title=" ">
<polygon fill="#e0e0e0" stroke="#999999" points="117.12,-19.25 77.12,-19.25 77.12,0 117.12,0 117.12,-19.25"/>
<text xml:space="preserve" text-anchor="middle" x="97.12" y="-5.75" font-family="Helvetica,sans-Serif" font-size="10.00">string</text>
</a>
</g>
</g>
<!-- Node1&#45;&gt;Node3 -->
<g id="edge2_Node000001_Node000003" class="edge">
<title>Node1&#45;&gt;Node3</title>
<g id="a_edge2_Node000001_Node000003"><a xlink:title=" ">
<path fill="none" stroke="#63b8ff" d="M75.76,-55.07C79.63,-47.03 84.07,-37.8 87.89,-29.84"/>
<polygon fill="#63b8ff" stroke="#63b8ff" points="90.93,-31.59 92.11,-21.06 84.62,-28.56 90.93,-31.59"/>
</a>
</g>
</g>
</g>
</svg>
