<?xml version="1.0" encoding="UTF-8" standalone="no"?>
<!DOCTYPE svg PUBLIC "-//W3C//DTD SVG 1.1//EN"
 "http://www.w3.org/Graphics/SVG/1.1/DTD/svg11.dtd">
<!-- Generated by graphviz version 13.1.2 (20250808.2320)
 -->
<!-- Title: examples/advanced_demo/1&#45;custom_error_policy/data_structure.hpp Pages: 1 -->
<svg width="199pt" height="205pt"
 viewBox="0.00 0.00 199.00 205.00" xmlns="http://www.w3.org/2000/svg" xmlns:xlink="http://www.w3.org/1999/xlink">
<g id="graph0" class="graph" transform="scale(1 1) rotate(0) translate(4 201.25)">
<title>examples/advanced_demo/1&#45;custom_error_policy/data_structure.hpp</title>
<!-- Node1 -->
<g id="Node000001" class="node">
<title>Node1</title>
<g id="a_Node000001"><a xlink:title=" ">
<polygon fill="#999999" stroke="#666666" points="143.5,-197.25 11.25,-197.25 11.25,-155.5 143.5,-155.5 143.5,-197.25"/>
<text xml:space="preserve" text-anchor="start" x="19.25" y="-183.75" font-family="Helvetica,sans-Serif" font-size="10.00">examples/advanced_demo</text>
<text xml:space="preserve" text-anchor="start" x="19.25" y="-172.5" font-family="Helvetica,sans-Serif" font-size="10.00">/1&#45;custom_error_policy</text>
<text xml:space="preserve" text-anchor="middle" x="77.38" y="-161.25" font-family="Helvetica,sans-Serif" font-size="10.00">/data_structure.hpp</text>
</a>
</g>
</g>
<!-- Node2 -->
<g id="Node000002" class="node">
<title>Node2</title>
<g id="a_Node000002"><a xlink:href="custom__error__policy__demo_8cpp.html" target="_top" xlink:title=" ">
<polygon fill="white" stroke="#666666" points="154.75,-41.75 0,-41.75 0,0 154.75,0 154.75,-41.75"/>
<text xml:space="preserve" text-anchor="start" x="8" y="-28.25" font-family="Helvetica,sans-Serif" font-size="10.00">examples/advanced_demo</text>
<text xml:space="preserve" text-anchor="start" x="8" y="-17" font-family="Helvetica,sans-Serif" font-size="10.00">/1&#45;custom_error_policy</text>
<text xml:space="preserve" text-anchor="middle" x="77.38" y="-5.75" font-family="Helvetica,sans-Serif" font-size="10.00">/custom_error_policy_demo.cpp</text>
</a>
</g>
</g>
<!-- Node1&#45;&gt;Node2 -->
<g id="edge1_Node000001_Node000002" class="edge">
<title>Node1&#45;&gt;Node2</title>
<g id="a_edge1_Node000001_Node000002"><a xlink:title=" ">
<path fill="none" stroke="#63b8ff" d="M59,-145.04C55.04,-137.01 51.42,-128.16 49.38,-119.5 45.1,-101.44 45.1,-95.81 49.38,-77.75 52.32,-65.29 58.5,-52.45 64.31,-42.22"/>
<polygon fill="#63b8ff" stroke="#63b8ff" points="55.81,-146.51 63.6,-153.7 62,-143.22 55.81,-146.51"/>
</a>
</g>
</g>
<!-- Node3 -->
<g id="Node000003" class="node">
<title>Node3</title>
<g id="a_Node000003"><a xlink:href="custom__policy_8hpp.html" target="_top" xlink:title=" ">
<polygon fill="white" stroke="#666666" points="190.5,-119.5 58.25,-119.5 58.25,-77.75 190.5,-77.75 190.5,-119.5"/>
<text xml:space="preserve" text-anchor="start" x="66.25" y="-106" font-family="Helvetica,sans-Serif" font-size="10.00">examples/advanced_demo</text>
<text xml:space="preserve" text-anchor="start" x="66.25" y="-94.75" font-family="Helvetica,sans-Serif" font-size="10.00">/1&#45;custom_error_policy</text>
<text xml:space="preserve" text-anchor="middle" x="124.38" y="-83.5" font-family="Helvetica,sans-Serif" font-size="10.00">/custom_policy.hpp</text>
</a>
</g>
</g>
<!-- Node1&#45;&gt;Node3 -->
<g id="edge2_Node000001_Node000003" class="edge">
<title>Node1&#45;&gt;Node3</title>
<g id="a_edge2_Node000001_Node000003"><a xlink:title=" ">
<path fill="none" stroke="#63b8ff" d="M95.96,-145.43C101.25,-136.89 106.89,-127.8 111.75,-119.98"/>
<polygon fill="#63b8ff" stroke="#63b8ff" points="93.07,-143.45 90.77,-153.79 99.01,-147.14 93.07,-143.45"/>
</a>
</g>
</g>
<!-- Node3&#45;&gt;Node2 -->
<g id="edge3_Node000003_Node000002" class="edge">
<title>Node3&#45;&gt;Node2</title>
<g id="a_edge3_Node000003_Node000002"><a xlink:title=" ">
<path fill="none" stroke="#63b8ff" d="M105.79,-67.68C100.5,-59.14 94.86,-50.05 90,-42.23"/>
<polygon fill="#63b8ff" stroke="#63b8ff" points="102.74,-69.39 110.98,-76.04 108.68,-65.7 102.74,-69.39"/>
</a>
</g>
</g>
</g>
</svg>
