<?xml version="1.0" encoding="UTF-8" standalone="no"?>
<!DOCTYPE svg PUBLIC "-//W3C//DTD SVG 1.1//EN"
 "http://www.w3.org/Graphics/SVG/1.1/DTD/svg11.dtd">
<!-- Generated by graphviz version 13.1.2 (20250808.2320)
 -->
<!-- Title: examples Pages: 1 -->
<!--zoomable 99 -->

<svg id="main" version="1.1" xmlns="http://www.w3.org/2000/svg" xmlns:xlink="http://www.w3.org/1999/xlink" xml:space="preserve" onload="init(evt)">

<style type="text/css"><![CDATA[
.node, .edge {opacity: 0.7;}
.node.selected, .edge.selected {opacity: 1;}
.edge:hover path { stroke: red; }
.edge:hover polygon { stroke: red; fill: red; }
]]></style>

<defs>
  <circle id="rim" cx="0" cy="0" r="7"/>
  <circle id="rim2" cx="0" cy="0" r="3.5"/>
  <g id="zoomPlus">
    <use xlink:href="#rim" fill="#404040"><set attributeName="fill" to="#808080" begin="zoomplus.mouseover" end="zoomplus.mouseout"/></use>
    <path d="M-4,0h8M0,-4v8" fill="none" stroke="white" stroke-width="1.5" pointer-events="none"/>
  </g>
  <g id="zoomMin">
    <use xlink:href="#rim" fill="#404040"><set attributeName="fill" to="#808080" begin="zoomminus.mouseover" end="zoomminus.mouseout"/></use>
    <path d="M-4,0h8" fill="none" stroke="white" stroke-width="1.5" pointer-events="none"/>
  </g>
  <g id="arrowUp" transform="translate(30 24)">
    <use xlink:href="#rim"/>
    <path pointer-events="none" fill="none" stroke="white" stroke-width="1.5" d="M0,-3.0v7 M-2.5,-0.5L0,-3.0L2.5,-0.5"/>
  </g>
  <g id="arrowRight" transform="rotate(90) translate(36 -43)">
    <use xlink:href="#rim"/>
    <path pointer-events="none" fill="none" stroke="white" stroke-width="1.5" d="M0,-3.0v7 M-2.5,-0.5L0,-3.0L2.5,-0.5"/>
  </g>
  <g id="arrowDown" transform="rotate(180) translate(-30 -48)">
    <use xlink:href="#rim"/>
    <path pointer-events="none" fill="none" stroke="white" stroke-width="1.5" d="M0,-3.0v7 M-2.5,-0.5L0,-3.0L2.5,-0.5"/>
  </g>
  <g id="arrowLeft" transform="rotate(270) translate(-36 17)">
    <use xlink:href="#rim"/>
    <path pointer-events="none" fill="none" stroke="white" stroke-width="1.5" d="M0,-3.0v7 M-2.5,-0.5L0,-3.0L2.5,-0.5"/>
  </g>
  <g id="resetDef">
    <use xlink:href="#rim2" fill="#404040"><set attributeName="fill" to="#808080" begin="reset.mouseover" end="reset.mouseout"/></use>
  </g>
</defs>
<script type="application/ecmascript">
var viewWidth = 608;
var viewHeight = 99;
var sectionId = 'dynsection-0';
</script>
<script type="application/ecmascript" xlink:href="svg.min.js"/>
<svg id="graph" class="graph">
<g id="viewport">
<title>examples</title>
<g id="clust1" class="cluster">
<title>clusterdir_d28a4824dc47e487b107a5db32ef43c4</title>
<g id="a_clust1"><a xlink:href="dir_d28a4824dc47e487b107a5db32ef43c4.html" target="_top">
<polygon fill="#edf0f7" stroke="#404040" stroke-width="2" points="8,-47.25 8,-82.5 592,-82.5 592,-47.25 8,-47.25"/>
</a>
</g>
</g>
<!-- dir_d28a4824dc47e487b107a5db32ef43c4 -->
<g id="node1" class="node">
<title>dir_d28a4824dc47e487b107a5db32ef43c4</title>
<text xml:space="preserve" text-anchor="middle" x="45" y="-61" font-family="Helvetica,sans-Serif" font-size="10.00">examples</text>
</g>
<!-- dir_cd43f9252faa2edaded5e402af091fd1 -->
<g id="node2" class="node">
<title>dir_cd43f9252faa2edaded5e402af091fd1</title>
<g id="a_node2"><a xlink:href="dir_cd43f9252faa2edaded5e402af091fd1.html" target="_top" xlink:title="advanced_demo">
<polygon fill="#a2b4d6" stroke="#404040" points="179.62,-74.5 92.38,-74.5 92.38,-55.25 179.62,-55.25 179.62,-74.5"/>
<text xml:space="preserve" text-anchor="middle" x="136" y="-61" font-family="Helvetica,sans-Serif" font-size="10.00">advanced_demo</text>
</a>
</g>
</g>
<!-- dir_d44c64559bbebec7f509842c48db8b23 -->
<g id="node8" class="node">
<title>dir_d44c64559bbebec7f509842c48db8b23</title>
<g id="a_node8"><a xlink:href="dir_d44c64559bbebec7f509842c48db8b23.html" target="_top" xlink:title="include">
<polygon fill="#edf0f7" stroke="red" points="327.38,-19.25 280.62,-19.25 280.62,0 327.38,0 327.38,-19.25"/>
<text xml:space="preserve" text-anchor="middle" x="304" y="-5.75" font-family="Helvetica,sans-Serif" font-size="10.00">include</text>
</a>
</g>
</g>
<!-- dir_cd43f9252faa2edaded5e402af091fd1&#45;&gt;dir_d44c64559bbebec7f509842c48db8b23 -->
<g id="edge1" class="edge">
<title>dir_cd43f9252faa2edaded5e402af091fd1&#45;&gt;dir_d44c64559bbebec7f509842c48db8b23</title>
<g id="a_edge1"><a xlink:href="dir_000011_000037.html" target="_top">
<path fill="none" stroke="#63b8ff" d="M164.5,-54.84C193.51,-45.65 238.52,-31.38 269.52,-21.55"/>
<polygon fill="#63b8ff" stroke="#63b8ff" points="270.34,-24.97 278.82,-18.61 268.23,-18.29 270.34,-24.97"/>
</a>
</g>
<g id="a_edge1&#45;headlabel"><a xlink:href="dir_000011_000037.html" target="_top" xlink:title="5">
<text xml:space="preserve" text-anchor="middle" x="269.21" y="-24.43" font-family="Helvetica,sans-Serif" font-size="10.00" fill="#63b8ff">5</text>
</a>
</g>
</g>
<!-- dir_e61f3e84f5daeda1bf670c9a0b4ab320 -->
<g id="node3" class="node">
<title>dir_e61f3e84f5daeda1bf670c9a0b4ab320</title>
<g id="a_node3"><a xlink:href="dir_e61f3e84f5daeda1bf670c9a0b4ab320.html" target="_top" xlink:title="dummy">
<polygon fill="#a2b4d6" stroke="#404040" points="246.12,-74.5 197.88,-74.5 197.88,-55.25 246.12,-55.25 246.12,-74.5"/>
<text xml:space="preserve" text-anchor="middle" x="222" y="-61" font-family="Helvetica,sans-Serif" font-size="10.00">dummy</text>
</a>
</g>
</g>
<!-- dir_e61f3e84f5daeda1bf670c9a0b4ab320&#45;&gt;dir_d44c64559bbebec7f509842c48db8b23 -->
<g id="edge2" class="edge">
<title>dir_e61f3e84f5daeda1bf670c9a0b4ab320&#45;&gt;dir_d44c64559bbebec7f509842c48db8b23</title>
<g id="a_edge2"><a xlink:href="dir_000034_000037.html" target="_top">
<path fill="none" stroke="#63b8ff" d="M235.91,-54.84C248.16,-46.89 266.25,-35.14 280.71,-25.75"/>
<polygon fill="#63b8ff" stroke="#63b8ff" points="282.27,-28.91 288.75,-20.53 278.46,-23.04 282.27,-28.91"/>
</a>
</g>
<g id="a_edge2&#45;headlabel"><a xlink:href="dir_000034_000037.html" target="_top" xlink:title="1">
<text xml:space="preserve" text-anchor="middle" x="282.07" y="-28.55" font-family="Helvetica,sans-Serif" font-size="10.00" fill="#63b8ff">1</text>
</a>
</g>
</g>
<!-- dir_8d4c8d310e3b52dbd1209e3ee14d5b48 -->
<g id="node4" class="node">
<title>dir_8d4c8d310e3b52dbd1209e3ee14d5b48</title>
<g id="a_node4"><a xlink:href="dir_8d4c8d310e3b52dbd1209e3ee14d5b48.html" target="_top" xlink:title="max_reduction">
<polygon fill="#a2b4d6" stroke="#404040" points="343.88,-74.5 264.12,-74.5 264.12,-55.25 343.88,-55.25 343.88,-74.5"/>
<text xml:space="preserve" text-anchor="middle" x="304" y="-61" font-family="Helvetica,sans-Serif" font-size="10.00">max_reduction</text>
</a>
</g>
</g>
<!-- dir_8d4c8d310e3b52dbd1209e3ee14d5b48&#45;&gt;dir_d44c64559bbebec7f509842c48db8b23 -->
<g id="edge3" class="edge">
<title>dir_8d4c8d310e3b52dbd1209e3ee14d5b48&#45;&gt;dir_d44c64559bbebec7f509842c48db8b23</title>
<g id="a_edge3"><a xlink:href="dir_000040_000037.html" target="_top">
<path fill="none" stroke="#63b8ff" d="M304,-55.08C304,-48.57 304,-39.42 304,-31.12"/>
<polygon fill="#63b8ff" stroke="#63b8ff" points="307.5,-31.12 304,-21.12 300.5,-31.12 307.5,-31.12"/>
</a>
</g>
<g id="a_edge3&#45;headlabel"><a xlink:href="dir_000040_000037.html" target="_top" xlink:title="2">
<text xml:space="preserve" text-anchor="middle" x="310.34" y="-29.33" font-family="Helvetica,sans-Serif" font-size="10.00" fill="#63b8ff">2</text>
</a>
</g>
</g>
<!-- dir_ff7bcaff80b64abe0f8d503e55f47346 -->
<g id="node5" class="node">
<title>dir_ff7bcaff80b64abe0f8d503e55f47346</title>
<g id="a_node5"><a xlink:href="dir_ff7bcaff80b64abe0f8d503e55f47346.html" target="_top" xlink:title="rvalue">
<polygon fill="#a2b4d6" stroke="#404040" points="404.12,-74.5 361.88,-74.5 361.88,-55.25 404.12,-55.25 404.12,-74.5"/>
<text xml:space="preserve" text-anchor="middle" x="383" y="-61" font-family="Helvetica,sans-Serif" font-size="10.00">rvalue</text>
</a>
</g>
</g>
<!-- dir_43f74b311631c0ae28958e88878cbbc9 -->
<g id="node6" class="node">
<title>dir_43f74b311631c0ae28958e88878cbbc9</title>
<g id="a_node6"><a xlink:href="dir_43f74b311631c0ae28958e88878cbbc9.html" target="_top" xlink:title="saxpy">
<polygon fill="#a2b4d6" stroke="#404040" points="464.12,-74.5 421.88,-74.5 421.88,-55.25 464.12,-55.25 464.12,-74.5"/>
<text xml:space="preserve" text-anchor="middle" x="443" y="-61" font-family="Helvetica,sans-Serif" font-size="10.00">saxpy</text>
</a>
</g>
</g>
<!-- dir_43f74b311631c0ae28958e88878cbbc9&#45;&gt;dir_d44c64559bbebec7f509842c48db8b23 -->
<g id="edge4" class="edge">
<title>dir_43f74b311631c0ae28958e88878cbbc9&#45;&gt;dir_d44c64559bbebec7f509842c48db8b23</title>
<g id="a_edge4"><a xlink:href="dir_000044_000037.html" target="_top">
<path fill="none" stroke="#63b8ff" d="M428.01,-54.87C423.3,-52.23 418.01,-49.46 413,-47.25 388.84,-36.6 360.56,-27.18 338.86,-20.56"/>
<polygon fill="#63b8ff" stroke="#63b8ff" points="339.89,-17.22 329.31,-17.71 337.89,-23.93 339.89,-17.22"/>
</a>
</g>
<g id="a_edge4&#45;headlabel"><a xlink:href="dir_000044_000037.html" target="_top" xlink:title="2">
<text xml:space="preserve" text-anchor="middle" x="342.7" y="-11.22" font-family="Helvetica,sans-Serif" font-size="10.00" fill="#63b8ff">2</text>
</a>
</g>
</g>
<!-- dir_bf6535f3203b9f84ee61a7f8b6b5781b -->
<g id="node7" class="node">
<title>dir_bf6535f3203b9f84ee61a7f8b6b5781b</title>
<g id="a_node7"><a xlink:href="dir_bf6535f3203b9f84ee61a7f8b6b5781b.html" target="_top" xlink:title="saxpy_googlebench">
<polygon fill="#a2b4d6" stroke="#404040" points="584.12,-74.5 481.88,-74.5 481.88,-55.25 584.12,-55.25 584.12,-74.5"/>
<text xml:space="preserve" text-anchor="middle" x="533" y="-61" font-family="Helvetica,sans-Serif" font-size="10.00">saxpy_googlebench</text>
</a>
</g>
</g>
<!-- dir_bf6535f3203b9f84ee61a7f8b6b5781b&#45;&gt;dir_d44c64559bbebec7f509842c48db8b23 -->
<g id="edge5" class="edge">
<title>dir_bf6535f3203b9f84ee61a7f8b6b5781b&#45;&gt;dir_d44c64559bbebec7f509842c48db8b23</title>
<g id="a_edge5"><a xlink:href="dir_000047_000037.html" target="_top">
<path fill="none" stroke="#63b8ff" d="M501.64,-54.82C492.44,-52.27 482.34,-49.55 473,-47.25 426.85,-35.87 373.14,-24.55 338.87,-17.58"/>
<polygon fill="#63b8ff" stroke="#63b8ff" points="339.59,-14.15 329.09,-15.6 338.2,-21.01 339.59,-14.15"/>
</a>
</g>
<g id="a_edge5&#45;headlabel"><a xlink:href="dir_000047_000037.html" target="_top" xlink:title="2">
<text xml:space="preserve" text-anchor="middle" x="342.19" y="-7.91" font-family="Helvetica,sans-Serif" font-size="10.00" fill="#63b8ff">2</text>
</a>
</g>
</g>
</g>
</svg>

<g id="navigator" transform="translate(0 0)" fill="#404254">
  <rect fill="#f2f5e9" fill-opacity="0.5" stroke="#606060" stroke-width=".5" x="0" y="0" width="60" height="60"/>
  <use id="zoomplus" xlink:href="#zoomPlus" x="17" y="9" onmousedown="handleZoom(evt,'in')"/>
  <use id="zoomminus" xlink:href="#zoomMin" x="42" y="9" onmousedown="handleZoom(evt,'out')"/>
  <use id="reset" xlink:href="#resetDef" x="30" y="36" onmousedown="handleReset()"/>
   <use id="arrowup" xlink:href="#arrowUp" x="0" y="0" onmousedown="handlePan(0,-1)"/>
  <use id="arrowright" xlink:href="#arrowRight" x="0" y="0" onmousedown="handlePan(1,0)"/>
  <use id="arrowdown" xlink:href="#arrowDown" x="0" y="0" onmousedown="handlePan(0,1)"/>
  <use id="arrowleft" xlink:href="#arrowLeft" x="0" y="0" onmousedown="handlePan(-1,0)"/>
</g>
<svg viewBox="0 0 15 15" width="100%" height="30px" preserveAspectRatio="xMaxYMin meet">
 <g id="arrow_out" transform="scale(0.3 0.3)">
  <a xlink:href="dir_d28a4824dc47e487b107a5db32ef43c4_dep_org.svg" target="_base">
   <rect id="button" ry="5" rx="5" y="6" x="6" height="38" width="38"
        fill="#f2f5e9" fill-opacity="0.5" stroke="#606060" stroke-width="1.0"/>
   <path id="arrow"
     d="M 11.500037,31.436501 C 11.940474,20.09759 22.043105,11.32322 32.158766,21.979434 L 37.068811,17.246167 C 37.068811,17.246167 37.088388,32 37.088388,32 L 22.160133,31.978069 C 22.160133,31.978069 26.997745,27.140456 26.997745,27.140456 C 18.528582,18.264221 13.291696,25.230495 11.500037,31.436501 z"
     style="fill:#404040;"/>
  </a>
 </g>
</svg>

<style type='text/css'>
<![CDATA[
[data-mouse-over-selected='false'] { opacity: 0.7; }
[data-mouse-over-selected='true']  { opacity: 1.0; }
]]>
</style>
<script type="application/ecmascript"><![CDATA[
document.addEventListener('DOMContentLoaded', (event) => {
  highlightEdges();
  highlightAdjacentNodes();
});
]]></script>
</svg>
