<?xml version="1.0" encoding="UTF-8" standalone="no"?>
<!DOCTYPE svg PUBLIC "-//W3C//DTD SVG 1.1//EN"
 "http://www.w3.org/Graphics/SVG/1.1/DTD/svg11.dtd">
<!-- Generated by graphviz version 13.1.2 (20250808.2320)
 -->
<!-- Title: examples/advanced_demo Pages: 1 -->
<!--zoomable 126 -->

<svg id="main" version="1.1" xmlns="http://www.w3.org/2000/svg" xmlns:xlink="http://www.w3.org/1999/xlink" xml:space="preserve" onload="init(evt)">

<style type="text/css"><![CDATA[
.node, .edge {opacity: 0.7;}
.node.selected, .edge.selected {opacity: 1;}
.edge:hover path { stroke: red; }
.edge:hover polygon { stroke: red; fill: red; }
]]></style>

<defs>
  <circle id="rim" cx="0" cy="0" r="7"/>
  <circle id="rim2" cx="0" cy="0" r="3.5"/>
  <g id="zoomPlus">
    <use xlink:href="#rim" fill="#404040"><set attributeName="fill" to="#808080" begin="zoomplus.mouseover" end="zoomplus.mouseout"/></use>
    <path d="M-4,0h8M0,-4v8" fill="none" stroke="white" stroke-width="1.5" pointer-events="none"/>
  </g>
  <g id="zoomMin">
    <use xlink:href="#rim" fill="#404040"><set attributeName="fill" to="#808080" begin="zoomminus.mouseover" end="zoomminus.mouseout"/></use>
    <path d="M-4,0h8" fill="none" stroke="white" stroke-width="1.5" pointer-events="none"/>
  </g>
  <g id="arrowUp" transform="translate(30 24)">
    <use xlink:href="#rim"/>
    <path pointer-events="none" fill="none" stroke="white" stroke-width="1.5" d="M0,-3.0v7 M-2.5,-0.5L0,-3.0L2.5,-0.5"/>
  </g>
  <g id="arrowRight" transform="rotate(90) translate(36 -43)">
    <use xlink:href="#rim"/>
    <path pointer-events="none" fill="none" stroke="white" stroke-width="1.5" d="M0,-3.0v7 M-2.5,-0.5L0,-3.0L2.5,-0.5"/>
  </g>
  <g id="arrowDown" transform="rotate(180) translate(-30 -48)">
    <use xlink:href="#rim"/>
    <path pointer-events="none" fill="none" stroke="white" stroke-width="1.5" d="M0,-3.0v7 M-2.5,-0.5L0,-3.0L2.5,-0.5"/>
  </g>
  <g id="arrowLeft" transform="rotate(270) translate(-36 17)">
    <use xlink:href="#rim"/>
    <path pointer-events="none" fill="none" stroke="white" stroke-width="1.5" d="M0,-3.0v7 M-2.5,-0.5L0,-3.0L2.5,-0.5"/>
  </g>
  <g id="resetDef">
    <use xlink:href="#rim2" fill="#404040"><set attributeName="fill" to="#808080" begin="reset.mouseover" end="reset.mouseout"/></use>
  </g>
</defs>
<script type="application/ecmascript">
var viewWidth = 693;
var viewHeight = 126;
var sectionId = 'dynsection-0';
</script>
<script type="application/ecmascript" xlink:href="svg.min.js"/>
<svg id="graph" class="graph">
<g id="viewport">
<title>examples/advanced_demo</title>
<g id="clust1" class="cluster">
<title>clusterdir_d28a4824dc47e487b107a5db32ef43c4</title>
<g id="a_clust1"><a xlink:href="dir_d28a4824dc47e487b107a5db32ef43c4.html" target="_top" xlink:title="examples">
<polygon fill="#edf0f7" stroke="#404040" stroke-dasharray="5,2" points="8,-39.25 8,-109.75 677,-109.75 677,-39.25 8,-39.25"/>
<text xml:space="preserve" text-anchor="middle" x="342.5" y="-96.25" font-family="Helvetica,sans-Serif" font-size="10.00">examples</text>
</a>
</g>
</g>
<g id="clust2" class="cluster">
<title>clusterdir_cd43f9252faa2edaded5e402af091fd1</title>
<g id="a_clust2"><a xlink:href="dir_cd43f9252faa2edaded5e402af091fd1.html" target="_top">
<polygon fill="#edf0f7" stroke="#404040" stroke-width="2" points="16,-47.25 16,-82.5 669,-82.5 669,-47.25 16,-47.25"/>
</a>
</g>
</g>
<!-- dir_cd43f9252faa2edaded5e402af091fd1 -->
<g id="node1" class="node">
<title>dir_cd43f9252faa2edaded5e402af091fd1</title>
<text xml:space="preserve" text-anchor="middle" x="68" y="-61" font-family="Helvetica,sans-Serif" font-size="10.00">advanced_demo</text>
</g>
<!-- dir_8140ab9b5eac49e3fd238e236b07cebe -->
<g id="node2" class="node">
<title>dir_8140ab9b5eac49e3fd238e236b07cebe</title>
<g id="a_node2"><a xlink:href="dir_8140ab9b5eac49e3fd238e236b07cebe.html" target="_top" xlink:title="1&#45;custom_error_policy">
<polygon fill="#a2b4d6" stroke="#404040" points="242,-74.5 130,-74.5 130,-55.25 242,-55.25 242,-74.5"/>
<text xml:space="preserve" text-anchor="middle" x="186" y="-61" font-family="Helvetica,sans-Serif" font-size="10.00">1&#45;custom_error_policy</text>
</a>
</g>
</g>
<!-- dir_d44c64559bbebec7f509842c48db8b23 -->
<g id="node7" class="node">
<title>dir_d44c64559bbebec7f509842c48db8b23</title>
<g id="a_node7"><a xlink:href="dir_d44c64559bbebec7f509842c48db8b23.html" target="_top" xlink:title="include">
<polygon fill="#edf0f7" stroke="red" points="393.38,-19.25 346.62,-19.25 346.62,0 393.38,0 393.38,-19.25"/>
<text xml:space="preserve" text-anchor="middle" x="370" y="-5.75" font-family="Helvetica,sans-Serif" font-size="10.00">include</text>
</a>
</g>
</g>
<!-- dir_8140ab9b5eac49e3fd238e236b07cebe&#45;&gt;dir_d44c64559bbebec7f509842c48db8b23 -->
<g id="edge1" class="edge">
<title>dir_8140ab9b5eac49e3fd238e236b07cebe&#45;&gt;dir_d44c64559bbebec7f509842c48db8b23</title>
<g id="a_edge1"><a xlink:href="dir_000000_000037.html" target="_top">
<path fill="none" stroke="#63b8ff" d="M207.72,-54.86C220.24,-49.86 236.35,-43.77 251,-39.25 279.09,-30.59 311.58,-22.93 335.51,-17.72"/>
<polygon fill="#63b8ff" stroke="#63b8ff" points="335.98,-21.19 345.03,-15.68 334.51,-14.35 335.98,-21.19"/>
</a>
</g>
<g id="a_edge1&#45;headlabel"><a xlink:href="dir_000000_000037.html" target="_top" xlink:title="2">
<text xml:space="preserve" text-anchor="middle" x="334.54" y="-20.53" font-family="Helvetica,sans-Serif" font-size="10.00" fill="#63b8ff">2</text>
</a>
</g>
</g>
<!-- dir_5a380b290769fe5d3c5c99566e4dfa58 -->
<g id="node3" class="node">
<title>dir_5a380b290769fe5d3c5c99566e4dfa58</title>
<g id="a_node3"><a xlink:href="dir_5a380b290769fe5d3c5c99566e4dfa58.html" target="_top" xlink:title="2&#45;google_benchmark">
<polygon fill="#a2b4d6" stroke="#404040" points="366,-74.5 260,-74.5 260,-55.25 366,-55.25 366,-74.5"/>
<text xml:space="preserve" text-anchor="middle" x="313" y="-61" font-family="Helvetica,sans-Serif" font-size="10.00">2&#45;google_benchmark</text>
</a>
</g>
</g>
<!-- dir_5a380b290769fe5d3c5c99566e4dfa58&#45;&gt;dir_d44c64559bbebec7f509842c48db8b23 -->
<g id="edge2" class="edge">
<title>dir_5a380b290769fe5d3c5c99566e4dfa58&#45;&gt;dir_d44c64559bbebec7f509842c48db8b23</title>
<g id="a_edge2"><a xlink:href="dir_000001_000037.html" target="_top">
<path fill="none" stroke="#63b8ff" d="M322.67,-54.84C330.74,-47.3 342.47,-36.35 352.22,-27.23"/>
<polygon fill="#63b8ff" stroke="#63b8ff" points="354.45,-29.94 359.37,-20.56 349.67,-24.83 354.45,-29.94"/>
</a>
</g>
<g id="a_edge2&#45;headlabel"><a xlink:href="dir_000001_000037.html" target="_top" xlink:title="1">
<text xml:space="preserve" text-anchor="middle" x="354.87" y="-29.56" font-family="Helvetica,sans-Serif" font-size="10.00" fill="#63b8ff">1</text>
</a>
</g>
</g>
<!-- dir_ea688dee8950f902fed12c1b1f072f49 -->
<g id="node4" class="node">
<title>dir_ea688dee8950f902fed12c1b1f072f49</title>
<g id="a_node4"><a xlink:href="dir_ea688dee8950f902fed12c1b1f072f49.html" target="_top" xlink:title="3&#45;manual_timing">
<polygon fill="#a2b4d6" stroke="#404040" points="471.62,-74.5 384.38,-74.5 384.38,-55.25 471.62,-55.25 471.62,-74.5"/>
<text xml:space="preserve" text-anchor="middle" x="428" y="-61" font-family="Helvetica,sans-Serif" font-size="10.00">3&#45;manual_timing</text>
</a>
</g>
</g>
<!-- dir_ea688dee8950f902fed12c1b1f072f49&#45;&gt;dir_d44c64559bbebec7f509842c48db8b23 -->
<g id="edge3" class="edge">
<title>dir_ea688dee8950f902fed12c1b1f072f49&#45;&gt;dir_d44c64559bbebec7f509842c48db8b23</title>
<g id="a_edge3"><a xlink:href="dir_000002_000037.html" target="_top">
<path fill="none" stroke="#63b8ff" d="M418.16,-54.84C409.95,-47.3 398.02,-36.35 388.09,-27.23"/>
<polygon fill="#63b8ff" stroke="#63b8ff" points="390.54,-24.73 380.81,-20.55 385.81,-29.89 390.54,-24.73"/>
</a>
</g>
<g id="a_edge3&#45;headlabel"><a xlink:href="dir_000002_000037.html" target="_top" xlink:title="1">
<text xml:space="preserve" text-anchor="middle" x="394" y="-20.17" font-family="Helvetica,sans-Serif" font-size="10.00" fill="#63b8ff">1</text>
</a>
</g>
</g>
<!-- dir_14e75ca7720201dcafdfda602efa671a -->
<g id="node5" class="node">
<title>dir_14e75ca7720201dcafdfda602efa671a</title>
<g id="a_node5"><a xlink:href="dir_14e75ca7720201dcafdfda602efa671a.html" target="_top" xlink:title="Full AArch64 Assembly code of SAXPY_DONOTOPTIMIZE() with &#45;O3 optimization.">
<polygon fill="#a2b4d6" stroke="#404040" points="581.88,-74.5 490.12,-74.5 490.12,-55.25 581.88,-55.25 581.88,-74.5"/>
<text xml:space="preserve" text-anchor="middle" x="536" y="-61" font-family="Helvetica,sans-Serif" font-size="10.00">4&#45;DoNotOptimize</text>
</a>
</g>
</g>
<!-- dir_14e75ca7720201dcafdfda602efa671a&#45;&gt;dir_d44c64559bbebec7f509842c48db8b23 -->
<g id="edge4" class="edge">
<title>dir_14e75ca7720201dcafdfda602efa671a&#45;&gt;dir_d44c64559bbebec7f509842c48db8b23</title>
<g id="a_edge4"><a xlink:href="dir_000009_000037.html" target="_top">
<path fill="none" stroke="#63b8ff" d="M517.73,-54.76C507.17,-49.73 493.54,-43.64 481,-39.25 456,-30.5 427,-23.11 404.91,-18.03"/>
<polygon fill="#63b8ff" stroke="#63b8ff" points="405.73,-14.63 395.21,-15.86 404.2,-21.46 405.73,-14.63"/>
</a>
</g>
<g id="a_edge4&#45;headlabel"><a xlink:href="dir_000009_000037.html" target="_top" xlink:title="1">
<text xml:space="preserve" text-anchor="middle" x="408.38" y="-8.44" font-family="Helvetica,sans-Serif" font-size="10.00" fill="#63b8ff">1</text>
</a>
</g>
</g>
<!-- dir_27e42f4dc66f536cfee6133bbee8e3b5 -->
<g id="node6" class="node">
<title>dir_27e42f4dc66f536cfee6133bbee8e3b5</title>
<g id="a_node6"><a xlink:href="dir_27e42f4dc66f536cfee6133bbee8e3b5.html" target="_top" xlink:title="5&#45;nvbench">
<polygon fill="#a2b4d6" stroke="#404040" points="660.5,-74.5 599.5,-74.5 599.5,-55.25 660.5,-55.25 660.5,-74.5"/>
<text xml:space="preserve" text-anchor="middle" x="630" y="-61" font-family="Helvetica,sans-Serif" font-size="10.00">5&#45;nvbench</text>
</a>
</g>
</g>
</g>
</svg>

<g id="navigator" transform="translate(0 0)" fill="#404254">
  <rect fill="#f2f5e9" fill-opacity="0.5" stroke="#606060" stroke-width=".5" x="0" y="0" width="60" height="60"/>
  <use id="zoomplus" xlink:href="#zoomPlus" x="17" y="9" onmousedown="handleZoom(evt,'in')"/>
  <use id="zoomminus" xlink:href="#zoomMin" x="42" y="9" onmousedown="handleZoom(evt,'out')"/>
  <use id="reset" xlink:href="#resetDef" x="30" y="36" onmousedown="handleReset()"/>
   <use id="arrowup" xlink:href="#arrowUp" x="0" y="0" onmousedown="handlePan(0,-1)"/>
  <use id="arrowright" xlink:href="#arrowRight" x="0" y="0" onmousedown="handlePan(1,0)"/>
  <use id="arrowdown" xlink:href="#arrowDown" x="0" y="0" onmousedown="handlePan(0,1)"/>
  <use id="arrowleft" xlink:href="#arrowLeft" x="0" y="0" onmousedown="handlePan(-1,0)"/>
</g>
<svg viewBox="0 0 15 15" width="100%" height="30px" preserveAspectRatio="xMaxYMin meet">
 <g id="arrow_out" transform="scale(0.3 0.3)">
  <a xlink:href="dir_cd43f9252faa2edaded5e402af091fd1_dep_org.svg" target="_base">
   <rect id="button" ry="5" rx="5" y="6" x="6" height="38" width="38"
        fill="#f2f5e9" fill-opacity="0.5" stroke="#606060" stroke-width="1.0"/>
   <path id="arrow"
     d="M 11.500037,31.436501 C 11.940474,20.09759 22.043105,11.32322 32.158766,21.979434 L 37.068811,17.246167 C 37.068811,17.246167 37.088388,32 37.088388,32 L 22.160133,31.978069 C 22.160133,31.978069 26.997745,27.140456 26.997745,27.140456 C 18.528582,18.264221 13.291696,25.230495 11.500037,31.436501 z"
     style="fill:#404040;"/>
  </a>
 </g>
</svg>

<style type='text/css'>
<![CDATA[
[data-mouse-over-selected='false'] { opacity: 0.7; }
[data-mouse-over-selected='true']  { opacity: 1.0; }
]]>
</style>
<script type="application/ecmascript"><![CDATA[
document.addEventListener('DOMContentLoaded', (event) => {
  highlightEdges();
  highlightAdjacentNodes();
});
]]></script>
</svg>
