<?xml version="1.0" encoding="UTF-8" standalone="no"?>
<!DOCTYPE svg PUBLIC "-//W3C//DTD SVG 1.1//EN"
 "http://www.w3.org/Graphics/SVG/1.1/DTD/svg11.dtd">
<!-- Generated by graphviz version 13.1.2 (20250808.2320)
 -->
<!-- Title: include/comppare/plugin/google_benchmark/google_benchmark.hpp Pages: 1 -->
<svg width="1112pt" height="216pt"
 viewBox="0.00 0.00 1112.00 216.00" xmlns="http://www.w3.org/2000/svg" xmlns:xlink="http://www.w3.org/1999/xlink">
<g id="graph0" class="graph" transform="scale(1 1) rotate(0) translate(4 211.5)">
<title>include/comppare/plugin/google_benchmark/google_benchmark.hpp</title>
<!-- Node1 -->
<g id="Node000001" class="node">
<title>Node1</title>
<g id="a_Node000001"><a xlink:title="This file contains the Google Benchmark plugin for the ComPPare framework.">
<polygon fill="#999999" stroke="#666666" points="735.75,-207.5 603.5,-207.5 603.5,-165.75 735.75,-165.75 735.75,-207.5"/>
<text xml:space="preserve" text-anchor="start" x="611.5" y="-194" font-family="Helvetica,sans-Serif" font-size="10.00">include/comppare/plugin</text>
<text xml:space="preserve" text-anchor="start" x="611.5" y="-182.75" font-family="Helvetica,sans-Serif" font-size="10.00">/google_benchmark/google</text>
<text xml:space="preserve" text-anchor="middle" x="669.62" y="-171.5" font-family="Helvetica,sans-Serif" font-size="10.00">_benchmark.hpp</text>
</a>
</g>
</g>
<!-- Node2 -->
<g id="Node000002" class="node">
<title>Node2</title>
<g id="a_Node000002"><a xlink:title=" ">
<polygon fill="#e0e0e0" stroke="#999999" points="344.25,-74.5 305,-74.5 305,-55.25 344.25,-55.25 344.25,-74.5"/>
<text xml:space="preserve" text-anchor="middle" x="324.62" y="-61" font-family="Helvetica,sans-Serif" font-size="10.00">utility</text>
</a>
</g>
</g>
<!-- Node1&#45;&gt;Node2 -->
<g id="edge1_Node000001_Node000002" class="edge">
<title>Node1&#45;&gt;Node2</title>
<g id="a_edge1_Node000001_Node000002"><a xlink:title=" ">
<path fill="none" stroke="#63b8ff" d="M603.12,-176.31C553.46,-167.93 484.63,-153.25 427.62,-129.75 397.17,-117.2 365.45,-96.11 345.39,-81.62"/>
<polygon fill="#63b8ff" stroke="#63b8ff" points="347.64,-78.93 337.51,-75.81 343.48,-84.56 347.64,-78.93"/>
</a>
</g>
</g>
<!-- Node3 -->
<g id="Node000003" class="node">
<title>Node3</title>
<g id="a_Node000003"><a xlink:title=" ">
<polygon fill="#e0e0e0" stroke="#999999" points="754.12,-129.75 717.12,-129.75 717.12,-110.5 754.12,-110.5 754.12,-129.75"/>
<text xml:space="preserve" text-anchor="middle" x="735.62" y="-116.25" font-family="Helvetica,sans-Serif" font-size="10.00">tuple</text>
</a>
</g>
</g>
<!-- Node1&#45;&gt;Node3 -->
<g id="edge2_Node000001_Node000003" class="edge">
<title>Node1&#45;&gt;Node3</title>
<g id="a_edge2_Node000001_Node000003"><a xlink:title=" ">
<path fill="none" stroke="#63b8ff" d="M690.15,-165.57C699.13,-156.79 709.57,-146.59 718.17,-138.18"/>
<polygon fill="#63b8ff" stroke="#63b8ff" points="720.56,-140.75 725.26,-131.25 715.66,-135.74 720.56,-140.75"/>
</a>
</g>
</g>
<!-- Node4 -->
<g id="Node000004" class="node">
<title>Node4</title>
<g id="a_Node000004"><a xlink:title=" ">
<polygon fill="#e0e0e0" stroke="#999999" points="51.25,-19.25 0,-19.25 0,0 51.25,0 51.25,-19.25"/>
<text xml:space="preserve" text-anchor="middle" x="25.62" y="-5.75" font-family="Helvetica,sans-Serif" font-size="10.00">ostream</text>
</a>
</g>
</g>
<!-- Node1&#45;&gt;Node4 -->
<g id="edge3_Node000001_Node000004" class="edge">
<title>Node1&#45;&gt;Node4</title>
<g id="a_edge3_Node000001_Node000004"><a xlink:title=" ">
<path fill="none" stroke="#63b8ff" d="M603.07,-181.75C511.71,-175.51 342.7,-160.66 201.62,-129.75 123.61,-112.66 80.11,-137.19 30.62,-74.5 21.02,-62.33 20.39,-44.49 21.81,-30.75"/>
<polygon fill="#63b8ff" stroke="#63b8ff" points="25.24,-31.47 23.27,-21.06 18.32,-30.43 25.24,-31.47"/>
</a>
</g>
</g>
<!-- Node5 -->
<g id="Node000005" class="node">
<title>Node5</title>
<g id="a_Node000005"><a xlink:title=" ">
<polygon fill="#e0e0e0" stroke="#999999" points="694.5,-74.5 644.75,-74.5 644.75,-55.25 694.5,-55.25 694.5,-74.5"/>
<text xml:space="preserve" text-anchor="middle" x="669.62" y="-61" font-family="Helvetica,sans-Serif" font-size="10.00">iomanip</text>
</a>
</g>
</g>
<!-- Node1&#45;&gt;Node5 -->
<g id="edge4_Node000001_Node000005" class="edge">
<title>Node1&#45;&gt;Node5</title>
<g id="a_edge4_Node000001_Node000005"><a xlink:title=" ">
<path fill="none" stroke="#63b8ff" d="M669.62,-165.31C669.62,-143.22 669.62,-108.13 669.62,-86.08"/>
<polygon fill="#63b8ff" stroke="#63b8ff" points="673.13,-86.32 669.63,-76.32 666.13,-86.32 673.13,-86.32"/>
</a>
</g>
</g>
<!-- Node6 -->
<g id="Node000006" class="node">
<title>Node6</title>
<g id="a_Node000006"><a xlink:title=" ">
<polygon fill="#e0e0e0" stroke="#999999" points="825.38,-129.75 771.88,-129.75 771.88,-110.5 825.38,-110.5 825.38,-129.75"/>
<text xml:space="preserve" text-anchor="middle" x="798.62" y="-116.25" font-family="Helvetica,sans-Serif" font-size="10.00">iostream</text>
</a>
</g>
</g>
<!-- Node1&#45;&gt;Node6 -->
<g id="edge5_Node000001_Node000006" class="edge">
<title>Node1&#45;&gt;Node6</title>
<g id="a_edge5_Node000001_Node000006"><a xlink:title=" ">
<path fill="none" stroke="#63b8ff" d="M710.09,-165.39C729.67,-155.6 752.7,-144.09 770.36,-135.26"/>
<polygon fill="#63b8ff" stroke="#63b8ff" points="771.85,-138.42 779.23,-130.82 768.72,-132.16 771.85,-138.42"/>
</a>
</g>
</g>
<!-- Node7 -->
<g id="Node000007" class="node">
<title>Node7</title>
<g id="a_Node000007"><a xlink:title=" ">
<polygon fill="#e0e0e0" stroke="#999999" points="413.25,-74.5 362,-74.5 362,-55.25 413.25,-55.25 413.25,-74.5"/>
<text xml:space="preserve" text-anchor="middle" x="387.62" y="-61" font-family="Helvetica,sans-Serif" font-size="10.00">sstream</text>
</a>
</g>
</g>
<!-- Node1&#45;&gt;Node7 -->
<g id="edge6_Node000001_Node000007" class="edge">
<title>Node1&#45;&gt;Node7</title>
<g id="a_edge6_Node000001_Node000007"><a xlink:title=" ">
<path fill="none" stroke="#63b8ff" d="M603.15,-176.79C559.48,-168.96 502.21,-154.75 456.62,-129.75 435.02,-117.9 414.91,-97.82 402.04,-83.33"/>
<polygon fill="#63b8ff" stroke="#63b8ff" points="404.83,-81.22 395.67,-75.91 399.52,-85.78 404.83,-81.22"/>
</a>
</g>
</g>
<!-- Node8 -->
<g id="Node000008" class="node">
<title>Node8</title>
<g id="a_Node000008"><a xlink:title=" ">
<polygon fill="#e0e0e0" stroke="#999999" points="414.62,-19.25 374.62,-19.25 374.62,0 414.62,0 414.62,-19.25"/>
<text xml:space="preserve" text-anchor="middle" x="394.62" y="-5.75" font-family="Helvetica,sans-Serif" font-size="10.00">string</text>
</a>
</g>
</g>
<!-- Node1&#45;&gt;Node8 -->
<g id="edge7_Node000001_Node000008" class="edge">
<title>Node1&#45;&gt;Node8</title>
<g id="a_edge7_Node000001_Node000008"><a xlink:title=" ">
<path fill="none" stroke="#63b8ff" d="M679.06,-165.4C693.46,-133.07 717.87,-71.7 703.62,-55.25 667.99,-14.1 498.02,-10.05 426.48,-10.22"/>
<polygon fill="#63b8ff" stroke="#63b8ff" points="426.59,-6.72 416.61,-10.27 426.63,-13.72 426.59,-6.72"/>
</a>
</g>
</g>
<!-- Node9 -->
<g id="Node000009" class="node">
<title>Node9</title>
<g id="a_Node000009"><a xlink:title=" ">
<polygon fill="#e0e0e0" stroke="#999999" points="899.5,-129.75 843.75,-129.75 843.75,-110.5 899.5,-110.5 899.5,-129.75"/>
<text xml:space="preserve" text-anchor="middle" x="871.62" y="-116.25" font-family="Helvetica,sans-Serif" font-size="10.00">algorithm</text>
</a>
</g>
</g>
<!-- Node1&#45;&gt;Node9 -->
<g id="edge8_Node000001_Node000009" class="edge">
<title>Node1&#45;&gt;Node9</title>
<g id="a_edge8_Node000001_Node000009"><a xlink:title=" ">
<path fill="none" stroke="#63b8ff" d="M733.26,-165.31C765.93,-154.87 804.67,-142.5 832.84,-133.51"/>
<polygon fill="#63b8ff" stroke="#63b8ff" points="833.55,-136.96 842.02,-130.58 831.43,-130.29 833.55,-136.96"/>
</a>
</g>
</g>
<!-- Node10 -->
<g id="Node000010" class="node">
<title>Node10</title>
<g id="a_Node000010"><a xlink:title=" ">
<polygon fill="#e0e0e0" stroke="#999999" points="963.25,-129.75 918,-129.75 918,-110.5 963.25,-110.5 963.25,-129.75"/>
<text xml:space="preserve" text-anchor="middle" x="940.62" y="-116.25" font-family="Helvetica,sans-Serif" font-size="10.00">cstring</text>
</a>
</g>
</g>
<!-- Node1&#45;&gt;Node10 -->
<g id="edge9_Node000001_Node000010" class="edge">
<title>Node1&#45;&gt;Node10</title>
<g id="a_edge9_Node000001_Node000010"><a xlink:title=" ">
<path fill="none" stroke="#63b8ff" d="M736.22,-170.69C781.62,-160.36 843.37,-146.03 906.59,-130.2"/>
<polygon fill="#63b8ff" stroke="#63b8ff" points="907.26,-133.64 916.11,-127.81 905.56,-126.85 907.26,-133.64"/>
</a>
</g>
</g>
<!-- Node11 -->
<g id="Node000011" class="node">
<title>Node11</title>
<g id="a_Node000011"><a xlink:title=" ">
<polygon fill="#e0e0e0" stroke="#999999" points="1104.25,-129.75 981,-129.75 981,-110.5 1104.25,-110.5 1104.25,-129.75"/>
<text xml:space="preserve" text-anchor="middle" x="1042.62" y="-116.25" font-family="Helvetica,sans-Serif" font-size="10.00">benchmark/benchmark.h</text>
</a>
</g>
</g>
<!-- Node1&#45;&gt;Node11 -->
<g id="edge10_Node000001_Node000011" class="edge">
<title>Node1&#45;&gt;Node11</title>
<g id="a_edge10_Node000001_Node000011"><a xlink:title=" ">
<path fill="none" stroke="#63b8ff" d="M735.88,-174.17C804.59,-162.29 911.27,-143.84 979,-132.13"/>
<polygon fill="#63b8ff" stroke="#63b8ff" points="979.18,-135.65 988.44,-130.49 977.99,-128.75 979.18,-135.65"/>
</a>
</g>
</g>
<!-- Node12 -->
<g id="Node000012" class="node">
<title>Node12</title>
<g id="a_Node000012"><a xlink:href="plugin_8hpp.html" target="_top" xlink:title="This file contains the base Plugin class and concept of a valid Plugin class for the ComPPare framewo...">
<polygon fill="white" stroke="#666666" points="599.88,-129.75 465.38,-129.75 465.38,-110.5 599.88,-110.5 599.88,-129.75"/>
<text xml:space="preserve" text-anchor="middle" x="532.62" y="-116.25" font-family="Helvetica,sans-Serif" font-size="10.00">comppare/plugin/plugin.hpp</text>
</a>
</g>
</g>
<!-- Node1&#45;&gt;Node12 -->
<g id="edge11_Node000001_Node000012" class="edge">
<title>Node1&#45;&gt;Node12</title>
<g id="a_edge11_Node000001_Node000012"><a xlink:title=" ">
<path fill="none" stroke="#63b8ff" d="M626.65,-165.39C605.66,-155.51 580.94,-143.87 562.11,-135.01"/>
<polygon fill="#63b8ff" stroke="#63b8ff" points="563.69,-131.88 553.15,-130.79 560.71,-138.22 563.69,-131.88"/>
</a>
</g>
</g>
<!-- Node16 -->
<g id="Node000016" class="node">
<title>Node16</title>
<g id="a_Node000016"><a xlink:href="ansi_8hpp.html" target="_top" xlink:title="This file contains utilities for applying ANSI styles and colors to console output.">
<polygon fill="white" stroke="#666666" points="343.12,-129.75 210.12,-129.75 210.12,-110.5 343.12,-110.5 343.12,-129.75"/>
<text xml:space="preserve" text-anchor="middle" x="276.62" y="-116.25" font-family="Helvetica,sans-Serif" font-size="10.00">comppare/internal/ansi.hpp</text>
</a>
</g>
</g>
<!-- Node1&#45;&gt;Node16 -->
<g id="edge19_Node000001_Node000016" class="edge">
<title>Node1&#45;&gt;Node16</title>
<g id="a_edge19_Node000001_Node000016"><a xlink:title=" ">
<path fill="none" stroke="#63b8ff" d="M603.4,-174.76C531.04,-162.88 415.77,-143.96 343.25,-132.06"/>
<polygon fill="#63b8ff" stroke="#63b8ff" points="343.92,-128.62 333.48,-130.46 342.78,-135.53 343.92,-128.62"/>
</a>
</g>
</g>
<!-- Node12&#45;&gt;Node2 -->
<g id="edge13_Node000012_Node000002" class="edge">
<title>Node12&#45;&gt;Node2</title>
<g id="a_edge13_Node000012_Node000002"><a xlink:title=" ">
<path fill="none" stroke="#63b8ff" d="M493.13,-110C458.91,-101.95 407.83,-89.58 355.33,-75.15"/>
<polygon fill="#63b8ff" stroke="#63b8ff" points="356.5,-71.84 345.93,-72.54 354.63,-78.59 356.5,-71.84"/>
</a>
</g>
</g>
<!-- Node12&#45;&gt;Node5 -->
<g id="edge14_Node000012_Node000005" class="edge">
<title>Node12&#45;&gt;Node5</title>
<g id="a_edge14_Node000012_Node000005"><a xlink:title=" ">
<path fill="none" stroke="#63b8ff" d="M555.87,-110.09C577.81,-101.56 610.97,-88.67 635.84,-79.01"/>
<polygon fill="#63b8ff" stroke="#63b8ff" points="636.81,-82.39 644.86,-75.5 634.27,-75.86 636.81,-82.39"/>
</a>
</g>
</g>
<!-- Node12&#45;&gt;Node7 -->
<g id="edge16_Node000012_Node000007" class="edge">
<title>Node12&#45;&gt;Node7</title>
<g id="a_edge16_Node000012_Node000007"><a xlink:title=" ">
<path fill="none" stroke="#63b8ff" d="M508.03,-110.09C484.7,-101.52 449.39,-88.56 423.03,-78.88"/>
<polygon fill="#63b8ff" stroke="#63b8ff" points="424.36,-75.64 413.76,-75.47 421.94,-82.21 424.36,-75.64"/>
</a>
</g>
</g>
<!-- Node12&#45;&gt;Node8 -->
<g id="edge17_Node000012_Node000008" class="edge">
<title>Node12&#45;&gt;Node8</title>
<g id="a_edge17_Node000012_Node000008"><a xlink:title=" ">
<path fill="none" stroke="#63b8ff" d="M522.33,-110.24C507.71,-97.71 480.01,-74.26 455.62,-55.25 442.85,-45.29 428.21,-34.56 416.48,-26.12"/>
<polygon fill="#63b8ff" stroke="#63b8ff" points="418.81,-23.49 408.64,-20.51 414.74,-29.18 418.81,-23.49"/>
</a>
</g>
</g>
<!-- Node13 -->
<g id="Node000013" class="node">
<title>Node13</title>
<g id="a_Node000013"><a xlink:title=" ">
<polygon fill="#e0e0e0" stroke="#999999" points="269.5,-19.25 213.75,-19.25 213.75,0 269.5,0 269.5,-19.25"/>
<text xml:space="preserve" text-anchor="middle" x="241.62" y="-5.75" font-family="Helvetica,sans-Serif" font-size="10.00">concepts</text>
</a>
</g>
</g>
<!-- Node12&#45;&gt;Node13 -->
<g id="edge12_Node000012_Node000013" class="edge">
<title>Node12&#45;&gt;Node13</title>
<g id="a_edge12_Node000012_Node000013"><a xlink:title=" ">
<path fill="none" stroke="#63b8ff" d="M516.99,-110.08C501.42,-101.07 476.86,-86.85 455.62,-74.5 440.95,-65.97 438.36,-61.63 422.62,-55.25 375.46,-36.14 317.95,-23.67 280.6,-16.89"/>
<polygon fill="#63b8ff" stroke="#63b8ff" points="281.63,-13.52 271.18,-15.24 280.42,-20.42 281.63,-13.52"/>
</a>
</g>
</g>
<!-- Node14 -->
<g id="Node000014" class="node">
<title>Node14</title>
<g id="a_Node000014"><a xlink:title=" ">
<polygon fill="#e0e0e0" stroke="#999999" points="566,-74.5 507.25,-74.5 507.25,-55.25 566,-55.25 566,-74.5"/>
<text xml:space="preserve" text-anchor="middle" x="536.62" y="-61" font-family="Helvetica,sans-Serif" font-size="10.00">stdexcept</text>
</a>
</g>
</g>
<!-- Node12&#45;&gt;Node14 -->
<g id="edge15_Node000012_Node000014" class="edge">
<title>Node12&#45;&gt;Node14</title>
<g id="a_edge15_Node000012_Node000014"><a xlink:title=" ">
<path fill="none" stroke="#63b8ff" d="M533.29,-110.33C533.78,-103.74 534.48,-94.46 535.11,-86.07"/>
<polygon fill="#63b8ff" stroke="#63b8ff" points="538.58,-86.6 535.84,-76.37 531.6,-86.08 538.58,-86.6"/>
</a>
</g>
</g>
<!-- Node15 -->
<g id="Node000015" class="node">
<title>Node15</title>
<g id="a_Node000015"><a xlink:title=" ">
<polygon fill="#e0e0e0" stroke="#999999" points="627.12,-74.5 584.12,-74.5 584.12,-55.25 627.12,-55.25 627.12,-74.5"/>
<text xml:space="preserve" text-anchor="middle" x="605.62" y="-61" font-family="Helvetica,sans-Serif" font-size="10.00">vector</text>
</a>
</g>
</g>
<!-- Node12&#45;&gt;Node15 -->
<g id="edge18_Node000012_Node000015" class="edge">
<title>Node12&#45;&gt;Node15</title>
<g id="a_edge18_Node000012_Node000015"><a xlink:title=" ">
<path fill="none" stroke="#63b8ff" d="M545.01,-110.09C555.77,-102.24 571.6,-90.7 584.38,-81.37"/>
<polygon fill="#63b8ff" stroke="#63b8ff" points="586.19,-84.39 592.2,-75.67 582.06,-78.73 586.19,-84.39"/>
</a>
</g>
</g>
<!-- Node16&#45;&gt;Node2 -->
<g id="edge24_Node000016_Node000002" class="edge">
<title>Node16&#45;&gt;Node2</title>
<g id="a_edge24_Node000016_Node000002"><a xlink:title=" ">
<path fill="none" stroke="#63b8ff" d="M284.55,-110.33C291.18,-102.98 300.84,-92.26 309.01,-83.19"/>
<polygon fill="#63b8ff" stroke="#63b8ff" points="311.42,-85.75 315.51,-75.98 306.22,-81.07 311.42,-85.75"/>
</a>
</g>
</g>
<!-- Node16&#45;&gt;Node4 -->
<g id="edge20_Node000016_Node000004" class="edge">
<title>Node16&#45;&gt;Node4</title>
<g id="a_edge20_Node000016_Node000004"><a xlink:title=" ">
<path fill="none" stroke="#63b8ff" d="M209.73,-113.48C151.03,-107.23 71.43,-95.2 47.62,-74.5 35.03,-63.55 29.64,-45.03 27.34,-30.75"/>
<polygon fill="#63b8ff" stroke="#63b8ff" points="30.84,-30.6 26.18,-21.08 23.89,-31.43 30.84,-30.6"/>
</a>
</g>
</g>
<!-- Node16&#45;&gt;Node7 -->
<g id="edge21_Node000016_Node000007" class="edge">
<title>Node16&#45;&gt;Node7</title>
<g id="a_edge21_Node000016_Node000007"><a xlink:title=" ">
<path fill="none" stroke="#63b8ff" d="M295.45,-110.09C312.68,-101.83 338.43,-89.48 358.33,-79.93"/>
<polygon fill="#63b8ff" stroke="#63b8ff" points="359.84,-83.09 367.34,-75.61 356.81,-76.78 359.84,-83.09"/>
</a>
</g>
</g>
<!-- Node16&#45;&gt;Node8 -->
<g id="edge22_Node000016_Node000008" class="edge">
<title>Node16&#45;&gt;Node8</title>
<g id="a_edge22_Node000016_Node000008"><a xlink:title=" ">
<path fill="none" stroke="#63b8ff" d="M277,-110.17C278.01,-96.7 281.77,-71.11 295.62,-55.25 313.08,-35.27 341.26,-23.78 363.1,-17.47"/>
<polygon fill="#63b8ff" stroke="#63b8ff" points="363.92,-20.87 372.69,-14.94 362.13,-14.11 363.92,-20.87"/>
</a>
</g>
</g>
<!-- Node16&#45;&gt;Node13 -->
<g id="edge23_Node000016_Node000013" class="edge">
<title>Node16&#45;&gt;Node13</title>
<g id="a_edge23_Node000016_Node000013"><a xlink:title=" ">
<path fill="none" stroke="#63b8ff" d="M273.76,-110.25C268.17,-92.92 255.69,-54.23 248.03,-30.49"/>
<polygon fill="#63b8ff" stroke="#63b8ff" points="251.39,-29.51 244.99,-21.07 244.73,-31.66 251.39,-29.51"/>
</a>
</g>
</g>
<!-- Node17 -->
<g id="Node000017" class="node">
<title>Node17</title>
<g id="a_Node000017"><a xlink:href="concepts_8hpp.html" target="_top" xlink:title="This file contains commonly used concepts internally within the ComPPare library.">
<polygon fill="white" stroke="#666666" points="211,-74.5 56.25,-74.5 56.25,-55.25 211,-55.25 211,-74.5"/>
<text xml:space="preserve" text-anchor="middle" x="133.62" y="-61" font-family="Helvetica,sans-Serif" font-size="10.00">comppare/internal/concepts.hpp</text>
</a>
</g>
</g>
<!-- Node16&#45;&gt;Node17 -->
<g id="edge25_Node000016_Node000017" class="edge">
<title>Node16&#45;&gt;Node17</title>
<g id="a_edge25_Node000016_Node000017"><a xlink:title=" ">
<path fill="none" stroke="#63b8ff" d="M252.37,-110.09C229.36,-101.52 194.53,-88.56 168.54,-78.88"/>
<polygon fill="#63b8ff" stroke="#63b8ff" points="170.01,-75.69 159.42,-75.48 167.57,-82.25 170.01,-75.69"/>
</a>
</g>
</g>
<!-- Node17&#45;&gt;Node4 -->
<g id="edge30_Node000017_Node000004" class="edge">
<title>Node17&#45;&gt;Node4</title>
<g id="a_edge30_Node000017_Node000004"><a xlink:title=" ">
<path fill="none" stroke="#63b8ff" d="M115.3,-54.84C98.55,-46.58 73.49,-34.23 54.12,-24.68"/>
<polygon fill="#63b8ff" stroke="#63b8ff" points="55.91,-21.65 45.39,-20.37 52.81,-27.93 55.91,-21.65"/>
</a>
</g>
</g>
<!-- Node17&#45;&gt;Node8 -->
<g id="edge29_Node000017_Node000008" class="edge">
<title>Node17&#45;&gt;Node8</title>
<g id="a_edge29_Node000017_Node000008"><a xlink:title=" ">
<path fill="none" stroke="#63b8ff" d="M178.2,-54.78C230.83,-44.04 317.04,-26.45 363.17,-17.04"/>
<polygon fill="#63b8ff" stroke="#63b8ff" points="363.68,-20.51 372.78,-15.08 362.28,-13.65 363.68,-20.51"/>
</a>
</g>
</g>
<!-- Node17&#45;&gt;Node13 -->
<g id="edge26_Node000017_Node000013" class="edge">
<title>Node17&#45;&gt;Node13</title>
<g id="a_edge26_Node000017_Node000013"><a xlink:title=" ">
<path fill="none" stroke="#63b8ff" d="M151.95,-54.84C168.7,-46.58 193.76,-34.23 213.13,-24.68"/>
<polygon fill="#63b8ff" stroke="#63b8ff" points="214.44,-27.93 221.86,-20.37 211.34,-21.65 214.44,-27.93"/>
</a>
</g>
</g>
<!-- Node18 -->
<g id="Node000018" class="node">
<title>Node18</title>
<g id="a_Node000018"><a xlink:title=" ">
<polygon fill="#e0e0e0" stroke="#999999" points="131.5,-19.25 69.75,-19.25 69.75,0 131.5,0 131.5,-19.25"/>
<text xml:space="preserve" text-anchor="middle" x="100.62" y="-5.75" font-family="Helvetica,sans-Serif" font-size="10.00">type_traits</text>
</a>
</g>
</g>
<!-- Node17&#45;&gt;Node18 -->
<g id="edge27_Node000017_Node000018" class="edge">
<title>Node17&#45;&gt;Node18</title>
<g id="a_edge27_Node000017_Node000018"><a xlink:title=" ">
<path fill="none" stroke="#63b8ff" d="M128.18,-55.08C123.85,-48.11 117.66,-38.12 112.24,-29.37"/>
<polygon fill="#63b8ff" stroke="#63b8ff" points="115.23,-27.55 106.99,-20.9 109.28,-31.24 115.23,-27.55"/>
</a>
</g>
</g>
<!-- Node19 -->
<g id="Node000019" class="node">
<title>Node19</title>
<g id="a_Node000019"><a xlink:title=" ">
<polygon fill="#e0e0e0" stroke="#999999" points="195.25,-19.25 150,-19.25 150,0 195.25,0 195.25,-19.25"/>
<text xml:space="preserve" text-anchor="middle" x="172.62" y="-5.75" font-family="Helvetica,sans-Serif" font-size="10.00">ranges</text>
</a>
</g>
</g>
<!-- Node17&#45;&gt;Node19 -->
<g id="edge28_Node000017_Node000019" class="edge">
<title>Node17&#45;&gt;Node19</title>
<g id="a_edge28_Node000017_Node000019"><a xlink:title=" ">
<path fill="none" stroke="#63b8ff" d="M140.07,-55.08C145.28,-47.96 152.81,-37.68 159.32,-28.8"/>
<polygon fill="#63b8ff" stroke="#63b8ff" points="162.07,-30.97 165.15,-20.83 156.42,-26.83 162.07,-30.97"/>
</a>
</g>
</g>
</g>
</svg>
