<?xml version="1.0" encoding="UTF-8" standalone="no"?>
<!DOCTYPE svg PUBLIC "-//W3C//DTD SVG 1.1//EN"
 "http://www.w3.org/Graphics/SVG/1.1/DTD/svg11.dtd">
<!-- Generated by graphviz version 13.1.2 (20250808.2320)
 -->
<!-- Title: include/comppare/internal/helper.hpp Pages: 1 -->
<svg width="459pt" height="149pt"
 viewBox="0.00 0.00 459.00 149.00" xmlns="http://www.w3.org/2000/svg" xmlns:xlink="http://www.w3.org/1999/xlink">
<g id="graph0" class="graph" transform="scale(1 1) rotate(0) translate(4 145)">
<title>include/comppare/internal/helper.hpp</title>
<!-- Node1 -->
<g id="Node000001" class="node">
<title>Node1</title>
<g id="a_Node000001"><a xlink:title=" ">
<polygon fill="#999999" stroke="#666666" points="233.38,-141 106.38,-141 106.38,-110.5 233.38,-110.5 233.38,-141"/>
<text xml:space="preserve" text-anchor="start" x="114.38" y="-127.5" font-family="Helvetica,sans-Serif" font-size="10.00">include/comppare/internal</text>
<text xml:space="preserve" text-anchor="middle" x="169.88" y="-116.25" font-family="Helvetica,sans-Serif" font-size="10.00">/helper.hpp</text>
</a>
</g>
</g>
<!-- Node2 -->
<g id="Node000002" class="node">
<title>Node2</title>
<g id="a_Node000002"><a xlink:title=" ">
<polygon fill="#e0e0e0" stroke="#999999" points="55.75,-74.5 0,-74.5 0,-55.25 55.75,-55.25 55.75,-74.5"/>
<text xml:space="preserve" text-anchor="middle" x="27.88" y="-61" font-family="Helvetica,sans-Serif" font-size="10.00">charconv</text>
</a>
</g>
</g>
<!-- Node1&#45;&gt;Node2 -->
<g id="edge1_Node000001_Node000002" class="edge">
<title>Node1&#45;&gt;Node2</title>
<g id="a_edge1_Node000001_Node000002"><a xlink:title=" ">
<path fill="none" stroke="#63b8ff" d="M134.41,-110.05C111.64,-100.6 82.3,-88.44 60.18,-79.27"/>
<polygon fill="#63b8ff" stroke="#63b8ff" points="61.63,-76.08 51.05,-75.48 58.95,-82.55 61.63,-76.08"/>
</a>
</g>
</g>
<!-- Node3 -->
<g id="Node000003" class="node">
<title>Node3</title>
<g id="a_Node000003"><a xlink:title=" ">
<polygon fill="#e0e0e0" stroke="#999999" points="113.88,-74.5 73.88,-74.5 73.88,-55.25 113.88,-55.25 113.88,-74.5"/>
<text xml:space="preserve" text-anchor="middle" x="93.88" y="-61" font-family="Helvetica,sans-Serif" font-size="10.00">string</text>
</a>
</g>
</g>
<!-- Node1&#45;&gt;Node3 -->
<g id="edge2_Node000001_Node000003" class="edge">
<title>Node1&#45;&gt;Node3</title>
<g id="a_edge2_Node000001_Node000003"><a xlink:title=" ">
<path fill="none" stroke="#63b8ff" d="M151.09,-110.2C139.96,-101.58 125.85,-90.65 114.43,-81.8"/>
<polygon fill="#63b8ff" stroke="#63b8ff" points="116.84,-79.24 106.79,-75.88 112.55,-84.77 116.84,-79.24"/>
</a>
</g>
</g>
<!-- Node4 -->
<g id="Node000004" class="node">
<title>Node4</title>
<g id="a_Node000004"><a xlink:title=" ">
<polygon fill="#e0e0e0" stroke="#999999" points="257.62,-19.25 192.12,-19.25 192.12,0 257.62,0 257.62,-19.25"/>
<text xml:space="preserve" text-anchor="middle" x="224.88" y="-5.75" font-family="Helvetica,sans-Serif" font-size="10.00">string_view</text>
</a>
</g>
</g>
<!-- Node1&#45;&gt;Node4 -->
<g id="edge3_Node000001_Node000004" class="edge">
<title>Node1&#45;&gt;Node4</title>
<g id="a_edge3_Node000001_Node000004"><a xlink:title=" ">
<path fill="none" stroke="#63b8ff" d="M163.23,-110.04C157.64,-95.34 151.87,-72.51 160.88,-55.25 167.68,-42.21 180.23,-32.2 192.42,-25"/>
<polygon fill="#63b8ff" stroke="#63b8ff" points="193.97,-28.15 201.12,-20.33 190.65,-21.98 193.97,-28.15"/>
</a>
</g>
</g>
<!-- Node5 -->
<g id="Node000005" class="node">
<title>Node5</title>
<g id="a_Node000005"><a xlink:title=" ">
<polygon fill="#e0e0e0" stroke="#999999" points="228.25,-74.5 169.5,-74.5 169.5,-55.25 228.25,-55.25 228.25,-74.5"/>
<text xml:space="preserve" text-anchor="middle" x="198.88" y="-61" font-family="Helvetica,sans-Serif" font-size="10.00">stdexcept</text>
</a>
</g>
</g>
<!-- Node1&#45;&gt;Node5 -->
<g id="edge4_Node000001_Node000005" class="edge">
<title>Node1&#45;&gt;Node5</title>
<g id="a_edge4_Node000001_Node000005"><a xlink:title=" ">
<path fill="none" stroke="#63b8ff" d="M177.04,-110.2C180.78,-102.61 185.4,-93.24 189.42,-85.07"/>
<polygon fill="#63b8ff" stroke="#63b8ff" points="192.46,-86.83 193.74,-76.31 186.18,-83.73 192.46,-86.83"/>
</a>
</g>
</g>
<!-- Node6 -->
<g id="Node000006" class="node">
<title>Node6</title>
<g id="a_Node000006"><a xlink:title=" ">
<polygon fill="#e0e0e0" stroke="#999999" points="291.5,-74.5 246.25,-74.5 246.25,-55.25 291.5,-55.25 291.5,-74.5"/>
<text xml:space="preserve" text-anchor="middle" x="268.88" y="-61" font-family="Helvetica,sans-Serif" font-size="10.00">cstdint</text>
</a>
</g>
</g>
<!-- Node1&#45;&gt;Node6 -->
<g id="edge5_Node000001_Node000006" class="edge">
<title>Node1&#45;&gt;Node6</title>
<g id="a_edge5_Node000001_Node000006"><a xlink:title=" ">
<path fill="none" stroke="#63b8ff" d="M194.6,-110.05C209.68,-101.08 228.89,-89.66 243.99,-80.67"/>
<polygon fill="#63b8ff" stroke="#63b8ff" points="245.59,-83.8 252.39,-75.68 242.01,-77.78 245.59,-83.8"/>
</a>
</g>
</g>
<!-- Node7 -->
<g id="Node000007" class="node">
<title>Node7</title>
<g id="a_Node000007"><a xlink:href="config_8hpp.html" target="_top" xlink:title="This file contains configuration settings for the ComPPare library.">
<polygon fill="white" stroke="#666666" points="450.5,-74.5 309.25,-74.5 309.25,-55.25 450.5,-55.25 450.5,-74.5"/>
<text xml:space="preserve" text-anchor="middle" x="379.88" y="-61" font-family="Helvetica,sans-Serif" font-size="10.00">comppare/internal/config.hpp</text>
</a>
</g>
</g>
<!-- Node1&#45;&gt;Node7 -->
<g id="edge6_Node000001_Node000007" class="edge">
<title>Node1&#45;&gt;Node7</title>
<g id="a_edge6_Node000001_Node000007"><a xlink:title=" ">
<path fill="none" stroke="#63b8ff" d="M222.33,-110.05C257.58,-100.16 303.48,-87.29 336.64,-78"/>
<polygon fill="#63b8ff" stroke="#63b8ff" points="337.22,-81.47 345.9,-75.4 335.33,-74.73 337.22,-81.47"/>
</a>
</g>
</g>
<!-- Node7&#45;&gt;Node4 -->
<g id="edge9_Node000007_Node000004" class="edge">
<title>Node7&#45;&gt;Node4</title>
<g id="a_edge9_Node000007_Node000004"><a xlink:title=" ">
<path fill="none" stroke="#63b8ff" d="M353.58,-54.84C328.42,-46.2 290.22,-33.07 261.97,-23.37"/>
<polygon fill="#63b8ff" stroke="#63b8ff" points="263.32,-20.13 252.73,-20.19 261.05,-26.75 263.32,-20.13"/>
</a>
</g>
</g>
<!-- Node8 -->
<g id="Node000008" class="node">
<title>Node8</title>
<g id="a_Node000008"><a xlink:title=" ">
<polygon fill="#e0e0e0" stroke="#999999" points="372.5,-19.25 327.25,-19.25 327.25,0 372.5,0 372.5,-19.25"/>
<text xml:space="preserve" text-anchor="middle" x="349.88" y="-5.75" font-family="Helvetica,sans-Serif" font-size="10.00">chrono</text>
</a>
</g>
</g>
<!-- Node7&#45;&gt;Node8 -->
<g id="edge7_Node000007_Node000008" class="edge">
<title>Node7&#45;&gt;Node8</title>
<g id="a_edge7_Node000007_Node000008"><a xlink:title=" ">
<path fill="none" stroke="#63b8ff" d="M374.92,-55.08C370.99,-48.11 365.36,-38.12 360.44,-29.37"/>
<polygon fill="#63b8ff" stroke="#63b8ff" points="363.64,-27.92 355.68,-20.93 357.54,-31.36 363.64,-27.92"/>
</a>
</g>
</g>
<!-- Node9 -->
<g id="Node000009" class="node">
<title>Node9</title>
<g id="a_Node000009"><a xlink:title=" ">
<polygon fill="#e0e0e0" stroke="#999999" points="429.5,-19.25 390.25,-19.25 390.25,0 429.5,0 429.5,-19.25"/>
<text xml:space="preserve" text-anchor="middle" x="409.88" y="-5.75" font-family="Helvetica,sans-Serif" font-size="10.00">utility</text>
</a>
</g>
</g>
<!-- Node7&#45;&gt;Node9 -->
<g id="edge8_Node000007_Node000009" class="edge">
<title>Node7&#45;&gt;Node9</title>
<g id="a_edge8_Node000007_Node000009"><a xlink:title=" ">
<path fill="none" stroke="#63b8ff" d="M384.83,-55.08C388.76,-48.11 394.39,-38.12 399.31,-29.37"/>
<polygon fill="#63b8ff" stroke="#63b8ff" points="402.21,-31.36 404.07,-20.93 396.11,-27.92 402.21,-31.36"/>
</a>
</g>
</g>
</g>
</svg>
