<?xml version="1.0" encoding="UTF-8" standalone="no"?>
<!DOCTYPE svg PUBLIC "-//W3C//DTD SVG 1.1//EN"
 "http://www.w3.org/Graphics/SVG/1.1/DTD/svg11.dtd">
<!-- Generated by graphviz version 13.1.2 (20250808.2320)
 -->
<!-- Title: Graphical Class Hierarchy Pages: 1 -->
<svg width="264pt" height="110pt"
 viewBox="0.00 0.00 264.00 110.00" xmlns="http://www.w3.org/2000/svg" xmlns:xlink="http://www.w3.org/1999/xlink">
<g id="graph0" class="graph" transform="scale(1 1) rotate(0) translate(4 105.75)">
<title>Graphical Class Hierarchy</title>
<!-- Node0 -->
<g id="Node000000" class="node">
<title>Node0</title>
<g id="a_Node000000"><a xlink:title=" ">
<polygon fill="#e0e0e0" stroke="#999999" points="80.5,-42.5 0,-42.5 0,-23.25 80.5,-23.25 80.5,-42.5"/>
<text xml:space="preserve" text-anchor="middle" x="40.25" y="-29" font-family="Helvetica,sans-Serif" font-size="10.00">std::false_type</text>
</a>
</g>
</g>
<!-- Node1 -->
<g id="Node000001" class="node">
<title>Node1</title>
<g id="a_Node000001"><a xlink:href="structcomppare_1_1internal_1_1policy_1_1is__metric__value_3_01_metric_value_3_01_u_01_4_01_4.html" target="_top" xlink:title="Partial specialisation for any MetricValue and returns true.">
<polygon fill="white" stroke="#666666" points="255.5,-101.75 116.5,-101.75 116.5,-60 255.5,-60 255.5,-101.75"/>
<text xml:space="preserve" text-anchor="start" x="124.5" y="-88.25" font-family="Helvetica,sans-Serif" font-size="10.00">comppare::internal</text>
<text xml:space="preserve" text-anchor="start" x="124.5" y="-77" font-family="Helvetica,sans-Serif" font-size="10.00">::policy::is_metric</text>
<text xml:space="preserve" text-anchor="middle" x="186" y="-65.75" font-family="Helvetica,sans-Serif" font-size="10.00">_value&lt; MetricValue&lt; U &gt; &gt;</text>
</a>
</g>
</g>
<!-- Node0&#45;&gt;Node1 -->
<g id="edge3_Node000000_Node000001" class="edge">
<title>Node0&#45;&gt;Node1</title>
<g id="a_edge3_Node000000_Node000001"><a xlink:title=" ">
<path fill="none" stroke="#63b8ff" d="M82.09,-46.51C94.26,-50.57 107.89,-55.13 121.15,-59.56"/>
<polygon fill="#63b8ff" stroke="#63b8ff" points="83.41,-43.26 72.82,-43.42 81.2,-49.9 83.41,-43.26"/>
</a>
</g>
</g>
<!-- Node3 -->
<g id="Node000003" class="node">
<title>Node3</title>
<g id="a_Node000003"><a xlink:href="structcomppare_1_1internal_1_1policy_1_1is__metric__value.html" target="_top" xlink:title="Partial specialisation for not a MetricValue.">
<polygon fill="white" stroke="#666666" points="238.62,-41.75 133.38,-41.75 133.38,0 238.62,0 238.62,-41.75"/>
<text xml:space="preserve" text-anchor="start" x="141.38" y="-28.25" font-family="Helvetica,sans-Serif" font-size="10.00">comppare::internal</text>
<text xml:space="preserve" text-anchor="start" x="141.38" y="-17" font-family="Helvetica,sans-Serif" font-size="10.00">::policy::is_metric</text>
<text xml:space="preserve" text-anchor="middle" x="186" y="-5.75" font-family="Helvetica,sans-Serif" font-size="10.00">_value&lt; typename &gt;</text>
</a>
</g>
</g>
<!-- Node0&#45;&gt;Node3 -->
<g id="edge4_Node000000_Node000003" class="edge">
<title>Node0&#45;&gt;Node3</title>
<g id="a_edge4_Node000000_Node000003"><a xlink:title=" ">
<path fill="none" stroke="#63b8ff" d="M92.24,-28.62C105.49,-27.51 119.78,-26.32 133.08,-25.21"/>
<polygon fill="#63b8ff" stroke="#63b8ff" points="92.09,-25.12 82.42,-29.44 92.68,-32.09 92.09,-25.12"/>
</a>
</g>
</g>
<!-- Node2 -->
<g id="Node000002" class="node">
<title>Node2</title>
<g id="a_Node000002"><a xlink:title=" ">
<polygon fill="#e0e0e0" stroke="#999999" points="78.25,-90.5 2.25,-90.5 2.25,-71.25 78.25,-71.25 78.25,-90.5"/>
<text xml:space="preserve" text-anchor="middle" x="40.25" y="-77" font-family="Helvetica,sans-Serif" font-size="10.00">std::true_type</text>
</a>
</g>
</g>
<!-- Node2&#45;&gt;Node1 -->
<g id="edge5_Node000002_Node000001" class="edge">
<title>Node2&#45;&gt;Node1</title>
<g id="a_edge5_Node000002_Node000001"><a xlink:title=" ">
<path fill="none" stroke="#63b8ff" d="M90.09,-80.88C98.45,-80.88 107.27,-80.88 116.03,-80.88"/>
<polygon fill="#63b8ff" stroke="#63b8ff" points="90.16,-77.38 80.16,-80.88 90.16,-84.38 90.16,-77.38"/>
</a>
</g>
</g>
</g>
</svg>
