<?xml version="1.0" encoding="UTF-8" standalone="no"?>
<!DOCTYPE svg PUBLIC "-//W3C//DTD SVG 1.1//EN"
 "http://www.w3.org/Graphics/SVG/1.1/DTD/svg11.dtd">
<!-- Generated by graphviz version 13.1.2 (20250808.2320)
 -->
<!-- Title: Graphical Class Hierarchy Pages: 1 -->
<svg width="264pt" height="444pt"
 viewBox="0.00 0.00 264.00 444.00" xmlns="http://www.w3.org/2000/svg" xmlns:xlink="http://www.w3.org/1999/xlink">
<g id="graph0" class="graph" transform="scale(1 1) rotate(0) translate(4 440.25)">
<title>Graphical Class Hierarchy</title>
<!-- Node0 -->
<g id="Node000000" class="node">
<title>Node0</title>
<g id="a_Node000000"><a xlink:title=" ">
<polygon fill="#e0e0e0" stroke="#999999" points="80.5,-209.25 0,-209.25 0,-190 80.5,-190 80.5,-209.25"/>
<text xml:space="preserve" text-anchor="middle" x="40.25" y="-195.75" font-family="Helvetica,sans-Serif" font-size="10.00">std::false_type</text>
</a>
</g>
</g>
<!-- Node1 -->
<g id="Node000001" class="node">
<title>Node1</title>
<g id="a_Node000001"><a xlink:href="structcomppare_1_1internal_1_1policy_1_1is__metric__value_3_01_metric_value_3_01_u_01_4_01_4.html" target="_top" xlink:title=" ">
<polygon fill="white" stroke="#666666" points="255.5,-250.5 116.5,-250.5 116.5,-208.75 255.5,-208.75 255.5,-250.5"/>
<text xml:space="preserve" text-anchor="start" x="124.5" y="-237" font-family="Helvetica,sans-Serif" font-size="10.00">comppare::internal</text>
<text xml:space="preserve" text-anchor="start" x="124.5" y="-225.75" font-family="Helvetica,sans-Serif" font-size="10.00">::policy::is_metric</text>
<text xml:space="preserve" text-anchor="middle" x="186" y="-214.5" font-family="Helvetica,sans-Serif" font-size="10.00">_value&lt; MetricValue&lt; U &gt; &gt;</text>
</a>
</g>
</g>
<!-- Node0&#45;&gt;Node1 -->
<g id="edge3_Node000000_Node000001" class="edge">
<title>Node0&#45;&gt;Node1</title>
<g id="a_edge3_Node000000_Node000001"><a xlink:title=" ">
<path fill="none" stroke="#63b8ff" d="M92.07,-210.23C99.9,-211.86 108.09,-213.57 116.23,-215.27"/>
<polygon fill="#63b8ff" stroke="#63b8ff" points="92.9,-206.83 82.39,-208.21 91.47,-213.68 92.9,-206.83"/>
</a>
</g>
</g>
<!-- Node5 -->
<g id="Node000005" class="node">
<title>Node5</title>
<g id="a_Node000005"><a xlink:href="structis__lvalue_3_01_t_01_6_01_4.html" target="_top" xlink:title=" ">
<polygon fill="white" stroke="#666666" points="230,-399.25 142,-399.25 142,-380 230,-380 230,-399.25"/>
<text xml:space="preserve" text-anchor="middle" x="186" y="-385.75" font-family="Helvetica,sans-Serif" font-size="10.00">is_lvalue&lt; T &amp; &gt;</text>
</a>
</g>
</g>
<!-- Node0&#45;&gt;Node5 -->
<g id="edge4_Node000000_Node000005" class="edge">
<title>Node0&#45;&gt;Node5</title>
<g id="a_edge4_Node000000_Node000005"><a xlink:title=" ">
<path fill="none" stroke="#63b8ff" d="M47.86,-220.58C61.25,-261.74 92.32,-350.94 116.5,-371.62 123.6,-377.7 132.52,-381.75 141.56,-384.45"/>
<polygon fill="#63b8ff" stroke="#63b8ff" points="51.22,-219.59 44.84,-211.14 44.56,-221.73 51.22,-219.59"/>
</a>
</g>
</g>
<!-- Node8 -->
<g id="Node000008" class="node">
<title>Node8</title>
<g id="a_Node000008"><a xlink:href="structis__lvalue_3_01_t_01_6_6_01_4.html" target="_top" xlink:title=" ">
<polygon fill="white" stroke="#666666" points="233.38,-56.25 138.62,-56.25 138.62,-37 233.38,-37 233.38,-56.25"/>
<text xml:space="preserve" text-anchor="middle" x="186" y="-42.75" font-family="Helvetica,sans-Serif" font-size="10.00">is_lvalue&lt; T &amp;&amp; &gt;</text>
</a>
</g>
</g>
<!-- Node0&#45;&gt;Node8 -->
<g id="edge5_Node000000_Node000008" class="edge">
<title>Node0&#45;&gt;Node8</title>
<g id="a_edge5_Node000000_Node000008"><a xlink:title=" ">
<path fill="none" stroke="#63b8ff" d="M47.09,-178.91C56.59,-149.05 78.3,-94.25 116.5,-64.62 122.91,-59.65 130.57,-56.05 138.41,-53.43"/>
<polygon fill="#63b8ff" stroke="#63b8ff" points="43.81,-177.67 44.28,-188.25 50.51,-179.68 43.81,-177.67"/>
</a>
</g>
</g>
<!-- Node9 -->
<g id="Node000009" class="node">
<title>Node9</title>
<g id="a_Node000009"><a xlink:href="structis__xvalue_3_01_t_01_6_01_4.html" target="_top" xlink:title=" ">
<polygon fill="white" stroke="#666666" points="231.5,-19.25 140.5,-19.25 140.5,0 231.5,0 231.5,-19.25"/>
<text xml:space="preserve" text-anchor="middle" x="186" y="-5.75" font-family="Helvetica,sans-Serif" font-size="10.00">is_xvalue&lt; T &amp; &gt;</text>
</a>
</g>
</g>
<!-- Node0&#45;&gt;Node9 -->
<g id="edge6_Node000000_Node000009" class="edge">
<title>Node0&#45;&gt;Node9</title>
<g id="a_edge6_Node000000_Node000009"><a xlink:title=" ">
<path fill="none" stroke="#63b8ff" d="M44.42,-178.53C51.03,-142.14 69.75,-67.62 116.5,-27.62 123.23,-21.87 131.59,-17.93 140.13,-15.24"/>
<polygon fill="#63b8ff" stroke="#63b8ff" points="41,-177.76 42.81,-188.2 47.91,-178.91 41,-177.76"/>
</a>
</g>
</g>
<!-- Node7 -->
<g id="Node000007" class="node">
<title>Node7</title>
<g id="a_Node000007"><a xlink:href="structis__xvalue_3_01_t_01_6_6_01_4.html" target="_top" xlink:title=" ">
<polygon fill="white" stroke="#666666" points="234.88,-362.25 137.12,-362.25 137.12,-343 234.88,-343 234.88,-362.25"/>
<text xml:space="preserve" text-anchor="middle" x="186" y="-348.75" font-family="Helvetica,sans-Serif" font-size="10.00">is_xvalue&lt; T &amp;&amp; &gt;</text>
</a>
</g>
</g>
<!-- Node0&#45;&gt;Node7 -->
<g id="edge7_Node000000_Node000007" class="edge">
<title>Node0&#45;&gt;Node7</title>
<g id="a_edge7_Node000000_Node000007"><a xlink:title=" ">
<path fill="none" stroke="#63b8ff" d="M47.09,-220.34C56.59,-250.2 78.3,-305 116.5,-334.62 122.43,-339.22 129.42,-342.65 136.63,-345.2"/>
<polygon fill="#63b8ff" stroke="#63b8ff" points="50.51,-219.57 44.28,-211 43.81,-221.58 50.51,-219.57"/>
</a>
</g>
</g>
<!-- Node10 -->
<g id="Node000010" class="node">
<title>Node10</title>
<g id="a_Node000010"><a xlink:href="structcomppare_1_1internal_1_1policy_1_1is__metric__value.html" target="_top" xlink:title=" ">
<polygon fill="white" stroke="#666666" points="238.62,-190.5 133.38,-190.5 133.38,-148.75 238.62,-148.75 238.62,-190.5"/>
<text xml:space="preserve" text-anchor="start" x="141.38" y="-177" font-family="Helvetica,sans-Serif" font-size="10.00">comppare::internal</text>
<text xml:space="preserve" text-anchor="start" x="141.38" y="-165.75" font-family="Helvetica,sans-Serif" font-size="10.00">::policy::is_metric</text>
<text xml:space="preserve" text-anchor="middle" x="186" y="-154.5" font-family="Helvetica,sans-Serif" font-size="10.00">_value&lt; typename &gt;</text>
</a>
</g>
</g>
<!-- Node0&#45;&gt;Node10 -->
<g id="edge8_Node000000_Node000010" class="edge">
<title>Node0&#45;&gt;Node10</title>
<g id="a_edge8_Node000000_Node000010"><a xlink:title=" ">
<path fill="none" stroke="#63b8ff" d="M91.84,-189.07C105.2,-186.28 119.64,-183.26 133.08,-180.46"/>
<polygon fill="#63b8ff" stroke="#63b8ff" points="91.47,-185.57 82.39,-191.04 92.9,-192.42 91.47,-185.57"/>
</a>
</g>
</g>
<!-- Node11 -->
<g id="Node000011" class="node">
<title>Node11</title>
<g id="a_Node000011"><a xlink:href="structis__lvalue.html" target="_top" xlink:title=" ">
<polygon fill="white" stroke="#666666" points="225.12,-130.25 146.88,-130.25 146.88,-111 225.12,-111 225.12,-130.25"/>
<text xml:space="preserve" text-anchor="middle" x="186" y="-116.75" font-family="Helvetica,sans-Serif" font-size="10.00">is_lvalue&lt; T &gt;</text>
</a>
</g>
</g>
<!-- Node0&#45;&gt;Node11 -->
<g id="edge9_Node000000_Node000011" class="edge">
<title>Node0&#45;&gt;Node11</title>
<g id="a_edge9_Node000000_Node000011"><a xlink:title=" ">
<path fill="none" stroke="#63b8ff" d="M59.03,-181.98C73.42,-168.61 94.81,-150.69 116.5,-139.62 125.84,-134.86 136.53,-131.16 146.65,-128.35"/>
<polygon fill="#63b8ff" stroke="#63b8ff" points="56.94,-179.14 52.12,-188.58 61.77,-184.2 56.94,-179.14"/>
</a>
</g>
</g>
<!-- Node3 -->
<g id="Node000003" class="node">
<title>Node3</title>
<g id="a_Node000003"><a xlink:href="structis__prvalue_3_01_t_01_6_01_4.html" target="_top" xlink:title=" ">
<polygon fill="white" stroke="#666666" points="233,-325.25 139,-325.25 139,-306 233,-306 233,-325.25"/>
<text xml:space="preserve" text-anchor="middle" x="186" y="-311.75" font-family="Helvetica,sans-Serif" font-size="10.00">is_prvalue&lt; T &amp; &gt;</text>
</a>
</g>
</g>
<!-- Node0&#45;&gt;Node3 -->
<g id="edge10_Node000000_Node000003" class="edge">
<title>Node0&#45;&gt;Node3</title>
<g id="a_edge10_Node000000_Node000003"><a xlink:title=" ">
<path fill="none" stroke="#63b8ff" d="M51.43,-219.81C63.78,-242.21 86.7,-277.82 116.5,-297.62 123.16,-302.05 130.85,-305.39 138.62,-307.9"/>
<polygon fill="#63b8ff" stroke="#63b8ff" points="54.58,-218.26 46.8,-211.06 48.39,-221.54 54.58,-218.26"/>
</a>
</g>
</g>
<!-- Node4 -->
<g id="Node000004" class="node">
<title>Node4</title>
<g id="a_Node000004"><a xlink:href="structis__prvalue_3_01_t_01_6_6_01_4.html" target="_top" xlink:title=" ">
<polygon fill="white" stroke="#666666" points="236.38,-288.25 135.62,-288.25 135.62,-269 236.38,-269 236.38,-288.25"/>
<text xml:space="preserve" text-anchor="middle" x="186" y="-274.75" font-family="Helvetica,sans-Serif" font-size="10.00">is_prvalue&lt; T &amp;&amp; &gt;</text>
</a>
</g>
</g>
<!-- Node0&#45;&gt;Node4 -->
<g id="edge11_Node000000_Node000004" class="edge">
<title>Node0&#45;&gt;Node4</title>
<g id="a_edge11_Node000000_Node000004"><a xlink:title=" ">
<path fill="none" stroke="#63b8ff" d="M59.03,-217.27C73.42,-230.64 94.81,-248.56 116.5,-259.62 123.43,-263.16 131.09,-266.1 138.71,-268.54"/>
<polygon fill="#63b8ff" stroke="#63b8ff" points="61.77,-215.05 52.12,-210.67 56.94,-220.11 61.77,-215.05"/>
</a>
</g>
</g>
<!-- Node12 -->
<g id="Node000012" class="node">
<title>Node12</title>
<g id="a_Node000012"><a xlink:href="structis__xvalue.html" target="_top" xlink:title=" ">
<polygon fill="white" stroke="#666666" points="226.62,-93.25 145.38,-93.25 145.38,-74 226.62,-74 226.62,-93.25"/>
<text xml:space="preserve" text-anchor="middle" x="186" y="-79.75" font-family="Helvetica,sans-Serif" font-size="10.00">is_xvalue&lt; T &gt;</text>
</a>
</g>
</g>
<!-- Node0&#45;&gt;Node12 -->
<g id="edge12_Node000000_Node000012" class="edge">
<title>Node0&#45;&gt;Node12</title>
<g id="a_edge12_Node000000_Node000012"><a xlink:title=" ">
<path fill="none" stroke="#63b8ff" d="M51.43,-179.44C63.78,-157.04 86.7,-121.43 116.5,-101.62 125,-95.98 135.19,-92.1 145.08,-89.44"/>
<polygon fill="#63b8ff" stroke="#63b8ff" points="48.39,-177.71 46.8,-188.19 54.58,-180.99 48.39,-177.71"/>
</a>
</g>
</g>
<!-- Node2 -->
<g id="Node000002" class="node">
<title>Node2</title>
<g id="a_Node000002"><a xlink:title=" ">
<polygon fill="#e0e0e0" stroke="#999999" points="78.25,-343.25 2.25,-343.25 2.25,-324 78.25,-324 78.25,-343.25"/>
<text xml:space="preserve" text-anchor="middle" x="40.25" y="-329.75" font-family="Helvetica,sans-Serif" font-size="10.00">std::true_type</text>
</a>
</g>
</g>
<!-- Node2&#45;&gt;Node1 -->
<g id="edge15_Node000002_Node000001" class="edge">
<title>Node2&#45;&gt;Node1</title>
<g id="a_edge15_Node000002_Node000001"><a xlink:title=" ">
<path fill="none" stroke="#63b8ff" d="M56.72,-314.95C70.95,-298.69 93.29,-275.33 116.5,-259.62 121.12,-256.5 126.13,-253.57 131.25,-250.87"/>
<polygon fill="#63b8ff" stroke="#63b8ff" points="54.16,-312.56 50.33,-322.44 59.48,-317.11 54.16,-312.56"/>
</a>
</g>
</g>
<!-- Node2&#45;&gt;Node5 -->
<g id="edge16_Node000002_Node000005" class="edge">
<title>Node2&#45;&gt;Node5</title>
<g id="a_edge16_Node000002_Node000005"><a xlink:title=" ">
<path fill="none" stroke="#63b8ff" d="M68.38,-349.07C82.42,-356.61 100.03,-365.38 116.5,-371.62 124.55,-374.68 133.32,-377.4 141.81,-379.76"/>
<polygon fill="#63b8ff" stroke="#63b8ff" points="70.19,-346.07 59.74,-344.33 66.82,-352.21 70.19,-346.07"/>
</a>
</g>
</g>
<!-- Node2&#45;&gt;Node7 -->
<g id="edge18_Node000002_Node000007" class="edge">
<title>Node2&#45;&gt;Node7</title>
<g id="a_edge18_Node000002_Node000007"><a xlink:title=" ">
<path fill="none" stroke="#63b8ff" d="M89.84,-340.05C104.95,-342.04 121.59,-344.24 136.68,-346.24"/>
<polygon fill="#63b8ff" stroke="#63b8ff" points="90.52,-336.61 80.14,-338.77 89.6,-343.55 90.52,-336.61"/>
</a>
</g>
</g>
<!-- Node2&#45;&gt;Node3 -->
<g id="edge13_Node000002_Node000003" class="edge">
<title>Node2&#45;&gt;Node3</title>
<g id="a_edge13_Node000002_Node000003"><a xlink:title=" ">
<path fill="none" stroke="#63b8ff" d="M89.76,-327.55C105.51,-325.58 122.94,-323.4 138.54,-321.44"/>
<polygon fill="#63b8ff" stroke="#63b8ff" points="89.63,-324.04 80.15,-328.75 90.5,-330.98 89.63,-324.04"/>
</a>
</g>
</g>
<!-- Node2&#45;&gt;Node4 -->
<g id="edge14_Node000002_Node000004" class="edge">
<title>Node2&#45;&gt;Node4</title>
<g id="a_edge14_Node000002_Node000004"><a xlink:title=" ">
<path fill="none" stroke="#63b8ff" d="M68.98,-318.33C82.94,-311.06 100.3,-302.67 116.5,-296.62 124.45,-293.66 133.09,-290.99 141.47,-288.66"/>
<polygon fill="#63b8ff" stroke="#63b8ff" points="67.57,-315.12 60.38,-322.9 70.86,-321.3 67.57,-315.12"/>
</a>
</g>
</g>
<!-- Node6 -->
<g id="Node000006" class="node">
<title>Node6</title>
<g id="a_Node000006"><a xlink:href="structis__prvalue.html" target="_top" xlink:title=" ">
<polygon fill="white" stroke="#666666" points="228.12,-436.25 143.88,-436.25 143.88,-417 228.12,-417 228.12,-436.25"/>
<text xml:space="preserve" text-anchor="middle" x="186" y="-422.75" font-family="Helvetica,sans-Serif" font-size="10.00">is_prvalue&lt; T &gt;</text>
</a>
</g>
</g>
<!-- Node2&#45;&gt;Node6 -->
<g id="edge17_Node000002_Node000006" class="edge">
<title>Node2&#45;&gt;Node6</title>
<g id="a_edge17_Node000002_Node000006"><a xlink:title=" ">
<path fill="none" stroke="#63b8ff" d="M55.43,-352.64C69.2,-369.76 91.62,-394.37 116.5,-408.62 124.71,-413.33 134.19,-416.84 143.41,-419.44"/>
<polygon fill="#63b8ff" stroke="#63b8ff" points="58.2,-350.5 49.3,-344.75 52.68,-354.79 58.2,-350.5"/>
</a>
</g>
</g>
</g>
</svg>
