<?xml version="1.0" encoding="UTF-8" standalone="no"?>
<!DOCTYPE svg PUBLIC "-//W3C//DTD SVG 1.1//EN"
 "http://www.w3.org/Graphics/SVG/1.1/DTD/svg11.dtd">
<!-- Generated by graphviz version 13.1.2 (20250808.2320)
 -->
<!-- Title: examples/max_reduction/init_max.hpp Pages: 1 -->
<svg width="167pt" height="94pt"
 viewBox="0.00 0.00 167.00 94.00" xmlns="http://www.w3.org/2000/svg" xmlns:xlink="http://www.w3.org/1999/xlink">
<g id="graph0" class="graph" transform="scale(1 1) rotate(0) translate(4 89.75)">
<title>examples/max_reduction/init_max.hpp</title>
<!-- Node1 -->
<g id="Node000001" class="node">
<title>Node1</title>
<g id="a_Node000001"><a xlink:title=" ">
<polygon fill="#999999" stroke="#666666" points="144.88,-85.75 20.13,-85.75 20.13,-55.25 144.88,-55.25 144.88,-85.75"/>
<text xml:space="preserve" text-anchor="start" x="28.12" y="-72.25" font-family="Helvetica,sans-Serif" font-size="10.00">examples/max_reduction</text>
<text xml:space="preserve" text-anchor="middle" x="82.5" y="-61" font-family="Helvetica,sans-Serif" font-size="10.00">/init_max.hpp</text>
</a>
</g>
</g>
<!-- Node2 -->
<g id="Node000002" class="node">
<title>Node2</title>
<g id="a_Node000002"><a xlink:title=" ">
<polygon fill="#e0e0e0" stroke="#999999" points="43,-19.25 0,-19.25 0,0 43,0 43,-19.25"/>
<text xml:space="preserve" text-anchor="middle" x="21.5" y="-5.75" font-family="Helvetica,sans-Serif" font-size="10.00">vector</text>
</a>
</g>
</g>
<!-- Node1&#45;&gt;Node2 -->
<g id="edge1_Node000001_Node000002" class="edge">
<title>Node1&#45;&gt;Node2</title>
<g id="a_edge1_Node000001_Node000002"><a xlink:title=" ">
<path fill="none" stroke="#63b8ff" d="M67.42,-54.95C58.85,-46.67 48.07,-36.27 39.11,-27.62"/>
<polygon fill="#63b8ff" stroke="#63b8ff" points="41.62,-25.18 31.99,-20.75 36.76,-30.22 41.62,-25.18"/>
</a>
</g>
</g>
<!-- Node3 -->
<g id="Node000003" class="node">
<title>Node3</title>
<g id="a_Node000003"><a xlink:title=" ">
<polygon fill="#e0e0e0" stroke="#999999" points="104,-19.25 61,-19.25 61,0 104,0 104,-19.25"/>
<text xml:space="preserve" text-anchor="middle" x="82.5" y="-5.75" font-family="Helvetica,sans-Serif" font-size="10.00">cmath</text>
</a>
</g>
</g>
<!-- Node1&#45;&gt;Node3 -->
<g id="edge2_Node000001_Node000003" class="edge">
<title>Node1&#45;&gt;Node3</title>
<g id="a_edge2_Node000001_Node000003"><a xlink:title=" ">
<path fill="none" stroke="#63b8ff" d="M82.5,-54.95C82.5,-47.71 82.5,-38.84 82.5,-30.94"/>
<polygon fill="#63b8ff" stroke="#63b8ff" points="86,-31.21 82.5,-21.21 79,-31.21 86,-31.21"/>
</a>
</g>
</g>
<!-- Node4 -->
<g id="Node000004" class="node">
<title>Node4</title>
<g id="a_Node000004"><a xlink:title=" ">
<polygon fill="#e0e0e0" stroke="#999999" points="159,-19.25 122,-19.25 122,0 159,0 159,-19.25"/>
<text xml:space="preserve" text-anchor="middle" x="140.5" y="-5.75" font-family="Helvetica,sans-Serif" font-size="10.00">span</text>
</a>
</g>
</g>
<!-- Node1&#45;&gt;Node4 -->
<g id="edge3_Node000001_Node000004" class="edge">
<title>Node1&#45;&gt;Node4</title>
<g id="a_edge3_Node000001_Node000004"><a xlink:title=" ">
<path fill="none" stroke="#63b8ff" d="M96.84,-54.95C104.9,-46.76 115.02,-36.48 123.49,-27.89"/>
<polygon fill="#63b8ff" stroke="#63b8ff" points="125.97,-30.36 130.5,-20.78 120.99,-25.45 125.97,-30.36"/>
</a>
</g>
</g>
</g>
</svg>
