<?xml version="1.0" encoding="UTF-8" standalone="no"?>
<!DOCTYPE svg PUBLIC "-//W3C//DTD SVG 1.1//EN"
 "http://www.w3.org/Graphics/SVG/1.1/DTD/svg11.dtd">
<!-- Generated by graphviz version 13.1.2 (20250808.2320)
 -->
<!-- Title: examples/max_reduction/init_max.cpp Pages: 1 -->
<svg width="522pt" height="149pt"
 viewBox="0.00 0.00 522.00 149.00" xmlns="http://www.w3.org/2000/svg" xmlns:xlink="http://www.w3.org/1999/xlink">
<g id="graph0" class="graph" transform="scale(1 1) rotate(0) translate(4 145)">
<title>examples/max_reduction/init_max.cpp</title>
<!-- Node1 -->
<g id="Node000001" class="node">
<title>Node1</title>
<g id="a_Node000001"><a xlink:title=" ">
<polygon fill="#999999" stroke="#666666" points="339.12,-141 214.38,-141 214.38,-110.5 339.12,-110.5 339.12,-141"/>
<text xml:space="preserve" text-anchor="start" x="222.38" y="-127.5" font-family="Helvetica,sans-Serif" font-size="10.00">examples/max_reduction</text>
<text xml:space="preserve" text-anchor="middle" x="276.75" y="-116.25" font-family="Helvetica,sans-Serif" font-size="10.00">/init_max.cpp</text>
</a>
</g>
</g>
<!-- Node2 -->
<g id="Node000002" class="node">
<title>Node2</title>
<g id="a_Node000002"><a xlink:title=" ">
<polygon fill="#e0e0e0" stroke="#999999" points="65.5,-74.5 0,-74.5 0,-55.25 65.5,-55.25 65.5,-74.5"/>
<text xml:space="preserve" text-anchor="middle" x="32.75" y="-61" font-family="Helvetica,sans-Serif" font-size="10.00">string_view</text>
</a>
</g>
</g>
<!-- Node1&#45;&gt;Node2 -->
<g id="edge1_Node000001_Node000002" class="edge">
<title>Node1&#45;&gt;Node2</title>
<g id="a_edge1_Node000001_Node000002"><a xlink:title=" ">
<path fill="none" stroke="#63b8ff" d="M215.81,-110.05C172.64,-99.63 115.73,-85.9 76.9,-76.53"/>
<polygon fill="#63b8ff" stroke="#63b8ff" points="77.97,-73.19 67.43,-74.24 76.33,-79.99 77.97,-73.19"/>
</a>
</g>
</g>
<!-- Node3 -->
<g id="Node000003" class="node">
<title>Node3</title>
<g id="a_Node000003"><a xlink:title=" ">
<polygon fill="#e0e0e0" stroke="#999999" points="128.38,-74.5 83.12,-74.5 83.12,-55.25 128.38,-55.25 128.38,-74.5"/>
<text xml:space="preserve" text-anchor="middle" x="105.75" y="-61" font-family="Helvetica,sans-Serif" font-size="10.00">cstring</text>
</a>
</g>
</g>
<!-- Node1&#45;&gt;Node3 -->
<g id="edge2_Node000001_Node000003" class="edge">
<title>Node1&#45;&gt;Node3</title>
<g id="a_edge2_Node000001_Node000003"><a xlink:title=" ">
<path fill="none" stroke="#63b8ff" d="M234.04,-110.05C204.78,-99.97 166.52,-86.8 139.42,-77.47"/>
<polygon fill="#63b8ff" stroke="#63b8ff" points="140.57,-74.16 129.98,-74.22 138.29,-80.78 140.57,-74.16"/>
</a>
</g>
</g>
<!-- Node4 -->
<g id="Node000004" class="node">
<title>Node4</title>
<g id="a_Node000004"><a xlink:title=" ">
<polygon fill="#e0e0e0" stroke="#999999" points="205.12,-74.5 146.38,-74.5 146.38,-55.25 205.12,-55.25 205.12,-74.5"/>
<text xml:space="preserve" text-anchor="middle" x="175.75" y="-61" font-family="Helvetica,sans-Serif" font-size="10.00">stdexcept</text>
</a>
</g>
</g>
<!-- Node1&#45;&gt;Node4 -->
<g id="edge3_Node000001_Node000004" class="edge">
<title>Node1&#45;&gt;Node4</title>
<g id="a_edge3_Node000001_Node000004"><a xlink:title=" ">
<path fill="none" stroke="#63b8ff" d="M251.52,-110.05C236.14,-101.08 216.55,-89.66 201.14,-80.67"/>
<polygon fill="#63b8ff" stroke="#63b8ff" points="202.95,-77.68 192.55,-75.67 199.42,-83.73 202.95,-77.68"/>
</a>
</g>
</g>
<!-- Node5 -->
<g id="Node000005" class="node">
<title>Node5</title>
<g id="a_Node000005"><a xlink:title=" ">
<polygon fill="#e0e0e0" stroke="#999999" points="276.5,-74.5 223,-74.5 223,-55.25 276.5,-55.25 276.5,-74.5"/>
<text xml:space="preserve" text-anchor="middle" x="249.75" y="-61" font-family="Helvetica,sans-Serif" font-size="10.00">iostream</text>
</a>
</g>
</g>
<!-- Node1&#45;&gt;Node5 -->
<g id="edge4_Node000001_Node000005" class="edge">
<title>Node1&#45;&gt;Node5</title>
<g id="a_edge4_Node000001_Node000005"><a xlink:title=" ">
<path fill="none" stroke="#63b8ff" d="M270.08,-110.2C266.64,-102.7 262.4,-93.45 258.68,-85.35"/>
<polygon fill="#63b8ff" stroke="#63b8ff" points="261.89,-83.96 254.54,-76.33 255.53,-86.88 261.89,-83.96"/>
</a>
</g>
</g>
<!-- Node6 -->
<g id="Node000006" class="node">
<title>Node6</title>
<g id="a_Node000006"><a xlink:title=" ">
<polygon fill="#e0e0e0" stroke="#999999" points="361.25,-19.25 318.25,-19.25 318.25,0 361.25,0 361.25,-19.25"/>
<text xml:space="preserve" text-anchor="middle" x="339.75" y="-5.75" font-family="Helvetica,sans-Serif" font-size="10.00">cmath</text>
</a>
</g>
</g>
<!-- Node1&#45;&gt;Node6 -->
<g id="edge5_Node000001_Node000006" class="edge">
<title>Node1&#45;&gt;Node6</title>
<g id="a_edge5_Node000001_Node000006"><a xlink:title=" ">
<path fill="none" stroke="#63b8ff" d="M284.73,-110.3C296.05,-89.78 316.8,-52.2 329.33,-29.5"/>
<polygon fill="#63b8ff" stroke="#63b8ff" points="332.24,-31.47 334.01,-21.02 326.11,-28.09 332.24,-31.47"/>
</a>
</g>
</g>
<!-- Node7 -->
<g id="Node000007" class="node">
<title>Node7</title>
<g id="a_Node000007"><a xlink:title=" ">
<polygon fill="#e0e0e0" stroke="#999999" points="380.88,-74.5 332.62,-74.5 332.62,-55.25 380.88,-55.25 380.88,-74.5"/>
<text xml:space="preserve" text-anchor="middle" x="356.75" y="-61" font-family="Helvetica,sans-Serif" font-size="10.00">random</text>
</a>
</g>
</g>
<!-- Node1&#45;&gt;Node7 -->
<g id="edge6_Node000001_Node000007" class="edge">
<title>Node1&#45;&gt;Node7</title>
<g id="a_edge6_Node000001_Node000007"><a xlink:title=" ">
<path fill="none" stroke="#63b8ff" d="M296.53,-110.2C308.35,-101.49 323.39,-90.43 335.47,-81.53"/>
<polygon fill="#63b8ff" stroke="#63b8ff" points="337.22,-84.59 343.2,-75.85 333.07,-78.96 337.22,-84.59"/>
</a>
</g>
</g>
<!-- Node8 -->
<g id="Node000008" class="node">
<title>Node8</title>
<g id="a_Node000008"><a xlink:title=" ">
<polygon fill="#e0e0e0" stroke="#999999" points="514.25,-19.25 477.25,-19.25 477.25,0 514.25,0 514.25,-19.25"/>
<text xml:space="preserve" text-anchor="middle" x="495.75" y="-5.75" font-family="Helvetica,sans-Serif" font-size="10.00">span</text>
</a>
</g>
</g>
<!-- Node1&#45;&gt;Node8 -->
<g id="edge7_Node000001_Node000008" class="edge">
<title>Node1&#45;&gt;Node8</title>
<g id="a_edge7_Node000001_Node000008"><a xlink:title=" ">
<path fill="none" stroke="#63b8ff" d="M339.6,-116.38C391.64,-108.18 460.12,-94.08 479.75,-74.5 491.15,-63.13 494.85,-44.93 495.87,-30.86"/>
<polygon fill="#63b8ff" stroke="#63b8ff" points="499.37,-31.03 496.16,-20.93 492.37,-30.82 499.37,-31.03"/>
</a>
</g>
</g>
<!-- Node9 -->
<g id="Node000009" class="node">
<title>Node9</title>
<g id="a_Node000009"><a xlink:href="init__max_8hpp.html" target="_top" xlink:title=" ">
<polygon fill="white" stroke="#666666" points="470.5,-74.5 399,-74.5 399,-55.25 470.5,-55.25 470.5,-74.5"/>
<text xml:space="preserve" text-anchor="middle" x="434.75" y="-61" font-family="Helvetica,sans-Serif" font-size="10.00">init_max.hpp</text>
</a>
</g>
</g>
<!-- Node1&#45;&gt;Node9 -->
<g id="edge8_Node000001_Node000009" class="edge">
<title>Node1&#45;&gt;Node9</title>
<g id="a_edge8_Node000001_Node000009"><a xlink:title=" ">
<path fill="none" stroke="#63b8ff" d="M316.21,-110.05C341.89,-100.48 375.09,-88.11 399.81,-78.89"/>
<polygon fill="#63b8ff" stroke="#63b8ff" points="400.95,-82.2 409.1,-75.43 398.51,-75.64 400.95,-82.2"/>
</a>
</g>
</g>
<!-- Node9&#45;&gt;Node6 -->
<g id="edge10_Node000009_Node000006" class="edge">
<title>Node9&#45;&gt;Node6</title>
<g id="a_edge10_Node000009_Node000006"><a xlink:title=" ">
<path fill="none" stroke="#63b8ff" d="M418.63,-54.84C404.17,-46.73 382.67,-34.68 365.77,-25.21"/>
<polygon fill="#63b8ff" stroke="#63b8ff" points="367.7,-22.28 357.26,-20.44 364.28,-28.39 367.7,-22.28"/>
</a>
</g>
</g>
<!-- Node9&#45;&gt;Node8 -->
<g id="edge11_Node000009_Node000008" class="edge">
<title>Node9&#45;&gt;Node8</title>
<g id="a_edge11_Node000009_Node000008"><a xlink:title=" ">
<path fill="none" stroke="#63b8ff" d="M445.1,-54.84C453.83,-47.22 466.54,-36.12 477.05,-26.95"/>
<polygon fill="#63b8ff" stroke="#63b8ff" points="479.18,-29.73 484.41,-20.52 474.58,-24.46 479.18,-29.73"/>
</a>
</g>
</g>
<!-- Node10 -->
<g id="Node000010" class="node">
<title>Node10</title>
<g id="a_Node000010"><a xlink:title=" ">
<polygon fill="#e0e0e0" stroke="#999999" points="456.25,-19.25 413.25,-19.25 413.25,0 456.25,0 456.25,-19.25"/>
<text xml:space="preserve" text-anchor="middle" x="434.75" y="-5.75" font-family="Helvetica,sans-Serif" font-size="10.00">vector</text>
</a>
</g>
</g>
<!-- Node9&#45;&gt;Node10 -->
<g id="edge9_Node000009_Node000010" class="edge">
<title>Node9&#45;&gt;Node10</title>
<g id="a_edge9_Node000009_Node000010"><a xlink:title=" ">
<path fill="none" stroke="#63b8ff" d="M434.75,-55.08C434.75,-48.57 434.75,-39.42 434.75,-31.12"/>
<polygon fill="#63b8ff" stroke="#63b8ff" points="438.25,-31.12 434.75,-21.12 431.25,-31.12 438.25,-31.12"/>
</a>
</g>
</g>
</g>
</svg>
