<?xml version="1.0" encoding="UTF-8" standalone="no"?>
<!DOCTYPE svg PUBLIC "-//W3C//DTD SVG 1.1//EN"
 "http://www.w3.org/Graphics/SVG/1.1/DTD/svg11.dtd">
<!-- Generated by graphviz version 13.1.2 (20250808.2320)
 -->
<!-- Title: comppare::internal::helper::parse_args Pages: 1 -->
<svg width="590pt" height="186pt"
 viewBox="0.00 0.00 590.00 186.00" xmlns="http://www.w3.org/2000/svg" xmlns:xlink="http://www.w3.org/1999/xlink">
<g id="graph0" class="graph" transform="scale(1 1) rotate(0) translate(4 181.5)">
<title>comppare::internal::helper::parse_args</title>
<!-- Node1 -->
<g id="Node000001" class="node">
<title>Node1</title>
<g id="a_Node000001"><a xlink:title=" ">
<polygon fill="#999999" stroke="#666666" points="102.25,-103.5 0,-103.5 0,-73 102.25,-73 102.25,-103.5"/>
<text xml:space="preserve" text-anchor="start" x="8" y="-90" font-family="Helvetica,sans-Serif" font-size="10.00">comppare::internal</text>
<text xml:space="preserve" text-anchor="middle" x="51.12" y="-78.75" font-family="Helvetica,sans-Serif" font-size="10.00">::helper::parse_args</text>
</a>
</g>
</g>
<!-- Node2 -->
<g id="Node000002" class="node">
<title>Node2</title>
<g id="a_Node000002"><a xlink:href="namespacecomppare_1_1internal_1_1helper.html#a5a058274ce4d461c1ee3150183b897ef" target="_top" xlink:title=" ">
<polygon fill="white" stroke="#666666" points="253.25,-177.5 138.25,-177.5 138.25,-147 253.25,-147 253.25,-177.5"/>
<text xml:space="preserve" text-anchor="start" x="146.25" y="-164" font-family="Helvetica,sans-Serif" font-size="10.00">comppare::internal</text>
<text xml:space="preserve" text-anchor="middle" x="195.75" y="-152.75" font-family="Helvetica,sans-Serif" font-size="10.00">::helper::get_arg_value</text>
</a>
</g>
</g>
<!-- Node1&#45;&gt;Node2 -->
<g id="edge1_Node000001_Node000002" class="edge">
<title>Node1&#45;&gt;Node2</title>
<g id="a_edge1_Node000001_Node000002"><a xlink:title=" ">
<path fill="none" stroke="#63b8ff" d="M78.14,-103.96C95.03,-113.93 117.67,-126.87 138.25,-137.25 141.27,-138.77 144.39,-140.29 147.56,-141.8"/>
<polygon fill="#63b8ff" stroke="#63b8ff" points="145.81,-144.84 156.35,-145.87 148.75,-138.49 145.81,-144.84"/>
</a>
</g>
</g>
<!-- Node3 -->
<g id="Node000003" class="node">
<title>Node3</title>
<g id="a_Node000003"><a xlink:href="classcomppare_1_1config.html#ac6861c4582a0620d0163ac03fb314d19" target="_top" xlink:title="Set the floating&#45;point tolerance for all supported types.">
<polygon fill="white" stroke="#666666" points="251,-128.5 140.5,-128.5 140.5,-98 251,-98 251,-128.5"/>
<text xml:space="preserve" text-anchor="start" x="148.5" y="-115" font-family="Helvetica,sans-Serif" font-size="10.00">comppare::config::set</text>
<text xml:space="preserve" text-anchor="middle" x="195.75" y="-103.75" font-family="Helvetica,sans-Serif" font-size="10.00">_all_fp_tolerance</text>
</a>
</g>
</g>
<!-- Node1&#45;&gt;Node3 -->
<g id="edge2_Node000001_Node000003" class="edge">
<title>Node1&#45;&gt;Node3</title>
<g id="a_edge2_Node000001_Node000003"><a xlink:title=" ">
<path fill="none" stroke="#63b8ff" d="M102.41,-97.06C110.98,-98.57 120,-100.15 128.9,-101.71"/>
<polygon fill="#63b8ff" stroke="#63b8ff" points="128.13,-105.13 138.58,-103.4 129.34,-98.23 128.13,-105.13"/>
</a>
</g>
</g>
<!-- Node5 -->
<g id="Node000005" class="node">
<title>Node5</title>
<g id="a_Node000005"><a xlink:href="classcomppare_1_1config.html#ad75d5706a66a2ef398540ef9cd1cfbab" target="_top" xlink:title="Set the number of benchmark iterations.">
<polygon fill="white" stroke="#666666" points="251,-79.5 140.5,-79.5 140.5,-49 251,-49 251,-79.5"/>
<text xml:space="preserve" text-anchor="start" x="148.5" y="-66" font-family="Helvetica,sans-Serif" font-size="10.00">comppare::config::set</text>
<text xml:space="preserve" text-anchor="middle" x="195.75" y="-54.75" font-family="Helvetica,sans-Serif" font-size="10.00">_bench_iters</text>
</a>
</g>
</g>
<!-- Node1&#45;&gt;Node5 -->
<g id="edge4_Node000001_Node000005" class="edge">
<title>Node1&#45;&gt;Node5</title>
<g id="a_edge4_Node000001_Node000005"><a xlink:title=" ">
<path fill="none" stroke="#63b8ff" d="M102.41,-79.79C110.98,-78.35 120,-76.83 128.9,-75.33"/>
<polygon fill="#63b8ff" stroke="#63b8ff" points="129.3,-78.81 138.58,-73.7 128.14,-71.91 129.3,-78.81"/>
</a>
</g>
</g>
<!-- Node8 -->
<g id="Node000008" class="node">
<title>Node8</title>
<g id="a_Node000008"><a xlink:href="classcomppare_1_1config.html#a3f652923ccdafc020e3079c12fb777d8" target="_top" xlink:title="Set the number of warmup iterations.">
<polygon fill="white" stroke="#666666" points="251,-30.5 140.5,-30.5 140.5,0 251,0 251,-30.5"/>
<text xml:space="preserve" text-anchor="start" x="148.5" y="-17" font-family="Helvetica,sans-Serif" font-size="10.00">comppare::config::set</text>
<text xml:space="preserve" text-anchor="middle" x="195.75" y="-5.75" font-family="Helvetica,sans-Serif" font-size="10.00">_warmup_iters</text>
</a>
</g>
</g>
<!-- Node1&#45;&gt;Node8 -->
<g id="edge8_Node000001_Node000008" class="edge">
<title>Node1&#45;&gt;Node8</title>
<g id="a_edge8_Node000001_Node000008"><a xlink:title=" ">
<path fill="none" stroke="#63b8ff" d="M78.56,-72.69C95.43,-62.97 117.88,-50.41 138.25,-40.25 141.32,-38.72 144.5,-37.18 147.72,-35.66"/>
<polygon fill="#63b8ff" stroke="#63b8ff" points="149.06,-38.9 156.68,-31.54 146.13,-32.54 149.06,-38.9"/>
</a>
</g>
</g>
<!-- Node4 -->
<g id="Node000004" class="node">
<title>Node4</title>
<g id="a_Node000004"><a xlink:href="classcomppare_1_1config.html#a91e094e77d9468f8361f2b9b99aff3c2" target="_top" xlink:title="Get the floating&#45;point tolerance for a specific floating&#45;point type.">
<polygon fill="white" stroke="#666666" points="408.75,-128.5 303.5,-128.5 303.5,-98 408.75,-98 408.75,-128.5"/>
<text xml:space="preserve" text-anchor="start" x="311.5" y="-115" font-family="Helvetica,sans-Serif" font-size="10.00">comppare::config::fp</text>
<text xml:space="preserve" text-anchor="middle" x="356.12" y="-103.75" font-family="Helvetica,sans-Serif" font-size="10.00">_tolerance</text>
</a>
</g>
</g>
<!-- Node3&#45;&gt;Node4 -->
<g id="edge3_Node000003_Node000004" class="edge">
<title>Node3&#45;&gt;Node4</title>
<g id="a_edge3_Node000003_Node000004"><a xlink:title=" ">
<path fill="none" stroke="#63b8ff" d="M251.25,-113.25C264.4,-113.25 278.55,-113.25 292.04,-113.25"/>
<polygon fill="#63b8ff" stroke="#63b8ff" points="291.68,-116.75 301.68,-113.25 291.68,-109.75 291.68,-116.75"/>
</a>
</g>
</g>
<!-- Node6 -->
<g id="Node000006" class="node">
<title>Node6</title>
<g id="a_Node000006"><a xlink:href="classcomppare_1_1config.html#a2913df9eb204fa9839adb38858d6cfd2" target="_top" xlink:title="Get the singleton instance of the config class.">
<polygon fill="white" stroke="#666666" points="423,-49.88 289.25,-49.88 289.25,-30.62 423,-30.62 423,-49.88"/>
<text xml:space="preserve" text-anchor="middle" x="356.12" y="-36.38" font-family="Helvetica,sans-Serif" font-size="10.00">comppare::config::instance</text>
</a>
</g>
</g>
<!-- Node5&#45;&gt;Node6 -->
<g id="edge5_Node000005_Node000006" class="edge">
<title>Node5&#45;&gt;Node6</title>
<g id="a_edge5_Node000005_Node000006"><a xlink:title=" ">
<path fill="none" stroke="#63b8ff" d="M251.25,-55.99C259.75,-54.7 268.66,-53.35 277.55,-52.01"/>
<polygon fill="#63b8ff" stroke="#63b8ff" points="277.9,-55.49 287.26,-50.53 276.85,-48.57 277.9,-55.49"/>
</a>
</g>
</g>
<!-- Node7 -->
<g id="Node000007" class="node">
<title>Node7</title>
<g id="a_Node000007"><a xlink:href="classcomppare_1_1config.html#a3b3362c3001d7972c21a9be1f1744ff5" target="_top" xlink:title="Deleted copy constructor.">
<polygon fill="white" stroke="#666666" points="582.25,-49.88 459,-49.88 459,-30.62 582.25,-30.62 582.25,-49.88"/>
<text xml:space="preserve" text-anchor="middle" x="520.62" y="-36.38" font-family="Helvetica,sans-Serif" font-size="10.00">comppare::config::config</text>
</a>
</g>
</g>
<!-- Node6&#45;&gt;Node7 -->
<g id="edge6_Node000006_Node000007" class="edge">
<title>Node6&#45;&gt;Node7</title>
<g id="a_edge6_Node000006_Node000007"><a xlink:title=" ">
<path fill="none" stroke="#63b8ff" d="M423.22,-40.25C431.07,-40.25 439.12,-40.25 447.06,-40.25"/>
<polygon fill="#63b8ff" stroke="#63b8ff" points="447.05,-43.75 457.05,-40.25 447.05,-36.75 447.05,-43.75"/>
</a>
</g>
</g>
<!-- Node7&#45;&gt;Node7 -->
<g id="edge7_Node000007_Node000007" class="edge">
<title>Node7&#45;&gt;Node7</title>
<g id="a_edge7_Node000007_Node000007"><a xlink:title=" ">
<path fill="none" stroke="#63b8ff" d="M494.87,-50.16C483.12,-58.77 491.71,-67.88 520.62,-67.88 536.89,-67.88 546.72,-64.99 550.12,-60.94"/>
<polygon fill="#63b8ff" stroke="#63b8ff" points="553.46,-59.89 546.87,-51.59 546.85,-62.19 553.46,-59.89"/>
</a>
</g>
</g>
<!-- Node8&#45;&gt;Node6 -->
<g id="edge9_Node000008_Node000006" class="edge">
<title>Node8&#45;&gt;Node6</title>
<g id="a_edge9_Node000008_Node000006"><a xlink:title=" ">
<path fill="none" stroke="#63b8ff" d="M251.25,-23.85C260.51,-25.32 270.28,-26.86 279.96,-28.38"/>
<polygon fill="#63b8ff" stroke="#63b8ff" points="279.33,-31.83 289.75,-29.93 280.42,-24.91 279.33,-31.83"/>
</a>
</g>
</g>
</g>
</svg>
