<?xml version="1.0" encoding="UTF-8" standalone="no"?>
<!DOCTYPE svg PUBLIC "-//W3C//DTD SVG 1.1//EN"
 "http://www.w3.org/Graphics/SVG/1.1/DTD/svg11.dtd">
<!-- Generated by graphviz version 13.1.2 (20250808.2320)
 -->
<!-- Title: include/comppare/plugin/nvbench/nvbench.hpp Pages: 1 -->
<svg width="565pt" height="149pt"
 viewBox="0.00 0.00 565.00 149.00" xmlns="http://www.w3.org/2000/svg" xmlns:xlink="http://www.w3.org/1999/xlink">
<g id="graph0" class="graph" transform="scale(1 1) rotate(0) translate(4 145)">
<title>include/comppare/plugin/nvbench/nvbench.hpp</title>
<!-- Node1 -->
<g id="Node000001" class="node">
<title>Node1</title>
<g id="a_Node000001"><a xlink:title=" ">
<polygon fill="#999999" stroke="#666666" points="442.12,-141 321.12,-141 321.12,-110.5 442.12,-110.5 442.12,-141"/>
<text xml:space="preserve" text-anchor="start" x="329.12" y="-127.5" font-family="Helvetica,sans-Serif" font-size="10.00">include/comppare/plugin</text>
<text xml:space="preserve" text-anchor="middle" x="381.62" y="-116.25" font-family="Helvetica,sans-Serif" font-size="10.00">/nvbench/nvbench.hpp</text>
</a>
</g>
</g>
<!-- Node2 -->
<g id="Node000002" class="node">
<title>Node2</title>
<g id="a_Node000002"><a xlink:title=" ">
<polygon fill="#e0e0e0" stroke="#999999" points="182.25,-74.5 71,-74.5 71,-55.25 182.25,-55.25 182.25,-74.5"/>
<text xml:space="preserve" text-anchor="middle" x="126.62" y="-61" font-family="Helvetica,sans-Serif" font-size="10.00">nvbench/nvbench.cuh</text>
</a>
</g>
</g>
<!-- Node1&#45;&gt;Node2 -->
<g id="edge1_Node000001_Node000002" class="edge">
<title>Node1&#45;&gt;Node2</title>
<g id="a_edge1_Node000001_Node000002"><a xlink:title=" ">
<path fill="none" stroke="#63b8ff" d="M320.87,-110.72C276.97,-100.59 218.38,-87.06 177.06,-77.52"/>
<polygon fill="#63b8ff" stroke="#63b8ff" points="177.9,-74.12 167.37,-75.28 176.32,-80.94 177.9,-74.12"/>
</a>
</g>
</g>
<!-- Node3 -->
<g id="Node000003" class="node">
<title>Node3</title>
<g id="a_Node000003"><a xlink:href="plugin_8hpp.html" target="_top" xlink:title="This file contains the base Plugin class and concept of a valid Plugin class for the ComPPare framewo...">
<polygon fill="white" stroke="#666666" points="334.88,-74.5 200.38,-74.5 200.38,-55.25 334.88,-55.25 334.88,-74.5"/>
<text xml:space="preserve" text-anchor="middle" x="267.62" y="-61" font-family="Helvetica,sans-Serif" font-size="10.00">comppare/plugin/plugin.hpp</text>
</a>
</g>
</g>
<!-- Node1&#45;&gt;Node3 -->
<g id="edge2_Node000001_Node000003" class="edge">
<title>Node1&#45;&gt;Node3</title>
<g id="a_edge2_Node000001_Node000003"><a xlink:title=" ">
<path fill="none" stroke="#63b8ff" d="M353.15,-110.05C335.46,-100.91 312.82,-89.22 295.28,-80.16"/>
<polygon fill="#63b8ff" stroke="#63b8ff" points="296.94,-77.08 286.45,-75.6 293.73,-83.3 296.94,-77.08"/>
</a>
</g>
</g>
<!-- Node8 -->
<g id="Node000008" class="node">
<title>Node8</title>
<g id="a_Node000008"><a xlink:title=" ">
<polygon fill="#e0e0e0" stroke="#999999" points="388.25,-19.25 337,-19.25 337,0 388.25,0 388.25,-19.25"/>
<text xml:space="preserve" text-anchor="middle" x="362.62" y="-5.75" font-family="Helvetica,sans-Serif" font-size="10.00">sstream</text>
</a>
</g>
</g>
<!-- Node1&#45;&gt;Node8 -->
<g id="edge12_Node000001_Node000008" class="edge">
<title>Node1&#45;&gt;Node8</title>
<g id="a_edge12_Node000001_Node000008"><a xlink:title=" ">
<path fill="none" stroke="#63b8ff" d="M379.22,-110.3C375.87,-90.15 369.77,-53.56 365.98,-30.75"/>
<polygon fill="#63b8ff" stroke="#63b8ff" points="369.48,-30.48 364.38,-21.19 362.57,-31.63 369.48,-30.48"/>
</a>
</g>
</g>
<!-- Node9 -->
<g id="Node000009" class="node">
<title>Node9</title>
<g id="a_Node000009"><a xlink:title=" ">
<polygon fill="#e0e0e0" stroke="#999999" points="446.62,-19.25 406.62,-19.25 406.62,0 446.62,0 446.62,-19.25"/>
<text xml:space="preserve" text-anchor="middle" x="426.62" y="-5.75" font-family="Helvetica,sans-Serif" font-size="10.00">string</text>
</a>
</g>
</g>
<!-- Node1&#45;&gt;Node9 -->
<g id="edge13_Node000001_Node000009" class="edge">
<title>Node1&#45;&gt;Node9</title>
<g id="a_edge13_Node000001_Node000009"><a xlink:title=" ">
<path fill="none" stroke="#63b8ff" d="M387.32,-110.3C395.34,-89.97 409.96,-52.88 418.94,-30.12"/>
<polygon fill="#63b8ff" stroke="#63b8ff" points="422.08,-31.69 422.49,-21.11 415.57,-29.13 422.08,-31.69"/>
</a>
</g>
</g>
<!-- Node11 -->
<g id="Node000011" class="node">
<title>Node11</title>
<g id="a_Node000011"><a xlink:title=" ">
<polygon fill="#e0e0e0" stroke="#999999" points="480.25,-74.5 429,-74.5 429,-55.25 480.25,-55.25 480.25,-74.5"/>
<text xml:space="preserve" text-anchor="middle" x="454.62" y="-61" font-family="Helvetica,sans-Serif" font-size="10.00">memory</text>
</a>
</g>
</g>
<!-- Node1&#45;&gt;Node11 -->
<g id="edge10_Node000001_Node000011" class="edge">
<title>Node1&#45;&gt;Node11</title>
<g id="a_edge10_Node000001_Node000011"><a xlink:title=" ">
<path fill="none" stroke="#63b8ff" d="M399.67,-110.2C410.25,-101.66 423.64,-90.87 434.55,-82.06"/>
<polygon fill="#63b8ff" stroke="#63b8ff" points="436.61,-84.9 442.19,-75.9 432.21,-79.45 436.61,-84.9"/>
</a>
</g>
</g>
<!-- Node12 -->
<g id="Node000012" class="node">
<title>Node12</title>
<g id="a_Node000012"><a xlink:title=" ">
<polygon fill="#e0e0e0" stroke="#999999" points="556.62,-74.5 498.62,-74.5 498.62,-55.25 556.62,-55.25 556.62,-74.5"/>
<text xml:space="preserve" text-anchor="middle" x="527.62" y="-61" font-family="Helvetica,sans-Serif" font-size="10.00">functional</text>
</a>
</g>
</g>
<!-- Node1&#45;&gt;Node12 -->
<g id="edge11_Node000001_Node000012" class="edge">
<title>Node1&#45;&gt;Node12</title>
<g id="a_edge11_Node000001_Node000012"><a xlink:title=" ">
<path fill="none" stroke="#63b8ff" d="M418.09,-110.05C441.61,-100.56 471.94,-88.33 494.72,-79.14"/>
<polygon fill="#63b8ff" stroke="#63b8ff" points="495.87,-82.46 503.83,-75.47 493.25,-75.96 495.87,-82.46"/>
</a>
</g>
</g>
<!-- Node4 -->
<g id="Node000004" class="node">
<title>Node4</title>
<g id="a_Node000004"><a xlink:title=" ">
<polygon fill="#e0e0e0" stroke="#999999" points="318.5,-19.25 262.75,-19.25 262.75,0 318.5,0 318.5,-19.25"/>
<text xml:space="preserve" text-anchor="middle" x="290.62" y="-5.75" font-family="Helvetica,sans-Serif" font-size="10.00">concepts</text>
</a>
</g>
</g>
<!-- Node3&#45;&gt;Node4 -->
<g id="edge3_Node000003_Node000004" class="edge">
<title>Node3&#45;&gt;Node4</title>
<g id="a_edge3_Node000003_Node000004"><a xlink:title=" ">
<path fill="none" stroke="#63b8ff" d="M271.42,-55.08C274.37,-48.26 278.56,-38.56 282.28,-29.95"/>
<polygon fill="#63b8ff" stroke="#63b8ff" points="285.39,-31.57 286.14,-21 278.97,-28.79 285.39,-31.57"/>
</a>
</g>
</g>
<!-- Node5 -->
<g id="Node000005" class="node">
<title>Node5</title>
<g id="a_Node000005"><a xlink:title=" ">
<polygon fill="#e0e0e0" stroke="#999999" points="39.25,-19.25 0,-19.25 0,0 39.25,0 39.25,-19.25"/>
<text xml:space="preserve" text-anchor="middle" x="19.62" y="-5.75" font-family="Helvetica,sans-Serif" font-size="10.00">utility</text>
</a>
</g>
</g>
<!-- Node3&#45;&gt;Node5 -->
<g id="edge4_Node000003_Node000005" class="edge">
<title>Node3&#45;&gt;Node5</title>
<g id="a_edge4_Node000003_Node000005"><a xlink:title=" ">
<path fill="none" stroke="#63b8ff" d="M216.45,-54.77C174.32,-46.97 112.83,-34.92 50.38,-19.5"/>
<polygon fill="#63b8ff" stroke="#63b8ff" points="51.55,-16.19 41,-17.16 49.85,-22.98 51.55,-16.19"/>
</a>
</g>
</g>
<!-- Node6 -->
<g id="Node000006" class="node">
<title>Node6</title>
<g id="a_Node000006"><a xlink:title=" ">
<polygon fill="#e0e0e0" stroke="#999999" points="107.5,-19.25 57.75,-19.25 57.75,0 107.5,0 107.5,-19.25"/>
<text xml:space="preserve" text-anchor="middle" x="82.62" y="-5.75" font-family="Helvetica,sans-Serif" font-size="10.00">iomanip</text>
</a>
</g>
</g>
<!-- Node3&#45;&gt;Node6 -->
<g id="edge5_Node000003_Node000006" class="edge">
<title>Node3&#45;&gt;Node6</title>
<g id="a_edge5_Node000003_Node000006"><a xlink:title=" ">
<path fill="none" stroke="#63b8ff" d="M236.24,-54.84C203.73,-45.48 152.99,-30.88 118.81,-21.04"/>
<polygon fill="#63b8ff" stroke="#63b8ff" points="119.94,-17.72 109.36,-18.32 118,-24.45 119.94,-17.72"/>
</a>
</g>
</g>
<!-- Node7 -->
<g id="Node000007" class="node">
<title>Node7</title>
<g id="a_Node000007"><a xlink:title=" ">
<polygon fill="#e0e0e0" stroke="#999999" points="184,-19.25 125.25,-19.25 125.25,0 184,0 184,-19.25"/>
<text xml:space="preserve" text-anchor="middle" x="154.62" y="-5.75" font-family="Helvetica,sans-Serif" font-size="10.00">stdexcept</text>
</a>
</g>
</g>
<!-- Node3&#45;&gt;Node7 -->
<g id="edge6_Node000003_Node000007" class="edge">
<title>Node3&#45;&gt;Node7</title>
<g id="a_edge6_Node000003_Node000007"><a xlink:title=" ">
<path fill="none" stroke="#63b8ff" d="M248.46,-54.84C230.84,-46.54 204.47,-34.11 184.16,-24.54"/>
<polygon fill="#63b8ff" stroke="#63b8ff" points="185.8,-21.44 175.26,-20.35 182.81,-27.78 185.8,-21.44"/>
</a>
</g>
</g>
<!-- Node3&#45;&gt;Node8 -->
<g id="edge7_Node000003_Node000008" class="edge">
<title>Node3&#45;&gt;Node8</title>
<g id="a_edge7_Node000003_Node000008"><a xlink:title=" ">
<path fill="none" stroke="#63b8ff" d="M283.74,-54.84C298.21,-46.73 319.7,-34.68 336.61,-25.21"/>
<polygon fill="#63b8ff" stroke="#63b8ff" points="338.1,-28.39 345.11,-20.44 334.68,-22.28 338.1,-28.39"/>
</a>
</g>
</g>
<!-- Node3&#45;&gt;Node9 -->
<g id="edge8_Node000003_Node000009" class="edge">
<title>Node3&#45;&gt;Node9</title>
<g id="a_edge8_Node000003_Node000009"><a xlink:title=" ">
<path fill="none" stroke="#63b8ff" d="M294.6,-54.84C322.6,-45.46 366.34,-30.82 395.72,-20.98"/>
<polygon fill="#63b8ff" stroke="#63b8ff" points="396.78,-24.31 405.15,-17.82 394.56,-17.67 396.78,-24.31"/>
</a>
</g>
</g>
<!-- Node10 -->
<g id="Node000010" class="node">
<title>Node10</title>
<g id="a_Node000010"><a xlink:title=" ">
<polygon fill="#e0e0e0" stroke="#999999" points="245.12,-19.25 202.12,-19.25 202.12,0 245.12,0 245.12,-19.25"/>
<text xml:space="preserve" text-anchor="middle" x="223.62" y="-5.75" font-family="Helvetica,sans-Serif" font-size="10.00">vector</text>
</a>
</g>
</g>
<!-- Node3&#45;&gt;Node10 -->
<g id="edge9_Node000003_Node000010" class="edge">
<title>Node3&#45;&gt;Node10</title>
<g id="a_edge9_Node000003_Node000010"><a xlink:title=" ">
<path fill="none" stroke="#63b8ff" d="M260.36,-55.08C254.34,-47.8 245.61,-37.23 238.17,-28.23"/>
<polygon fill="#63b8ff" stroke="#63b8ff" points="241.08,-26.26 232.01,-20.78 235.68,-30.71 241.08,-26.26"/>
</a>
</g>
</g>
</g>
</svg>
