<?xml version="1.0" encoding="UTF-8" standalone="no"?>
<!DOCTYPE svg PUBLIC "-//W3C//DTD SVG 1.1//EN"
 "http://www.w3.org/Graphics/SVG/1.1/DTD/svg11.dtd">
<!-- Generated by graphviz version 13.1.2 (20250808.2320)
 -->
<!-- Title: include/comppare/plugin/plugin.hpp Pages: 1 -->
<svg width="295pt" height="172pt"
 viewBox="0.00 0.00 295.00 172.00" xmlns="http://www.w3.org/2000/svg" xmlns:xlink="http://www.w3.org/1999/xlink">
<g id="graph0" class="graph" transform="scale(1 1) rotate(0) translate(4 167.5)">
<title>include/comppare/plugin/plugin.hpp</title>
<!-- Node1 -->
<g id="Node000001" class="node">
<title>Node1</title>
<g id="a_Node000001"><a xlink:title="This file contains the base Plugin class and concept of a valid Plugin class for the ComPPare framewo...">
<polygon fill="#999999" stroke="#666666" points="142.24,-163.5 21.24,-163.5 21.24,-133 142.24,-133 142.24,-163.5"/>
<text xml:space="preserve" text-anchor="start" x="29.24" y="-150" font-family="Helvetica,sans-Serif" font-size="10.00">include/comppare/plugin</text>
<text xml:space="preserve" text-anchor="middle" x="81.74" y="-138.75" font-family="Helvetica,sans-Serif" font-size="10.00">/plugin.hpp</text>
</a>
</g>
</g>
<!-- Node2 -->
<g id="Node000002" class="node">
<title>Node2</title>
<g id="a_Node000002"><a xlink:href="comppare_8hpp.html" target="_top" xlink:title="This file is the main include file for the ComPPare framework.">
<polygon fill="white" stroke="#666666" points="160.24,-19.25 3.24,-19.25 3.24,0 160.24,0 160.24,-19.25"/>
<text xml:space="preserve" text-anchor="middle" x="81.74" y="-5.75" font-family="Helvetica,sans-Serif" font-size="10.00">include/comppare/comppare.hpp</text>
</a>
</g>
</g>
<!-- Node1&#45;&gt;Node2 -->
<g id="edge1_Node000001_Node000002" class="edge">
<title>Node1&#45;&gt;Node2</title>
<g id="a_edge1_Node000001_Node000002"><a xlink:title=" ">
<path fill="none" stroke="#63b8ff" d="M36.04,-126.72C24.39,-119.14 13.32,-109.31 6.74,-97 -1.99,-80.63 -2.43,-71.38 6.74,-55.25 16.63,-37.86 36.26,-26.54 52.96,-19.65"/>
<polygon fill="#63b8ff" stroke="#63b8ff" points="34.19,-129.7 44.58,-131.8 37.77,-123.68 34.19,-129.7"/>
</a>
</g>
</g>
<!-- Node3 -->
<g id="Node000003" class="node">
<title>Node3</title>
<g id="a_Node000003"><a xlink:href="google__benchmark_8hpp.html" target="_top" xlink:title="This file contains the Google Benchmark plugin for the ComPPare framework.">
<polygon fill="white" stroke="#666666" points="147.87,-97 15.62,-97 15.62,-55.25 147.87,-55.25 147.87,-97"/>
<text xml:space="preserve" text-anchor="start" x="23.62" y="-83.5" font-family="Helvetica,sans-Serif" font-size="10.00">include/comppare/plugin</text>
<text xml:space="preserve" text-anchor="start" x="23.62" y="-72.25" font-family="Helvetica,sans-Serif" font-size="10.00">/google_benchmark/google</text>
<text xml:space="preserve" text-anchor="middle" x="81.74" y="-61" font-family="Helvetica,sans-Serif" font-size="10.00">_benchmark.hpp</text>
</a>
</g>
</g>
<!-- Node1&#45;&gt;Node3 -->
<g id="edge2_Node000001_Node000003" class="edge">
<title>Node1&#45;&gt;Node3</title>
<g id="a_edge2_Node000001_Node000003"><a xlink:title=" ">
<path fill="none" stroke="#63b8ff" d="M81.74,-121.47C81.74,-113.56 81.74,-104.98 81.74,-97.49"/>
<polygon fill="#63b8ff" stroke="#63b8ff" points="78.24,-121.21 81.74,-131.21 85.24,-121.21 78.24,-121.21"/>
</a>
</g>
</g>
<!-- Node4 -->
<g id="Node000004" class="node">
<title>Node4</title>
<g id="a_Node000004"><a xlink:href="nvbench_8hpp.html" target="_top" xlink:title=" ">
<polygon fill="white" stroke="#666666" points="287.24,-91.38 166.24,-91.38 166.24,-60.88 287.24,-60.88 287.24,-91.38"/>
<text xml:space="preserve" text-anchor="start" x="174.24" y="-77.88" font-family="Helvetica,sans-Serif" font-size="10.00">include/comppare/plugin</text>
<text xml:space="preserve" text-anchor="middle" x="226.74" y="-66.62" font-family="Helvetica,sans-Serif" font-size="10.00">/nvbench/nvbench.hpp</text>
</a>
</g>
</g>
<!-- Node1&#45;&gt;Node4 -->
<g id="edge4_Node000001_Node000004" class="edge">
<title>Node1&#45;&gt;Node4</title>
<g id="a_edge4_Node000001_Node000004"><a xlink:title=" ">
<path fill="none" stroke="#63b8ff" d="M122.48,-127.55C145.94,-116.2 174.94,-102.18 196.39,-91.81"/>
<polygon fill="#63b8ff" stroke="#63b8ff" points="120.98,-124.39 113.5,-131.89 124.03,-130.69 120.98,-124.39"/>
</a>
</g>
</g>
<!-- Node3&#45;&gt;Node2 -->
<g id="edge3_Node000003_Node000002" class="edge">
<title>Node3&#45;&gt;Node2</title>
<g id="a_edge3_Node000003_Node000002"><a xlink:title=" ">
<path fill="none" stroke="#63b8ff" d="M81.74,-43.76C81.74,-34.95 81.74,-26.05 81.74,-19.7"/>
<polygon fill="#63b8ff" stroke="#63b8ff" points="78.24,-43.56 81.74,-53.56 85.24,-43.56 78.24,-43.56"/>
</a>
</g>
</g>
<!-- Node4&#45;&gt;Node2 -->
<g id="edge5_Node000004_Node000002" class="edge">
<title>Node4&#45;&gt;Node2</title>
<g id="a_edge5_Node000004_Node000002"><a xlink:title=" ">
<path fill="none" stroke="#63b8ff" d="M183.48,-55.88C156.49,-43.87 123,-28.98 102,-19.63"/>
<polygon fill="#63b8ff" stroke="#63b8ff" points="181.9,-59.01 192.46,-59.87 184.74,-52.61 181.9,-59.01"/>
</a>
</g>
</g>
</g>
</svg>
