<?xml version="1.0" encoding="UTF-8" standalone="no"?>
<!DOCTYPE svg PUBLIC "-//W3C//DTD SVG 1.1//EN"
 "http://www.w3.org/Graphics/SVG/1.1/DTD/svg11.dtd">
<!-- Generated by graphviz version 13.1.2 (20250808.2320)
 -->
<!-- Title: include/comppare/plugin/plugin.hpp Pages: 1 -->
<svg width="455pt" height="94pt"
 viewBox="0.00 0.00 455.00 94.00" xmlns="http://www.w3.org/2000/svg" xmlns:xlink="http://www.w3.org/1999/xlink">

<svg id="main" version="1.1" xmlns="http://www.w3.org/2000/svg" xmlns:xlink="http://www.w3.org/1999/xlink" xml:space="preserve">

<style type="text/css"><![CDATA[
.node, .edge {opacity: 0.7;}
.node.selected, .edge.selected {opacity: 1;}
.edge:hover path { stroke: red; }
.edge:hover polygon { stroke: red; fill: red; }
]]></style>
<script type="application/ecmascript" xlink:href="svg.min.js"/>
<svg id="graph" class="graph">
<g id="graph0" class="graph" transform="scale(1 1) rotate(0) translate(4 89.75)">
<title>include/comppare/plugin/plugin.hpp</title>
<!-- Node1 -->
<g id="Node000001" class="node">
<title>Node1</title>
<g id="a_Node000001"><a xlink:title="This file contains the base Plugin class and concept of a valid Plugin class for the ComPPare framewo...">
<polygon fill="#999999" stroke="#666666" points="289.38,-85.75 168.38,-85.75 168.38,-55.25 289.38,-55.25 289.38,-85.75"/>
<text xml:space="preserve" text-anchor="start" x="176.38" y="-72.25" font-family="Helvetica,sans-Serif" font-size="10.00">include/comppare/plugin</text>
<text xml:space="preserve" text-anchor="middle" x="228.88" y="-61" font-family="Helvetica,sans-Serif" font-size="10.00">/plugin.hpp</text>
</a>
</g>
</g>
<!-- Node2 -->
<g id="Node000002" class="node">
<title>Node2</title>
<g id="a_Node000002"><a xlink:title=" ">
<polygon fill="#e0e0e0" stroke="#999999" points="55.75,-19.25 0,-19.25 0,0 55.75,0 55.75,-19.25"/>
<text xml:space="preserve" text-anchor="middle" x="27.88" y="-5.75" font-family="Helvetica,sans-Serif" font-size="10.00">concepts</text>
</a>
</g>
</g>
<!-- Node1&#45;&gt;Node2 -->
<g id="edge1_Node000001_Node000002" class="edge">
<title>Node1&#45;&gt;Node2</title>
<g id="a_edge1_Node000001_Node000002"><a xlink:title=" ">
<path fill="none" stroke="#63b8ff" d="M178.67,-54.8C144.04,-44.65 98.66,-31.36 66.76,-22.02"/>
<polygon fill="#63b8ff" stroke="#63b8ff" points="68.12,-18.77 57.54,-19.31 66.15,-25.48 68.12,-18.77"/>
</a>
</g>
</g>
<!-- Node3 -->
<g id="Node000003" class="node">
<title>Node3</title>
<g id="a_Node000003"><a xlink:title=" ">
<polygon fill="#e0e0e0" stroke="#999999" points="113.5,-19.25 74.25,-19.25 74.25,0 113.5,0 113.5,-19.25"/>
<text xml:space="preserve" text-anchor="middle" x="93.88" y="-5.75" font-family="Helvetica,sans-Serif" font-size="10.00">utility</text>
</a>
</g>
</g>
<!-- Node1&#45;&gt;Node3 -->
<g id="edge2_Node000001_Node000003" class="edge">
<title>Node1&#45;&gt;Node3</title>
<g id="a_edge2_Node000001_Node000003"><a xlink:title=" ">
<path fill="none" stroke="#63b8ff" d="M195.16,-54.8C173.34,-45.28 145.19,-33 124.1,-23.81"/>
<polygon fill="#63b8ff" stroke="#63b8ff" points="125.74,-20.7 115.18,-19.92 122.94,-27.12 125.74,-20.7"/>
</a>
</g>
</g>
<!-- Node4 -->
<g id="Node000004" class="node">
<title>Node4</title>
<g id="a_Node000004"><a xlink:title=" ">
<polygon fill="#e0e0e0" stroke="#999999" points="181.75,-19.25 132,-19.25 132,0 181.75,0 181.75,-19.25"/>
<text xml:space="preserve" text-anchor="middle" x="156.88" y="-5.75" font-family="Helvetica,sans-Serif" font-size="10.00">iomanip</text>
</a>
</g>
</g>
<!-- Node1&#45;&gt;Node4 -->
<g id="edge3_Node000001_Node000004" class="edge">
<title>Node1&#45;&gt;Node4</title>
<g id="a_edge3_Node000001_Node000004"><a xlink:title=" ">
<path fill="none" stroke="#63b8ff" d="M211.08,-54.95C200.64,-46.41 187.44,-35.62 176.67,-26.81"/>
<polygon fill="#63b8ff" stroke="#63b8ff" points="179.1,-24.28 169.15,-20.66 174.67,-29.7 179.1,-24.28"/>
</a>
</g>
</g>
<!-- Node5 -->
<g id="Node000005" class="node">
<title>Node5</title>
<g id="a_Node000005"><a xlink:title=" ">
<polygon fill="#e0e0e0" stroke="#999999" points="258.25,-19.25 199.5,-19.25 199.5,0 258.25,0 258.25,-19.25"/>
<text xml:space="preserve" text-anchor="middle" x="228.88" y="-5.75" font-family="Helvetica,sans-Serif" font-size="10.00">stdexcept</text>
</a>
</g>
</g>
<!-- Node1&#45;&gt;Node5 -->
<g id="edge4_Node000001_Node000005" class="edge">
<title>Node1&#45;&gt;Node5</title>
<g id="a_edge4_Node000001_Node000005"><a xlink:title=" ">
<path fill="none" stroke="#63b8ff" d="M228.88,-54.95C228.88,-47.71 228.88,-38.84 228.88,-30.94"/>
<polygon fill="#63b8ff" stroke="#63b8ff" points="232.38,-31.21 228.88,-21.21 225.38,-31.21 232.38,-31.21"/>
</a>
</g>
</g>
<!-- Node6 -->
<g id="Node000006" class="node">
<title>Node6</title>
<g id="a_Node000006"><a xlink:title=" ">
<polygon fill="#e0e0e0" stroke="#999999" points="327.5,-19.25 276.25,-19.25 276.25,0 327.5,0 327.5,-19.25"/>
<text xml:space="preserve" text-anchor="middle" x="301.88" y="-5.75" font-family="Helvetica,sans-Serif" font-size="10.00">sstream</text>
</a>
</g>
</g>
<!-- Node1&#45;&gt;Node6 -->
<g id="edge5_Node000001_Node000006" class="edge">
<title>Node1&#45;&gt;Node6</title>
<g id="a_edge5_Node000001_Node000006"><a xlink:title=" ">
<path fill="none" stroke="#63b8ff" d="M246.92,-54.95C257.5,-46.41 270.89,-35.62 281.8,-26.81"/>
<polygon fill="#63b8ff" stroke="#63b8ff" points="283.86,-29.65 289.44,-20.65 279.46,-24.2 283.86,-29.65"/>
</a>
</g>
</g>
<!-- Node7 -->
<g id="Node000007" class="node">
<title>Node7</title>
<g id="a_Node000007"><a xlink:title=" ">
<polygon fill="#e0e0e0" stroke="#999999" points="385.88,-19.25 345.88,-19.25 345.88,0 385.88,0 385.88,-19.25"/>
<text xml:space="preserve" text-anchor="middle" x="365.88" y="-5.75" font-family="Helvetica,sans-Serif" font-size="10.00">string</text>
</a>
</g>
</g>
<!-- Node1&#45;&gt;Node7 -->
<g id="edge6_Node000001_Node000007" class="edge">
<title>Node1&#45;&gt;Node7</title>
<g id="a_edge6_Node000001_Node000007"><a xlink:title=" ">
<path fill="none" stroke="#63b8ff" d="M263.09,-54.8C285.23,-45.28 313.8,-33 335.2,-23.81"/>
<polygon fill="#63b8ff" stroke="#63b8ff" points="336.47,-27.07 344.27,-19.91 333.7,-20.64 336.47,-27.07"/>
</a>
</g>
</g>
<!-- Node8 -->
<g id="Node000008" class="node">
<title>Node8</title>
<g id="a_Node000008"><a xlink:title=" ">
<polygon fill="#e0e0e0" stroke="#999999" points="447.38,-19.25 404.38,-19.25 404.38,0 447.38,0 447.38,-19.25"/>
<text xml:space="preserve" text-anchor="middle" x="425.88" y="-5.75" font-family="Helvetica,sans-Serif" font-size="10.00">vector</text>
</a>
</g>
</g>
<!-- Node1&#45;&gt;Node8 -->
<g id="edge7_Node000001_Node000008" class="edge">
<title>Node1&#45;&gt;Node8</title>
<g id="a_edge7_Node000001_Node000008"><a xlink:title=" ">
<path fill="none" stroke="#63b8ff" d="M278.08,-54.8C314.11,-44.03 362,-29.71 393.36,-20.34"/>
<polygon fill="#63b8ff" stroke="#63b8ff" points="394.09,-23.78 402.67,-17.56 392.09,-17.07 394.09,-23.78"/>
</a>
</g>
</g>
</g>
</svg>
</svg>

<style type='text/css'>
<![CDATA[
[data-mouse-over-selected='false'] { opacity: 0.7; }
[data-mouse-over-selected='true']  { opacity: 1.0; }
]]>
</style>
<script type="application/ecmascript"><![CDATA[
document.addEventListener('DOMContentLoaded', (event) => {
  highlightEdges();
  highlightAdjacentNodes();
});
]]></script>
</svg>
