<?xml version="1.0" encoding="UTF-8" standalone="no"?>
<!DOCTYPE svg PUBLIC "-//W3C//DTD SVG 1.1//EN"
 "http://www.w3.org/Graphics/SVG/1.1/DTD/svg11.dtd">
<!-- Generated by graphviz version 13.1.2 (20250808.2320)
 -->
<!-- Title: include/comppare/internal/policy.hpp Pages: 1 -->
<!--zoomable 204 -->

<svg id="main" version="1.1" xmlns="http://www.w3.org/2000/svg" xmlns:xlink="http://www.w3.org/1999/xlink" xml:space="preserve" onload="init(evt)">

<style type="text/css"><![CDATA[
.node, .edge {opacity: 0.7;}
.node.selected, .edge.selected {opacity: 1;}
.edge:hover path { stroke: red; }
.edge:hover polygon { stroke: red; fill: red; }
]]></style>

<defs>
  <circle id="rim" cx="0" cy="0" r="7"/>
  <circle id="rim2" cx="0" cy="0" r="3.5"/>
  <g id="zoomPlus">
    <use xlink:href="#rim" fill="#404040"><set attributeName="fill" to="#808080" begin="zoomplus.mouseover" end="zoomplus.mouseout"/></use>
    <path d="M-4,0h8M0,-4v8" fill="none" stroke="white" stroke-width="1.5" pointer-events="none"/>
  </g>
  <g id="zoomMin">
    <use xlink:href="#rim" fill="#404040"><set attributeName="fill" to="#808080" begin="zoomminus.mouseover" end="zoomminus.mouseout"/></use>
    <path d="M-4,0h8" fill="none" stroke="white" stroke-width="1.5" pointer-events="none"/>
  </g>
  <g id="arrowUp" transform="translate(30 24)">
    <use xlink:href="#rim"/>
    <path pointer-events="none" fill="none" stroke="white" stroke-width="1.5" d="M0,-3.0v7 M-2.5,-0.5L0,-3.0L2.5,-0.5"/>
  </g>
  <g id="arrowRight" transform="rotate(90) translate(36 -43)">
    <use xlink:href="#rim"/>
    <path pointer-events="none" fill="none" stroke="white" stroke-width="1.5" d="M0,-3.0v7 M-2.5,-0.5L0,-3.0L2.5,-0.5"/>
  </g>
  <g id="arrowDown" transform="rotate(180) translate(-30 -48)">
    <use xlink:href="#rim"/>
    <path pointer-events="none" fill="none" stroke="white" stroke-width="1.5" d="M0,-3.0v7 M-2.5,-0.5L0,-3.0L2.5,-0.5"/>
  </g>
  <g id="arrowLeft" transform="rotate(270) translate(-36 17)">
    <use xlink:href="#rim"/>
    <path pointer-events="none" fill="none" stroke="white" stroke-width="1.5" d="M0,-3.0v7 M-2.5,-0.5L0,-3.0L2.5,-0.5"/>
  </g>
  <g id="resetDef">
    <use xlink:href="#rim2" fill="#404040"><set attributeName="fill" to="#808080" begin="reset.mouseover" end="reset.mouseout"/></use>
  </g>
</defs>
<script type="application/ecmascript">
var viewWidth = 863;
var viewHeight = 204;
var sectionId = 'dynsection-0';
</script>
<script type="application/ecmascript" xlink:href="svg.min.js"/>
<svg id="graph" class="graph">
<g id="viewport">
<title>include/comppare/internal/policy.hpp</title>
<!-- Node1 -->
<g id="Node000001" class="node">
<title>Node1</title>
<g id="a_Node000001"><a xlink:title="This file contains error policies for comparing values in the ComPPare library.">
<polygon fill="#999999" stroke="#666666" points="544.12,-196.25 417.12,-196.25 417.12,-165.75 544.12,-165.75 544.12,-196.25"/>
<text xml:space="preserve" text-anchor="start" x="425.12" y="-182.75" font-family="Helvetica,sans-Serif" font-size="10.00">include/comppare/internal</text>
<text xml:space="preserve" text-anchor="middle" x="480.62" y="-171.5" font-family="Helvetica,sans-Serif" font-size="10.00">/policy.hpp</text>
</a>
</g>
</g>
<!-- Node2 -->
<g id="Node000002" class="node">
<title>Node2</title>
<g id="a_Node000002"><a xlink:title=" ">
<polygon fill="#e0e0e0" stroke="#999999" points="141.5,-19.25 85.75,-19.25 85.75,0 141.5,0 141.5,-19.25"/>
<text xml:space="preserve" text-anchor="middle" x="113.62" y="-5.75" font-family="Helvetica,sans-Serif" font-size="10.00">concepts</text>
</a>
</g>
</g>
<!-- Node1&#45;&gt;Node2 -->
<g id="edge1_Node000001_Node000002" class="edge">
<title>Node1&#45;&gt;Node2</title>
<g id="a_edge1_Node000001_Node000002"><a xlink:title=" ">
<path fill="none" stroke="#63b8ff" d="M416.84,-180.1C353.87,-177.79 256.43,-167.58 181.62,-129.75 150.14,-113.83 141.1,-105.7 124.62,-74.5 117.46,-60.93 114.81,-43.68 113.89,-30.53"/>
<polygon fill="#63b8ff" stroke="#63b8ff" points="117.41,-30.8 113.52,-20.95 110.41,-31.08 117.41,-30.8"/>
</a>
</g>
</g>
<!-- Node3 -->
<g id="Node000003" class="node">
<title>Node3</title>
<g id="a_Node000003"><a xlink:title=" ">
<polygon fill="#e0e0e0" stroke="#999999" points="45.25,-19.25 0,-19.25 0,0 45.25,0 45.25,-19.25"/>
<text xml:space="preserve" text-anchor="middle" x="22.62" y="-5.75" font-family="Helvetica,sans-Serif" font-size="10.00">ranges</text>
</a>
</g>
</g>
<!-- Node1&#45;&gt;Node3 -->
<g id="edge2_Node000001_Node000003" class="edge">
<title>Node1&#45;&gt;Node3</title>
<g id="a_edge2_Node000001_Node000003"><a xlink:title=" ">
<path fill="none" stroke="#63b8ff" d="M416.72,-175.02C333.43,-167.74 192.92,-152.54 146.62,-129.75 97.94,-105.79 55.87,-55.79 35.57,-28.82"/>
<polygon fill="#63b8ff" stroke="#63b8ff" points="38.52,-26.92 29.79,-20.93 32.88,-31.06 38.52,-26.92"/>
</a>
</g>
</g>
<!-- Node4 -->
<g id="Node000004" class="node">
<title>Node4</title>
<g id="a_Node000004"><a xlink:title=" ">
<polygon fill="#e0e0e0" stroke="#999999" points="238.62,-19.25 198.62,-19.25 198.62,0 238.62,0 238.62,-19.25"/>
<text xml:space="preserve" text-anchor="middle" x="218.62" y="-5.75" font-family="Helvetica,sans-Serif" font-size="10.00">string</text>
</a>
</g>
</g>
<!-- Node1&#45;&gt;Node4 -->
<g id="edge3_Node000001_Node000004" class="edge">
<title>Node1&#45;&gt;Node4</title>
<g id="a_edge3_Node000001_Node000004"><a xlink:title=" ">
<path fill="none" stroke="#63b8ff" d="M416.69,-170.68C324.76,-155.73 162.92,-123.03 132.62,-74.5 116.4,-48.5 156.68,-29.51 187.46,-19.28"/>
<polygon fill="#63b8ff" stroke="#63b8ff" points="188.3,-22.68 196.8,-16.36 186.21,-16 188.3,-22.68"/>
</a>
</g>
</g>
<!-- Node5 -->
<g id="Node000005" class="node">
<title>Node5</title>
<g id="a_Node000005"><a xlink:title=" ">
<polygon fill="#e0e0e0" stroke="#999999" points="658.38,-129.75 592.88,-129.75 592.88,-110.5 658.38,-110.5 658.38,-129.75"/>
<text xml:space="preserve" text-anchor="middle" x="625.62" y="-116.25" font-family="Helvetica,sans-Serif" font-size="10.00">string_view</text>
</a>
</g>
</g>
<!-- Node1&#45;&gt;Node5 -->
<g id="edge4_Node000001_Node000005" class="edge">
<title>Node1&#45;&gt;Node5</title>
<g id="a_edge4_Node000001_Node000005"><a xlink:title=" ">
<path fill="none" stroke="#63b8ff" d="M516.84,-165.3C540.2,-155.81 570.32,-143.58 592.95,-134.39"/>
<polygon fill="#63b8ff" stroke="#63b8ff" points="594.04,-137.73 601.99,-130.72 591.4,-131.24 594.04,-137.73"/>
</a>
</g>
</g>
<!-- Node6 -->
<g id="Node000006" class="node">
<title>Node6</title>
<g id="a_Node000006"><a xlink:title=" ">
<polygon fill="#e0e0e0" stroke="#999999" points="531.5,-19.25 469.75,-19.25 469.75,0 531.5,0 531.5,-19.25"/>
<text xml:space="preserve" text-anchor="middle" x="500.62" y="-5.75" font-family="Helvetica,sans-Serif" font-size="10.00">type_traits</text>
</a>
</g>
</g>
<!-- Node1&#45;&gt;Node6 -->
<g id="edge5_Node000001_Node000006" class="edge">
<title>Node1&#45;&gt;Node6</title>
<g id="a_edge5_Node000001_Node000006"><a xlink:title=" ">
<path fill="none" stroke="#63b8ff" d="M506.97,-165.46C519.66,-156.89 533.61,-144.77 540.62,-129.75 554.63,-99.75 552.46,-86.18 540.62,-55.25 536.53,-44.55 528.55,-34.79 520.79,-27.15"/>
<polygon fill="#63b8ff" stroke="#63b8ff" points="523.52,-24.9 513.77,-20.76 518.81,-30.08 523.52,-24.9"/>
</a>
</g>
</g>
<!-- Node7 -->
<g id="Node000007" class="node">
<title>Node7</title>
<g id="a_Node000007"><a xlink:title=" ">
<polygon fill="#e0e0e0" stroke="#999999" points="429.25,-74.5 390,-74.5 390,-55.25 429.25,-55.25 429.25,-74.5"/>
<text xml:space="preserve" text-anchor="middle" x="409.62" y="-61" font-family="Helvetica,sans-Serif" font-size="10.00">utility</text>
</a>
</g>
</g>
<!-- Node1&#45;&gt;Node7 -->
<g id="edge6_Node000001_Node000007" class="edge">
<title>Node1&#45;&gt;Node7</title>
<g id="a_edge6_Node000001_Node000007"><a xlink:title=" ">
<path fill="none" stroke="#63b8ff" d="M471.63,-165.55C458.81,-144.94 435.27,-107.1 421.18,-84.44"/>
<polygon fill="#63b8ff" stroke="#63b8ff" points="424.32,-82.88 416.07,-76.23 418.38,-86.57 424.32,-82.88"/>
</a>
</g>
</g>
<!-- Node8 -->
<g id="Node000008" class="node">
<title>Node8</title>
<g id="a_Node000008"><a xlink:title=" ">
<polygon fill="#e0e0e0" stroke="#999999" points="715.25,-129.75 676,-129.75 676,-110.5 715.25,-110.5 715.25,-129.75"/>
<text xml:space="preserve" text-anchor="middle" x="695.62" y="-116.25" font-family="Helvetica,sans-Serif" font-size="10.00">limits</text>
</a>
</g>
</g>
<!-- Node1&#45;&gt;Node8 -->
<g id="edge7_Node000001_Node000008" class="edge">
<title>Node1&#45;&gt;Node8</title>
<g id="a_edge7_Node000001_Node000008"><a xlink:title=" ">
<path fill="none" stroke="#63b8ff" d="M537.65,-165.25C572.16,-156.19 617.29,-144.12 664.92,-130.46"/>
<polygon fill="#63b8ff" stroke="#63b8ff" points="665.67,-133.89 674.31,-127.76 663.73,-127.16 665.67,-133.89"/>
</a>
</g>
</g>
<!-- Node9 -->
<g id="Node000009" class="node">
<title>Node9</title>
<g id="a_Node000009"><a xlink:title=" ">
<polygon fill="#e0e0e0" stroke="#999999" points="387.25,-19.25 336,-19.25 336,0 387.25,0 387.25,-19.25"/>
<text xml:space="preserve" text-anchor="middle" x="361.62" y="-5.75" font-family="Helvetica,sans-Serif" font-size="10.00">ostream</text>
</a>
</g>
</g>
<!-- Node1&#45;&gt;Node9 -->
<g id="edge8_Node000001_Node000009" class="edge">
<title>Node1&#45;&gt;Node9</title>
<g id="a_edge8_Node000001_Node000009"><a xlink:title=" ">
<path fill="none" stroke="#63b8ff" d="M490.57,-165.36C506.23,-140.32 532.41,-88.74 507.62,-55.25 482.87,-21.8 433.57,-12.6 399.14,-10.48"/>
<polygon fill="#63b8ff" stroke="#63b8ff" points="399.3,-6.98 389.16,-10.06 399,-13.97 399.3,-6.98"/>
</a>
</g>
</g>
<!-- Node10 -->
<g id="Node000010" class="node">
<title>Node10</title>
<g id="a_Node000010"><a xlink:title=" ">
<polygon fill="#e0e0e0" stroke="#999999" points="498.25,-74.5 447,-74.5 447,-55.25 498.25,-55.25 498.25,-74.5"/>
<text xml:space="preserve" text-anchor="middle" x="472.62" y="-61" font-family="Helvetica,sans-Serif" font-size="10.00">sstream</text>
</a>
</g>
</g>
<!-- Node1&#45;&gt;Node10 -->
<g id="edge9_Node000001_Node000010" class="edge">
<title>Node1&#45;&gt;Node10</title>
<g id="a_edge9_Node000001_Node000010"><a xlink:title=" ">
<path fill="none" stroke="#63b8ff" d="M479.61,-165.55C478.21,-145.5 475.66,-109.15 474.06,-86.32"/>
<polygon fill="#63b8ff" stroke="#63b8ff" points="477.56,-86.19 473.37,-76.46 470.57,-86.68 477.56,-86.19"/>
</a>
</g>
</g>
<!-- Node11 -->
<g id="Node000011" class="node">
<title>Node11</title>
<g id="a_Node000011"><a xlink:title=" ">
<polygon fill="#e0e0e0" stroke="#999999" points="778.25,-129.75 733,-129.75 733,-110.5 778.25,-110.5 778.25,-129.75"/>
<text xml:space="preserve" text-anchor="middle" x="755.62" y="-116.25" font-family="Helvetica,sans-Serif" font-size="10.00">variant</text>
</a>
</g>
</g>
<!-- Node1&#45;&gt;Node11 -->
<g id="edge10_Node000001_Node000011" class="edge">
<title>Node1&#45;&gt;Node11</title>
<g id="a_edge10_Node000001_Node000011"><a xlink:title=" ">
<path fill="none" stroke="#63b8ff" d="M544.6,-168.06C591.37,-159.06 656.56,-145.91 721.76,-130.33"/>
<polygon fill="#63b8ff" stroke="#63b8ff" points="722.28,-133.81 731.18,-128.06 720.63,-127 722.28,-133.81"/>
</a>
</g>
</g>
<!-- Node12 -->
<g id="Node000012" class="node">
<title>Node12</title>
<g id="a_Node000012"><a xlink:title=" ">
<polygon fill="#e0e0e0" stroke="#999999" points="855,-129.75 796.25,-129.75 796.25,-110.5 855,-110.5 855,-129.75"/>
<text xml:space="preserve" text-anchor="middle" x="825.62" y="-116.25" font-family="Helvetica,sans-Serif" font-size="10.00">stdexcept</text>
</a>
</g>
</g>
<!-- Node1&#45;&gt;Node12 -->
<g id="edge11_Node000001_Node000012" class="edge">
<title>Node1&#45;&gt;Node12</title>
<g id="a_edge11_Node000001_Node000012"><a xlink:title=" ">
<path fill="none" stroke="#63b8ff" d="M544.62,-170.69C604.37,-161.73 696.28,-147.28 784.74,-130.22"/>
<polygon fill="#63b8ff" stroke="#63b8ff" points="785.16,-133.71 794.3,-128.37 783.82,-126.84 785.16,-133.71"/>
</a>
</g>
</g>
<!-- Node13 -->
<g id="Node000013" class="node">
<title>Node13</title>
<g id="a_Node000013"><a xlink:href="concepts_8hpp.html" target="_top" xlink:title="This file contains commonly used concepts internally within the ComPPare library.">
<polygon fill="white" stroke="#666666" points="296,-74.5 141.25,-74.5 141.25,-55.25 296,-55.25 296,-74.5"/>
<text xml:space="preserve" text-anchor="middle" x="218.62" y="-61" font-family="Helvetica,sans-Serif" font-size="10.00">comppare/internal/concepts.hpp</text>
</a>
</g>
</g>
<!-- Node1&#45;&gt;Node13 -->
<g id="edge12_Node000001_Node000013" class="edge">
<title>Node1&#45;&gt;Node13</title>
<g id="a_edge12_Node000001_Node000013"><a xlink:title=" ">
<path fill="none" stroke="#63b8ff" d="M417.06,-175.04C373.7,-169.27 316.41,-156.78 272.62,-129.75 254.33,-118.46 239.13,-98.86 229.57,-84.34"/>
<polygon fill="#63b8ff" stroke="#63b8ff" points="232.71,-82.77 224.44,-76.14 226.78,-86.48 232.71,-82.77"/>
</a>
</g>
</g>
<!-- Node14 -->
<g id="Node000014" class="node">
<title>Node14</title>
<g id="a_Node000014"><a xlink:href="ansi_8hpp.html" target="_top" xlink:title="This file contains utilities for applying ANSI styles and colors to console output.">
<polygon fill="white" stroke="#666666" points="414.12,-129.75 281.12,-129.75 281.12,-110.5 414.12,-110.5 414.12,-129.75"/>
<text xml:space="preserve" text-anchor="middle" x="347.62" y="-116.25" font-family="Helvetica,sans-Serif" font-size="10.00">comppare/internal/ansi.hpp</text>
</a>
</g>
</g>
<!-- Node1&#45;&gt;Node14 -->
<g id="edge18_Node000001_Node000014" class="edge">
<title>Node1&#45;&gt;Node14</title>
<g id="a_edge18_Node000001_Node000014"><a xlink:title=" ">
<path fill="none" stroke="#63b8ff" d="M447.41,-165.3C426.28,-155.94 399.1,-143.91 378.45,-134.77"/>
<polygon fill="#63b8ff" stroke="#63b8ff" points="379.97,-131.61 369.41,-130.77 377.13,-138.01 379.97,-131.61"/>
</a>
</g>
</g>
<!-- Node13&#45;&gt;Node2 -->
<g id="edge13_Node000013_Node000002" class="edge">
<title>Node13&#45;&gt;Node2</title>
<g id="a_edge13_Node000013_Node000002"><a xlink:title=" ">
<path fill="none" stroke="#63b8ff" d="M200.81,-54.84C184.6,-46.62 160.39,-34.34 141.59,-24.81"/>
<polygon fill="#63b8ff" stroke="#63b8ff" points="143.38,-21.79 132.87,-20.39 140.21,-28.03 143.38,-21.79"/>
</a>
</g>
</g>
<!-- Node13&#45;&gt;Node3 -->
<g id="edge15_Node000013_Node000003" class="edge">
<title>Node13&#45;&gt;Node3</title>
<g id="a_edge15_Node000013_Node000003"><a xlink:title=" ">
<path fill="none" stroke="#63b8ff" d="M185.38,-54.84C149.5,-45.1 92.68,-29.66 56.55,-19.84"/>
<polygon fill="#63b8ff" stroke="#63b8ff" points="57.62,-16.51 47.06,-17.26 55.79,-23.26 57.62,-16.51"/>
</a>
</g>
</g>
<!-- Node13&#45;&gt;Node4 -->
<g id="edge16_Node000013_Node000004" class="edge">
<title>Node13&#45;&gt;Node4</title>
<g id="a_edge16_Node000013_Node000004"><a xlink:title=" ">
<path fill="none" stroke="#63b8ff" d="M218.62,-55.08C218.62,-48.57 218.62,-39.42 218.62,-31.12"/>
<polygon fill="#63b8ff" stroke="#63b8ff" points="222.13,-31.12 218.63,-21.12 215.13,-31.12 222.13,-31.12"/>
</a>
</g>
</g>
<!-- Node13&#45;&gt;Node6 -->
<g id="edge14_Node000013_Node000006" class="edge">
<title>Node13&#45;&gt;Node6</title>
<g id="a_edge14_Node000013_Node000006"><a xlink:title=" ">
<path fill="none" stroke="#63b8ff" d="M266.78,-54.78C320.6,-44.62 406.91,-28.32 458.25,-18.63"/>
<polygon fill="#63b8ff" stroke="#63b8ff" points="458.61,-22.12 467.79,-16.83 457.31,-15.24 458.61,-22.12"/>
</a>
</g>
</g>
<!-- Node13&#45;&gt;Node9 -->
<g id="edge17_Node000013_Node000009" class="edge">
<title>Node13&#45;&gt;Node9</title>
<g id="a_edge17_Node000013_Node000009"><a xlink:title=" ">
<path fill="none" stroke="#63b8ff" d="M242.88,-54.84C265.89,-46.27 300.72,-33.31 326.71,-23.63"/>
<polygon fill="#63b8ff" stroke="#63b8ff" points="327.68,-27 335.83,-20.23 325.24,-20.44 327.68,-27"/>
</a>
</g>
</g>
<!-- Node14&#45;&gt;Node2 -->
<g id="edge22_Node000014_Node000002" class="edge">
<title>Node14&#45;&gt;Node2</title>
<g id="a_edge22_Node000014_Node000002"><a xlink:title=" ">
<path fill="none" stroke="#63b8ff" d="M280.84,-112.75C225.99,-106.2 153.99,-94.14 132.62,-74.5 120.5,-63.36 115.99,-44.87 114.37,-30.64"/>
<polygon fill="#63b8ff" stroke="#63b8ff" points="117.88,-30.76 113.68,-21.03 110.9,-31.26 117.88,-30.76"/>
</a>
</g>
</g>
<!-- Node14&#45;&gt;Node4 -->
<g id="edge21_Node000014_Node000004" class="edge">
<title>Node14&#45;&gt;Node4</title>
<g id="a_edge21_Node000014_Node000004"><a xlink:title=" ">
<path fill="none" stroke="#63b8ff" d="M343.47,-110.26C336.85,-96.9 322.78,-71.45 304.62,-55.25 288.41,-40.78 266.66,-29.55 249.09,-21.98"/>
<polygon fill="#63b8ff" stroke="#63b8ff" points="250.76,-18.88 240.18,-18.31 248.09,-25.35 250.76,-18.88"/>
</a>
</g>
</g>
<!-- Node14&#45;&gt;Node7 -->
<g id="edge23_Node000014_Node000007" class="edge">
<title>Node14&#45;&gt;Node7</title>
<g id="a_edge23_Node000014_Node000007"><a xlink:title=" ">
<path fill="none" stroke="#63b8ff" d="M358.14,-110.09C367.01,-102.47 379.94,-91.37 390.61,-82.2"/>
<polygon fill="#63b8ff" stroke="#63b8ff" points="392.81,-84.93 398.11,-75.76 388.25,-79.62 392.81,-84.93"/>
</a>
</g>
</g>
<!-- Node14&#45;&gt;Node9 -->
<g id="edge19_Node000014_Node000009" class="edge">
<title>Node14&#45;&gt;Node9</title>
<g id="a_edge19_Node000014_Node000009"><a xlink:title=" ">
<path fill="none" stroke="#63b8ff" d="M348.77,-110.25C351,-93 355.95,-54.58 359.02,-30.81"/>
<polygon fill="#63b8ff" stroke="#63b8ff" points="362.46,-31.49 360.27,-21.13 355.52,-30.6 362.46,-31.49"/>
</a>
</g>
</g>
<!-- Node14&#45;&gt;Node10 -->
<g id="edge20_Node000014_Node000010" class="edge">
<title>Node14&#45;&gt;Node10</title>
<g id="a_edge20_Node000014_Node000010"><a xlink:title=" ">
<path fill="none" stroke="#63b8ff" d="M368.83,-110.09C388.58,-101.68 418.3,-89.02 440.88,-79.4"/>
<polygon fill="#63b8ff" stroke="#63b8ff" points="442.1,-82.68 449.92,-75.55 439.35,-76.24 442.1,-82.68"/>
</a>
</g>
</g>
<!-- Node14&#45;&gt;Node13 -->
<g id="edge24_Node000014_Node000013" class="edge">
<title>Node14&#45;&gt;Node13</title>
<g id="a_edge24_Node000014_Node000013"><a xlink:title=" ">
<path fill="none" stroke="#63b8ff" d="M325.74,-110.09C305.26,-101.64 274.41,-88.9 251.07,-79.27"/>
<polygon fill="#63b8ff" stroke="#63b8ff" points="252.59,-76.11 242.01,-75.53 249.92,-82.58 252.59,-76.11"/>
</a>
</g>
</g>
</g>
</svg>

<g id="navigator" transform="translate(0 0)" fill="#404254">
  <rect fill="#f2f5e9" fill-opacity="0.5" stroke="#606060" stroke-width=".5" x="0" y="0" width="60" height="60"/>
  <use id="zoomplus" xlink:href="#zoomPlus" x="17" y="9" onmousedown="handleZoom(evt,'in')"/>
  <use id="zoomminus" xlink:href="#zoomMin" x="42" y="9" onmousedown="handleZoom(evt,'out')"/>
  <use id="reset" xlink:href="#resetDef" x="30" y="36" onmousedown="handleReset()"/>
   <use id="arrowup" xlink:href="#arrowUp" x="0" y="0" onmousedown="handlePan(0,-1)"/>
  <use id="arrowright" xlink:href="#arrowRight" x="0" y="0" onmousedown="handlePan(1,0)"/>
  <use id="arrowdown" xlink:href="#arrowDown" x="0" y="0" onmousedown="handlePan(0,1)"/>
  <use id="arrowleft" xlink:href="#arrowLeft" x="0" y="0" onmousedown="handlePan(-1,0)"/>
</g>
<svg viewBox="0 0 15 15" width="100%" height="30px" preserveAspectRatio="xMaxYMin meet">
 <g id="arrow_out" transform="scale(0.3 0.3)">
  <a xlink:href="policy_8hpp__incl_org.svg" target="_base">
   <rect id="button" ry="5" rx="5" y="6" x="6" height="38" width="38"
        fill="#f2f5e9" fill-opacity="0.5" stroke="#606060" stroke-width="1.0"/>
   <path id="arrow"
     d="M 11.500037,31.436501 C 11.940474,20.09759 22.043105,11.32322 32.158766,21.979434 L 37.068811,17.246167 C 37.068811,17.246167 37.088388,32 37.088388,32 L 22.160133,31.978069 C 22.160133,31.978069 26.997745,27.140456 26.997745,27.140456 C 18.528582,18.264221 13.291696,25.230495 11.500037,31.436501 z"
     style="fill:#404040;"/>
  </a>
 </g>
</svg>

<style type='text/css'>
<![CDATA[
[data-mouse-over-selected='false'] { opacity: 0.7; }
[data-mouse-over-selected='true']  { opacity: 1.0; }
]]>
</style>
<script type="application/ecmascript"><![CDATA[
document.addEventListener('DOMContentLoaded', (event) => {
  highlightEdges();
  highlightAdjacentNodes();
});
]]></script>
</svg>
