<?xml version="1.0" encoding="UTF-8" standalone="no"?>
<!DOCTYPE svg PUBLIC "-//W3C//DTD SVG 1.1//EN"
 "http://www.w3.org/Graphics/SVG/1.1/DTD/svg11.dtd">
<!-- Generated by graphviz version 13.1.2 (20250808.2320)
 -->
<!-- Title: examples/rvalue/main.cpp Pages: 1 -->
<svg width="199pt" height="83pt"
 viewBox="0.00 0.00 199.00 83.00" xmlns="http://www.w3.org/2000/svg" xmlns:xlink="http://www.w3.org/1999/xlink">
<g id="graph0" class="graph" transform="scale(1 1) rotate(0) translate(4 78.5)">
<title>examples/rvalue/main.cpp</title>
<!-- Node1 -->
<g id="Node000001" class="node">
<title>Node1</title>
<g id="a_Node000001"><a xlink:title=" ">
<polygon fill="#999999" stroke="#666666" points="167.75,-74.5 37.75,-74.5 37.75,-55.25 167.75,-55.25 167.75,-74.5"/>
<text xml:space="preserve" text-anchor="middle" x="102.75" y="-61" font-family="Helvetica,sans-Serif" font-size="10.00">examples/rvalue/main.cpp</text>
</a>
</g>
</g>
<!-- Node2 -->
<g id="Node000002" class="node">
<title>Node2</title>
<g id="a_Node000002"><a xlink:title=" ">
<polygon fill="#e0e0e0" stroke="#999999" points="53.5,-19.25 0,-19.25 0,0 53.5,0 53.5,-19.25"/>
<text xml:space="preserve" text-anchor="middle" x="26.75" y="-5.75" font-family="Helvetica,sans-Serif" font-size="10.00">iostream</text>
</a>
</g>
</g>
<!-- Node1&#45;&gt;Node2 -->
<g id="edge1_Node000001_Node000002" class="edge">
<title>Node1&#45;&gt;Node2</title>
<g id="a_edge1_Node000001_Node000002"><a xlink:title=" ">
<path fill="none" stroke="#63b8ff" d="M89.86,-54.84C78.72,-47.04 62.38,-35.59 49.11,-26.29"/>
<polygon fill="#63b8ff" stroke="#63b8ff" points="51.14,-23.44 40.95,-20.57 47.13,-29.18 51.14,-23.44"/>
</a>
</g>
</g>
<!-- Node3 -->
<g id="Node000003" class="node">
<title>Node3</title>
<g id="a_Node000003"><a xlink:title=" ">
<polygon fill="#e0e0e0" stroke="#999999" points="133.62,-19.25 71.88,-19.25 71.88,0 133.62,0 133.62,-19.25"/>
<text xml:space="preserve" text-anchor="middle" x="102.75" y="-5.75" font-family="Helvetica,sans-Serif" font-size="10.00">type_traits</text>
</a>
</g>
</g>
<!-- Node1&#45;&gt;Node3 -->
<g id="edge2_Node000001_Node000003" class="edge">
<title>Node1&#45;&gt;Node3</title>
<g id="a_edge2_Node000001_Node000003"><a xlink:title=" ">
<path fill="none" stroke="#63b8ff" d="M102.75,-55.08C102.75,-48.57 102.75,-39.42 102.75,-31.12"/>
<polygon fill="#63b8ff" stroke="#63b8ff" points="106.25,-31.12 102.75,-21.12 99.25,-31.12 106.25,-31.12"/>
</a>
</g>
</g>
<!-- Node4 -->
<g id="Node000004" class="node">
<title>Node4</title>
<g id="a_Node000004"><a xlink:title=" ">
<polygon fill="#e0e0e0" stroke="#999999" points="191.38,-19.25 152.12,-19.25 152.12,0 191.38,0 191.38,-19.25"/>
<text xml:space="preserve" text-anchor="middle" x="171.75" y="-5.75" font-family="Helvetica,sans-Serif" font-size="10.00">utility</text>
</a>
</g>
</g>
<!-- Node1&#45;&gt;Node4 -->
<g id="edge3_Node000001_Node000004" class="edge">
<title>Node1&#45;&gt;Node4</title>
<g id="a_edge3_Node000001_Node000004"><a xlink:title=" ">
<path fill="none" stroke="#63b8ff" d="M114.45,-54.84C124.53,-47.07 139.29,-35.67 151.31,-26.4"/>
<polygon fill="#63b8ff" stroke="#63b8ff" points="153.24,-29.33 159.02,-20.45 148.96,-23.79 153.24,-29.33"/>
</a>
</g>
</g>
</g>
</svg>
