<?xml version="1.0" encoding="UTF-8" standalone="no"?>
<!DOCTYPE svg PUBLIC "-//W3C//DTD SVG 1.1//EN"
 "http://www.w3.org/Graphics/SVG/1.1/DTD/svg11.dtd">
<!-- Generated by graphviz version 13.1.2 (20250808.2320)
 -->
<!-- Title: examples/saxpy/init_saxpy.cpp Pages: 1 -->
<svg width="520pt" height="149pt"
 viewBox="0.00 0.00 520.00 149.00" xmlns="http://www.w3.org/2000/svg" xmlns:xlink="http://www.w3.org/1999/xlink">
<g id="graph0" class="graph" transform="scale(1 1) rotate(0) translate(4 145)">
<title>examples/saxpy/init_saxpy.cpp</title>
<!-- Node1 -->
<g id="Node000001" class="node">
<title>Node1</title>
<g id="a_Node000001"><a xlink:title=" ">
<polygon fill="#999999" stroke="#666666" points="301.25,-141 198.25,-141 198.25,-110.5 301.25,-110.5 301.25,-141"/>
<text xml:space="preserve" text-anchor="start" x="206.25" y="-127.5" font-family="Helvetica,sans-Serif" font-size="10.00">examples/saxpy/init</text>
<text xml:space="preserve" text-anchor="middle" x="249.75" y="-116.25" font-family="Helvetica,sans-Serif" font-size="10.00">_saxpy.cpp</text>
</a>
</g>
</g>
<!-- Node2 -->
<g id="Node000002" class="node">
<title>Node2</title>
<g id="a_Node000002"><a xlink:title=" ">
<polygon fill="#e0e0e0" stroke="#999999" points="65.5,-74.5 0,-74.5 0,-55.25 65.5,-55.25 65.5,-74.5"/>
<text xml:space="preserve" text-anchor="middle" x="32.75" y="-61" font-family="Helvetica,sans-Serif" font-size="10.00">string_view</text>
</a>
</g>
</g>
<!-- Node1&#45;&gt;Node2 -->
<g id="edge1_Node000001_Node000002" class="edge">
<title>Node1&#45;&gt;Node2</title>
<g id="a_edge1_Node000001_Node000002"><a xlink:title=" ">
<path fill="none" stroke="#63b8ff" d="M197.77,-110.65C160.78,-100.61 111.61,-87.27 76.6,-77.77"/>
<polygon fill="#63b8ff" stroke="#63b8ff" points="77.78,-74.47 67.22,-75.23 75.95,-81.22 77.78,-74.47"/>
</a>
</g>
</g>
<!-- Node3 -->
<g id="Node000003" class="node">
<title>Node3</title>
<g id="a_Node000003"><a xlink:title=" ">
<polygon fill="#e0e0e0" stroke="#999999" points="128.38,-74.5 83.12,-74.5 83.12,-55.25 128.38,-55.25 128.38,-74.5"/>
<text xml:space="preserve" text-anchor="middle" x="105.75" y="-61" font-family="Helvetica,sans-Serif" font-size="10.00">cstring</text>
</a>
</g>
</g>
<!-- Node1&#45;&gt;Node3 -->
<g id="edge2_Node000001_Node000003" class="edge">
<title>Node1&#45;&gt;Node3</title>
<g id="a_edge2_Node000001_Node000003"><a xlink:title=" ">
<path fill="none" stroke="#63b8ff" d="M213.78,-110.05C190.59,-100.56 160.67,-88.33 138.2,-79.14"/>
<polygon fill="#63b8ff" stroke="#63b8ff" points="139.82,-76.02 129.23,-75.48 137.17,-82.5 139.82,-76.02"/>
</a>
</g>
</g>
<!-- Node4 -->
<g id="Node000004" class="node">
<title>Node4</title>
<g id="a_Node000004"><a xlink:title=" ">
<polygon fill="#e0e0e0" stroke="#999999" points="205.12,-74.5 146.38,-74.5 146.38,-55.25 205.12,-55.25 205.12,-74.5"/>
<text xml:space="preserve" text-anchor="middle" x="175.75" y="-61" font-family="Helvetica,sans-Serif" font-size="10.00">stdexcept</text>
</a>
</g>
</g>
<!-- Node1&#45;&gt;Node4 -->
<g id="edge3_Node000001_Node000004" class="edge">
<title>Node1&#45;&gt;Node4</title>
<g id="a_edge3_Node000001_Node000004"><a xlink:title=" ">
<path fill="none" stroke="#63b8ff" d="M231.46,-110.2C220.73,-101.66 207.16,-90.87 196.1,-82.06"/>
<polygon fill="#63b8ff" stroke="#63b8ff" points="198.35,-79.38 188.34,-75.89 193.99,-84.86 198.35,-79.38"/>
</a>
</g>
</g>
<!-- Node5 -->
<g id="Node000005" class="node">
<title>Node5</title>
<g id="a_Node000005"><a xlink:title=" ">
<polygon fill="#e0e0e0" stroke="#999999" points="276.5,-74.5 223,-74.5 223,-55.25 276.5,-55.25 276.5,-74.5"/>
<text xml:space="preserve" text-anchor="middle" x="249.75" y="-61" font-family="Helvetica,sans-Serif" font-size="10.00">iostream</text>
</a>
</g>
</g>
<!-- Node1&#45;&gt;Node5 -->
<g id="edge4_Node000001_Node000005" class="edge">
<title>Node1&#45;&gt;Node5</title>
<g id="a_edge4_Node000001_Node000005"><a xlink:title=" ">
<path fill="none" stroke="#63b8ff" d="M249.75,-110.2C249.75,-102.96 249.75,-94.09 249.75,-86.19"/>
<polygon fill="#63b8ff" stroke="#63b8ff" points="253.25,-86.46 249.75,-76.46 246.25,-86.46 253.25,-86.46"/>
</a>
</g>
</g>
<!-- Node6 -->
<g id="Node000006" class="node">
<title>Node6</title>
<g id="a_Node000006"><a xlink:title=" ">
<polygon fill="#e0e0e0" stroke="#999999" points="342.88,-74.5 294.62,-74.5 294.62,-55.25 342.88,-55.25 342.88,-74.5"/>
<text xml:space="preserve" text-anchor="middle" x="318.75" y="-61" font-family="Helvetica,sans-Serif" font-size="10.00">random</text>
</a>
</g>
</g>
<!-- Node1&#45;&gt;Node6 -->
<g id="edge5_Node000001_Node000006" class="edge">
<title>Node1&#45;&gt;Node6</title>
<g id="a_edge5_Node000001_Node000006"><a xlink:title=" ">
<path fill="none" stroke="#63b8ff" d="M266.81,-110.2C276.71,-101.75 289.21,-91.08 299.46,-82.33"/>
<polygon fill="#63b8ff" stroke="#63b8ff" points="301.63,-85.09 306.96,-75.93 297.08,-79.76 301.63,-85.09"/>
</a>
</g>
</g>
<!-- Node7 -->
<g id="Node000007" class="node">
<title>Node7</title>
<g id="a_Node000007"><a xlink:title=" ">
<polygon fill="#e0e0e0" stroke="#999999" points="404.25,-74.5 361.25,-74.5 361.25,-55.25 404.25,-55.25 404.25,-74.5"/>
<text xml:space="preserve" text-anchor="middle" x="382.75" y="-61" font-family="Helvetica,sans-Serif" font-size="10.00">omp.h</text>
</a>
</g>
</g>
<!-- Node1&#45;&gt;Node7 -->
<g id="edge6_Node000001_Node000007" class="edge">
<title>Node1&#45;&gt;Node7</title>
<g id="a_edge6_Node000001_Node000007"><a xlink:title=" ">
<path fill="none" stroke="#63b8ff" d="M282.97,-110.05C304.1,-100.69 331.27,-88.66 351.92,-79.52"/>
<polygon fill="#63b8ff" stroke="#63b8ff" points="353.24,-82.76 360.97,-75.52 350.41,-76.36 353.24,-82.76"/>
</a>
</g>
</g>
<!-- Node8 -->
<g id="Node000008" class="node">
<title>Node8</title>
<g id="a_Node000008"><a xlink:href="saxpy_2init__saxpy_8hpp.html" target="_top" xlink:title=" ">
<polygon fill="white" stroke="#666666" points="499.5,-74.5 422,-74.5 422,-55.25 499.5,-55.25 499.5,-74.5"/>
<text xml:space="preserve" text-anchor="middle" x="460.75" y="-61" font-family="Helvetica,sans-Serif" font-size="10.00">init_saxpy.hpp</text>
</a>
</g>
</g>
<!-- Node1&#45;&gt;Node8 -->
<g id="edge7_Node000001_Node000008" class="edge">
<title>Node1&#45;&gt;Node8</title>
<g id="a_edge7_Node000001_Node000008"><a xlink:title=" ">
<path fill="none" stroke="#63b8ff" d="M301.64,-110.27C337.16,-100.36 383.72,-87.37 417.29,-78"/>
<polygon fill="#63b8ff" stroke="#63b8ff" points="417.99,-81.44 426.68,-75.38 416.11,-74.7 417.99,-81.44"/>
</a>
</g>
</g>
<!-- Node9 -->
<g id="Node000009" class="node">
<title>Node9</title>
<g id="a_Node000009"><a xlink:title=" ">
<polygon fill="#e0e0e0" stroke="#999999" points="451.25,-19.25 408.25,-19.25 408.25,0 451.25,0 451.25,-19.25"/>
<text xml:space="preserve" text-anchor="middle" x="429.75" y="-5.75" font-family="Helvetica,sans-Serif" font-size="10.00">vector</text>
</a>
</g>
</g>
<!-- Node8&#45;&gt;Node9 -->
<g id="edge8_Node000008_Node000009" class="edge">
<title>Node8&#45;&gt;Node9</title>
<g id="a_edge8_Node000008_Node000009"><a xlink:title=" ">
<path fill="none" stroke="#63b8ff" d="M455.63,-55.08C451.57,-48.11 445.76,-38.12 440.66,-29.37"/>
<polygon fill="#63b8ff" stroke="#63b8ff" points="443.8,-27.8 435.74,-20.92 437.75,-31.32 443.8,-27.8"/>
</a>
</g>
</g>
<!-- Node10 -->
<g id="Node000010" class="node">
<title>Node10</title>
<g id="a_Node000010"><a xlink:title=" ">
<polygon fill="#e0e0e0" stroke="#999999" points="512.25,-19.25 469.25,-19.25 469.25,0 512.25,0 512.25,-19.25"/>
<text xml:space="preserve" text-anchor="middle" x="490.75" y="-5.75" font-family="Helvetica,sans-Serif" font-size="10.00">cmath</text>
</a>
</g>
</g>
<!-- Node8&#45;&gt;Node10 -->
<g id="edge9_Node000008_Node000010" class="edge">
<title>Node8&#45;&gt;Node10</title>
<g id="a_edge9_Node000008_Node000010"><a xlink:title=" ">
<path fill="none" stroke="#63b8ff" d="M465.7,-55.08C469.63,-48.11 475.26,-38.12 480.19,-29.37"/>
<polygon fill="#63b8ff" stroke="#63b8ff" points="483.09,-31.36 484.95,-20.93 476.99,-27.92 483.09,-31.36"/>
</a>
</g>
</g>
</g>
</svg>
