<?xml version="1.0" encoding="UTF-8" standalone="no"?>
<!DOCTYPE svg PUBLIC "-//W3C//DTD SVG 1.1//EN"
 "http://www.w3.org/Graphics/SVG/1.1/DTD/svg11.dtd">
<!-- Generated by graphviz version 13.1.2 (20250808.2320)
 -->
<!-- Title: examples/saxpy/saxpy_cpu.hpp Pages: 1 -->
<svg width="272pt" height="105pt"
 viewBox="0.00 0.00 272.00 105.00" xmlns="http://www.w3.org/2000/svg" xmlns:xlink="http://www.w3.org/1999/xlink">
<g id="graph0" class="graph" transform="scale(1 1) rotate(0) translate(4 101)">
<title>examples/saxpy/saxpy_cpu.hpp</title>
<!-- Node1 -->
<g id="Node000001" class="node">
<title>Node1</title>
<g id="a_Node000001"><a xlink:title=" ">
<polygon fill="#999999" stroke="#666666" points="193.25,-97 76.75,-97 76.75,-66.5 193.25,-66.5 193.25,-97"/>
<text xml:space="preserve" text-anchor="start" x="84.75" y="-83.5" font-family="Helvetica,sans-Serif" font-size="10.00">examples/saxpy/saxpy</text>
<text xml:space="preserve" text-anchor="middle" x="135" y="-72.25" font-family="Helvetica,sans-Serif" font-size="10.00">_cpu.hpp</text>
</a>
</g>
</g>
<!-- Node2 -->
<g id="Node000002" class="node">
<title>Node2</title>
<g id="a_Node000002"><a xlink:href="saxpy_2main_8cpp.html" target="_top" xlink:title=" ">
<polygon fill="white" stroke="#666666" points="130,-24.88 0,-24.88 0,-5.63 130,-5.63 130,-24.88"/>
<text xml:space="preserve" text-anchor="middle" x="65" y="-11.38" font-family="Helvetica,sans-Serif" font-size="10.00">examples/saxpy/main.cpp</text>
</a>
</g>
</g>
<!-- Node1&#45;&gt;Node2 -->
<g id="edge1_Node000001_Node000002" class="edge">
<title>Node1&#45;&gt;Node2</title>
<g id="a_edge1_Node000001_Node000002"><a xlink:title=" ">
<path fill="none" stroke="#63b8ff" d="M110.89,-58.54C98.42,-47.04 83.89,-33.65 74.57,-25.07"/>
<polygon fill="#63b8ff" stroke="#63b8ff" points="108.28,-60.89 118,-65.09 113.02,-55.74 108.28,-60.89"/>
</a>
</g>
</g>
<!-- Node3 -->
<g id="Node000003" class="node">
<title>Node3</title>
<g id="a_Node000003"><a xlink:href="saxpy_2saxpy__cpu_8cpp.html" target="_top" xlink:title=" ">
<polygon fill="white" stroke="#666666" points="264.25,-30.5 147.75,-30.5 147.75,0 264.25,0 264.25,-30.5"/>
<text xml:space="preserve" text-anchor="start" x="155.75" y="-17" font-family="Helvetica,sans-Serif" font-size="10.00">examples/saxpy/saxpy</text>
<text xml:space="preserve" text-anchor="middle" x="206" y="-5.75" font-family="Helvetica,sans-Serif" font-size="10.00">_cpu.cpp</text>
</a>
</g>
</g>
<!-- Node1&#45;&gt;Node3 -->
<g id="edge2_Node000001_Node000003" class="edge">
<title>Node1&#45;&gt;Node3</title>
<g id="a_edge2_Node000001_Node000003"><a xlink:title=" ">
<path fill="none" stroke="#63b8ff" d="M159.53,-58.46C169.6,-49.32 180.98,-38.98 189.95,-30.83"/>
<polygon fill="#63b8ff" stroke="#63b8ff" points="157.28,-55.78 152.23,-65.1 161.99,-60.96 157.28,-55.78"/>
</a>
</g>
</g>
</g>
</svg>
