<?xml version="1.0" encoding="UTF-8" standalone="no"?>
<!DOCTYPE svg PUBLIC "-//W3C//DTD SVG 1.1//EN"
 "http://www.w3.org/Graphics/SVG/1.1/DTD/svg11.dtd">
<!-- Generated by graphviz version 13.1.2 (20250808.2320)
 -->
<!-- Title: examples/saxpy_googlebench/saxpy_cpu.hpp Pages: 1 -->
<svg width="155pt" height="94pt"
 viewBox="0.00 0.00 155.00 94.00" xmlns="http://www.w3.org/2000/svg" xmlns:xlink="http://www.w3.org/1999/xlink">
<g id="graph0" class="graph" transform="scale(1 1) rotate(0) translate(4 89.75)">
<title>examples/saxpy_googlebench/saxpy_cpu.hpp</title>
<!-- Node1 -->
<g id="Node000001" class="node">
<title>Node1</title>
<g id="a_Node000001"><a xlink:title=" ">
<polygon fill="#999999" stroke="#666666" points="147.25,-85.75 0,-85.75 0,-55.25 147.25,-55.25 147.25,-85.75"/>
<text xml:space="preserve" text-anchor="start" x="8" y="-72.25" font-family="Helvetica,sans-Serif" font-size="10.00">examples/saxpy_googlebench</text>
<text xml:space="preserve" text-anchor="middle" x="73.62" y="-61" font-family="Helvetica,sans-Serif" font-size="10.00">/saxpy_cpu.hpp</text>
</a>
</g>
</g>
<!-- Node2 -->
<g id="Node000002" class="node">
<title>Node2</title>
<g id="a_Node000002"><a xlink:title=" ">
<polygon fill="#e0e0e0" stroke="#999999" points="65.12,-19.25 22.12,-19.25 22.12,0 65.12,0 65.12,-19.25"/>
<text xml:space="preserve" text-anchor="middle" x="43.62" y="-5.75" font-family="Helvetica,sans-Serif" font-size="10.00">vector</text>
</a>
</g>
</g>
<!-- Node1&#45;&gt;Node2 -->
<g id="edge1_Node000001_Node000002" class="edge">
<title>Node1&#45;&gt;Node2</title>
<g id="a_edge1_Node000001_Node000002"><a xlink:title=" ">
<path fill="none" stroke="#63b8ff" d="M66.21,-54.95C62.34,-47.36 57.57,-37.99 53.4,-29.82"/>
<polygon fill="#63b8ff" stroke="#63b8ff" points="56.6,-28.37 48.94,-21.05 50.36,-31.55 56.6,-28.37"/>
</a>
</g>
</g>
<!-- Node3 -->
<g id="Node000003" class="node">
<title>Node3</title>
<g id="a_Node000003"><a xlink:title=" ">
<polygon fill="#e0e0e0" stroke="#999999" points="123.62,-19.25 83.62,-19.25 83.62,0 123.62,0 123.62,-19.25"/>
<text xml:space="preserve" text-anchor="middle" x="103.62" y="-5.75" font-family="Helvetica,sans-Serif" font-size="10.00">string</text>
</a>
</g>
</g>
<!-- Node1&#45;&gt;Node3 -->
<g id="edge2_Node000001_Node000003" class="edge">
<title>Node1&#45;&gt;Node3</title>
<g id="a_edge2_Node000001_Node000003"><a xlink:title=" ">
<path fill="none" stroke="#63b8ff" d="M81.04,-54.95C84.91,-47.36 89.68,-37.99 93.85,-29.82"/>
<polygon fill="#63b8ff" stroke="#63b8ff" points="96.89,-31.55 98.31,-21.05 90.65,-28.37 96.89,-31.55"/>
</a>
</g>
</g>
</g>
</svg>
