<?xml version="1.0" encoding="UTF-8" standalone="no"?>
<!DOCTYPE svg PUBLIC "-//W3C//DTD SVG 1.1//EN"
 "http://www.w3.org/Graphics/SVG/1.1/DTD/svg11.dtd">
<!-- Generated by graphviz version 13.1.2 (20250808.2320)
 -->
<!-- Title: examples/saxpy_googlebench/init_saxpy.cpp Pages: 1 -->
<svg width="485pt" height="149pt"
 viewBox="0.00 0.00 485.00 149.00" xmlns="http://www.w3.org/2000/svg" xmlns:xlink="http://www.w3.org/1999/xlink">

<svg id="main" version="1.1" xmlns="http://www.w3.org/2000/svg" xmlns:xlink="http://www.w3.org/1999/xlink" xml:space="preserve">

<style type="text/css"><![CDATA[
.node, .edge {opacity: 0.7;}
.node.selected, .edge.selected {opacity: 1;}
.edge:hover path { stroke: red; }
.edge:hover polygon { stroke: red; fill: red; }
]]></style>
<script type="application/ecmascript" xlink:href="svg.min.js"/>
<svg id="graph" class="graph">
<g id="graph0" class="graph" transform="scale(1 1) rotate(0) translate(4 145)">
<title>examples/saxpy_googlebench/init_saxpy.cpp</title>
<!-- Node1 -->
<g id="Node000001" class="node">
<title>Node1</title>
<g id="a_Node000001"><a xlink:title=" ">
<polygon fill="#999999" stroke="#666666" points="323.38,-141 176.12,-141 176.12,-110.5 323.38,-110.5 323.38,-141"/>
<text xml:space="preserve" text-anchor="start" x="184.12" y="-127.5" font-family="Helvetica,sans-Serif" font-size="10.00">examples/saxpy_googlebench</text>
<text xml:space="preserve" text-anchor="middle" x="249.75" y="-116.25" font-family="Helvetica,sans-Serif" font-size="10.00">/init_saxpy.cpp</text>
</a>
</g>
</g>
<!-- Node2 -->
<g id="Node000002" class="node">
<title>Node2</title>
<g id="a_Node000002"><a xlink:title=" ">
<polygon fill="#e0e0e0" stroke="#999999" points="65.5,-74.5 0,-74.5 0,-55.25 65.5,-55.25 65.5,-74.5"/>
<text xml:space="preserve" text-anchor="middle" x="32.75" y="-61" font-family="Helvetica,sans-Serif" font-size="10.00">string_view</text>
</a>
</g>
</g>
<!-- Node1&#45;&gt;Node2 -->
<g id="edge1_Node000001_Node000002" class="edge">
<title>Node1&#45;&gt;Node2</title>
<g id="a_edge1_Node000001_Node000002"><a xlink:title=" ">
<path fill="none" stroke="#63b8ff" d="M195.55,-110.05C158.9,-100.1 111.1,-87.13 76.79,-77.82"/>
<polygon fill="#63b8ff" stroke="#63b8ff" points="77.74,-74.45 67.17,-75.21 75.91,-81.21 77.74,-74.45"/>
</a>
</g>
</g>
<!-- Node3 -->
<g id="Node000003" class="node">
<title>Node3</title>
<g id="a_Node000003"><a xlink:title=" ">
<polygon fill="#e0e0e0" stroke="#999999" points="128.38,-74.5 83.12,-74.5 83.12,-55.25 128.38,-55.25 128.38,-74.5"/>
<text xml:space="preserve" text-anchor="middle" x="105.75" y="-61" font-family="Helvetica,sans-Serif" font-size="10.00">cstring</text>
</a>
</g>
</g>
<!-- Node1&#45;&gt;Node3 -->
<g id="edge2_Node000001_Node000003" class="edge">
<title>Node1&#45;&gt;Node3</title>
<g id="a_edge2_Node000001_Node000003"><a xlink:title=" ">
<path fill="none" stroke="#63b8ff" d="M213.78,-110.05C190.59,-100.56 160.67,-88.33 138.2,-79.14"/>
<polygon fill="#63b8ff" stroke="#63b8ff" points="139.82,-76.02 129.23,-75.48 137.17,-82.5 139.82,-76.02"/>
</a>
</g>
</g>
<!-- Node4 -->
<g id="Node000004" class="node">
<title>Node4</title>
<g id="a_Node000004"><a xlink:title=" ">
<polygon fill="#e0e0e0" stroke="#999999" points="205.12,-74.5 146.38,-74.5 146.38,-55.25 205.12,-55.25 205.12,-74.5"/>
<text xml:space="preserve" text-anchor="middle" x="175.75" y="-61" font-family="Helvetica,sans-Serif" font-size="10.00">stdexcept</text>
</a>
</g>
</g>
<!-- Node1&#45;&gt;Node4 -->
<g id="edge3_Node000001_Node000004" class="edge">
<title>Node1&#45;&gt;Node4</title>
<g id="a_edge3_Node000001_Node000004"><a xlink:title=" ">
<path fill="none" stroke="#63b8ff" d="M231.46,-110.2C220.73,-101.66 207.16,-90.87 196.1,-82.06"/>
<polygon fill="#63b8ff" stroke="#63b8ff" points="198.35,-79.38 188.34,-75.89 193.99,-84.86 198.35,-79.38"/>
</a>
</g>
</g>
<!-- Node5 -->
<g id="Node000005" class="node">
<title>Node5</title>
<g id="a_Node000005"><a xlink:title=" ">
<polygon fill="#e0e0e0" stroke="#999999" points="276.5,-74.5 223,-74.5 223,-55.25 276.5,-55.25 276.5,-74.5"/>
<text xml:space="preserve" text-anchor="middle" x="249.75" y="-61" font-family="Helvetica,sans-Serif" font-size="10.00">iostream</text>
</a>
</g>
</g>
<!-- Node1&#45;&gt;Node5 -->
<g id="edge4_Node000001_Node000005" class="edge">
<title>Node1&#45;&gt;Node5</title>
<g id="a_edge4_Node000001_Node000005"><a xlink:title=" ">
<path fill="none" stroke="#63b8ff" d="M249.75,-110.2C249.75,-102.96 249.75,-94.09 249.75,-86.19"/>
<polygon fill="#63b8ff" stroke="#63b8ff" points="253.25,-86.46 249.75,-76.46 246.25,-86.46 253.25,-86.46"/>
</a>
</g>
</g>
<!-- Node6 -->
<g id="Node000006" class="node">
<title>Node6</title>
<g id="a_Node000006"><a xlink:title=" ">
<polygon fill="#e0e0e0" stroke="#999999" points="362.25,-19.25 319.25,-19.25 319.25,0 362.25,0 362.25,-19.25"/>
<text xml:space="preserve" text-anchor="middle" x="340.75" y="-5.75" font-family="Helvetica,sans-Serif" font-size="10.00">cmath</text>
</a>
</g>
</g>
<!-- Node1&#45;&gt;Node6 -->
<g id="edge5_Node000001_Node000006" class="edge">
<title>Node1&#45;&gt;Node6</title>
<g id="a_edge5_Node000001_Node000006"><a xlink:title=" ">
<path fill="none" stroke="#63b8ff" d="M261.28,-110.3C277.86,-89.5 308.42,-51.17 326.43,-28.58"/>
<polygon fill="#63b8ff" stroke="#63b8ff" points="329.07,-30.88 332.57,-20.88 323.6,-26.52 329.07,-30.88"/>
</a>
</g>
</g>
<!-- Node7 -->
<g id="Node000007" class="node">
<title>Node7</title>
<g id="a_Node000007"><a xlink:title=" ">
<polygon fill="#e0e0e0" stroke="#999999" points="380.88,-74.5 332.62,-74.5 332.62,-55.25 380.88,-55.25 380.88,-74.5"/>
<text xml:space="preserve" text-anchor="middle" x="356.75" y="-61" font-family="Helvetica,sans-Serif" font-size="10.00">random</text>
</a>
</g>
</g>
<!-- Node1&#45;&gt;Node7 -->
<g id="edge6_Node000001_Node000007" class="edge">
<title>Node1&#45;&gt;Node7</title>
<g id="a_edge6_Node000001_Node000007"><a xlink:title=" ">
<path fill="none" stroke="#63b8ff" d="M276.47,-110.05C292.93,-100.99 313.93,-89.44 330.33,-80.41"/>
<polygon fill="#63b8ff" stroke="#63b8ff" points="331.94,-83.52 339.01,-75.63 328.57,-77.39 331.94,-83.52"/>
</a>
</g>
</g>
<!-- Node8 -->
<g id="Node000008" class="node">
<title>Node8</title>
<g id="a_Node000008"><a xlink:href="saxpy__googlebench_2init__saxpy_8hpp.html" target="_top" xlink:title=" ">
<polygon fill="white" stroke="#666666" points="476.5,-74.5 399,-74.5 399,-55.25 476.5,-55.25 476.5,-74.5"/>
<text xml:space="preserve" text-anchor="middle" x="437.75" y="-61" font-family="Helvetica,sans-Serif" font-size="10.00">init_saxpy.hpp</text>
</a>
</g>
</g>
<!-- Node1&#45;&gt;Node8 -->
<g id="edge7_Node000001_Node000008" class="edge">
<title>Node1&#45;&gt;Node8</title>
<g id="a_edge7_Node000001_Node000008"><a xlink:title=" ">
<path fill="none" stroke="#63b8ff" d="M296.71,-110.05C327.85,-100.29 368.29,-87.63 397.88,-78.36"/>
<polygon fill="#63b8ff" stroke="#63b8ff" points="398.7,-81.77 407.2,-75.44 396.61,-75.09 398.7,-81.77"/>
</a>
</g>
</g>
<!-- Node8&#45;&gt;Node6 -->
<g id="edge9_Node000008_Node000006" class="edge">
<title>Node8&#45;&gt;Node6</title>
<g id="a_edge9_Node000008_Node000006"><a xlink:title=" ">
<path fill="none" stroke="#63b8ff" d="M421.3,-54.84C406.52,-46.73 384.57,-34.68 367.32,-25.21"/>
<polygon fill="#63b8ff" stroke="#63b8ff" points="369.06,-22.18 358.61,-20.43 365.69,-28.31 369.06,-22.18"/>
</a>
</g>
</g>
<!-- Node9 -->
<g id="Node000009" class="node">
<title>Node9</title>
<g id="a_Node000009"><a xlink:title=" ">
<polygon fill="#e0e0e0" stroke="#999999" points="459.25,-19.25 416.25,-19.25 416.25,0 459.25,0 459.25,-19.25"/>
<text xml:space="preserve" text-anchor="middle" x="437.75" y="-5.75" font-family="Helvetica,sans-Serif" font-size="10.00">vector</text>
</a>
</g>
</g>
<!-- Node8&#45;&gt;Node9 -->
<g id="edge8_Node000008_Node000009" class="edge">
<title>Node8&#45;&gt;Node9</title>
<g id="a_edge8_Node000008_Node000009"><a xlink:title=" ">
<path fill="none" stroke="#63b8ff" d="M437.75,-55.08C437.75,-48.57 437.75,-39.42 437.75,-31.12"/>
<polygon fill="#63b8ff" stroke="#63b8ff" points="441.25,-31.12 437.75,-21.12 434.25,-31.12 441.25,-31.12"/>
</a>
</g>
</g>
</g>
</svg>
</svg>

<style type='text/css'>
<![CDATA[
[data-mouse-over-selected='false'] { opacity: 0.7; }
[data-mouse-over-selected='true']  { opacity: 1.0; }
]]>
</style>
<script type="application/ecmascript"><![CDATA[
document.addEventListener('DOMContentLoaded', (event) => {
  highlightEdges();
  highlightAdjacentNodes();
});
]]></script>
</svg>
