<?xml version="1.0" encoding="UTF-8" standalone="no"?>
<!DOCTYPE svg PUBLIC "-//W3C//DTD SVG 1.1//EN"
 "http://www.w3.org/Graphics/SVG/1.1/DTD/svg11.dtd">
<!-- Generated by graphviz version 13.1.2 (20250808.2320)
 -->
<!-- Title: is_lvalue&lt; T &amp;&amp; &gt; Pages: 1 -->
<svg width="103pt" height="83pt"
 viewBox="0.00 0.00 103.00 83.00" xmlns="http://www.w3.org/2000/svg" xmlns:xlink="http://www.w3.org/1999/xlink">
<g id="graph0" class="graph" transform="scale(1 1) rotate(0) translate(4 78.5)">
<title>is_lvalue&lt; T &amp;&amp; &gt;</title>
<!-- Node1 -->
<g id="Node000001" class="node">
<title>Node1</title>
<g id="a_Node000001"><a xlink:title=" ">
<polygon fill="#999999" stroke="#666666" points="94.75,-19.25 0,-19.25 0,0 94.75,0 94.75,-19.25"/>
<text xml:space="preserve" text-anchor="middle" x="47.38" y="-5.75" font-family="Helvetica,sans-Serif" font-size="10.00">is_lvalue&lt; T &amp;&amp; &gt;</text>
</a>
</g>
</g>
<!-- Node2 -->
<g id="Node000002" class="node">
<title>Node2</title>
<g id="a_Node000002"><a xlink:title=" ">
<polygon fill="white" stroke="#666666" points="87.62,-74.5 7.12,-74.5 7.12,-55.25 87.62,-55.25 87.62,-74.5"/>
<text xml:space="preserve" text-anchor="middle" x="47.38" y="-61" font-family="Helvetica,sans-Serif" font-size="10.00">std::false_type</text>
</a>
</g>
</g>
<!-- Node2&#45;&gt;Node1 -->
<g id="edge1_Node000001_Node000002" class="edge">
<title>Node2&#45;&gt;Node1</title>
<g id="a_edge1_Node000001_Node000002"><a xlink:title=" ">
<path fill="none" stroke="#63b8ff" d="M40.82,-43.92C40.33,-35.55 40.78,-26.25 42.17,-19.61"/>
<polygon fill="#63b8ff" stroke="#63b8ff" points="37.31,-44.09 42.02,-53.58 44.26,-43.22 37.31,-44.09"/>
</a>
</g>
</g>
<!-- Node2&#45;&gt;Node1 -->
<g id="edge2_Node000001_Node000002" class="edge">
<title>Node2&#45;&gt;Node1</title>
<g id="a_edge2_Node000001_Node000002"><a xlink:title=" ">
<path fill="none" stroke="#63b8ff" d="M53.93,-43.92C54.42,-35.55 53.97,-26.25 52.58,-19.61"/>
<polygon fill="#63b8ff" stroke="#63b8ff" points="50.49,-43.22 52.73,-53.58 57.44,-44.09 50.49,-43.22"/>
</a>
</g>
</g>
</g>
</svg>
