<?xml version="1.0" encoding="UTF-8" standalone="no"?>
<!DOCTYPE svg PUBLIC "-//W3C//DTD SVG 1.1//EN"
 "http://www.w3.org/Graphics/SVG/1.1/DTD/svg11.dtd">
<!-- Generated by graphviz version 13.1.2 (20250808.2320)
 -->
<!-- Title: is_prvalue&lt; T &amp;&amp; &gt; Pages: 1 -->
<svg width="182pt" height="83pt"
 viewBox="0.00 0.00 182.00 83.00" xmlns="http://www.w3.org/2000/svg" xmlns:xlink="http://www.w3.org/1999/xlink">
<g id="graph0" class="graph" transform="scale(1 1) rotate(0) translate(4 78.5)">
<title>is_prvalue&lt; T &amp;&amp; &gt;</title>
<!-- Node1 -->
<g id="Node000001" class="node">
<title>Node1</title>
<g id="a_Node000001"><a xlink:title=" ">
<polygon fill="#999999" stroke="#666666" points="136.38,-19.25 35.62,-19.25 35.62,0 136.38,0 136.38,-19.25"/>
<text xml:space="preserve" text-anchor="middle" x="86" y="-5.75" font-family="Helvetica,sans-Serif" font-size="10.00">is_prvalue&lt; T &amp;&amp; &gt;</text>
</a>
</g>
</g>
<!-- Node2 -->
<g id="Node000002" class="node">
<title>Node2</title>
<g id="a_Node000002"><a xlink:title=" ">
<polygon fill="white" stroke="#666666" points="76,-74.5 0,-74.5 0,-55.25 76,-55.25 76,-74.5"/>
<text xml:space="preserve" text-anchor="middle" x="38" y="-61" font-family="Helvetica,sans-Serif" font-size="10.00">std::true_type</text>
</a>
</g>
</g>
<!-- Node2&#45;&gt;Node1 -->
<g id="edge1_Node000001_Node000002" class="edge">
<title>Node2&#45;&gt;Node1</title>
<g id="a_edge1_Node000001_Node000002"><a xlink:title=" ">
<path fill="none" stroke="#63b8ff" d="M53.4,-46.79C61.55,-37.75 71.22,-27.02 77.9,-19.61"/>
<polygon fill="#63b8ff" stroke="#63b8ff" points="51.04,-44.19 46.94,-53.96 56.23,-48.87 51.04,-44.19"/>
</a>
</g>
</g>
<!-- Node3 -->
<g id="Node000003" class="node">
<title>Node3</title>
<g id="a_Node000003"><a xlink:title=" ">
<polygon fill="white" stroke="#666666" points="174.25,-74.5 93.75,-74.5 93.75,-55.25 174.25,-55.25 174.25,-74.5"/>
<text xml:space="preserve" text-anchor="middle" x="134" y="-61" font-family="Helvetica,sans-Serif" font-size="10.00">std::false_type</text>
</a>
</g>
</g>
<!-- Node3&#45;&gt;Node1 -->
<g id="edge2_Node000001_Node000003" class="edge">
<title>Node3&#45;&gt;Node1</title>
<g id="a_edge2_Node000001_Node000003"><a xlink:title=" ">
<path fill="none" stroke="#63b8ff" d="M118.6,-46.79C110.45,-37.75 100.78,-27.02 94.1,-19.61"/>
<polygon fill="#63b8ff" stroke="#63b8ff" points="115.77,-48.87 125.06,-53.96 120.96,-44.19 115.77,-48.87"/>
</a>
</g>
</g>
</g>
</svg>
